<?xml version="1.0" encoding="UTF-8" standalone="no"?>
<!-- Created with Inkscape (http://www.inkscape.org/) -->

<svg
   xmlns:dc="http://purl.org/dc/elements/1.1/"
   xmlns:cc="http://creativecommons.org/ns#"
   xmlns:rdf="http://www.w3.org/1999/02/22-rdf-syntax-ns#"
   xmlns:svg="http://www.w3.org/2000/svg"
   xmlns="http://www.w3.org/2000/svg"
   xmlns:sodipodi="http://sodipodi.sourceforge.net/DTD/sodipodi-0.dtd"
   xmlns:inkscape="http://www.inkscape.org/namespaces/inkscape"
   width="325.57837mm"
   height="164.77995mm"
   viewBox="0 0 1153.6241 583.86597"
   id="svg3697"
   version="1.1"
   inkscape:version="0.91 r13725"
   sodipodi:docname="PandT_BandpassSiganl_2.svg">
  <defs
     id="defs3699">
    <clipPath
       id="ID000000">
      <rect
         x="177.58"
         y="48.900002"
         width="1058.65"
         height="531.38"
         id="rect11" />
    </clipPath>
  </defs>
  <sodipodi:namedview
     id="base"
     pagecolor="#ffffff"
     bordercolor="#666666"
     borderopacity="1.0"
     inkscape:pageopacity="0.0"
     inkscape:pageshadow="2"
     inkscape:zoom="0.7"
     inkscape:cx="852.15025"
     inkscape:cy="241.31002"
     inkscape:document-units="px"
     inkscape:current-layer="layer1"
     showgrid="false"
     fit-margin-top="0"
     fit-margin-left="0"
     fit-margin-right="0"
     fit-margin-bottom="0"
     inkscape:window-width="1366"
     inkscape:window-height="706"
     inkscape:window-x="-8"
     inkscape:window-y="-8"
     inkscape:window-maximized="1" />
  <metadata
     id="metadata3702">
    <rdf:RDF>
      <cc:Work
         rdf:about="">
        <dc:format>image/svg+xml</dc:format>
        <dc:type
           rdf:resource="http://purl.org/dc/dcmitype/StillImage" />
        <dc:title></dc:title>
      </cc:Work>
    </rdf:RDF>
  </metadata>
  <g
     inkscape:label="Capa 1"
     inkscape:groupmode="layer"
     id="layer1"
     transform="translate(248.24063,-191.85779)">
    <g
       transform="translate(-338.74202,147.14529)"
       id="g8">
      <clipPath
         id="clipPath3586">
        <rect
           x="177.58"
           y="48.900002"
           width="1058.65"
           height="531.38"
           id="rect3588" />
      </clipPath>
      <polyline
         style="fill:#ffffff;fill-opacity:1;stroke:none;stroke-width:0.5pt;stroke-dasharray:none;stroke-opacity:1"
         points="177.580,580.280 1236.230,580.280 1236.230,48.900 177.580,48.900 "
         id="polyline13" />
      <polyline
         style="fill:#ffffff;fill-opacity:1;stroke:none;stroke-width:0.5pt;stroke-dasharray:none;stroke-opacity:1"
         points="177.580,580.280 1236.230,580.280 1236.230,580.280 177.580,580.280 "
         id="polyline15" />
      <polyline
         style="fill:#ffffff;fill-opacity:1;stroke:none;stroke-width:0.5pt;stroke-dasharray:none;stroke-opacity:1"
         points="177.580,580.280 177.580,580.280 177.580,48.900 177.580,48.900 "
         id="polyline17" />
      <g
         id="g19">
        <g
           clip-path="url(#ID000000)"
           id="g21">
          <polyline
             points="178.336,420.926 179.092,421.104 179.849,421.461 180.605,422.056 181.361,422.949 182.117,424.199 182.873,425.747 183.629,427.542 184.386,429.528 185.142,431.646 185.898,433.835 186.654,436.030 187.410,438.226 188.167,440.400 188.923,442.534 189.679,444.614 190.435,444.725 191.191,442.868 191.947,439.048 192.704,433.273 193.460,425.556 194.216,415.907 194.972,408.150 195.728,401.999 196.484,397.638 197.241,395.198 197.997,394.737 198.753,396.370 199.509,398.113 200.265,400.582 201.022,403.553 201.778,406.807 202.534,410.202 203.290,413.246 204.046,415.825 204.802,417.710 205.559,418.757 206.315,419.057 207.071,418.518 207.827,417.392 208.583,415.803 209.340,413.646 210.096,411.454 210.852,409.281 211.608,407.773 212.364,407.244 213.120,408.242 213.877,410.611 214.633,413.727 215.389,417.549 216.145,421.253 216.901,424.785 217.657,427.309 218.414,428.813 219.170,429.562 219.926,429.481 220.682,429.088 221.438,428.243 222.195,427.416 222.951,426.896 223.707,426.523 224.463,426.361 225.219,426.189 225.975,425.789 226.732,424.916 227.488,423.434 228.244,421.591 229.000,419.303 229.756,416.735 230.513,414.200 231.269,412.130 232.025,410.454 232.781,409.384 233.537,409.388 234.293,410.690 235.050,413.869 235.806,419.076 236.562,427.252 237.318,438.438 238.074,452.059 238.830,467.541 239.587,484.329 240.343,501.671 241.099,517.981 241.855,531.598 242.611,541.412 243.368,546.074 244.124,543.133 244.880,530.323 245.636,505.411 246.392,467.565 247.148,417.338 247.905,356.925 248.661,291.366 249.417,228.398 250.173,178.162 250.929,149.705 251.686,148.069 252.442,174.224 253.198,224.519 253.954,290.250 254.710,359.623 255.466,421.672 256.223,469.729 256.979,501.282 257.735,516.909 258.491,520.337 259.247,516.131 260.003,507.981 260.760,497.970 261.516,486.942 262.272,475.600 263.028,463.928 263.784,452.758 264.541,442.889 265.297,434.868 266.053,428.982 266.809,424.964 267.565,422.800 268.321,421.527 269.078,420.824 269.834,420.646 270.590,420.842 271.346,421.180 272.102,421.429 272.858,421.482 273.615,421.429 274.371,420.890 275.127,419.818 275.883,418.757 276.639,417.844 277.396,417.667 278.152,417.930 278.908,418.919 279.664,420.508 280.420,422.021 281.176,423.318 281.933,424.051 282.689,424.287 283.445,423.925 284.201,423.215 284.957,422.346 285.714,421.501 286.470,420.790 287.226,420.255 287.982,419.824 288.738,419.253 289.494,419.025 290.251,418.908 291.007,418.918 291.763,419.189 292.519,419.785 293.275,420.768 294.031,421.654 294.788,422.492 295.544,422.969 296.300,423.021 297.056,422.523 297.812,421.763 298.569,420.746 299.325,419.770 300.081,419.191 300.837,418.881 301.593,419.025 302.349,419.333 303.106,419.927 303.862,420.519 304.618,420.943 305.374,421.091 306.130,421.132 306.887,420.995 307.643,420.781 308.399,420.410 309.155,419.982 309.911,419.731 310.667,419.366 311.424,419.074 312.180,418.816 312.936,418.731 313.692,418.781 314.448,418.792 315.205,418.827 315.961,418.886 316.717,418.910 317.473,419.006 318.229,419.231 318.985,419.772 319.742,420.582 320.498,421.670 321.254,422.868 322.010,423.955 322.766,424.763 323.522,425.353 324.279,425.842 325.035,425.999 325.791,426.067 326.547,426.289 327.303,426.778 328.060,427.355 328.816,427.850 329.572,428.501 330.328,429.196 331.084,429.523 331.840,429.488 332.597,429.160 333.353,428.709 334.109,428.060 334.865,427.126 335.621,426.307 336.378,425.645 337.134,424.999 337.890,424.230 338.646,423.215 339.402,422.313 340.158,421.460 340.915,420.359 341.671,419.181 342.427,417.929 343.183,416.942 343.939,415.905 344.695,414.742 345.452,413.733 346.208,413.043 346.964,412.727 347.720,412.489 348.476,412.508 349.233,412.718 349.989,413.358 350.745,414.071 351.501,414.739 352.257,415.427 353.013,415.958 353.770,416.578 354.526,417.050 355.282,417.384 356.038,417.814 356.794,418.285 357.551,418.978 358.307,419.669 359.063,420.073 359.819,420.552 360.575,421.054 361.331,421.698 362.088,422.143 362.844,422.451 363.600,422.794 364.356,422.992 365.112,422.925 365.868,422.475 366.625,421.936 367.381,421.368 368.137,420.848 368.893,420.154 369.649,419.543 370.406,419.095 371.162,418.752 371.918,418.399 372.674,418.274 373.430,418.432 374.186,418.740 374.943,419.122 375.699,419.746 376.455,420.604 377.211,421.384 377.967,422.373 378.724,423.283 379.480,424.117 380.236,424.523 380.992,424.558 381.748,424.230 382.504,423.307 383.261,422.078 384.017,420.838 384.773,419.659 385.529,418.728 386.285,418.163 387.041,418.021 387.798,418.253 388.554,418.633 389.310,419.340 390.066,420.034 390.822,420.490 391.579,420.892 392.335,421.355 393.091,421.750 393.847,422.003 394.603,422.207 395.359,422.698 396.116,423.123 396.872,423.301 397.628,423.420 398.384,423.602 399.140,423.975 399.896,424.255 400.653,424.499 401.409,424.648 402.165,424.588 402.921,424.145 403.677,423.453 404.434,422.523 405.190,421.658 405.946,420.988 406.702,420.576 407.458,420.602 408.214,420.654 408.971,420.910 409.727,421.266 410.483,421.846 411.239,422.718 411.995,423.654 412.752,424.925 413.508,426.508 414.264,428.010 415.020,429.036 415.776,429.435 416.532,429.412 417.289,428.970 418.045,427.866 418.801,426.525 419.557,425.381 420.313,424.091 421.070,422.497 421.826,420.419 422.582,418.207 423.338,415.792 424.094,413.023 424.850,410.809 425.607,409.102 426.363,408.225 427.119,408.048 427.875,408.441 428.631,409.297 429.387,409.991 430.144,410.788 430.900,411.357 431.656,411.475 432.412,411.082 433.168,410.109 433.925,409.063 434.681,408.166 435.437,407.589 436.193,407.866 436.949,409.382 437.705,412.583 438.462,416.639 439.218,420.639 439.974,424.436 440.730,427.569 441.486,429.625 442.242,430.195 442.999,429.911 443.755,429.409 444.511,428.850 445.267,428.274 446.023,428.017 446.780,427.992 447.536,427.936 448.292,427.366 449.048,426.333 449.804,424.835 450.560,422.458 451.317,419.774 452.073,416.929 452.829,414.536 453.585,412.500 454.341,411.183 455.098,411.382 455.854,413.093 456.610,416.751 457.366,422.648 458.122,431.483 458.878,443.761 459.635,459.120 460.391,477.098 461.147,497.066 461.903,518.395 462.659,539.299 463.416,556.951 464.172,569.217 464.928,573.957 465.684,569.056 466.440,551.318 467.196,519.168 467.953,473.017 468.709,414.379 469.465,346.406 470.221,273.504 470.977,203.729 471.733,145.916 472.490,108.291 473.246,96.425 474.002,112.118 474.758,154.259 475.514,217.014 476.271,291.307 477.027,366.341 477.783,433.191 478.539,486.549 479.295,523.572 480.051,544.142 480.808,550.490 481.564,546.534 482.320,536.089 483.076,521.968 483.832,506.140 484.589,489.938 485.345,474.327 486.101,460.140 486.857,447.708 487.613,437.488 488.369,429.658 489.126,424.418 489.882,421.466 490.638,420.235 491.394,420.423 492.150,421.261 492.906,422.062 493.663,422.329 494.419,422.052 495.175,421.475 495.931,420.610 496.687,419.549 497.444,418.807 498.200,418.657 498.956,418.995 499.712,419.419 500.468,419.934 501.224,420.490 501.981,420.969 502.737,421.074 503.493,421.287 504.249,421.717 505.005,422.290 505.761,422.990 506.518,423.560 507.274,424.239 508.030,424.545 508.786,424.534 509.542,424.099 510.299,423.425 511.055,422.827 511.811,422.121 512.567,421.425 513.323,420.737 514.079,420.226 514.836,419.883 515.592,419.464 516.348,419.211 517.104,419.069 517.860,418.927 518.617,418.899 519.373,418.630 520.129,418.462 520.885,418.270 521.641,418.038 522.397,418.050 523.154,417.894 523.910,417.982 524.666,418.026 525.422,418.135 526.178,418.312 526.935,418.323 527.691,418.585 528.447,418.801 529.203,418.969 529.959,418.980 530.715,418.958 531.472,419.076 532.228,419.156 532.984,419.145 533.740,419.226 534.496,419.346 535.252,419.563 536.009,419.597 536.765,419.455 537.521,419.617 538.277,419.859 539.033,420.253 539.790,420.530 540.546,421.121 541.302,421.984 542.058,422.670 542.814,423.438 543.570,424.248 544.327,425.410 545.083,426.517 545.839,427.637 546.595,429.060 547.351,430.542 548.107,432.060 548.864,433.418 549.620,434.783 550.376,436.020 551.132,436.761 551.888,437.112 552.645,436.953 553.401,436.282 554.157,434.846 554.913,432.759 555.669,430.246 556.425,427.307 557.182,424.167 557.938,420.872 558.694,417.840 559.450,415.183 560.206,413.078 560.963,411.452 561.719,410.421 562.475,410.041 563.231,410.111 563.987,410.443 564.743,410.952 565.500,411.679 566.256,412.482 567.012,413.281 567.768,414.181 568.524,415.111 569.280,416.019 570.037,417.019 570.793,417.823 571.549,418.615 572.305,419.172 573.061,419.741 573.818,420.202 574.574,420.396 575.330,420.687 576.086,420.789 576.842,421.063 577.598,421.279 578.355,421.392 579.111,421.405 579.867,421.320 580.623,421.143 581.379,420.456 582.136,419.683 582.892,418.875 583.648,418.216 584.404,417.589 585.160,417.115 585.916,417.211 586.673,417.405 587.429,417.707 588.185,418.054 588.941,418.338 589.697,418.801 590.454,418.973 591.210,419.152 591.966,419.514 592.722,419.879 593.478,420.471 594.234,420.988 594.991,421.669 595.747,422.215 596.503,422.628 597.259,423.034 598.015,423.325 598.771,423.449 599.528,423.397 600.284,423.405 601.040,423.289 601.796,422.992 602.552,422.573 603.309,421.980 604.065,421.408 604.821,420.872 605.577,420.325 606.333,420.012 607.089,419.637 607.846,419.604 608.602,419.608 609.358,419.578 610.114,419.803 610.870,419.975 611.626,420.501 612.383,421.146 613.139,421.910 613.895,422.790 614.651,423.370 615.407,423.707 616.164,423.687 616.920,423.198 617.676,422.482 618.432,421.547 619.188,420.742 619.944,420.196 620.701,419.846 621.457,419.859 622.213,419.995 622.969,420.372 623.725,420.768 624.482,421.202 625.238,421.635 625.994,422.034 626.750,422.530 627.506,422.958 628.262,423.438 629.019,423.774 629.775,423.955 630.531,424.147 631.287,424.405 632.043,424.730 632.799,425.241 633.556,426.075 634.312,427.350 635.068,428.708 635.824,429.962 636.580,430.863 637.337,431.211 638.093,430.916 638.849,429.846 639.605,428.158 640.361,426.010 641.117,423.921 641.874,421.883 642.630,419.910 643.386,418.137 644.142,416.591 644.898,415.174 645.655,413.545 646.411,412.063 647.167,410.936 647.923,410.056 648.679,409.537 649.435,409.449 650.192,410.104 650.948,410.938 651.704,411.995 652.460,413.334 653.216,414.620 653.972,415.759 654.729,416.120 655.485,415.846 656.241,414.539 656.997,412.574 657.753,410.314 658.510,408.117 659.266,406.757 660.022,406.657 660.778,408.072 661.534,410.428 662.290,413.399 663.047,416.650 663.803,419.790 664.559,422.551 665.315,424.879 666.071,426.602 666.828,427.816 667.584,428.554 668.340,428.887 669.096,428.634 669.852,427.689 670.608,426.545 671.365,425.302 672.121,423.835 672.877,422.065 673.633,420.265 674.389,418.585 675.145,416.949 675.902,415.656 676.658,415.054 677.414,415.847 678.170,418.469 678.926,423.438 679.683,431.163 680.439,441.828 681.195,455.690 681.951,471.853 682.707,489.388 683.463,507.431 684.220,525.157 684.976,540.888 685.732,552.233 686.488,557.298 687.244,554.263 688.001,540.574 688.757,513.000 689.513,469.937 690.269,412.436 691.025,343.589 691.781,268.803 692.538,197.323 693.294,141.751 694.050,112.575 694.806,115.149 695.562,149.528 696.318,210.559 697.075,287.621 697.831,365.885 698.587,433.114 699.343,482.606 700.099,512.990 700.856,526.624 701.612,527.753 702.368,521.826 703.124,513.090 703.880,503.187 704.636,492.457 705.393,480.565 706.149,467.928 706.905,455.478 707.661,443.854 708.417,434.296 709.174,427.298 709.930,422.833 710.686,420.488 711.442,419.656 712.198,419.873 712.954,420.475 713.711,421.003 714.467,421.532 715.223,422.049 715.979,422.482 716.735,422.934 717.491,423.414 718.248,423.685 719.004,423.866 719.760,423.827 720.516,423.733 721.272,423.643 722.029,423.495 722.785,423.576 723.541,423.586 724.297,423.523 725.053,423.213 725.809,422.595 726.566,421.857 727.322,420.951 728.078,419.709 728.834,418.552 729.590,417.726 730.347,417.104 731.103,416.626 731.859,416.288 732.615,416.558 733.371,417.017 734.127,417.663 734.884,418.687 735.640,419.916 736.396,421.287 737.152,422.556 737.908,423.718 738.665,424.589 739.421,425.152 740.177,425.320 740.933,425.209 741.689,424.761 742.445,424.263 743.202,423.652 743.958,422.875 744.714,422.187 745.470,421.591 746.226,421.039 746.982,420.259 747.739,419.316 748.495,418.449 749.251,417.598 750.007,416.644 750.763,415.814 751.520,415.329 752.276,415.366 753.032,415.510 753.788,415.936 754.544,416.766 755.300,417.833 756.057,418.849 756.813,419.884 757.569,421.017 758.325,422.034 759.081,422.776 759.838,423.545 760.594,424.477 761.350,425.403 762.106,426.375 762.862,427.446 763.618,428.781 764.375,429.857 765.131,430.839 765.887,431.663 766.643,432.457 767.399,432.984 768.155,433.186 768.912,433.287 769.668,432.929 770.424,431.983 771.180,430.250 771.936,428.134 772.693,425.564 773.449,422.711 774.205,419.984 774.961,417.615 775.717,415.901 776.473,414.532 777.230,413.628 777.986,413.120 778.742,412.772 779.498,412.571 780.254,412.329 781.010,412.349 781.767,412.554 782.523,412.869 783.279,413.386 784.035,414.091 784.791,415.087 785.548,415.999 786.304,416.884 787.060,417.742 787.816,418.589 788.572,419.429 789.328,419.916 790.085,420.357 790.841,420.637 791.597,420.827 792.353,420.870 793.109,420.432 793.866,419.999 794.622,419.342 795.378,418.707 796.134,418.039 796.890,417.346 797.646,417.032 798.403,416.809 799.159,416.977 799.915,417.250 800.671,417.764 801.427,418.466 802.184,419.244 802.940,420.100 803.696,420.796 804.452,421.447 805.208,421.676 805.964,421.779 806.721,421.742 807.477,421.680 808.233,421.770 808.989,422.010 809.745,422.532 810.501,422.980 811.258,423.377 812.014,423.613 812.770,423.403 813.526,422.872 814.282,422.148 815.039,421.420 815.795,420.801 816.551,420.237 817.307,420.069 818.063,419.949 818.819,420.165 819.576,420.598 820.332,421.012 821.088,421.586 821.844,422.152 822.600,422.934 823.356,423.453 824.113,423.811 824.869,424.106 825.625,424.318 826.381,424.204 827.137,423.822 827.894,423.296 828.650,422.630 829.406,421.907 830.162,420.903 830.918,420.038 831.674,419.205 832.431,418.641 833.187,418.178 833.943,417.755 834.699,417.737 835.455,417.945 836.212,418.501 836.968,419.301 837.724,420.473 838.480,421.718 839.236,422.977 839.992,424.196 840.749,425.370 841.505,426.193 842.261,426.650 843.017,427.276 843.773,427.711 844.529,428.191 845.286,428.482 846.042,428.822 846.798,429.101 847.554,429.141 848.310,429.001 849.067,428.316 849.823,427.377 850.579,426.222 851.335,424.896 852.091,423.206 852.847,421.621 853.604,420.252 854.360,419.026 855.116,417.842 855.872,416.763 856.628,415.986 857.385,415.156 858.141,414.331 858.897,413.558 859.653,412.927 860.409,412.567 861.165,412.519 861.922,412.724 862.678,413.312 863.434,414.030 864.190,414.801 864.946,415.298 865.703,415.384 866.459,415.285 867.215,414.681 867.971,413.543 868.727,411.659 869.483,409.508 870.240,407.272 870.996,405.246 871.752,403.733 872.508,403.458 873.264,405.035 874.020,408.187 874.777,412.582 875.533,417.408 876.289,422.442 877.045,426.783 877.801,430.005 878.558,431.925 879.314,432.700 880.070,432.658 880.826,431.990 881.582,430.957 882.338,429.578 883.095,428.062 883.851,426.276 884.607,424.108 885.363,421.462 886.119,418.617 886.876,415.572 887.632,412.456 888.388,409.432 889.144,407.065 889.900,405.460 890.656,404.711 891.413,405.391 892.169,407.943 892.925,413.087 893.681,421.289 894.437,432.968 895.193,448.003 895.950,465.696 896.706,485.394 897.462,506.223 898.218,526.310 898.974,543.980 899.731,557.641 900.487,565.820 901.243,566.484 901.999,557.447 902.755,537.550 903.511,505.341 904.268,460.105 905.024,402.744 905.780,336.150 906.536,265.578 907.292,199.174 908.048,147.748 908.805,121.003 909.561,124.114 910.317,157.148 911.073,215.598 911.829,289.252 912.586,364.781 913.342,430.154 914.098,478.552 914.854,508.713 915.610,522.336 916.366,523.801 917.123,518.099 917.879,509.365 918.635,499.663 919.391,489.191 920.147,477.938 920.904,466.312 921.660,454.769 922.416,444.171 923.172,435.352 923.928,428.829 924.684,424.652 925.441,422.206 926.197,421.379 926.953,421.628 927.709,422.180 928.465,422.648 929.221,422.995 929.978,423.255 930.734,423.058 931.490,422.445 932.246,421.798 933.002,421.237 933.759,420.574 934.515,420.100 935.271,419.990 936.027,420.185 936.783,420.626 937.539,421.191 938.296,421.888 939.052,422.431 939.808,422.752 940.564,422.787 941.320,422.475 942.077,421.993 942.833,421.388 943.589,420.707 944.345,420.012 945.101,419.650 945.857,419.617 946.614,419.680 947.370,419.796 948.126,419.914 948.882,420.161 949.638,420.309 950.394,420.364 951.151,420.386 951.907,420.536 952.663,420.678 953.419,420.801 954.175,420.903 954.932,420.977 955.688,420.956 956.444,420.787 957.200,420.838 957.956,420.938 958.712,421.089 959.469,421.054 960.225,421.073 960.981,421.030 961.737,420.870 962.493,420.591 963.250,420.132 964.006,419.977 964.762,420.063 965.518,420.154 966.274,420.180 967.030,420.255 967.787,420.495 968.543,420.597 969.299,420.515 970.055,420.676 970.811,420.860 971.568,421.204 972.324,421.491 973.080,421.857 973.836,422.132 974.592,422.383 975.348,422.781 976.105,422.979 976.861,423.390 977.617,423.944 978.373,424.864 979.129,425.973 979.885,427.215 980.642,428.636 981.398,429.868 982.154,430.863 982.910,431.376 983.666,431.215 984.423,430.422 985.179,429.104 985.935,427.366 986.691,425.252 987.447,423.113 988.203,421.058 988.960,419.152 989.716,417.639 990.472,416.414 991.228,415.312 991.984,414.279 992.741,413.561 993.497,413.091 994.253,412.558 995.009,412.235 995.765,412.445 996.521,413.048 997.278,413.849 998.034,414.836 998.790,416.061 999.546,417.292 1000.302,418.469 1001.058,419.418 1001.815,420.089 1002.571,420.547 1003.327,420.617 1004.083,420.539 1004.839,420.152 1005.596,419.757 1006.352,419.462 1007.108,419.274 1007.864,419.320 1008.620,419.371 1009.376,419.438 1010.133,419.418 1010.889,419.276 1011.645,419.021 1012.401,418.903 1013.157,418.925 1013.914,419.023 1014.670,419.307 1015.426,419.586 1016.182,419.794 1016.938,419.798 1017.694,419.772 1018.451,420.014 1019.207,420.229 1019.963,420.726 1020.719,421.447 1021.475,422.165 1022.231,422.643 1022.988,422.706 1023.744,422.597 1024.500,422.150 1025.256,421.491 1026.012,420.862 1026.769,420.394 1027.525,420.143 1028.281,420.039 1029.037,420.244 1029.793,420.569 1030.549,421.012 1031.306,421.558 1032.062,422.039 1032.818,422.464 1033.574,422.718 1034.330,422.929 1035.087,422.980 1035.843,422.702 1036.599,422.202 1037.355,421.597 1038.111,420.875 1038.867,419.914 1039.624,418.999 1040.380,418.366 1041.136,418.084 1041.892,418.152 1042.648,418.595 1043.404,419.543 1044.161,420.541 1044.917,421.595 1045.673,422.525 1046.429,423.041 1047.185,423.076 1047.942,422.796 1048.698,422.480 1049.454,422.017 1050.210,421.947 1050.966,422.211 1051.722,422.995 1052.479,423.966 1053.235,425.027 1053.991,426.298 1054.747,427.010 1055.503,427.529 1056.259,427.558 1057.016,427.444 1057.772,427.294 1058.528,426.988 1059.284,426.872 1060.040,426.820 1060.797,427.060 1061.553,427.051 1062.309,426.676 1063.065,426.104 1063.821,425.333 1064.577,424.226 1065.334,422.776 1066.090,421.632 1066.846,420.881 1067.602,420.209 1068.358,419.475 1069.115,418.978 1069.871,418.545 1070.627,417.698 1071.383,416.512 1072.139,415.168 1072.895,414.032 1073.652,412.949 1074.408,412.052 1075.164,411.593 1075.920,411.473 1076.676,411.845 1077.432,412.222 1078.189,412.504 1078.945,412.956 1079.701,413.550 1080.457,414.200 1081.213,414.340 1081.970,414.220 1082.726,413.893 1083.482,413.126 1084.238,412.087 1084.994,410.890 1085.750,410.414 1086.507,410.842 1087.263,412.368 1088.019,414.829 1088.775,417.667 1089.531,420.665 1090.288,423.305 1091.044,425.490 1091.800,426.826 1092.556,427.202 1093.312,427.082 1094.068,426.696 1094.825,426.169 1095.581,425.311 1096.337,424.586 1097.093,424.287 1097.849,424.307 1098.606,424.473 1099.362,424.720 1100.118,425.030 1100.874,425.008 1101.630,424.477 1102.386,423.495 1103.143,422.058 1103.899,420.146 1104.655,418.170 1105.411,416.277 1106.167,414.919 1106.923,414.235 1107.680,414.960 1108.436,417.617 1109.192,422.372 1109.948,429.754 1110.704,439.889 1111.461,452.621 1112.217,467.340 1112.973,483.231 1113.729,499.804 1114.485,515.935 1115.241,529.596 1115.998,539.061 1116.754,542.275 1117.510,537.283 1118.266,520.740 1119.022,489.947 1119.779,444.691 1120.535,386.693 1121.291,320.070 1122.047,251.937 1122.803,193.155 1123.559,154.554 1124.316,143.279 1125.072,161.643 1125.828,206.949 1126.584,271.159 1127.340,341.753 1128.096,406.976 1128.853,458.657 1129.609,493.320 1130.365,511.678 1131.121,516.952 1131.877,514.472 1132.634,508.143 1133.390,500.274 1134.146,491.634 1134.902,482.154 1135.658,471.989 1136.414,461.159 1137.171,450.347 1137.927,440.516 1138.683,432.547 1139.439,426.575 1140.195,422.480 1140.952,419.840 1141.708,418.362 1142.464,417.674 1143.220,417.224 1143.976,416.809 1144.732,416.486 1145.489,416.685 1146.245,417.156 1147.001,417.805 1147.757,418.525 1148.513,419.434 1149.269,420.344 1150.026,420.894 1150.782,421.322 1151.538,421.632 1152.294,422.008 1153.050,422.327 1153.807,422.645 1154.563,422.840 1155.319,422.842 1156.075,422.927 1156.831,422.849 1157.587,422.739 1158.344,422.552 1159.100,422.541 1159.856,422.777 1160.612,422.700 "
             id="polyline23"
             transform="translate(24,0)"
             style="fill:none;stroke:#0000ff;stroke-width:0.5pt;stroke-dasharray:none" />
          <g
             id="g25" />
        </g>
        <g
           transform="translate(706.405,41.995)"
           id="g27">
          <g
             id="g29" />
        </g>
      </g>
      <g
         id="g33">
        <polyline
           style="fill:none;stroke:#000000;stroke-width:0.5pt;stroke-dasharray:none"
           points="328.816,580.280 328.816,569.693 "
           id="polyline35" />
        <polyline
           style="fill:none;stroke:#000000;stroke-width:0.5pt;stroke-dasharray:none"
           points="480.051,580.280 480.051,569.693 "
           id="polyline37" />
        <polyline
           style="fill:none;stroke:#000000;stroke-width:0.5pt;stroke-dasharray:none"
           points="631.287,580.280 631.287,569.693 "
           id="polyline39" />
        <polyline
           style="fill:none;stroke:#000000;stroke-width:0.5pt;stroke-dasharray:none"
           points="782.523,580.280 782.523,569.693 "
           id="polyline41" />
        <polyline
           style="fill:none;stroke:#000000;stroke-width:0.5pt;stroke-dasharray:none"
           points="933.759,580.280 933.759,569.693 "
           id="polyline43" />
        <polyline
           style="fill:none;stroke:#000000;stroke-width:0.5pt;stroke-dasharray:none"
           points="1084.994,580.280 1084.994,569.693 "
           id="polyline45" />
        <polyline
           style="fill:none;stroke:#000000;stroke-width:0.5pt;stroke-dasharray:none"
           points="177.580,580.280 1236.230,580.280 "
           id="polyline47" />
        <polyline
           style="fill:none;stroke:#000000;stroke-width:0.5pt;stroke-dasharray:none"
           points="328.816,48.900 328.816,59.487 "
           id="polyline49" />
        <polyline
           style="fill:none;stroke:#000000;stroke-width:0.5pt;stroke-dasharray:none"
           points="480.051,48.900 480.051,59.487 "
           id="polyline51" />
        <polyline
           style="fill:none;stroke:#000000;stroke-width:0.5pt;stroke-dasharray:none"
           points="631.287,48.900 631.287,59.487 "
           id="polyline53" />
        <polyline
           style="fill:none;stroke:#000000;stroke-width:0.5pt;stroke-dasharray:none"
           points="782.523,48.900 782.523,59.487 "
           id="polyline55" />
        <polyline
           style="fill:none;stroke:#000000;stroke-width:0.5pt;stroke-dasharray:none"
           points="933.759,48.900 933.759,59.487 "
           id="polyline57" />
        <polyline
           style="fill:none;stroke:#000000;stroke-width:0.5pt;stroke-dasharray:none"
           points="1084.994,48.900 1084.994,59.487 "
           id="polyline59" />
        <polyline
           style="fill:none;stroke:#000000;stroke-width:0.5pt;stroke-dasharray:none"
           points="177.580,48.900 1236.230,48.900 "
           id="polyline61" />
        <g
           transform="translate(177.58,598.908)"
           id="g63">
          <g
             id="g65">
            <text
               style="font-size:10px;font-family:Helvetica;text-anchor:middle;fill:#000000"
               x="0"
               y="0"
               font-size="8.0pt"
               id="text67">0</text>
          </g>
        </g>
        <g
           transform="translate(328.816,598.908)"
           id="g69">
          <g
             id="g71">
            <text
               x="0"
               y="0"
               font-size="8.0pt"
               id="text73"
               style="font-size:10px;font-family:Helvetica;text-anchor:middle;fill:#000000">0.55</text>
          </g>
        </g>
        <g
           transform="translate(480.051,598.908)"
           id="g75">
          <g
             id="g77">
            <text
               x="0"
               y="0"
               font-size="8.0pt"
               id="text79"
               style="font-size:10px;font-family:Helvetica;text-anchor:middle;fill:#000000">1.11</text>
          </g>
        </g>
        <g
           transform="translate(631.287,598.908)"
           id="g81">
          <g
             id="g83">
            <text
               x="0"
               y="0"
               font-size="8.0pt"
               id="text85"
               style="font-size:10px;font-family:Helvetica;text-anchor:middle;fill:#000000">1.66</text>
          </g>
        </g>
        <g
           transform="translate(782.523,598.908)"
           id="g87">
          <g
             id="g89">
            <text
               x="0"
               y="0"
               font-size="8.0pt"
               id="text91"
               style="font-size:10px;font-family:Helvetica;text-anchor:middle;fill:#000000">2.21</text>
          </g>
        </g>
        <g
           transform="translate(933.759,598.908)"
           id="g93">
          <g
             id="g95">
            <text
               style="font-size:10px;font-family:Helvetica;text-anchor:middle;fill:#000000"
               x="0"
               y="0"
               font-size="8.0pt"
               id="text97">1000</text>
          </g>
        </g>
        <g
           transform="translate(1084.994,598.908)"
           id="g99">
          <g
             id="g101">
            <text
               x="0"
               y="0"
               font-size="8.0pt"
               id="text103"
               style="font-size:10px;font-family:Helvetica;text-anchor:middle;fill:#000000">2.76</text>
          </g>
        </g>
        <g
           transform="translate(1236.23,598.908)"
           id="g105">
          <g
             id="g107">
            <text
               x="0"
               y="0"
               font-size="8.0pt"
               id="text109"
               style="font-size:10px;font-family:Helvetica;text-anchor:middle;fill:#000000">3.31</text>
          </g>
        </g>
        <polyline
           style="fill:none;stroke:#000000;stroke-width:0.5pt;stroke-dasharray:none"
           points="177.580,527.142 188.167,527.142 "
           id="polyline111" />
        <polyline
           style="fill:none;stroke:#000000;stroke-width:0.5pt;stroke-dasharray:none"
           points="177.580,474.004 188.167,474.004 "
           id="polyline113" />
        <polyline
           style="fill:none;stroke:#000000;stroke-width:0.5pt;stroke-dasharray:none"
           points="177.580,420.866 188.167,420.866 "
           id="polyline115" />
        <polyline
           style="fill:none;stroke:#000000;stroke-width:0.5pt;stroke-dasharray:none"
           points="177.580,367.728 188.167,367.728 "
           id="polyline117" />
        <polyline
           style="fill:none;stroke:#000000;stroke-width:0.5pt;stroke-dasharray:none"
           points="177.580,314.590 188.167,314.590 "
           id="polyline119" />
        <polyline
           style="fill:none;stroke:#000000;stroke-width:0.5pt;stroke-dasharray:none"
           points="177.580,261.452 188.167,261.452 "
           id="polyline121" />
        <polyline
           style="fill:none;stroke:#000000;stroke-width:0.5pt;stroke-dasharray:none"
           points="177.580,208.314 188.167,208.314 "
           id="polyline123" />
        <polyline
           style="fill:none;stroke:#000000;stroke-width:0.5pt;stroke-dasharray:none"
           points="177.580,155.176 188.167,155.176 "
           id="polyline125" />
        <polyline
           style="fill:none;stroke:#000000;stroke-width:0.5pt;stroke-dasharray:none"
           points="177.580,102.038 188.167,102.038 "
           id="polyline127" />
        <polyline
           style="fill:none;stroke:#000000;stroke-width:0.5pt;stroke-dasharray:none"
           points="177.580,580.280 177.580,48.900 "
           id="polyline129" />
        <polyline
           style="fill:none;stroke:#000000;stroke-width:0.5pt;stroke-dasharray:none"
           points="1236.230,527.142 1225.643,527.142 "
           id="polyline131" />
        <polyline
           style="fill:none;stroke:#000000;stroke-width:0.5pt;stroke-dasharray:none"
           points="1236.230,474.004 1225.643,474.004 "
           id="polyline133" />
        <polyline
           style="fill:none;stroke:#000000;stroke-width:0.5pt;stroke-dasharray:none"
           points="1236.230,420.866 1225.643,420.866 "
           id="polyline135" />
        <polyline
           style="fill:none;stroke:#000000;stroke-width:0.5pt;stroke-dasharray:none"
           points="1236.230,367.728 1225.643,367.728 "
           id="polyline137" />
        <polyline
           style="fill:none;stroke:#000000;stroke-width:0.5pt;stroke-dasharray:none"
           points="1236.230,314.590 1225.643,314.590 "
           id="polyline139" />
        <polyline
           style="fill:none;stroke:#000000;stroke-width:0.5pt;stroke-dasharray:none"
           points="1236.230,261.452 1225.643,261.452 "
           id="polyline141" />
        <polyline
           style="fill:none;stroke:#000000;stroke-width:0.5pt;stroke-dasharray:none"
           points="1236.230,208.314 1225.643,208.314 "
           id="polyline143" />
        <polyline
           style="fill:none;stroke:#000000;stroke-width:0.5pt;stroke-dasharray:none"
           points="1236.230,155.176 1225.643,155.176 "
           id="polyline145" />
        <polyline
           style="fill:none;stroke:#000000;stroke-width:0.5pt;stroke-dasharray:none"
           points="1236.230,102.038 1225.643,102.038 "
           id="polyline147" />
        <polyline
           style="fill:none;stroke:#000000;stroke-width:0.5pt;stroke-dasharray:none"
           points="1236.230,580.280 1236.230,48.900 "
           id="polyline149" />
        <g
           transform="translate(156.407,583.28)"
           id="g151">
          <g
             id="g153">
            <text
               style="font-size:10px;font-family:Helvetica;text-anchor:end;fill:#000000"
               x="0"
               y="0"
               font-size="8.0pt"
               id="text155">-150</text>
          </g>
        </g>
        <g
           transform="translate(156.407,530.142)"
           id="g157">
          <g
             id="g159">
            <text
               style="font-size:10px;font-family:Helvetica;text-anchor:end;fill:#000000"
               x="0"
               y="0"
               font-size="8.0pt"
               id="text161">-100</text>
          </g>
        </g>
        <g
           transform="translate(156.407,477.004)"
           id="g163">
          <g
             id="g165">
            <text
               style="font-size:10px;font-family:Helvetica;text-anchor:end;fill:#000000"
               x="0"
               y="0"
               font-size="8.0pt"
               id="text167">-50</text>
          </g>
        </g>
        <g
           transform="translate(156.407,423.866)"
           id="g169">
          <g
             id="g171">
            <text
               style="font-size:10px;font-family:Helvetica;text-anchor:end;fill:#000000"
               x="0"
               y="0"
               font-size="8.0pt"
               id="text173">0</text>
          </g>
        </g>
        <g
           transform="translate(156.407,370.728)"
           id="g175">
          <g
             id="g177">
            <text
               style="font-size:10px;font-family:Helvetica;text-anchor:end;fill:#000000"
               x="0"
               y="0"
               font-size="8.0pt"
               id="text179">50</text>
          </g>
        </g>
        <g
           transform="translate(156.407,317.59)"
           id="g181">
          <g
             id="g183">
            <text
               style="font-size:10px;font-family:Helvetica;text-anchor:end;fill:#000000"
               x="0"
               y="0"
               font-size="8.0pt"
               id="text185">100</text>
          </g>
        </g>
        <g
           transform="translate(156.407,264.452)"
           id="g187">
          <g
             id="g189">
            <text
               style="font-size:10px;font-family:Helvetica;text-anchor:end;fill:#000000"
               x="0"
               y="0"
               font-size="8.0pt"
               id="text191">150</text>
          </g>
        </g>
        <g
           transform="translate(156.407,211.314)"
           id="g193">
          <g
             id="g195">
            <text
               style="font-size:10px;font-family:Helvetica;text-anchor:end;fill:#000000"
               x="0"
               y="0"
               font-size="8.0pt"
               id="text197">200</text>
          </g>
        </g>
        <g
           transform="translate(156.407,158.176)"
           id="g199">
          <g
             id="g201">
            <text
               style="font-size:10px;font-family:Helvetica;text-anchor:end;fill:#000000"
               x="0"
               y="0"
               font-size="8.0pt"
               id="text203">250</text>
          </g>
        </g>
        <g
           transform="translate(156.407,105.038)"
           id="g205">
          <g
             id="g207">
            <text
               style="font-size:10px;font-family:Helvetica;text-anchor:end;fill:#000000"
               x="0"
               y="0"
               font-size="8.0pt"
               id="text209">300</text>
          </g>
        </g>
        <g
           transform="translate(156.407,51.9)"
           id="g211">
          <g
             id="g213">
            <text
               style="font-size:10px;font-family:Helvetica;text-anchor:end;fill:#000000"
               x="0"
               y="0"
               font-size="8.0pt"
               id="text215">350</text>
          </g>
        </g>
        <polyline
           style="fill:none;stroke:#000000;stroke-width:0.5pt;stroke-dasharray:none"
           points="177.580,580.280 177.580,574.966 "
           id="polyline217" />
        <polyline
           style="fill:none;stroke:#000000;stroke-width:0.5pt;stroke-dasharray:none"
           points="177.580,580.280 177.580,580.280 "
           id="polyline219" />
      </g>
    </g>
    <text
       xml:space="preserve"
       style="font-style:normal;font-weight:normal;font-size:15px;line-height:125%;font-family:sans-serif;letter-spacing:0px;word-spacing:0px;fill:#000000;fill-opacity:1;stroke:none;stroke-width:1px;stroke-linecap:butt;stroke-linejoin:miter;stroke-opacity:1"
       x="355.93668"
       y="772.85266"
       id="text3553"
       sodipodi:linespacing="125%"><tspan
         sodipodi:role="line"
         id="tspan3555"
         x="355.93668"
         y="772.85266">Time [s]</tspan></text>
    <text
       xml:space="preserve"
       style="font-style:normal;font-weight:normal;font-size:15px;line-height:125%;font-family:sans-serif;letter-spacing:0px;word-spacing:0px;fill:#000000;fill-opacity:1;stroke:none;stroke-width:1px;stroke-linecap:butt;stroke-linejoin:miter;stroke-opacity:1"
       x="-545.9162"
       y="-236.84415"
       id="text3553-3"
       sodipodi:linespacing="125%"
       transform="matrix(0,-1,1,0,0,0)"><tspan
         sodipodi:role="line"
         id="tspan3555-3"
         x="-545.9162"
         y="-236.84415">Amplitude []</tspan></text>
  </g>
</svg>
