<?xml version="1.0" encoding="UTF-8" standalone="no"?>
<!-- Created with Inkscape (http://www.inkscape.org/) -->

<svg
   xmlns:dc="http://purl.org/dc/elements/1.1/"
   xmlns:cc="http://creativecommons.org/ns#"
   xmlns:rdf="http://www.w3.org/1999/02/22-rdf-syntax-ns#"
   xmlns:svg="http://www.w3.org/2000/svg"
   xmlns="http://www.w3.org/2000/svg"
   xmlns:sodipodi="http://sodipodi.sourceforge.net/DTD/sodipodi-0.dtd"
   xmlns:inkscape="http://www.inkscape.org/namespaces/inkscape"
   width="325.19629mm"
   height="162.89474mm"
   viewBox="0 0 1152.2703 577.1861"
   id="svg3697"
   version="1.1"
   inkscape:version="0.91 r13725"
   sodipodi:docname="PandT_SquareSignal_2.svg">
  <defs
     id="defs3699">
    <clipPath
       id="ID000000">
      <rect
         x="177.58"
         y="48.900002"
         width="1058.65"
         height="531.38"
         id="rect11" />
    </clipPath>
  </defs>
  <sodipodi:namedview
     id="base"
     pagecolor="#ffffff"
     bordercolor="#666666"
     borderopacity="1.0"
     inkscape:pageopacity="0.0"
     inkscape:pageshadow="2"
     inkscape:zoom="0.35"
     inkscape:cx="831.13513"
     inkscape:cy="74.307351"
     inkscape:document-units="px"
     inkscape:current-layer="layer1"
     showgrid="false"
     fit-margin-top="0"
     fit-margin-left="0"
     fit-margin-right="0"
     fit-margin-bottom="0"
     inkscape:window-width="1366"
     inkscape:window-height="706"
     inkscape:window-x="-8"
     inkscape:window-y="-8"
     inkscape:window-maximized="1" />
  <metadata
     id="metadata3702">
    <rdf:RDF>
      <cc:Work
         rdf:about="">
        <dc:format>image/svg+xml</dc:format>
        <dc:type
           rdf:resource="http://purl.org/dc/dcmitype/StillImage" />
        <dc:title></dc:title>
      </cc:Work>
    </rdf:RDF>
  </metadata>
  <g
     inkscape:label="Capa 1"
     inkscape:groupmode="layer"
     id="layer1"
     transform="translate(456.13513,-29.483442)">
    <g
       transform="translate(-549.42591,-15.229058)"
       id="g8">
      <clipPath
         id="clipPath3586">
        <rect
           x="177.58"
           y="48.900002"
           width="1058.65"
           height="531.38"
           id="rect3588" />
      </clipPath>
      <polyline
         style="fill:#ffffff;fill-opacity:1;stroke:none;stroke-width:0.5pt;stroke-dasharray:none;stroke-opacity:1"
         points="177.580,580.280 1236.230,580.280 1236.230,48.900 177.580,48.900 "
         id="polyline13" />
      <polyline
         style="fill:#ffffff;fill-opacity:1;stroke:none;stroke-width:0.5pt;stroke-dasharray:none;stroke-opacity:1"
         points="177.580,48.900 1236.230,48.900 1236.230,48.900 177.580,48.900 "
         id="polyline15" />
      <polyline
         style="fill:#ffffff;fill-opacity:1;stroke:none;stroke-width:0.5pt;stroke-dasharray:none;stroke-opacity:1"
         points="177.580,580.280 177.580,580.280 177.580,48.900 177.580,48.900 "
         id="polyline17" />
      <g
         id="g19">
        <g
           clip-path="url(#ID000000)"
           id="g21">
          <polyline
             style="fill:none;stroke:#0000ff;stroke-width:0.5pt;stroke-dasharray:none"
             points="178.336,580.280 179.092,580.280 179.849,580.278 180.605,580.272 181.361,580.257 182.117,580.226 182.873,580.172 183.629,580.099 184.386,580.021 185.142,579.949 185.898,579.889 186.654,579.850 187.410,579.832 188.167,579.828 188.923,579.833 189.679,579.845 190.435,579.952 191.191,580.211 191.947,580.208 192.704,579.523 193.460,578.117 194.216,576.002 194.972,573.948 195.728,573.859 196.484,575.713 197.241,577.719 197.997,579.207 198.753,580.088 199.509,580.268 200.265,580.063 201.022,579.843 201.778,579.612 202.534,579.395 203.290,579.289 204.046,579.350 204.802,579.559 205.559,579.831 206.315,580.080 207.071,580.237 207.827,580.279 208.583,580.222 209.340,580.107 210.096,579.969 210.852,579.865 211.608,579.867 212.364,580.001 213.120,580.202 213.877,580.272 214.633,580.043 215.389,579.615 216.145,579.217 216.901,579.024 217.657,579.123 218.414,579.477 219.170,579.886 219.926,580.156 220.682,580.266 221.438,580.277 222.195,580.249 222.951,580.228 223.707,580.239 224.463,580.260 225.219,580.272 225.975,580.275 226.732,580.269 227.488,580.236 228.244,580.153 229.000,580.026 229.756,579.882 230.513,579.752 231.269,579.711 232.025,579.800 232.781,579.956 233.537,580.124 234.293,580.261 235.050,580.227 235.806,579.768 236.562,578.516 237.318,575.911 238.074,571.583 238.830,566.137 239.587,560.741 240.343,556.277 241.099,553.809 241.855,554.910 242.611,560.176 243.368,568.034 244.124,575.976 244.880,580.273 245.636,573.581 246.392,545.433 247.148,487.424 247.905,400.647 248.661,301.662 249.417,225.675 250.173,218.243 250.929,303.828 251.686,447.357 252.442,561.052 253.198,566.900 253.954,453.678 254.710,290.961 255.466,186.308 256.223,200.785 256.979,306.859 257.735,432.999 258.491,525.501 259.247,569.779 260.003,580.241 260.760,577.478 261.516,573.134 262.272,570.247 263.028,568.689 263.784,568.041 264.541,568.441 265.297,570.198 266.053,572.926 266.809,575.734 267.565,577.940 268.321,579.308 269.078,579.948 269.834,580.179 270.590,580.260 271.346,580.280 272.102,580.276 272.858,580.274 273.615,580.278 274.371,580.280 275.127,580.269 275.883,580.228 276.639,580.189 277.396,580.204 278.152,580.256 278.908,580.280 279.664,580.241 280.420,580.147 281.176,580.082 281.933,580.110 282.689,580.190 283.445,580.258 284.201,580.280 284.957,580.258 285.714,580.228 286.470,580.217 287.226,580.226 287.982,580.243 288.738,580.254 289.494,580.259 290.251,580.267 291.007,580.276 291.763,580.280 292.519,580.277 293.275,580.261 294.031,580.229 294.788,580.207 295.544,580.215 296.300,580.245 297.056,580.275 297.812,580.276 298.569,580.247 299.325,580.212 300.081,580.201 300.837,580.227 301.593,580.262 302.349,580.279 303.106,580.276 303.862,580.263 304.618,580.253 305.374,580.259 306.130,580.272 306.887,580.279 307.643,580.280 308.399,580.277 309.155,580.272 309.911,580.268 310.667,580.269 311.424,580.270 312.180,580.271 312.936,580.274 313.692,580.278 314.448,580.280 315.205,580.280 315.961,580.280 316.717,580.280 317.473,580.280 318.229,580.279 318.985,580.277 319.742,580.265 320.498,580.238 321.254,580.199 322.010,580.167 322.766,580.167 323.522,580.198 324.279,580.231 325.035,580.254 325.791,580.270 326.547,580.277 327.303,580.277 328.060,580.269 328.816,580.257 329.572,580.252 330.328,580.247 331.084,580.245 331.840,580.260 332.597,580.278 333.353,580.278 334.109,580.267 334.865,580.249 335.621,580.227 336.378,580.217 337.134,580.227 337.890,580.235 338.646,580.228 339.402,580.210 340.158,580.200 340.915,580.200 341.671,580.187 342.427,580.162 343.183,580.151 343.939,580.163 344.695,580.174 345.452,580.171 346.208,580.180 346.964,580.216 347.720,580.253 348.476,580.272 349.233,580.279 349.989,580.278 350.745,580.264 351.501,580.244 352.257,580.236 353.013,580.239 353.770,580.244 354.526,580.249 355.282,580.255 356.038,580.262 356.794,580.265 357.551,580.260 358.307,580.249 359.063,580.243 359.819,580.251 360.575,580.258 361.331,580.257 362.088,580.252 362.844,580.256 363.600,580.265 364.356,580.270 365.112,580.275 365.868,580.280 366.625,580.275 367.381,580.261 368.137,580.253 368.893,580.250 369.649,580.246 370.406,580.245 371.162,580.254 371.918,580.264 372.674,580.270 373.430,580.276 374.186,580.280 374.943,580.276 375.699,580.268 376.455,580.254 377.211,580.234 377.967,580.217 378.724,580.206 379.480,580.201 380.236,580.215 380.992,580.248 381.748,580.275 382.504,580.277 383.261,580.244 384.017,580.185 384.773,580.147 385.529,580.150 386.285,580.183 387.041,580.230 387.798,580.268 388.554,580.280 389.310,580.272 390.066,580.254 390.822,580.243 391.579,580.249 392.335,580.260 393.091,580.263 393.847,580.265 394.603,580.270 395.359,580.273 396.116,580.269 396.872,580.266 397.628,580.271 398.384,580.277 399.140,580.277 399.896,580.274 400.653,580.272 401.409,580.274 402.165,580.277 402.921,580.280 403.677,580.274 404.434,580.252 405.190,580.224 405.946,580.213 406.702,580.228 407.458,580.255 408.214,580.275 408.971,580.280 409.727,580.277 410.483,580.271 411.239,580.257 411.995,580.233 412.752,580.202 413.508,580.159 414.264,580.102 415.020,580.084 415.776,580.145 416.532,580.231 417.289,580.276 418.045,580.274 418.801,580.227 419.557,580.163 420.313,580.137 421.070,580.126 421.826,580.073 422.582,579.970 423.338,579.861 424.094,579.764 424.850,579.693 425.607,579.745 426.363,579.931 427.119,580.129 427.875,580.251 428.631,580.279 429.387,580.253 430.144,580.230 430.900,580.229 431.656,580.245 432.412,580.271 433.168,580.278 433.925,580.243 434.681,580.201 435.437,580.200 436.193,580.240 436.949,580.280 437.705,580.186 438.462,579.778 439.218,579.185 439.974,578.852 440.730,578.905 441.486,579.220 442.242,579.696 442.999,580.111 443.755,580.271 444.511,580.272 445.267,580.256 446.023,580.255 446.780,580.266 447.536,580.277 448.292,580.278 449.048,580.267 449.804,580.220 450.560,580.117 451.317,579.934 452.073,579.719 452.829,579.609 453.585,579.666 454.341,579.832 455.098,580.059 455.854,580.260 456.610,580.184 457.366,579.555 458.122,578.019 458.878,574.964 459.635,569.759 460.391,562.579 461.147,554.563 461.903,546.968 462.659,541.327 463.416,540.582 464.172,547.524 464.928,560.701 465.684,574.301 466.440,580.228 467.196,566.920 467.953,521.048 468.709,437.822 469.465,327.693 470.221,214.361 470.977,133.857 471.733,129.340 472.490,222.519 473.246,381.225 474.002,526.874 474.758,579.904 475.514,506.253 476.271,339.514 477.027,169.908 477.783,89.803 478.539,130.178 479.295,251.791 480.051,391.256 480.808,500.814 481.564,561.233 482.320,579.840 483.076,576.460 483.832,567.432 484.589,560.328 485.345,557.004 486.101,557.141 486.857,559.799 487.613,563.858 488.369,568.378 489.126,572.696 489.882,576.246 490.638,578.616 491.394,579.825 492.150,580.240 492.906,580.270 493.663,580.238 494.419,580.259 495.175,580.280 495.931,580.265 496.687,580.233 497.444,580.206 498.200,580.219 498.956,580.263 499.712,580.280 500.468,580.270 501.224,580.260 501.981,580.255 502.737,580.260 503.493,580.271 504.249,580.275 505.005,580.270 505.761,580.257 506.518,580.246 507.274,580.242 508.030,580.247 508.786,580.262 509.542,580.278 510.299,580.276 511.055,580.257 511.811,580.244 512.567,580.239 513.323,580.236 514.079,580.238 514.836,580.248 515.592,580.260 516.348,580.266 517.104,580.271 517.860,580.276 518.617,580.278 519.373,580.279 520.129,580.278 520.885,580.277 521.641,580.276 522.397,580.277 523.154,580.279 523.910,580.280 524.666,580.280 525.422,580.280 526.178,580.279 526.935,580.279 527.691,580.279 528.447,580.278 529.203,580.276 529.959,580.277 530.715,580.279 531.472,580.280 532.228,580.280 532.984,580.280 533.740,580.280 534.496,580.280 535.252,580.279 536.009,580.278 536.765,580.279 537.521,580.280 538.277,580.280 539.033,580.277 539.790,580.272 540.546,580.268 541.302,580.258 542.058,580.238 542.814,580.227 543.570,580.226 544.327,580.216 545.083,580.191 545.839,580.168 546.595,580.154 547.351,580.127 548.107,580.091 548.864,580.076 549.620,580.086 550.376,580.105 551.132,580.136 551.888,580.194 552.645,580.252 553.401,580.279 554.157,580.261 554.913,580.172 555.669,580.002 556.425,579.794 557.182,579.595 557.938,579.430 558.694,579.341 559.450,579.377 560.206,579.538 560.963,579.752 561.719,579.954 562.475,580.119 563.231,580.231 563.987,580.276 564.743,580.277 565.500,580.264 566.256,580.246 567.012,580.229 567.768,580.219 568.524,580.211 569.280,580.204 570.037,580.199 570.793,580.198 571.549,580.206 572.305,580.221 573.061,580.237 573.818,580.248 574.574,580.258 575.330,580.268 576.086,580.274 576.842,580.276 577.598,580.276 578.355,580.276 579.111,580.278 579.867,580.280 580.623,580.280 581.379,580.277 582.136,580.263 582.892,580.238 583.648,580.225 584.404,580.231 585.160,580.241 585.916,580.258 586.673,580.276 587.429,580.279 588.185,580.275 588.941,580.271 589.697,580.270 590.454,580.269 591.210,580.272 591.966,580.275 592.722,580.273 593.478,580.267 594.234,580.259 594.991,580.252 595.747,580.247 596.503,580.249 597.259,580.257 598.015,580.264 598.771,580.270 599.528,580.276 600.284,580.280 601.040,580.280 601.796,580.279 602.552,580.276 603.309,580.268 604.065,580.258 604.821,580.251 605.577,580.251 606.333,580.255 607.089,580.262 607.846,580.270 608.602,580.277 609.358,580.280 610.114,580.280 610.870,580.279 611.626,580.276 612.383,580.267 613.139,580.251 613.895,580.233 614.651,580.224 615.407,580.236 616.164,580.261 616.920,580.278 617.676,580.275 618.432,580.249 619.188,580.223 619.944,580.218 620.701,580.238 621.457,580.262 622.213,580.277 622.969,580.280 623.725,580.274 624.482,580.268 625.238,580.264 625.994,580.263 626.750,580.263 627.506,580.262 628.262,580.260 629.019,580.261 629.775,580.266 630.531,580.273 631.287,580.276 632.043,580.275 632.799,580.271 633.556,580.261 634.312,580.233 635.068,580.181 635.824,580.133 636.580,580.133 637.337,580.182 638.093,580.247 638.849,580.280 639.605,580.237 640.361,580.111 641.117,579.964 641.874,579.883 642.630,579.880 643.386,579.909 644.142,579.957 644.898,580.018 645.655,580.058 646.411,580.062 647.167,580.073 647.923,580.123 648.679,580.185 649.435,580.237 650.192,580.274 650.948,580.274 651.704,580.237 652.460,580.194 653.216,580.153 653.972,580.131 654.729,580.162 655.485,580.235 656.241,580.280 656.997,580.221 657.753,580.056 658.510,579.895 659.266,579.870 660.022,580.030 660.778,580.241 661.534,580.244 662.290,579.984 663.047,579.653 663.803,579.422 664.559,579.368 665.315,579.483 666.071,579.684 666.828,579.897 667.584,580.073 668.340,580.188 669.096,580.254 669.852,580.280 670.608,580.251 671.365,580.191 672.121,580.145 672.877,580.101 673.633,580.041 674.389,579.998 675.145,579.998 675.902,580.030 676.658,580.100 677.414,580.217 678.170,580.275 678.926,579.966 679.683,578.841 680.439,576.400 681.195,572.229 681.951,566.313 682.707,559.713 683.463,554.273 684.220,551.206 684.976,551.228 685.732,555.525 686.488,564.372 687.244,574.642 688.001,580.259 688.757,572.513 689.513,537.847 690.269,462.448 691.025,347.258 691.781,217.276 692.538,119.413 693.294,113.904 694.050,234.279 694.806,426.751 695.562,565.282 696.318,550.335 697.075,383.478 697.831,172.078 698.587,61.118 699.343,114.210 700.099,270.785 700.856,429.265 701.612,531.218 702.368,573.332 703.124,580.147 703.880,576.187 704.636,572.536 705.393,570.266 706.149,568.263 706.905,566.513 707.661,565.935 708.417,567.173 709.174,570.153 709.930,573.923 710.686,577.129 711.442,579.106 712.198,580.001 712.954,580.261 713.711,580.273 714.467,580.255 715.223,580.253 715.979,580.255 716.735,580.258 717.491,580.260 718.248,580.262 719.004,580.268 719.760,580.275 720.516,580.279 721.272,580.280 722.029,580.279 722.785,580.279 723.541,580.280 724.297,580.280 725.053,580.280 725.809,580.276 726.566,580.261 727.322,580.239 728.078,580.212 728.834,580.178 729.590,580.163 730.347,580.190 731.103,580.227 731.859,580.251 732.615,580.268 733.371,580.280 734.127,580.271 734.884,580.249 735.640,580.214 736.396,580.167 737.152,580.130 737.908,580.124 738.665,580.146 739.421,580.187 740.177,580.233 740.933,580.267 741.689,580.280 742.445,580.274 743.202,580.261 743.958,580.250 744.714,580.238 745.470,580.234 746.226,580.241 746.982,580.245 747.739,580.235 748.495,580.216 749.251,580.207 750.007,580.207 750.763,580.206 751.520,580.214 752.276,580.245 753.032,580.274 753.788,580.280 754.544,580.270 755.300,580.244 756.057,580.205 756.813,580.183 757.569,580.177 758.325,580.173 759.081,580.181 759.838,580.204 760.594,580.218 761.350,580.213 762.106,580.201 762.862,580.193 763.618,580.177 764.375,580.154 765.131,580.153 765.887,580.178 766.643,580.202 767.399,580.220 768.155,580.243 768.912,580.266 769.668,580.278 770.424,580.277 771.180,580.235 771.936,580.118 772.693,579.946 773.449,579.769 774.205,579.625 774.961,579.589 775.717,579.700 776.473,579.887 777.230,580.049 777.986,580.160 778.742,580.228 779.498,580.260 780.254,580.272 781.010,580.276 781.767,580.279 782.523,580.279 783.279,580.274 784.035,580.263 784.791,580.244 785.548,580.217 786.304,580.201 787.060,580.203 787.816,580.208 788.572,580.211 789.328,580.220 790.085,580.239 790.841,580.258 791.597,580.268 792.353,580.275 793.109,580.280 793.866,580.277 794.622,580.265 795.378,580.252 796.134,580.244 796.890,580.239 797.646,580.243 798.403,580.257 799.159,580.273 799.915,580.280 800.671,580.276 801.427,580.265 802.184,580.248 802.940,580.230 803.696,580.222 804.452,580.226 805.208,580.241 805.964,580.263 806.721,580.276 807.477,580.280 808.233,580.280 808.989,580.280 809.745,580.277 810.501,580.268 811.258,580.261 812.014,580.264 812.770,580.273 813.526,580.280 814.282,580.269 815.039,580.247 815.795,580.235 816.551,580.238 817.307,580.251 818.063,580.267 818.819,580.278 819.576,580.280 820.332,580.273 821.088,580.264 821.844,580.257 822.600,580.249 823.356,580.241 824.113,580.246 824.869,580.260 825.625,580.269 826.381,580.275 827.137,580.280 827.894,580.275 828.650,580.262 829.406,580.248 830.162,580.232 830.918,580.214 831.674,580.205 832.431,580.215 833.187,580.235 833.943,580.252 834.699,580.265 835.455,580.276 836.212,580.279 836.968,580.266 837.724,580.236 838.480,580.192 839.236,580.153 839.992,580.136 840.749,580.137 841.505,580.154 842.261,580.194 843.017,580.233 843.773,580.250 844.529,580.255 845.286,580.260 846.042,580.266 846.798,580.270 847.554,580.273 848.310,580.278 849.067,580.279 849.823,580.263 850.579,580.224 851.335,580.179 852.091,580.131 852.847,580.076 853.604,580.050 854.360,580.076 855.116,580.116 855.872,580.142 856.628,580.166 857.385,580.195 858.141,580.214 858.897,580.218 859.653,580.222 860.409,580.237 861.165,580.259 861.922,580.276 862.678,580.279 863.434,580.266 864.190,580.245 864.946,580.235 865.703,580.249 866.459,580.271 867.215,580.280 867.971,580.265 868.727,580.204 869.483,580.075 870.240,579.928 870.996,579.851 871.752,579.882 872.508,580.027 873.264,580.230 874.020,580.235 874.777,579.787 875.533,579.040 876.289,578.390 877.045,578.121 877.801,578.356 878.558,578.988 879.314,579.660 880.070,580.093 880.826,580.262 881.582,580.272 882.338,580.217 883.095,580.150 883.851,580.085 884.607,580.014 885.363,579.902 886.119,579.745 886.876,579.589 887.632,579.473 888.388,579.408 889.144,579.445 889.900,579.638 890.656,579.918 891.413,580.167 892.169,580.279 892.925,579.988 893.681,578.777 894.437,575.950 895.193,570.913 895.950,563.749 896.706,555.601 897.462,548.061 898.218,542.942 898.974,542.587 899.731,548.179 900.487,558.304 901.243,569.942 901.999,578.853 902.755,578.285 903.511,559.688 904.268,515.077 905.024,439.361 905.780,337.223 906.536,230.622 907.292,159.049 908.048,168.930 908.805,281.492 909.561,449.890 910.317,568.558 911.073,551.406 911.829,398.923 912.586,205.522 913.342,100.301 914.098,143.972 914.854,286.511 915.610,434.699 916.366,532.000 917.123,573.133 917.879,580.190 918.635,576.374 919.391,572.768 920.147,570.750 920.904,569.278 921.660,568.198 922.416,568.009 923.172,569.186 923.928,571.717 924.684,574.845 925.441,577.515 926.197,579.191 926.953,580.002 927.709,580.261 928.465,580.274 929.221,580.260 929.978,580.264 930.734,580.274 931.490,580.280 932.246,580.268 933.002,580.250 933.759,580.245 934.515,580.246 935.271,580.256 936.027,580.273 936.783,580.280 937.539,580.272 938.296,580.258 939.052,580.247 939.808,580.249 940.564,580.264 941.320,580.278 942.077,580.279 942.833,580.267 943.589,580.253 944.345,580.243 945.101,580.242 945.857,580.258 946.614,580.275 947.370,580.280 948.126,580.279 948.882,580.278 949.638,580.277 950.394,580.277 951.151,580.279 951.907,580.280 952.663,580.279 953.419,580.278 954.175,580.278 954.932,580.279 955.688,580.279 956.444,580.280 957.200,580.280 957.956,580.280 958.712,580.280 959.469,580.279 960.225,580.280 960.981,580.280 961.737,580.280 962.493,580.279 963.250,580.275 964.006,580.271 964.762,580.274 965.518,580.280 966.274,580.280 967.030,580.280 967.787,580.279 968.543,580.278 969.299,580.278 970.055,580.280 970.811,580.280 971.568,580.278 972.324,580.274 973.080,580.271 973.836,580.270 974.592,580.271 975.348,580.272 976.105,580.271 976.861,580.271 977.617,580.269 978.373,580.256 979.129,580.228 979.885,580.189 980.642,580.150 981.398,580.123 982.154,580.127 982.910,580.171 983.666,580.234 984.423,580.278 985.179,580.260 985.935,580.180 986.691,580.066 987.447,579.949 988.203,579.877 988.960,579.875 989.716,579.925 990.472,580.011 991.228,580.095 991.984,580.147 992.741,580.178 993.497,580.212 994.253,580.241 995.009,580.256 995.765,580.268 996.521,580.280 997.278,580.267 998.034,580.237 998.790,580.204 999.546,580.170 1000.302,580.146 1001.058,580.150 1001.815,580.179 1002.571,580.218 1003.327,580.251 1004.083,580.273 1004.839,580.280 1005.596,580.276 1006.352,580.269 1007.108,580.270 1007.864,580.275 1008.620,580.279 1009.376,580.280 1010.133,580.280 1010.889,580.280 1011.645,580.279 1012.401,580.277 1013.157,580.278 1013.914,580.280 1014.670,580.280 1015.426,580.277 1016.182,580.274 1016.938,580.276 1017.694,580.279 1018.451,580.280 1019.207,580.279 1019.963,580.275 1020.719,580.266 1021.475,580.249 1022.231,580.239 1022.988,580.252 1023.744,580.273 1024.500,580.280 1025.256,580.272 1026.012,580.256 1026.769,580.246 1027.525,580.254 1028.281,580.268 1029.037,580.277 1029.793,580.280 1030.549,580.275 1031.306,580.266 1032.062,580.259 1032.818,580.257 1033.574,580.262 1034.330,580.269 1035.087,580.275 1035.843,580.279 1036.599,580.279 1037.355,580.268 1038.111,580.253 1038.867,580.236 1039.624,580.217 1040.380,580.208 1041.136,580.229 1041.892,580.261 1042.648,580.279 1043.404,580.273 1044.161,580.240 1044.917,580.201 1045.673,580.185 1046.429,580.198 1047.185,580.237 1047.942,580.272 1048.698,580.280 1049.454,580.273 1050.210,580.269 1050.966,580.276 1051.722,580.279 1052.479,580.256 1053.235,580.216 1053.991,580.182 1054.747,580.169 1055.503,580.197 1056.259,580.243 1057.016,580.273 1057.772,580.280 1058.528,580.278 1059.284,580.276 1060.040,580.277 1060.797,580.280 1061.553,580.280 1062.309,580.280 1063.065,580.277 1063.821,580.261 1064.577,580.235 1065.334,580.194 1066.090,580.145 1066.846,580.143 1067.602,580.190 1068.358,580.224 1069.115,580.236 1069.871,580.246 1070.627,580.252 1071.383,580.235 1072.139,580.189 1072.895,580.145 1073.652,580.141 1074.408,580.164 1075.164,580.197 1075.920,580.239 1076.676,580.272 1077.432,580.279 1078.189,580.271 1078.945,580.268 1079.701,580.265 1080.457,580.256 1081.213,580.253 1081.970,580.268 1082.726,580.280 1083.482,580.274 1084.238,580.251 1084.994,580.209 1085.750,580.187 1086.507,580.233 1087.263,580.280 1088.019,580.189 1088.775,579.939 1089.531,579.667 1090.288,579.528 1091.044,579.572 1091.800,579.760 1092.556,580.009 1093.312,580.204 1094.068,580.276 1094.825,580.276 1095.581,580.260 1096.337,580.239 1097.093,580.234 1097.849,580.258 1098.606,580.277 1099.362,580.280 1100.118,580.276 1100.874,580.275 1101.630,580.280 1102.386,580.272 1103.143,580.227 1103.899,580.142 1104.655,580.031 1105.411,579.950 1106.167,579.955 1106.923,580.053 1107.680,580.202 1108.436,580.277 1109.192,579.983 1109.948,578.926 1110.704,576.721 1111.461,573.068 1112.217,568.184 1112.973,563.011 1113.729,558.707 1114.485,556.101 1115.241,556.318 1115.998,560.696 1116.754,568.706 1117.510,577.073 1118.266,580.053 1119.022,567.786 1119.779,525.938 1120.535,445.580 1121.291,336.526 1122.047,231.225 1122.803,181.124 1123.559,233.062 1124.316,377.309 1125.072,527.179 1125.828,579.130 1126.584,492.789 1127.340,324.003 1128.096,190.426 1128.853,177.602 1129.609,274.609 1130.365,407.699 1131.121,511.673 1131.877,564.659 1132.634,579.668 1133.390,579.042 1134.146,576.038 1134.902,574.004 1135.658,572.574 1136.414,571.242 1137.171,570.084 1137.927,569.677 1138.683,570.699 1139.439,573.038 1140.195,575.711 1140.952,577.831 1141.708,579.156 1142.464,579.848 1143.220,580.145 1143.976,580.239 1144.732,580.261 1145.489,580.271 1146.245,580.280 1147.001,580.272 1147.757,580.253 1148.513,580.236 1149.269,580.219 1150.026,580.213 1150.782,580.232 1151.538,580.255 1152.294,580.266 1153.050,580.268 1153.807,580.269 1154.563,580.271 1155.319,580.275 1156.075,580.279 1156.831,580.280 1157.587,580.280 1158.344,580.279 1159.100,580.279 1159.856,580.280 1160.612,580.280 "
             id="polyline23" />
          <g
             id="g25" />
        </g>
        <g
           transform="translate(706.405,41.995)"
           id="g27">
          <g
             id="g29" />
        </g>
      </g>
      <g
         id="g33">
        <polyline
           style="fill:none;stroke:#000000;stroke-width:0.5pt;stroke-dasharray:none"
           points="328.816,580.280 328.816,569.693 "
           id="polyline35" />
        <polyline
           style="fill:none;stroke:#000000;stroke-width:0.5pt;stroke-dasharray:none"
           points="480.051,580.280 480.051,569.693 "
           id="polyline37" />
        <polyline
           style="fill:none;stroke:#000000;stroke-width:0.5pt;stroke-dasharray:none"
           points="631.287,580.280 631.287,569.693 "
           id="polyline39" />
        <polyline
           style="fill:none;stroke:#000000;stroke-width:0.5pt;stroke-dasharray:none"
           points="782.523,580.280 782.523,569.693 "
           id="polyline41" />
        <polyline
           style="fill:none;stroke:#000000;stroke-width:0.5pt;stroke-dasharray:none"
           points="933.759,580.280 933.759,569.693 "
           id="polyline43" />
        <polyline
           style="fill:none;stroke:#000000;stroke-width:0.5pt;stroke-dasharray:none"
           points="1084.994,580.280 1084.994,569.693 "
           id="polyline45" />
        <polyline
           style="fill:none;stroke:#000000;stroke-width:0.5pt;stroke-dasharray:none"
           points="177.580,580.280 1236.230,580.280 "
           id="polyline47" />
        <polyline
           style="fill:none;stroke:#000000;stroke-width:0.5pt;stroke-dasharray:none"
           points="328.816,48.900 328.816,59.487 "
           id="polyline49" />
        <polyline
           style="fill:none;stroke:#000000;stroke-width:0.5pt;stroke-dasharray:none"
           points="480.051,48.900 480.051,59.487 "
           id="polyline51" />
        <polyline
           style="fill:none;stroke:#000000;stroke-width:0.5pt;stroke-dasharray:none"
           points="631.287,48.900 631.287,59.487 "
           id="polyline53" />
        <polyline
           style="fill:none;stroke:#000000;stroke-width:0.5pt;stroke-dasharray:none"
           points="782.523,48.900 782.523,59.487 "
           id="polyline55" />
        <polyline
           style="fill:none;stroke:#000000;stroke-width:0.5pt;stroke-dasharray:none"
           points="933.759,48.900 933.759,59.487 "
           id="polyline57" />
        <polyline
           style="fill:none;stroke:#000000;stroke-width:0.5pt;stroke-dasharray:none"
           points="1084.994,48.900 1084.994,59.487 "
           id="polyline59" />
        <polyline
           style="fill:none;stroke:#000000;stroke-width:0.5pt;stroke-dasharray:none"
           points="177.580,48.900 1236.230,48.900 "
           id="polyline61" />
        <g
           transform="translate(177.58,598.908)"
           id="g63">
          <g
             id="g65">
            <text
               style="font-size:10px;font-family:Helvetica;text-anchor:middle;fill:#000000"
               x="0"
               y="0"
               font-size="8.0pt"
               id="text67">0</text>
          </g>
        </g>
        <g
           transform="translate(328.816,598.908)"
           id="g69">
          <g
             id="g71">
            <text
               x="0"
               y="0"
               font-size="8.0pt"
               id="text73"
               style="font-size:10px;font-family:Helvetica;text-anchor:middle;fill:#000000">0.55</text>
          </g>
        </g>
        <g
           transform="translate(480.051,598.908)"
           id="g75">
          <g
             id="g77">
            <text
               x="0"
               y="0"
               font-size="8.0pt"
               id="text79"
               style="font-size:10px;font-family:Helvetica;text-anchor:middle;fill:#000000">1.1</text>
          </g>
        </g>
        <g
           transform="translate(631.287,598.908)"
           id="g81">
          <g
             id="g83">
            <text
               x="0"
               y="0"
               font-size="8.0pt"
               id="text85"
               style="font-size:10px;font-family:Helvetica;text-anchor:middle;fill:#000000">1.65</text>
          </g>
        </g>
        <g
           transform="translate(782.523,598.908)"
           id="g87">
          <g
             id="g89">
            <text
               x="0"
               y="0"
               font-size="8.0pt"
               id="text91"
               style="font-size:10px;font-family:Helvetica;text-anchor:middle;fill:#000000">2.2</text>
          </g>
        </g>
        <g
           transform="translate(933.759,598.908)"
           id="g93">
          <g
             id="g95">
            <text
               x="0"
               y="0"
               font-size="8.0pt"
               id="text97"
               style="font-size:10px;font-family:Helvetica;text-anchor:middle;fill:#000000">2.75</text>
          </g>
        </g>
        <g
           transform="translate(1084.994,598.908)"
           id="g99">
          <g
             id="g101">
            <text
               x="0"
               y="0"
               font-size="8.0pt"
               id="text103"
               style="font-size:10px;font-family:Helvetica;text-anchor:middle;fill:#000000">3.3</text>
          </g>
        </g>
        <g
           transform="translate(1236.23,598.908)"
           id="g105">
          <g
             id="g107">
            <text
               x="0"
               y="0"
               font-size="8.0pt"
               id="text109"
               style="font-size:10px;font-family:Helvetica;text-anchor:middle;fill:#000000">3.85</text>
          </g>
        </g>
        <polyline
           style="fill:none;stroke:#000000;stroke-width:0.5pt;stroke-dasharray:none"
           points="177.580,527.142 188.167,527.142 "
           id="polyline111" />
        <polyline
           style="fill:none;stroke:#000000;stroke-width:0.5pt;stroke-dasharray:none"
           points="177.580,474.004 188.167,474.004 "
           id="polyline113" />
        <polyline
           style="fill:none;stroke:#000000;stroke-width:0.5pt;stroke-dasharray:none"
           points="177.580,420.866 188.167,420.866 "
           id="polyline115" />
        <polyline
           style="fill:none;stroke:#000000;stroke-width:0.5pt;stroke-dasharray:none"
           points="177.580,367.728 188.167,367.728 "
           id="polyline117" />
        <polyline
           style="fill:none;stroke:#000000;stroke-width:0.5pt;stroke-dasharray:none"
           points="177.580,314.590 188.167,314.590 "
           id="polyline119" />
        <polyline
           style="fill:none;stroke:#000000;stroke-width:0.5pt;stroke-dasharray:none"
           points="177.580,261.452 188.167,261.452 "
           id="polyline121" />
        <polyline
           style="fill:none;stroke:#000000;stroke-width:0.5pt;stroke-dasharray:none"
           points="177.580,208.314 188.167,208.314 "
           id="polyline123" />
        <polyline
           style="fill:none;stroke:#000000;stroke-width:0.5pt;stroke-dasharray:none"
           points="177.580,155.176 188.167,155.176 "
           id="polyline125" />
        <polyline
           style="fill:none;stroke:#000000;stroke-width:0.5pt;stroke-dasharray:none"
           points="177.580,102.038 188.167,102.038 "
           id="polyline127" />
        <polyline
           style="fill:none;stroke:#000000;stroke-width:0.5pt;stroke-dasharray:none"
           points="177.580,580.280 177.580,48.900 "
           id="polyline129" />
        <polyline
           style="fill:none;stroke:#000000;stroke-width:0.5pt;stroke-dasharray:none"
           points="1236.230,527.142 1225.643,527.142 "
           id="polyline131" />
        <polyline
           style="fill:none;stroke:#000000;stroke-width:0.5pt;stroke-dasharray:none"
           points="1236.230,474.004 1225.643,474.004 "
           id="polyline133" />
        <polyline
           style="fill:none;stroke:#000000;stroke-width:0.5pt;stroke-dasharray:none"
           points="1236.230,420.866 1225.643,420.866 "
           id="polyline135" />
        <polyline
           style="fill:none;stroke:#000000;stroke-width:0.5pt;stroke-dasharray:none"
           points="1236.230,367.728 1225.643,367.728 "
           id="polyline137" />
        <polyline
           style="fill:none;stroke:#000000;stroke-width:0.5pt;stroke-dasharray:none"
           points="1236.230,314.590 1225.643,314.590 "
           id="polyline139" />
        <polyline
           style="fill:none;stroke:#000000;stroke-width:0.5pt;stroke-dasharray:none"
           points="1236.230,261.452 1225.643,261.452 "
           id="polyline141" />
        <polyline
           style="fill:none;stroke:#000000;stroke-width:0.5pt;stroke-dasharray:none"
           points="1236.230,208.314 1225.643,208.314 "
           id="polyline143" />
        <polyline
           style="fill:none;stroke:#000000;stroke-width:0.5pt;stroke-dasharray:none"
           points="1236.230,155.176 1225.643,155.176 "
           id="polyline145" />
        <polyline
           style="fill:none;stroke:#000000;stroke-width:0.5pt;stroke-dasharray:none"
           points="1236.230,102.038 1225.643,102.038 "
           id="polyline147" />
        <polyline
           style="fill:none;stroke:#000000;stroke-width:0.5pt;stroke-dasharray:none"
           points="1236.230,580.280 1236.230,48.900 "
           id="polyline149" />
        <g
           transform="translate(156.407,583.28)"
           id="g151">
          <g
             id="g153">
            <text
               style="font-size:10px;font-family:Helvetica;text-anchor:end;fill:#000000"
               x="0"
               y="0"
               font-size="8.0pt"
               id="text155">0</text>
          </g>
        </g>
        <g
           transform="translate(156.407,530.142)"
           id="g157">
          <g
             id="g159">
            <text
               style="font-size:10px;font-family:Helvetica;text-anchor:end;fill:#000000"
               x="0"
               y="0"
               font-size="8.0pt"
               id="text161">500</text>
          </g>
        </g>
        <g
           transform="translate(156.407,477.004)"
           id="g163">
          <g
             id="g165">
            <text
               style="font-size:10px;font-family:Helvetica;text-anchor:end;fill:#000000"
               x="0"
               y="0"
               font-size="8.0pt"
               id="text167">1000</text>
          </g>
        </g>
        <g
           transform="translate(156.407,423.866)"
           id="g169">
          <g
             id="g171">
            <text
               style="font-size:10px;font-family:Helvetica;text-anchor:end;fill:#000000"
               x="0"
               y="0"
               font-size="8.0pt"
               id="text173">1500</text>
          </g>
        </g>
        <g
           transform="translate(156.407,370.728)"
           id="g175">
          <g
             id="g177">
            <text
               style="font-size:10px;font-family:Helvetica;text-anchor:end;fill:#000000"
               x="0"
               y="0"
               font-size="8.0pt"
               id="text179">2000</text>
          </g>
        </g>
        <g
           transform="translate(156.407,317.59)"
           id="g181">
          <g
             id="g183">
            <text
               style="font-size:10px;font-family:Helvetica;text-anchor:end;fill:#000000"
               x="0"
               y="0"
               font-size="8.0pt"
               id="text185">2500</text>
          </g>
        </g>
        <g
           transform="translate(156.407,264.452)"
           id="g187">
          <g
             id="g189">
            <text
               style="font-size:10px;font-family:Helvetica;text-anchor:end;fill:#000000"
               x="0"
               y="0"
               font-size="8.0pt"
               id="text191">3000</text>
          </g>
        </g>
        <g
           transform="translate(156.407,211.314)"
           id="g193">
          <g
             id="g195">
            <text
               style="font-size:10px;font-family:Helvetica;text-anchor:end;fill:#000000"
               x="0"
               y="0"
               font-size="8.0pt"
               id="text197">3500</text>
          </g>
        </g>
        <g
           transform="translate(156.407,158.176)"
           id="g199">
          <g
             id="g201">
            <text
               style="font-size:10px;font-family:Helvetica;text-anchor:end;fill:#000000"
               x="0"
               y="0"
               font-size="8.0pt"
               id="text203">4000</text>
          </g>
        </g>
        <g
           transform="translate(156.407,105.038)"
           id="g205">
          <g
             id="g207">
            <text
               style="font-size:10px;font-family:Helvetica;text-anchor:end;fill:#000000"
               x="0"
               y="0"
               font-size="8.0pt"
               id="text209">4500</text>
          </g>
        </g>
        <g
           transform="translate(156.407,51.9)"
           id="g211">
          <g
             id="g213">
            <text
               style="font-size:10px;font-family:Helvetica;text-anchor:end;fill:#000000"
               x="0"
               y="0"
               font-size="8.0pt"
               id="text215">5000</text>
          </g>
        </g>
        <polyline
           style="fill:none;stroke:#000000;stroke-width:0.5pt;stroke-dasharray:none"
           points="177.580,580.280 177.580,574.966 "
           id="polyline217" />
        <polyline
           style="fill:none;stroke:#000000;stroke-width:0.5pt;stroke-dasharray:none"
           points="177.580,580.280 177.580,580.280 "
           id="polyline219" />
      </g>
    </g>
    <text
       xml:space="preserve"
       style="font-style:normal;font-weight:normal;font-size:15px;line-height:125%;font-family:sans-serif;letter-spacing:0px;word-spacing:0px;fill:#000000;fill-opacity:1;stroke:none;stroke-width:1px;stroke-linecap:butt;stroke-linejoin:miter;stroke-opacity:1"
       x="166.01012"
       y="603.5592"
       id="text3553"
       sodipodi:linespacing="125%"><tspan
         sodipodi:role="line"
         id="tspan3555"
         x="166.01012"
         y="603.5592"
         style="font-size:16.25px">Time [s]</tspan></text>
    <text
       xml:space="preserve"
       style="font-style:normal;font-weight:normal;font-size:15px;line-height:125%;font-family:sans-serif;letter-spacing:0px;word-spacing:0px;fill:#000000;fill-opacity:1;stroke:none;stroke-width:1px;stroke-linecap:butt;stroke-linejoin:miter;stroke-opacity:1"
       x="-331.23029"
       y="-443.78894"
       id="text3553-0"
       sodipodi:linespacing="125%"
       transform="matrix(0,-1,1,0,0,0)"><tspan
         sodipodi:role="line"
         id="tspan3555-7"
         x="-331.23029"
         y="-443.78894"
         style="font-size:16.25px">Amplitude []</tspan></text>
  </g>
</svg>
