<?xml version="1.0" encoding="UTF-8" standalone="no"?>
<!-- Created with Inkscape (http://www.inkscape.org/) -->

<svg
   xmlns:dc="http://purl.org/dc/elements/1.1/"
   xmlns:cc="http://creativecommons.org/ns#"
   xmlns:rdf="http://www.w3.org/1999/02/22-rdf-syntax-ns#"
   xmlns:svg="http://www.w3.org/2000/svg"
   xmlns="http://www.w3.org/2000/svg"
   xmlns:sodipodi="http://sodipodi.sourceforge.net/DTD/sodipodi-0.dtd"
   xmlns:inkscape="http://www.inkscape.org/namespaces/inkscape"
   width="322.02692mm"
   height="161.26505mm"
   viewBox="0 0 1141.0403 571.41157"
   id="svg3653"
   version="1.1"
   inkscape:version="0.91 r13725"
   sodipodi:docname="PandT_MovWin_3.svg">
  <defs
     id="defs3655">
    <clipPath
       id="ID000000">
      <rect
         x="177.58"
         y="48.900002"
         width="1058.65"
         height="531.38"
         id="rect11" />
    </clipPath>
  </defs>
  <sodipodi:namedview
     id="base"
     pagecolor="#ffffff"
     bordercolor="#666666"
     borderopacity="1.0"
     inkscape:pageopacity="0.0"
     inkscape:pageshadow="2"
     inkscape:zoom="0.35"
     inkscape:cx="859.80582"
     inkscape:cy="405.70579"
     inkscape:document-units="px"
     inkscape:current-layer="layer1"
     showgrid="false"
     fit-margin-top="0"
     fit-margin-left="0"
     fit-margin-right="0"
     fit-margin-bottom="0"
     inkscape:window-width="1366"
     inkscape:window-height="706"
     inkscape:window-x="-8"
     inkscape:window-y="-8"
     inkscape:window-maximized="1" />
  <metadata
     id="metadata3658">
    <rdf:RDF>
      <cc:Work
         rdf:about="">
        <dc:format>image/svg+xml</dc:format>
        <dc:type
           rdf:resource="http://purl.org/dc/dcmitype/StillImage" />
        <dc:title></dc:title>
      </cc:Work>
    </rdf:RDF>
  </metadata>
  <g
     inkscape:label="Capa 1"
     inkscape:groupmode="layer"
     id="layer1"
     transform="translate(484.80582,-366.65642)">
    <g
       transform="translate(-589.32666,321.94392)"
       id="g8">
      <clipPath
         id="clipPath3552">
        <rect
           x="177.58"
           y="48.900002"
           width="1058.65"
           height="531.38"
           id="rect3554" />
      </clipPath>
      <polyline
         style="fill:#ffffff;fill-opacity:1;stroke:none;stroke-width:0.5pt;stroke-dasharray:none;stroke-opacity:1"
         points="177.580,580.280 1236.230,580.280 1236.230,48.900 177.580,48.900 "
         id="polyline13" />
      <polyline
         style="fill:#ffffff;fill-opacity:1;stroke:none;stroke-width:0.5pt;stroke-dasharray:none;stroke-opacity:1"
         points="177.580,48.900 1236.230,48.900 1236.230,48.900 177.580,48.900 "
         id="polyline15" />
      <polyline
         style="fill:#ffffff;fill-opacity:1;stroke:none;stroke-width:0.5pt;stroke-dasharray:none;stroke-opacity:1"
         points="177.580,580.280 177.580,580.280 177.580,48.900 177.580,48.900 "
         id="polyline17" />
      <g
         id="g19">
        <g
           clip-path="url(#ID000000)"
           id="g21">
          <polyline
             style="fill:none;stroke:#0000ff;stroke-width:0.5pt;stroke-dasharray:none"
             points="178.336,580.280 179.092,580.280 179.849,580.280 180.605,580.279 181.361,580.277 182.117,580.271 182.873,580.261 183.629,580.243 184.386,580.217 185.142,580.184 185.898,580.146 186.654,580.103 187.410,580.058 188.167,580.014 188.923,579.969 189.679,579.926 190.435,579.894 191.191,579.887 191.947,579.880 192.704,579.804 193.460,579.590 194.216,579.165 194.972,578.537 195.728,577.900 196.484,577.447 197.241,577.193 197.997,577.087 198.753,577.068 199.509,577.066 200.265,577.045 201.022,577.002 201.778,576.935 202.534,576.847 203.290,576.749 204.046,576.657 204.802,576.585 205.559,576.541 206.315,576.521 207.071,576.517 207.827,576.517 208.583,576.511 209.340,576.494 210.096,576.463 210.852,576.422 211.608,576.381 212.364,576.353 213.120,576.345 213.877,576.344 214.633,576.321 215.389,576.255 216.145,576.150 216.901,576.025 217.657,575.910 218.414,575.830 219.170,575.791 219.926,575.779 220.682,575.778 221.438,575.777 222.195,575.774 222.951,575.769 223.707,575.765 224.463,575.763 225.219,575.762 225.975,575.762 226.732,575.761 227.488,575.757 228.244,575.745 229.000,575.722 229.756,575.688 230.513,575.646 231.269,575.608 232.025,575.586 232.781,575.586 233.537,575.610 234.293,575.650 235.050,575.690 235.806,575.684 236.562,575.553 237.318,575.163 238.074,574.332 238.830,572.936 239.587,571.005 240.343,568.699 241.099,566.287 241.855,564.195 242.611,562.829 243.368,562.251 244.124,562.277 244.880,562.530 245.636,561.972 246.392,558.534 247.148,549.323 247.905,531.524 248.661,503.927 249.417,468.814 250.173,432.985 250.929,405.658 251.686,392.563 252.442,390.727 253.198,389.445 253.954,376.905 254.710,348.207 255.466,309.122 256.223,271.480 256.979,244.372 257.735,229.792 258.491,224.398 259.247,223.398 260.003,223.421 260.760,223.151 261.516,222.443 262.272,221.471 263.028,220.387 263.784,219.278 264.541,218.229 265.297,217.343 266.053,216.693 266.809,216.281 267.565,216.061 268.321,215.966 269.078,215.934 269.834,215.927 270.590,215.930 271.346,215.934 272.102,215.936 272.858,215.936 273.615,215.936 274.371,215.937 275.127,215.940 275.883,215.948 276.639,215.964 277.396,215.996 278.152,216.046 278.908,216.102 279.664,216.146 280.420,216.165 281.176,216.161 281.933,216.146 282.689,216.142 283.445,216.191 284.201,216.366 284.957,216.797 285.714,217.655 286.470,219.051 287.226,220.985 287.982,223.362 288.738,225.986 289.494,228.500 290.251,230.494 291.007,231.708 291.763,232.135 292.519,232.136 293.275,232.798 294.031,236.250 294.788,245.455 295.544,263.269 296.300,290.906 297.056,326.085 297.812,362.001 298.569,389.424 299.325,402.604 300.081,404.503 300.837,405.825 301.593,418.383 302.349,447.085 303.106,486.170 303.862,523.816 304.618,550.938 305.374,565.548 306.130,570.981 306.887,572.023 307.643,572.027 308.399,572.304 309.155,573.013 309.911,574.007 310.667,575.156 311.424,576.369 312.180,577.542 312.936,578.542 313.692,579.271 314.448,579.722 315.205,579.954 315.961,580.051 316.717,580.084 317.473,580.094 318.229,580.096 318.985,580.095 319.742,580.094 320.498,580.091 321.254,580.083 322.010,580.072 322.766,580.062 323.522,580.059 324.279,580.063 325.035,580.068 325.791,580.069 326.547,580.069 327.303,580.072 328.060,580.084 328.816,580.102 329.572,580.116 330.328,580.122 331.084,580.120 331.840,580.118 332.597,580.120 333.353,580.125 334.109,580.130 334.865,580.133 335.621,580.131 336.378,580.127 337.134,580.124 337.890,580.121 338.646,580.116 339.402,580.109 340.158,580.101 340.915,580.095 341.671,580.091 342.427,580.087 343.183,580.080 343.939,580.072 344.695,580.062 345.452,580.052 346.208,580.045 346.964,580.046 347.720,580.051 348.476,580.055 349.233,580.057 349.989,580.057 350.745,580.056 351.501,580.054 352.257,580.052 353.013,580.050 353.770,580.047 354.526,580.044 355.282,580.042 356.038,580.041 356.794,580.040 357.551,580.039 358.307,580.037 359.063,580.034 359.819,580.032 360.575,580.031 361.331,580.029 362.088,580.026 362.844,580.023 363.600,580.022 364.356,580.021 365.112,580.020 365.868,580.021 366.625,580.020 367.381,580.020 368.137,580.021 368.893,580.027 369.649,580.034 370.406,580.042 371.162,580.048 371.918,580.051 372.674,580.052 373.430,580.053 374.186,580.053 374.943,580.053 375.699,580.053 376.455,580.053 377.211,580.051 377.967,580.048 378.724,580.044 379.480,580.038 380.236,580.032 380.992,580.029 381.748,580.030 382.504,580.033 383.261,580.035 384.017,580.031 384.773,580.024 385.529,580.015 386.285,580.011 387.041,580.013 387.798,580.019 388.554,580.027 389.310,580.036 390.066,580.045 390.822,580.054 391.579,580.062 392.335,580.071 393.091,580.080 393.847,580.088 394.603,580.094 395.359,580.096 396.116,580.095 396.872,580.094 397.628,580.093 398.384,580.094 399.140,580.098 399.896,580.101 400.653,580.105 401.409,580.108 402.165,580.110 402.921,580.113 403.677,580.114 404.434,580.113 405.190,580.109 405.946,580.106 406.702,580.104 407.458,580.105 408.214,580.106 408.971,580.109 409.727,580.111 410.483,580.113 411.239,580.112 411.995,580.108 412.752,580.101 413.508,580.089 414.264,580.072 415.020,580.055 415.776,580.044 416.532,580.042 417.289,580.045 418.045,580.048 418.801,580.045 419.557,580.035 420.313,580.022 421.070,580.007 421.826,579.987 422.582,579.956 423.338,579.916 424.094,579.867 424.850,579.814 425.607,579.767 426.363,579.739 427.119,579.732 427.875,579.736 428.631,579.739 429.387,579.737 430.144,579.732 430.900,579.730 431.656,579.736 432.412,579.749 433.168,579.761 433.925,579.767 434.681,579.764 435.437,579.758 436.193,579.754 436.949,579.755 437.705,579.748 438.462,579.702 439.218,579.596 439.974,579.456 440.730,579.322 441.486,579.218 442.242,579.161 442.999,579.145 443.755,579.145 444.511,579.146 445.267,579.144 446.023,579.142 446.780,579.141 447.536,579.142 448.292,579.142 449.048,579.142 449.804,579.136 450.560,579.120 451.317,579.086 452.073,579.033 452.829,578.972 453.585,578.918 454.341,578.879 455.098,578.859 455.854,578.858 456.610,578.848 457.366,578.777 458.122,578.553 458.878,578.028 459.635,576.989 460.391,575.241 461.147,572.701 461.903,569.414 462.659,565.569 463.416,561.644 464.172,558.400 464.928,556.458 465.684,555.865 466.440,555.865 467.196,554.552 467.953,548.689 468.709,534.572 469.465,509.534 470.221,473.264 470.977,429.017 471.733,384.332 472.490,348.898 473.246,329.204 474.002,323.940 474.758,323.918 475.514,316.577 476.271,292.691 477.027,251.982 477.783,203.329 478.539,158.681 479.295,126.096 480.051,107.345 480.808,99.462 481.564,97.576 482.320,97.540 483.076,97.169 483.832,95.898 484.589,93.919 485.345,91.619 486.101,89.373 486.857,87.450 487.613,85.963 488.369,84.918 489.126,84.271 489.882,83.929 490.638,83.780 491.394,83.736 492.150,83.733 492.906,83.734 493.663,83.733 494.419,83.732 495.175,83.732 495.931,83.731 496.687,83.728 497.444,83.726 498.200,83.736 498.956,83.769 499.712,83.825 500.468,83.890 501.224,83.949 501.981,83.991 502.737,84.011 503.493,84.012 504.249,84.021 505.005,84.092 505.761,84.314 506.518,84.838 507.274,85.878 508.030,87.630 508.786,90.180 509.542,93.484 510.299,97.348 511.055,101.284 511.811,104.531 512.567,106.469 513.323,107.058 514.079,107.059 514.836,108.381 515.592,114.255 516.348,128.386 517.104,153.444 517.860,189.745 518.617,234.033 519.373,278.769 520.129,314.261 520.885,334.008 521.641,339.306 522.397,339.343 523.154,346.687 523.910,370.572 524.666,411.283 525.422,459.942 526.178,504.595 526.935,537.183 527.691,555.935 528.447,563.818 529.203,565.708 529.959,565.751 530.715,566.130 531.472,567.404 532.228,569.384 532.984,571.693 533.740,573.988 534.496,576.020 535.252,577.649 536.009,578.830 536.765,579.582 537.521,579.982 538.277,580.147 539.033,580.192 539.790,580.195 540.546,580.195 541.302,580.197 542.058,580.195 542.814,580.190 543.570,580.186 544.327,580.185 545.083,580.183 545.839,580.178 546.595,580.167 547.351,580.152 548.107,580.134 548.864,580.116 549.620,580.099 550.376,580.084 551.132,580.070 551.888,580.062 552.645,580.061 553.401,580.063 554.157,580.064 554.913,580.057 555.669,580.033 556.425,579.987 557.182,579.919 557.938,579.835 558.694,579.744 559.450,579.658 560.206,579.589 560.963,579.541 561.719,579.512 562.475,579.500 563.231,579.497 563.987,579.498 564.743,579.498 565.500,579.497 566.256,579.494 567.012,579.489 567.768,579.483 568.524,579.477 569.280,579.470 570.037,579.462 570.793,579.454 571.549,579.447 572.305,579.441 573.061,579.436 573.818,579.433 574.574,579.431 575.330,579.430 576.086,579.430 576.842,579.430 577.598,579.430 578.355,579.429 579.111,579.429 579.867,579.429 580.623,579.429 581.379,579.429 582.136,579.427 582.892,579.423 583.648,579.418 584.404,579.413 585.160,579.409 585.916,579.407 586.673,579.407 587.429,579.408 588.185,579.408 588.941,579.410 589.697,579.413 590.454,579.417 591.210,579.421 591.966,579.427 592.722,579.435 593.478,579.445 594.234,579.456 594.991,579.468 595.747,579.484 596.503,579.501 597.259,579.518 598.015,579.534 598.771,579.547 599.528,579.555 600.284,579.558 601.040,579.558 601.796,579.560 602.552,579.570 603.309,579.596 604.065,579.642 604.821,579.707 605.577,579.789 606.333,579.880 607.089,579.967 607.846,580.040 608.602,580.092 609.358,580.124 610.114,580.140 610.870,580.145 611.626,580.145 612.383,580.144 613.139,580.143 613.895,580.141 614.651,580.141 615.407,580.143 616.164,580.147 616.920,580.155 617.676,580.162 618.432,580.167 619.188,580.169 619.944,580.169 620.701,580.169 621.457,580.170 622.213,580.172 622.969,580.173 623.725,580.173 624.482,580.173 625.238,580.171 625.994,580.170 626.750,580.169 627.506,580.167 628.262,580.165 629.019,580.163 629.775,580.164 630.531,580.167 631.287,580.172 632.043,580.177 632.799,580.180 633.556,580.180 634.312,580.176 635.068,580.166 635.824,580.152 636.580,580.138 637.337,580.129 638.093,580.127 638.849,580.128 639.605,580.124 640.361,580.108 641.117,580.078 641.874,580.041 642.630,580.004 643.386,579.970 644.142,579.941 644.898,579.918 645.655,579.897 646.411,579.877 647.167,579.856 647.923,579.841 648.679,579.831 649.435,579.827 650.192,579.827 650.948,579.828 651.704,579.825 652.460,579.820 653.216,579.810 653.972,579.798 654.729,579.788 655.485,579.784 656.241,579.785 656.997,579.779 657.753,579.757 658.510,579.719 659.266,579.678 660.022,579.655 660.778,579.654 661.534,579.655 662.290,579.631 663.047,579.573 663.803,579.490 664.559,579.400 665.315,579.321 666.071,579.265 666.828,579.233 667.584,579.218 668.340,579.213 669.096,579.213 669.852,579.213 670.608,579.210 671.365,579.202 672.121,579.190 672.877,579.174 673.633,579.152 674.389,579.125 675.145,579.099 675.902,579.076 676.658,579.060 677.414,579.055 678.170,579.056 678.926,579.025 679.683,578.883 680.439,578.499 681.195,577.702 681.951,576.321 682.707,574.290 683.463,571.725 684.220,568.855 684.976,565.983 685.732,563.530 686.488,561.952 687.244,561.397 688.001,561.411 688.757,560.672 689.513,556.502 690.269,544.852 691.025,521.772 691.781,485.791 692.538,440.096 693.294,393.851 694.050,359.547 694.806,344.337 695.562,342.864 696.318,339.903 697.075,320.383 697.831,279.888 698.587,228.384 699.343,182.151 700.099,151.456 700.856,136.487 701.612,131.635 702.368,130.957 703.124,130.948 703.880,130.542 704.636,129.780 705.393,128.809 706.149,127.655 706.905,126.330 707.661,124.931 708.417,123.635 709.174,122.634 709.930,122.033 710.686,121.782 711.442,121.751 712.198,121.814 712.954,121.891 713.711,121.949 714.467,121.985 715.223,122.003 715.979,122.009 716.735,122.010 717.491,122.008 718.248,122.009 719.004,122.016 719.760,122.029 720.516,122.047 721.272,122.071 722.029,122.099 722.785,122.127 723.541,122.151 724.297,122.169 725.053,122.175 725.809,122.176 726.566,122.205 727.322,122.344 728.078,122.722 728.834,123.510 729.590,124.884 730.347,126.916 731.103,129.491 731.859,132.372 732.615,135.253 733.371,137.709 734.127,139.286 734.884,139.842 735.640,139.838 736.396,140.597 737.152,144.792 737.908,156.466 738.665,179.570 739.421,215.573 740.177,261.290 740.933,307.556 741.689,341.881 742.445,357.112 743.202,358.598 743.958,361.565 744.714,381.085 745.470,421.577 746.226,473.077 746.982,519.311 747.739,550.010 748.495,564.985 749.251,569.845 750.007,570.527 750.763,570.533 751.520,570.933 752.276,571.697 753.032,572.690 753.788,573.882 754.544,575.247 755.300,576.667 756.057,577.959 756.813,578.954 757.569,579.575 758.325,579.877 759.081,579.984 759.838,580.004 760.594,579.999 761.350,579.993 762.106,579.988 762.862,579.982 763.618,579.974 764.375,579.964 765.131,579.953 765.887,579.945 766.643,579.938 767.399,579.933 768.155,579.929 768.912,579.928 769.668,579.928 770.424,579.928 771.180,579.923 771.936,579.907 772.693,579.874 773.449,579.824 774.205,579.761 774.961,579.696 775.717,579.645 776.473,579.617 777.230,579.605 777.986,579.602 778.742,579.602 779.498,579.603 780.254,579.604 781.010,579.603 781.767,579.604 782.523,579.607 783.279,579.613 784.035,579.623 784.791,579.634 785.548,579.643 786.304,579.649 787.060,579.650 787.816,579.648 788.572,579.642 789.328,579.636 790.085,579.633 790.841,579.632 791.597,579.634 792.353,579.638 793.109,579.642 793.866,579.646 794.622,579.648 795.378,579.650 796.134,579.652 796.890,579.656 797.646,579.659 798.403,579.664 799.159,579.670 799.915,579.674 800.671,579.674 801.427,579.672 802.184,579.670 802.940,579.669 803.696,579.670 804.452,579.675 805.208,579.681 805.964,579.690 806.721,579.699 807.477,579.707 808.233,579.713 808.989,579.720 809.745,579.727 810.501,579.735 811.258,579.743 812.014,579.754 812.770,579.766 813.526,579.776 814.282,579.783 815.039,579.785 815.795,579.785 816.551,579.782 817.307,579.779 818.063,579.778 818.819,579.782 819.576,579.798 820.332,579.831 821.088,579.880 821.844,579.943 822.600,580.008 823.356,580.062 824.113,580.097 824.869,580.118 825.625,580.129 826.381,580.134 827.137,580.136 827.894,580.136 828.650,580.135 829.406,580.132 830.162,580.127 830.918,580.121 831.674,580.115 832.431,580.112 833.187,580.114 833.943,580.119 834.699,580.125 835.455,580.132 836.212,580.139 836.968,580.143 837.724,580.143 838.480,580.137 839.236,580.125 839.992,580.111 840.749,580.097 841.505,580.085 842.261,580.078 843.017,580.076 843.773,580.077 844.529,580.078 845.286,580.080 846.042,580.081 846.798,580.081 847.554,580.080 848.310,580.080 849.067,580.081 849.823,580.083 850.579,580.082 851.335,580.078 852.091,580.069 852.847,580.052 853.604,580.031 854.360,580.011 855.116,579.995 855.872,579.981 856.628,579.970 857.385,579.962 858.141,579.957 858.897,579.952 859.653,579.948 860.409,579.945 861.165,579.943 861.922,579.943 862.678,579.946 863.434,579.949 864.190,579.950 864.946,579.948 865.703,579.947 866.459,579.946 867.215,579.946 867.971,579.945 868.727,579.939 869.483,579.921 870.240,579.889 870.996,579.851 871.752,579.815 872.508,579.792 873.264,579.788 874.020,579.784 874.777,579.735 875.533,579.612 876.289,579.427 877.045,579.216 877.801,579.029 878.558,578.908 879.314,578.854 880.070,578.842 880.826,578.844 881.582,578.846 882.338,578.842 883.095,578.829 883.851,578.810 884.607,578.785 885.363,578.752 886.119,578.707 886.876,578.651 887.632,578.586 888.388,578.513 889.144,578.443 889.900,578.388 890.656,578.357 891.413,578.348 892.169,578.351 892.925,578.324 893.681,578.176 894.437,577.748 895.193,576.819 895.950,575.179 896.706,572.731 897.462,569.536 898.218,565.838 898.974,562.108 899.731,558.939 900.487,556.779 901.243,555.776 901.999,555.655 902.755,555.473 903.511,553.444 904.268,546.986 905.024,533.015 905.780,508.909 906.536,474.226 907.292,432.443 908.048,391.639 908.805,361.999 909.561,349.064 910.317,347.901 911.073,345.038 911.829,327.050 912.586,289.876 913.342,242.262 914.098,198.979 914.854,169.835 915.610,155.394 916.366,150.612 917.123,149.923 917.879,149.949 918.635,149.604 919.391,148.898 920.147,147.978 920.904,146.892 921.660,145.697 922.416,144.529 923.172,143.551 923.928,142.889 924.684,142.564 925.441,142.481 926.197,142.501 926.953,142.535 927.709,142.551 928.465,142.553 929.221,142.551 929.978,142.556 930.734,142.568 931.490,142.588 932.246,142.613 933.002,142.647 933.759,142.697 934.515,142.762 935.271,142.840 936.027,142.926 936.783,143.008 937.539,143.071 938.296,143.105 939.052,143.113 939.808,143.110 940.564,143.137 941.320,143.286 942.077,143.715 942.833,144.643 943.589,146.281 944.345,148.726 945.101,151.918 945.857,155.620 946.614,159.359 947.370,162.543 948.126,164.724 948.882,165.749 949.638,165.890 950.394,166.088 951.151,168.131 951.907,174.599 952.663,188.579 953.419,212.692 954.175,247.380 954.932,289.169 955.688,329.977 956.444,359.619 957.200,372.554 957.956,373.717 958.712,376.582 959.469,394.573 960.225,431.752 960.981,479.369 961.737,522.653 962.493,551.797 963.250,566.239 964.006,571.028 964.762,571.736 965.518,571.745 966.274,572.132 967.030,572.878 967.787,573.823 968.543,574.914 969.299,576.113 970.055,577.330 970.811,578.431 971.568,579.280 972.324,579.819 973.080,580.092 973.836,580.199 974.592,580.226 975.348,580.227 976.105,580.227 976.861,580.228 977.617,580.228 978.373,580.226 979.129,580.221 979.885,580.213 980.642,580.203 981.398,580.191 982.154,580.180 982.910,580.171 983.666,580.167 984.423,580.167 985.179,580.166 985.935,580.158 986.691,580.140 987.447,580.111 988.203,580.072 988.960,580.032 989.716,579.997 990.472,579.972 991.228,579.956 991.984,579.946 992.741,579.940 993.497,579.936 994.253,579.932 995.009,579.930 995.765,579.929 996.521,579.929 997.278,579.928 998.034,579.924 998.790,579.916 999.546,579.905 1000.302,579.892 1001.058,579.880 1001.815,579.870 1002.571,579.864 1003.327,579.861 1004.083,579.860 1004.839,579.860 1005.596,579.860 1006.352,579.859 1007.108,579.858 1007.864,579.857 1008.620,579.857 1009.376,579.857 1010.133,579.857 1010.889,579.858 1011.645,579.859 1012.401,579.859 1013.157,579.859 1013.914,579.859 1014.670,579.859 1015.426,579.859 1016.182,579.858 1016.938,579.858 1017.694,579.858 1018.451,579.858 1019.207,579.858 1019.963,579.858 1020.719,579.858 1021.475,579.856 1022.231,579.852 1022.988,579.850 1023.744,579.851 1024.500,579.851 1025.256,579.852 1026.012,579.852 1026.769,579.854 1027.525,579.860 1028.281,579.872 1029.037,579.887 1029.793,579.902 1030.549,579.912 1031.306,579.916 1032.062,579.914 1032.818,579.913 1033.574,579.922 1034.330,579.942 1035.087,579.974 1035.843,580.014 1036.599,580.054 1037.355,580.088 1038.111,580.112 1038.867,580.126 1039.624,580.133 1040.380,580.136 1041.136,580.138 1041.892,580.140 1042.648,580.142 1043.404,580.142 1044.161,580.138 1044.917,580.132 1045.673,580.127 1046.429,580.126 1047.185,580.133 1047.942,580.145 1048.698,580.158 1049.454,580.167 1050.210,580.173 1050.966,580.175 1051.722,580.176 1052.479,580.173 1053.235,580.167 1053.991,580.159 1054.747,580.149 1055.503,580.141 1056.259,580.137 1057.016,580.137 1057.772,580.137 1058.528,580.136 1059.284,580.136 1060.040,580.136 1060.797,580.136 1061.553,580.136 1062.309,580.136 1063.065,580.136 1063.821,580.135 1064.577,580.131 1065.334,580.122 1066.090,580.109 1066.846,580.096 1067.602,580.087 1068.358,580.083 1069.115,580.082 1069.871,580.083 1070.627,580.083 1071.383,580.079 1072.139,580.070 1072.895,580.057 1073.652,580.046 1074.408,580.038 1075.164,580.032 1075.920,580.029 1076.676,580.029 1077.432,580.029 1078.189,580.028 1078.945,580.028 1079.701,580.029 1080.457,580.029 1081.213,580.028 1081.970,580.028 1082.726,580.028 1083.482,580.028 1084.238,580.025 1084.994,580.019 1085.750,580.013 1086.507,580.013 1087.263,580.019 1088.019,580.017 1088.775,579.988 1089.531,579.929 1090.288,579.855 1091.044,579.785 1091.800,579.738 1092.556,579.719 1093.312,579.721 1094.068,579.728 1094.825,579.732 1095.581,579.731 1096.337,579.727 1097.093,579.723 1097.849,579.722 1098.606,579.722 1099.362,579.722 1100.118,579.724 1100.874,579.730 1101.630,579.740 1102.386,579.750 1103.143,579.753 1103.899,579.743 1104.655,579.719 1105.411,579.686 1106.167,579.654 1106.923,579.632 1107.680,579.624 1108.436,579.624 1109.192,579.595 1109.948,579.460 1110.704,579.108 1111.461,578.394 1112.217,577.198 1112.973,575.494 1113.729,573.367 1114.485,570.982 1115.241,568.614 1115.998,566.676 1116.754,565.532 1117.510,565.218 1118.266,565.198 1119.022,563.963 1119.779,558.581 1120.535,545.231 1121.291,521.063 1122.047,486.446 1122.803,446.855 1123.559,412.413 1124.316,392.278 1125.072,387.010 1125.828,386.897 1126.584,378.218 1127.340,352.795 1128.096,314.122 1128.853,274.176 1129.609,243.853 1130.365,226.732 1131.121,219.926 1131.877,218.379 1132.634,218.326 1133.390,218.212 1134.146,217.796 1134.902,217.173 1135.658,216.418 1136.414,215.555 1137.171,214.604 1137.927,213.627 1138.683,212.746 1139.439,212.080 1140.195,211.653 1140.952,211.418 1141.708,211.307 1142.464,211.264 1143.220,211.253 1143.976,211.253 1144.732,211.256 1145.489,211.257 1146.245,211.257 1147.001,211.256 1147.757,211.254 1148.513,211.250 1149.269,211.244 1150.026,211.238 1150.782,211.239 1151.538,211.250 1152.294,211.273 1153.050,211.305 1153.807,211.336 1154.563,211.358 1155.319,211.365 1156.075,211.365 1156.831,211.395 1157.587,211.529 1158.344,211.882 1159.100,212.597 1159.856,213.797 1160.612,215.510 "
             id="polyline23" />
          <g
             id="g25" />
        </g>
        <g
           transform="translate(706.405,41.995)"
           id="g27">
          <g
             id="g29" />
        </g>
      </g>
      <g
         id="g33">
        <polyline
           style="fill:none;stroke:#000000;stroke-width:0.5pt;stroke-dasharray:none"
           points="328.816,580.280 328.816,569.693 "
           id="polyline35" />
        <polyline
           style="fill:none;stroke:#000000;stroke-width:0.5pt;stroke-dasharray:none"
           points="480.051,580.280 480.051,569.693 "
           id="polyline37" />
        <polyline
           style="fill:none;stroke:#000000;stroke-width:0.5pt;stroke-dasharray:none"
           points="631.287,580.280 631.287,569.693 "
           id="polyline39" />
        <polyline
           style="fill:none;stroke:#000000;stroke-width:0.5pt;stroke-dasharray:none"
           points="782.523,580.280 782.523,569.693 "
           id="polyline41" />
        <polyline
           style="fill:none;stroke:#000000;stroke-width:0.5pt;stroke-dasharray:none"
           points="933.759,580.280 933.759,569.693 "
           id="polyline43" />
        <polyline
           style="fill:none;stroke:#000000;stroke-width:0.5pt;stroke-dasharray:none"
           points="1084.994,580.280 1084.994,569.693 "
           id="polyline45" />
        <polyline
           style="fill:none;stroke:#000000;stroke-width:0.5pt;stroke-dasharray:none"
           points="177.580,580.280 1236.230,580.280 "
           id="polyline47" />
        <polyline
           style="fill:none;stroke:#000000;stroke-width:0.5pt;stroke-dasharray:none"
           points="328.816,48.900 328.816,59.487 "
           id="polyline49" />
        <polyline
           style="fill:none;stroke:#000000;stroke-width:0.5pt;stroke-dasharray:none"
           points="480.051,48.900 480.051,59.487 "
           id="polyline51" />
        <polyline
           style="fill:none;stroke:#000000;stroke-width:0.5pt;stroke-dasharray:none"
           points="631.287,48.900 631.287,59.487 "
           id="polyline53" />
        <polyline
           style="fill:none;stroke:#000000;stroke-width:0.5pt;stroke-dasharray:none"
           points="782.523,48.900 782.523,59.487 "
           id="polyline55" />
        <polyline
           style="fill:none;stroke:#000000;stroke-width:0.5pt;stroke-dasharray:none"
           points="933.759,48.900 933.759,59.487 "
           id="polyline57" />
        <polyline
           style="fill:none;stroke:#000000;stroke-width:0.5pt;stroke-dasharray:none"
           points="1084.994,48.900 1084.994,59.487 "
           id="polyline59" />
        <polyline
           style="fill:none;stroke:#000000;stroke-width:0.5pt;stroke-dasharray:none"
           points="177.580,48.900 1236.230,48.900 "
           id="polyline61" />
        <g
           transform="translate(177.58,598.908)"
           id="g63">
          <g
             id="g65">
            <text
               style="font-size:10px;font-family:Helvetica;text-anchor:middle;fill:#000000"
               x="0"
               y="0"
               font-size="8.0pt"
               id="text67">0</text>
          </g>
        </g>
        <g
           transform="translate(328.816,598.908)"
           id="g69">
          <g
             id="g71">
            <text
               x="0"
               y="0"
               font-size="8.0pt"
               id="text73"
               style="font-size:10px;font-family:Helvetica;text-anchor:middle;fill:#000000">0.55</text>
          </g>
        </g>
        <g
           transform="translate(480.051,598.908)"
           id="g75">
          <g
             id="g77">
            <text
               x="0"
               y="0"
               font-size="8.0pt"
               id="text79"
               style="font-size:10px;font-family:Helvetica;text-anchor:middle;fill:#000000">1.1</text>
          </g>
        </g>
        <g
           transform="translate(631.287,598.908)"
           id="g81">
          <g
             id="g83">
            <text
               x="0"
               y="0"
               font-size="8.0pt"
               id="text85"
               style="font-size:10px;font-family:Helvetica;text-anchor:middle;fill:#000000">1.65</text>
          </g>
        </g>
        <g
           transform="translate(782.523,598.908)"
           id="g87">
          <g
             id="g89">
            <text
               x="0"
               y="0"
               font-size="8.0pt"
               id="text91"
               style="font-size:10px;font-family:Helvetica;text-anchor:middle;fill:#000000">2.2</text>
          </g>
        </g>
        <g
           transform="translate(933.759,598.908)"
           id="g93">
          <g
             id="g95">
            <text
               x="0"
               y="0"
               font-size="8.0pt"
               id="text97"
               style="font-size:10px;font-family:Helvetica;text-anchor:middle;fill:#000000">2.75</text>
          </g>
        </g>
        <g
           transform="translate(1084.994,598.908)"
           id="g99">
          <g
             id="g101">
            <text
               x="0"
               y="0"
               font-size="8.0pt"
               id="text103"
               style="font-size:10px;font-family:Helvetica;text-anchor:middle;fill:#000000">3.3</text>
          </g>
        </g>
        <g
           transform="translate(1236.23,598.908)"
           id="g105">
          <g
             id="g107">
            <text
               x="0"
               y="0"
               font-size="8.0pt"
               id="text109"
               style="font-size:10px;font-family:Helvetica;text-anchor:middle;fill:#000000">3.85</text>
          </g>
        </g>
        <polyline
           style="fill:none;stroke:#000000;stroke-width:0.5pt;stroke-dasharray:none"
           points="177.580,513.857 188.167,513.857 "
           id="polyline111" />
        <polyline
           style="fill:none;stroke:#000000;stroke-width:0.5pt;stroke-dasharray:none"
           points="177.580,447.435 188.167,447.435 "
           id="polyline113" />
        <polyline
           style="fill:none;stroke:#000000;stroke-width:0.5pt;stroke-dasharray:none"
           points="177.580,381.012 188.167,381.012 "
           id="polyline115" />
        <polyline
           style="fill:none;stroke:#000000;stroke-width:0.5pt;stroke-dasharray:none"
           points="177.580,314.590 188.167,314.590 "
           id="polyline117" />
        <polyline
           style="fill:none;stroke:#000000;stroke-width:0.5pt;stroke-dasharray:none"
           points="177.580,248.168 188.167,248.168 "
           id="polyline119" />
        <polyline
           style="fill:none;stroke:#000000;stroke-width:0.5pt;stroke-dasharray:none"
           points="177.580,181.745 188.167,181.745 "
           id="polyline121" />
        <polyline
           style="fill:none;stroke:#000000;stroke-width:0.5pt;stroke-dasharray:none"
           points="177.580,115.323 188.167,115.323 "
           id="polyline123" />
        <polyline
           style="fill:none;stroke:#000000;stroke-width:0.5pt;stroke-dasharray:none"
           points="177.580,580.280 177.580,48.900 "
           id="polyline125" />
        <polyline
           style="fill:none;stroke:#000000;stroke-width:0.5pt;stroke-dasharray:none"
           points="1236.230,513.857 1225.643,513.857 "
           id="polyline127" />
        <polyline
           style="fill:none;stroke:#000000;stroke-width:0.5pt;stroke-dasharray:none"
           points="1236.230,447.435 1225.643,447.435 "
           id="polyline129" />
        <polyline
           style="fill:none;stroke:#000000;stroke-width:0.5pt;stroke-dasharray:none"
           points="1236.230,381.012 1225.643,381.012 "
           id="polyline131" />
        <polyline
           style="fill:none;stroke:#000000;stroke-width:0.5pt;stroke-dasharray:none"
           points="1236.230,314.590 1225.643,314.590 "
           id="polyline133" />
        <polyline
           style="fill:none;stroke:#000000;stroke-width:0.5pt;stroke-dasharray:none"
           points="1236.230,248.168 1225.643,248.168 "
           id="polyline135" />
        <polyline
           style="fill:none;stroke:#000000;stroke-width:0.5pt;stroke-dasharray:none"
           points="1236.230,181.745 1225.643,181.745 "
           id="polyline137" />
        <polyline
           style="fill:none;stroke:#000000;stroke-width:0.5pt;stroke-dasharray:none"
           points="1236.230,115.323 1225.643,115.323 "
           id="polyline139" />
        <polyline
           style="fill:none;stroke:#000000;stroke-width:0.5pt;stroke-dasharray:none"
           points="1236.230,580.280 1236.230,48.900 "
           id="polyline141" />
        <g
           transform="translate(156.407,583.28)"
           id="g143">
          <g
             id="g145">
            <text
               style="font-size:10px;font-family:Helvetica;text-anchor:end;fill:#000000"
               x="0"
               y="0"
               font-size="8.0pt"
               id="text147">0</text>
          </g>
        </g>
        <g
           transform="translate(156.407,516.857)"
           id="g149">
          <g
             id="g151">
            <text
               style="font-size:10px;font-family:Helvetica;text-anchor:end;fill:#000000"
               x="0"
               y="0"
               font-size="8.0pt"
               id="text153">100</text>
          </g>
        </g>
        <g
           transform="translate(156.407,450.435)"
           id="g155">
          <g
             id="g157">
            <text
               style="font-size:10px;font-family:Helvetica;text-anchor:end;fill:#000000"
               x="0"
               y="0"
               font-size="8.0pt"
               id="text159">200</text>
          </g>
        </g>
        <g
           transform="translate(156.407,384.012)"
           id="g161">
          <g
             id="g163">
            <text
               style="font-size:10px;font-family:Helvetica;text-anchor:end;fill:#000000"
               x="0"
               y="0"
               font-size="8.0pt"
               id="text165">300</text>
          </g>
        </g>
        <g
           transform="translate(156.407,317.59)"
           id="g167">
          <g
             id="g169">
            <text
               style="font-size:10px;font-family:Helvetica;text-anchor:end;fill:#000000"
               x="0"
               y="0"
               font-size="8.0pt"
               id="text171">400</text>
          </g>
        </g>
        <g
           transform="translate(156.407,251.168)"
           id="g173">
          <g
             id="g175">
            <text
               style="font-size:10px;font-family:Helvetica;text-anchor:end;fill:#000000"
               x="0"
               y="0"
               font-size="8.0pt"
               id="text177">500</text>
          </g>
        </g>
        <g
           transform="translate(156.407,184.745)"
           id="g179">
          <g
             id="g181">
            <text
               style="font-size:10px;font-family:Helvetica;text-anchor:end;fill:#000000"
               x="0"
               y="0"
               font-size="8.0pt"
               id="text183">600</text>
          </g>
        </g>
        <g
           transform="translate(156.407,118.323)"
           id="g185">
          <g
             id="g187">
            <text
               style="font-size:10px;font-family:Helvetica;text-anchor:end;fill:#000000"
               x="0"
               y="0"
               font-size="8.0pt"
               id="text189">700</text>
          </g>
        </g>
        <g
           transform="translate(156.407,51.9)"
           id="g191">
          <g
             id="g193">
            <text
               style="font-size:10px;font-family:Helvetica;text-anchor:end;fill:#000000"
               x="0"
               y="0"
               font-size="8.0pt"
               id="text195">800</text>
          </g>
        </g>
        <polyline
           style="fill:none;stroke:#000000;stroke-width:0.5pt;stroke-dasharray:none"
           points="177.580,580.280 177.580,574.966 "
           id="polyline197" />
        <polyline
           style="fill:none;stroke:#000000;stroke-width:0.5pt;stroke-dasharray:none"
           points="177.580,580.280 177.580,580.280 "
           id="polyline199" />
      </g>
    </g>
    <text
       xml:space="preserve"
       style="font-style:normal;font-weight:normal;font-size:15px;line-height:125%;font-family:sans-serif;letter-spacing:0px;word-spacing:0px;fill:#000000;fill-opacity:1;stroke:none;stroke-width:1px;stroke-linecap:butt;stroke-linejoin:miter;stroke-opacity:1"
       x="127.49325"
       y="935.1969"
       id="text3533"
       sodipodi:linespacing="125%"><tspan
         sodipodi:role="line"
         id="tspan3535"
         x="127.49325"
         y="935.1969">Time [s]</tspan></text>
    <text
       xml:space="preserve"
       style="font-style:normal;font-weight:normal;font-size:15px;line-height:125%;font-family:sans-serif;letter-spacing:0px;word-spacing:0px;fill:#000000;fill-opacity:1;stroke:none;stroke-width:1px;stroke-linecap:butt;stroke-linejoin:miter;stroke-opacity:1"
       x="-678.7901"
       y="-473.40933"
       id="text3537"
       sodipodi:linespacing="125%"
       transform="matrix(0,-1,1,0,0,0)"><tspan
         sodipodi:role="line"
         id="tspan3539"
         x="-678.7901"
         y="-473.40933">Amplitude []</tspan></text>
  </g>
</svg>
