<svg xmlns="http://www.w3.org/2000/svg" xmlns:xlink="http://www.w3.org/1999/xlink" width="580" height="400"><g transform="translate(-100 -200)"><path d="M0 0h1360v1760H0z" fill="#fff"/><path d="M125 220c-2.76 0-5 2.24-5 5v150c0 2.76 2.24 5 5 5h530c2.76 0 5-2.24 5-5V225c0-2.76-2.24-5-5-5z" stroke="#000" stroke-width="2" fill="#fff"/><path d="M650 230h-15v20h15z" stroke="#000" fill="#fff"/><path d="M640 233.33h-10v3.34h10zm0 10h-10v3.34h10z" stroke="#000" fill="#fff"/><use xlink:href="#a" transform="matrix(1,0,0,1,140,220) translate(250 85.4)"/><path d="M390 450.4c0 2.17 0 2.17 0 0v-3.93m0-31.47c9.32 0 16.88 7.04 16.88 15.73 0 8.7-7.56 15.74-16.88 15.74s-16.88-7.05-16.88-15.74c0-8.7 7.56-15.73 16.88-15.73z" stroke="#000" stroke-width="2" fill="#fff"/><g fill="none"><path d="M390 395v-10m-21 30c0-11.05 9.4-20 21-20s21 8.95 21 20" stroke="#000" stroke-width="2"/><path d="M369 415c0-11.05 9.4-20 21-20s21 8.95 21 20z"/></g><path d="M152.56 265c0-2.76 2.24-5 5-5h484.88c2.76 0 5 2.24 5 5v30c0 2.76-2.24 5-5 5H157.56c-2.76 0-5-2.24-5-5z" stroke="#000" stroke-width="2" fill="#fff"/><path d="M132.56 265c0-2.76 2.24-5 5-5h30c2.76 0 5 2.24 5 5v10c0 2.76-2.24 5-5 5h-30c-2.76 0-5-2.24-5-5zM132.56 285c0-2.76 2.24-5 5-5h30c2.76 0 5 2.24 5 5v10c0 2.76-2.24 5-5 5h-30c-2.76 0-5-2.24-5-5z" stroke="#000" stroke-width="2" fill="#fff"/><use xlink:href="#b" transform="matrix(1,0,0,1,235.53488372093028,264) translate(144.55 19.6)"/><path d="M152.56 325c0-2.76 2.24-5 5-5h484.88c2.76 0 5 2.24 5 5v30c0 2.76-2.24 5-5 5H157.56c-2.76 0-5-2.24-5-5z" stroke="#000" stroke-width="2" fill="#fff"/><path d="M132.56 325c0-2.76 2.24-5 5-5h30c2.76 0 5 2.24 5 5v10c0 2.76-2.24 5-5 5h-30c-2.76 0-5-2.24-5-5zM132.56 345c0-2.76 2.24-5 5-5h30c2.76 0 5 2.24 5 5v10c0 2.76-2.24 5-5 5h-30c-2.76 0-5-2.24-5-5z" stroke="#000" stroke-width="2" fill="#fff"/><use xlink:href="#c" transform="matrix(1,0,0,1,235.53488372093028,324) translate(145.5 19.6)"/><path d="M390 300v20" fill="none"/><path d="M390 300v20" stroke="#000" stroke-width="2" fill="none"/><path d="M391 300h-2 2z"/><path d="M120 485c0-2.76 2.24-5 5-5h530c2.76 0 5 2.24 5 5v30c0 2.76-2.24 5-5 5H125c-2.76 0-5-2.24-5-5z" stroke="#000" stroke-width="2" fill="#fff"/><use xlink:href="#d" transform="matrix(1,0,0,1,140,480) translate(143.125 23.6)"/><use xlink:href="#e" transform="matrix(1,0,0,1,140,480) translate(208.075 23.6)"/><use xlink:href="#f" transform="matrix(1,0,0,1,140,480) translate(266.975 23.6)"/><path d="M390 380v5" stroke="#000" stroke-width="2" fill="none"/><path d="M391 388h-2v-3h2z"/><path d="M390 480v-33.53" stroke="#000" stroke-width="2" fill="none"/><path d="M390 446.47h-1v-.13zm1 0h-1l1-.13z"/><path d="M125 540c-2.76 0-5 2.24-5 5v30c0 2.76 2.24 5 5 5h530c2.76 0 5-2.24 5-5v-30c0-2.76-2.24-5-5-5z" stroke="#000" stroke-width="2" fill="#fff"/><path d="M650 550h-15v20h15z" stroke="#000" fill="#fff"/><path d="M640 553.33h-10v3.34h10zm0 10h-10v3.34h10z" stroke="#000" fill="#fff"/><use xlink:href="#g" transform="matrix(1,0,0,1,140,540) translate(221.525 23.6)"/><use xlink:href="#h" transform="matrix(1,0,0,1,140,540) translate(257.525 23.6)"/><path d="M390 520v20" stroke="#000" stroke-width="2" fill="none"/><path d="M391 520h-2 2z"/><defs><path d="M63-220v92h138v28H63V0H30v-248h175v28H63" id="i"/><path d="M114-163C36-179 61-72 57 0H25l-1-190h30c1 12-1 29 2 39 6-27 23-49 58-41v29" id="j"/><path d="M100-194c62-1 85 37 85 99 1 63-27 99-86 99S16-35 15-95c0-66 28-99 85-99zM99-20c44 1 53-31 53-75 0-43-8-75-51-75s-53 32-53 75 10 74 51 75" id="k"/><path d="M117-194c89-4 53 116 60 194h-32v-121c0-31-8-49-39-48C34-167 62-67 57 0H25l-1-190h30c1 10-1 24 2 32 11-22 29-35 61-36" id="l"/><path d="M59-47c-2 24 18 29 38 22v24C64 9 27 4 27-40v-127H5v-23h24l9-43h21v43h35v23H59v120" id="m"/><path d="M100-194c63 0 86 42 84 106H49c0 40 14 67 53 68 26 1 43-12 49-29l28 8c-11 28-37 45-77 45C44 4 14-33 15-96c1-61 26-98 85-98zm52 81c6-60-76-77-97-28-3 7-6 17-6 28h103" id="n"/><path d="M85-194c31 0 48 13 60 33l-1-100h32l1 261h-30c-2-10 0-23-3-31C134-8 116 4 85 4 32 4 16-35 15-94c0-66 23-100 70-100zm9 24c-40 0-46 34-46 75 0 40 6 74 45 74 42 0 51-32 51-76 0-42-9-74-50-73" id="o"/><g id="b"><use transform="matrix(0.05,0,0,0.05,0,0)" xlink:href="#i"/><use transform="matrix(0.05,0,0,0.05,10.950000000000001,0)" xlink:href="#j"/><use transform="matrix(0.05,0,0,0.05,16.900000000000002,0)" xlink:href="#k"/><use transform="matrix(0.05,0,0,0.05,26.900000000000002,0)" xlink:href="#l"/><use transform="matrix(0.05,0,0,0.05,36.900000000000006,0)" xlink:href="#m"/><use transform="matrix(0.05,0,0,0.05,41.900000000000006,0)" xlink:href="#n"/><use transform="matrix(0.05,0,0,0.05,51.900000000000006,0)" xlink:href="#l"/><use transform="matrix(0.05,0,0,0.05,61.900000000000006,0)" xlink:href="#o"/></g><path d="M160-131c35 5 61 23 61 61C221 17 115-2 30 0v-248c76 3 177-17 177 60 0 33-19 50-47 57zm-97-11c50-1 110 9 110-42 0-47-63-36-110-37v79zm0 115c55-2 124 14 124-45 0-56-70-42-124-44v89" id="p"/><path d="M141-36C126-15 110 5 73 4 37 3 15-17 15-53c-1-64 63-63 125-63 3-35-9-54-41-54-24 1-41 7-42 31l-33-3c5-37 33-52 76-52 45 0 72 20 72 64v82c-1 20 7 32 28 27v20c-31 9-61-2-59-35zM48-53c0 20 12 33 32 33 41-3 63-29 60-74-43 2-92-5-92 41" id="q"/><path d="M96-169c-40 0-48 33-48 73s9 75 48 75c24 0 41-14 43-38l32 2c-6 37-31 61-74 61-59 0-76-41-82-99-10-93 101-131 147-64 4 7 5 14 7 22l-32 3c-4-21-16-35-41-35" id="r"/><path d="M143 0L79-87 56-68V0H24v-261h32v163l83-92h37l-77 82L181 0h-38" id="s"/><g id="c"><use transform="matrix(0.05,0,0,0.05,0,0)" xlink:href="#p"/><use transform="matrix(0.05,0,0,0.05,12,0)" xlink:href="#q"/><use transform="matrix(0.05,0,0,0.05,22,0)" xlink:href="#r"/><use transform="matrix(0.05,0,0,0.05,31,0)" xlink:href="#s"/><use transform="matrix(0.05,0,0,0.05,40,0)" xlink:href="#n"/><use transform="matrix(0.05,0,0,0.05,50,0)" xlink:href="#l"/><use transform="matrix(0.05,0,0,0.05,60,0)" xlink:href="#o"/></g><path d="M18-100v-36l175-74v27L42-118l151 64v27" id="t"/><path d="M30 0v-248h187v28H63v79h144v27H63v87h162V0H30" id="u"/><path d="M212-179c-10-28-35-45-73-45-59 0-87 40-87 99 0 60 29 101 89 101 43 0 62-24 78-52l27 14C228-24 195 4 139 4 59 4 22-46 18-125c-6-104 99-153 187-111 19 9 31 26 39 46" id="v"/><path d="M143 4C61 4 22-44 18-125c-5-107 100-154 193-111 17 8 29 25 37 43l-32 9c-13-25-37-40-76-40-61 0-88 39-88 99 0 61 29 100 91 101 35 0 62-11 79-27v-45h-74v-28h105v86C228-13 192 4 143 4" id="w"/><g id="d"><use transform="matrix(0.05,0,0,0.05,0,0)" xlink:href="#t"/><use transform="matrix(0.05,0,0,0.05,10.5,0)" xlink:href="#t"/><use transform="matrix(0.05,0,0,0.05,21,0)" xlink:href="#u"/><use transform="matrix(0.05,0,0,0.05,33,0)" xlink:href="#v"/><use transform="matrix(0.05,0,0,0.05,45.95,0)" xlink:href="#w"/></g><path d="M240 0l2-218c-23 76-54 145-80 218h-23L58-218 59 0H30v-248h44l77 211c21-75 51-140 76-211h43V0h-30" id="x"/><path d="M24 0v-261h32V0H24" id="y"/><path d="M115-194c53 0 69 39 70 98 0 66-23 100-70 100C84 3 66-7 56-30L54 0H23l1-261h32v101c10-23 28-34 59-34zm-8 174c40 0 45-34 45-75 0-40-5-75-45-74-42 0-51 32-51 76 0 43 10 73 51 73" id="z"/><g id="e"><use transform="matrix(0.05,0,0,0.05,0,0)" xlink:href="#x"/><use transform="matrix(0.05,0,0,0.05,14.950000000000001,0)" xlink:href="#q"/><use transform="matrix(0.05,0,0,0.05,24.950000000000003,0)" xlink:href="#m"/><use transform="matrix(0.05,0,0,0.05,29.950000000000003,0)" xlink:href="#y"/><use transform="matrix(0.05,0,0,0.05,33.900000000000006,0)" xlink:href="#q"/><use transform="matrix(0.05,0,0,0.05,43.900000000000006,0)" xlink:href="#z"/></g><path d="M24-231v-30h32v30H24zM24 0v-190h32V0H24" id="A"/><path d="M101-234c-31-9-42 10-38 44h38v23H63V0H32v-167H5v-23h27c-7-52 17-82 69-68v24" id="B"/><path d="M18-27v-27l151-64-151-65v-27l175 74v36" id="C"/><g id="f"><use transform="matrix(0.05,0,0,0.05,0,0)" xlink:href="#A"/><use transform="matrix(0.05,0,0,0.05,3.95,0)" xlink:href="#l"/><use transform="matrix(0.05,0,0,0.05,13.949999999999998,0)" xlink:href="#m"/><use transform="matrix(0.05,0,0,0.05,18.95,0)" xlink:href="#n"/><use transform="matrix(0.05,0,0,0.05,28.950000000000003,0)" xlink:href="#j"/><use transform="matrix(0.05,0,0,0.05,34.9,0)" xlink:href="#B"/><use transform="matrix(0.05,0,0,0.05,39.9,0)" xlink:href="#q"/><use transform="matrix(0.05,0,0,0.05,49.9,0)" xlink:href="#r"/><use transform="matrix(0.05,0,0,0.05,58.900000000000006,0)" xlink:href="#n"/><use transform="matrix(0.05,0,0,0.05,68.9,0)" xlink:href="#C"/><use transform="matrix(0.05,0,0,0.05,79.4,0)" xlink:href="#C"/></g><path d="M177-190C167-65 218 103 67 71c-23-6-38-20-44-43l32-5c15 47 100 32 89-28v-30C133-14 115 1 83 1 29 1 15-40 15-95c0-56 16-97 71-98 29-1 48 16 59 35 1-10 0-23 2-32h30zM94-22c36 0 50-32 50-73 0-42-14-75-50-75-39 0-46 34-46 75s6 73 46 73" id="D"/><g id="g"><use transform="matrix(0.05,0,0,0.05,0,0)" xlink:href="#u"/><use transform="matrix(0.05,0,0,0.05,12,0)" xlink:href="#r"/><use transform="matrix(0.05,0,0,0.05,21,0)" xlink:href="#D"/></g><path d="M194 0L95-120 63-95V0H30v-248h33v124l119-124h40L117-140 236 0h-42" id="E"/><g id="h"><use transform="matrix(0.05,0,0,0.05,0,0)" xlink:href="#E"/><use transform="matrix(0.05,0,0,0.05,12,0)" xlink:href="#A"/><use transform="matrix(0.05,0,0,0.05,15.949999999999998,0)" xlink:href="#m"/></g></defs></g></svg>