<?xml version="1.0" encoding="UTF-8" standalone="no"?>
<svg
   xmlns:dc="http://purl.org/dc/elements/1.1/"
   xmlns:cc="http://creativecommons.org/ns#"
   xmlns:rdf="http://www.w3.org/1999/02/22-rdf-syntax-ns#"
   xmlns:svg="http://www.w3.org/2000/svg"
   xmlns="http://www.w3.org/2000/svg"
   xmlns:sodipodi="http://sodipodi.sourceforge.net/DTD/sodipodi-0.dtd"
   xmlns:inkscape="http://www.inkscape.org/namespaces/inkscape"
   preserveAspectRatio="xMinYMin meet"
   width="100%"
   height="100%"
   viewBox="0 0 560.000 420.000"
   version="1.1"
   id="svg2"
   inkscape:version="0.48.2 r9819"
   sodipodi:docname="none_severe_roc_x.svg">
  <metadata
     id="metadata379">
    <rdf:RDF>
      <cc:Work
         rdf:about="">
        <dc:format>image/svg+xml</dc:format>
        <dc:type
           rdf:resource="http://purl.org/dc/dcmitype/StillImage" />
      </cc:Work>
    </rdf:RDF>
  </metadata>
  <defs
     id="defs377" />
  <sodipodi:namedview
     pagecolor="#ffffff"
     bordercolor="#666666"
     borderopacity="1"
     objecttolerance="10"
     gridtolerance="10"
     guidetolerance="10"
     inkscape:pageopacity="0"
     inkscape:pageshadow="2"
     inkscape:window-width="1680"
     inkscape:window-height="1001"
     id="namedview375"
     showgrid="false"
     inkscape:zoom="1.8547619"
     inkscape:cx="280"
     inkscape:cy="210"
     inkscape:window-x="-4"
     inkscape:window-y="-4"
     inkscape:window-maximized="1"
     inkscape:current-layer="svg2" />
  <desc
     id="desc4">Matlab Figure Converted by PLOT2SVG written by Juerg Schwizer</desc>
  <rect
     x="0"
     y="0"
     width="560.000"
     height="420.000"
     fill="#ffffff"
     stroke="none"
     id="rect6" />
  <g
     id="g8">
    <clipPath
       id="ID000000">
      <rect
         x="77.000"
         y="40.000"
         width="429.800"
         height="323.000"
         id="rect11" />
    </clipPath>
    <polyline
       fill="#ffffff"
       fill-opacity="1.00"
       stroke="none"
       stroke-width="0.5pt"
       stroke-opacity="1.00"
       stroke-dasharray="none"
       points="77.000,363.000 506.800,363.000 506.800,40.000 77.000,40.000 "
       id="polyline13" />
    <polyline
       fill="#ffffff"
       fill-opacity="1.00"
       stroke="none"
       stroke-width="0.5pt"
       stroke-opacity="1.00"
       stroke-dasharray="none"
       points="77.000,40.000 506.800,40.000 506.800,40.000 77.000,40.000 "
       id="polyline15" />
    <polyline
       fill="#ffffff"
       fill-opacity="1.00"
       stroke="none"
       stroke-width="0.5pt"
       stroke-opacity="1.00"
       stroke-dasharray="none"
       points="77.000,363.000 77.000,363.000 77.000,40.000 77.000,40.000 "
       id="polyline17" />
    <g
       id="g19">
      <g
         clip-path="url(#ID000000)"
         id="g21">
        <polyline
           fill="none"
           stroke="#0000ff"
           stroke-width="0.5pt"
           stroke-dasharray="none"
           points="506.800,40.000 504.344,40.000 500.906,40.000 496.485,40.000 489.608,40.000 485.678,49.500 479.293,49.500 470.942,49.500 463.574,49.500 455.224,49.500 447.856,49.500 440.488,49.500 433.611,49.500 425.752,49.500 416.910,49.500 409.542,59.000 404.139,59.000 396.280,59.000 387.930,59.000 382.526,59.000 376.141,59.000 368.773,59.000 362.387,59.000 355.510,59.000 348.142,59.000 340.774,78.000 334.880,87.500 326.530,87.500 319.162,87.500 314.250,97.000 308.846,97.000 304.426,106.500 298.531,106.500 291.163,106.500 284.286,116.000 277.410,125.500 270.533,135.000 265.130,135.000 259.726,135.000 255.797,135.000 250.885,135.000 245.482,135.000 240.078,135.000 235.658,135.000 230.254,135.000 225.342,144.500 220.922,144.500 215.518,154.000 211.098,154.000 207.168,163.500 202.747,163.500 198.818,173.000 194.397,173.000 190.958,173.000 186.046,173.000 182.117,173.000 178.678,173.000 174.749,182.500 170.819,182.500 168.363,201.500 164.925,211.000 160.013,220.500 157.066,220.500 153.627,220.500 151.171,220.500 149.698,220.500 148.715,220.500 146.259,220.500 143.312,220.500 139.382,230.000 135.944,230.000 133.488,239.500 131.032,239.500 130.541,239.500 128.576,239.500 127.594,249.000 126.611,249.000 124.155,258.500 121.699,258.500 120.226,258.500 117.770,268.000 114.822,277.500 114.822,277.500 112.858,277.500 109.910,287.000 108.928,287.000 108.928,287.000 107.946,287.000 105.490,296.500 104.016,296.500 102.542,296.500 101.560,296.500 100.086,296.500 100.086,296.500 97.139,296.500 94.192,334.500 92.227,334.500 87.315,334.500 82.894,344.000 77.000,363.000 77.000,363.000 "
           id="polyline23" />
        <g
           id="g25" />
      </g>
      <g
         clip-path="url(#ID000000)"
         id="g27">
        <polyline
           fill="none"
           stroke="#007f00"
           stroke-width="0.5pt"
           stroke-dasharray="none"
           points="506.800,40.000 500.906,40.000 493.538,40.000 485.678,40.000 479.293,40.000 471.925,40.000 463.574,40.000 456.206,40.000 448.838,40.000 439.997,40.000 432.138,40.000 425.261,40.000 417.402,40.000 409.542,40.000 400.210,40.000 393.333,40.000 385.474,40.000 377.123,49.500 369.264,49.500 360.914,49.500 352.563,49.500 344.213,49.500 338.318,59.000 329.968,59.000 323.091,59.000 314.741,68.500 306.882,68.500 301.970,68.500 294.602,68.500 287.725,68.500 280.848,68.500 274.462,68.500 267.094,68.500 260.709,68.500 252.850,68.500 246.955,78.000 240.078,87.500 234.675,87.500 227.307,87.500 220.430,97.000 214.045,106.500 207.659,106.500 200.782,106.500 196.853,116.000 190.958,116.000 186.538,116.000 181.626,125.500 176.714,125.500 172.293,125.500 166.890,125.500 161.978,125.500 159.030,125.500 155.101,135.000 151.171,144.500 148.224,154.000 143.803,154.000 140.365,163.500 135.944,163.500 133.979,173.000 132.014,173.000 129.558,173.000 128.085,182.500 127.102,192.000 124.155,192.000 121.699,192.000 119.243,192.000 117.770,192.000 115.314,192.000 114.331,201.500 111.875,211.000 109.910,211.000 107.946,211.000 105.981,211.000 103.525,230.000 102.051,230.000 101.560,230.000 100.578,239.500 99.595,239.500 97.139,239.500 96.157,239.500 95.666,249.000 95.174,249.000 95.174,268.000 94.683,268.000 93.701,268.000 92.227,277.500 92.227,277.500 91.245,277.500 90.262,287.000 89.280,296.500 88.298,306.000 87.806,306.000 86.824,315.500 86.333,325.000 84.859,325.000 84.368,344.000 82.403,353.500 80.930,353.500 79.456,353.500 77.000,363.000 77.000,363.000 "
           id="polyline29" />
        <g
           id="g31" />
      </g>
      <g
         clip-path="url(#ID000000)"
         id="g33">
        <polyline
           fill="none"
           stroke="#ff0000"
           stroke-width="0.5pt"
           stroke-dasharray="none"
           points="506.800,40.000 497.958,40.000 489.117,40.000 480.275,40.000 471.434,40.000 462.592,40.000 453.259,40.000 444.418,40.000 435.576,40.000 426.734,40.000 417.893,40.000 409.051,40.000 399.718,40.000 390.877,40.000 381.544,40.000 372.702,40.000 365.334,40.000 356.002,40.000 347.160,40.000 338.318,40.000 328.986,40.000 320.635,40.000 311.794,40.000 302.461,40.000 294.110,40.000 284.778,40.000 276.427,40.000 267.586,40.000 258.744,40.000 250.885,40.000 242.534,40.000 233.693,40.000 225.342,40.000 216.992,40.000 208.150,40.000 201.274,40.000 192.923,40.000 185.064,40.000 178.187,40.000 170.328,40.000 164.925,40.000 158.048,40.000 152.645,49.500 146.750,49.500 142.821,59.000 136.926,78.000 132.014,78.000 127.102,97.000 124.155,97.000 120.717,116.000 116.296,116.000 112.366,135.000 106.963,144.500 103.525,144.500 100.086,154.000 98.122,163.500 94.683,173.000 91.736,182.500 88.789,192.000 88.298,220.500 85.842,239.500 84.368,239.500 84.368,277.500 83.877,277.500 83.386,296.500 82.894,315.500 82.403,325.000 82.403,334.500 81.912,334.500 81.421,334.500 81.421,344.000 80.438,344.000 79.947,344.000 79.947,344.000 79.456,344.000 79.456,344.000 78.965,344.000 78.965,344.000 78.965,344.000 78.965,353.500 78.965,353.500 78.965,353.500 78.965,353.500 78.965,353.500 78.474,363.000 77.982,363.000 77.982,363.000 77.982,363.000 77.982,363.000 77.982,363.000 77.982,363.000 77.491,363.000 77.491,363.000 77.491,363.000 77.491,363.000 77.491,363.000 77.491,363.000 77.000,363.000 77.000,363.000 77.000,363.000 77.000,363.000 "
           id="polyline35" />
        <g
           id="g37" />
      </g>
      <g
         transform="translate(291.400,28.620)"
         id="g39">
        <g
           transform="rotate(-0.0)"
           id="g41">
          <text
             x="0"
             y="0"
             font-size="17.6pt"
             id="text43"
             style="font-size:22px;text-anchor:middle;fill:#000000;font-family:cmr12">Ischemic myocardium   10</text>
        </g>
      </g>
      <g
         transform="translate(291.400,405.500)"
         id="g45">
        <g
           transform="rotate(-0.0)"
           id="g47">
          <text
             x="0.000"
             y="0.000"
             font-family="cmr12"
             text-anchor="middle"
             font-size="16.0pt"
             fill="#000000"
             id="text49">Specificity</text>
        </g>
      </g>
      <g
         transform="translate(30.522,201.700)"
         id="g51">
        <g
           transform="rotate(-90.0)"
           id="g53">
          <text
             x="0.000"
             y="0.000"
             font-family="cmr12"
             text-anchor="middle"
             font-size="16.0pt"
             fill="#000000"
             id="text55">Sensitivity</text>
        </g>
      </g>
    </g>
    <g
       id="g57">
      <polyline
         fill="none"
         stroke="#000000"
         stroke-width="0.5pt"
         stroke-dasharray="none"
         points="119.980,363.000 119.980,358.702 "
         id="polyline59" />
      <polyline
         fill="none"
         stroke="#000000"
         stroke-width="0.5pt"
         stroke-dasharray="none"
         points="162.960,363.000 162.960,358.702 "
         id="polyline61" />
      <polyline
         fill="none"
         stroke="#000000"
         stroke-width="0.5pt"
         stroke-dasharray="none"
         points="205.940,363.000 205.940,358.702 "
         id="polyline63" />
      <polyline
         fill="none"
         stroke="#000000"
         stroke-width="0.5pt"
         stroke-dasharray="none"
         points="248.920,363.000 248.920,358.702 "
         id="polyline65" />
      <polyline
         fill="none"
         stroke="#000000"
         stroke-width="0.5pt"
         stroke-dasharray="none"
         points="291.900,363.000 291.900,358.702 "
         id="polyline67" />
      <polyline
         fill="none"
         stroke="#000000"
         stroke-width="0.5pt"
         stroke-dasharray="none"
         points="334.880,363.000 334.880,358.702 "
         id="polyline69" />
      <polyline
         fill="none"
         stroke="#000000"
         stroke-width="0.5pt"
         stroke-dasharray="none"
         points="377.860,363.000 377.860,358.702 "
         id="polyline71" />
      <polyline
         fill="none"
         stroke="#000000"
         stroke-width="0.5pt"
         stroke-dasharray="none"
         points="420.840,363.000 420.840,358.702 "
         id="polyline73" />
      <polyline
         fill="none"
         stroke="#000000"
         stroke-width="0.5pt"
         stroke-dasharray="none"
         points="463.820,363.000 463.820,358.702 "
         id="polyline75" />
      <polyline
         fill="none"
         stroke="#000000"
         stroke-width="0.5pt"
         stroke-dasharray="none"
         points="77.000,363.000 506.800,363.000 "
         id="polyline77" />
      <g
         transform="translate(77.000,383.860)"
         id="g79">
        <g
           transform="rotate(-0.0)"
           id="g81">
          <text
             x="0.000"
             y="0.000"
             font-family="cmr12"
             text-anchor="middle"
             font-size="14.4pt"
             fill="#000000"
             id="text83">100</text>
        </g>
      </g>
      <g
         transform="translate(119.980,383.860)"
         id="g85">
        <g
           transform="rotate(-0.0)"
           id="g87">
          <text
             x="0.000"
             y="0.000"
             font-family="cmr12"
             text-anchor="middle"
             font-size="14.4pt"
             fill="#000000"
             id="text89"> 90</text>
        </g>
      </g>
      <g
         transform="translate(162.960,383.860)"
         id="g91">
        <g
           transform="rotate(-0.0)"
           id="g93">
          <text
             x="0.000"
             y="0.000"
             font-family="cmr12"
             text-anchor="middle"
             font-size="14.4pt"
             fill="#000000"
             id="text95"> 80</text>
        </g>
      </g>
      <g
         transform="translate(205.940,383.860)"
         id="g97">
        <g
           transform="rotate(-0.0)"
           id="g99">
          <text
             x="0.000"
             y="0.000"
             font-family="cmr12"
             text-anchor="middle"
             font-size="14.4pt"
             fill="#000000"
             id="text101"> 70</text>
        </g>
      </g>
      <g
         transform="translate(248.920,383.860)"
         id="g103">
        <g
           transform="rotate(-0.0)"
           id="g105">
          <text
             x="0.000"
             y="0.000"
             font-family="cmr12"
             text-anchor="middle"
             font-size="14.4pt"
             fill="#000000"
             id="text107"> 60</text>
        </g>
      </g>
      <g
         transform="translate(291.900,383.860)"
         id="g109">
        <g
           transform="rotate(-0.0)"
           id="g111">
          <text
             x="0.000"
             y="0.000"
             font-family="cmr12"
             text-anchor="middle"
             font-size="14.4pt"
             fill="#000000"
             id="text113"> 50</text>
        </g>
      </g>
      <g
         transform="translate(334.880,383.860)"
         id="g115">
        <g
           transform="rotate(-0.0)"
           id="g117">
          <text
             x="0.000"
             y="0.000"
             font-family="cmr12"
             text-anchor="middle"
             font-size="14.4pt"
             fill="#000000"
             id="text119"> 40</text>
        </g>
      </g>
      <g
         transform="translate(377.860,383.860)"
         id="g121">
        <g
           transform="rotate(-0.0)"
           id="g123">
          <text
             x="0.000"
             y="0.000"
             font-family="cmr12"
             text-anchor="middle"
             font-size="14.4pt"
             fill="#000000"
             id="text125"> 30</text>
        </g>
      </g>
      <g
         transform="translate(420.840,383.860)"
         id="g127">
        <g
           transform="rotate(-0.0)"
           id="g129">
          <text
             x="0.000"
             y="0.000"
             font-family="cmr12"
             text-anchor="middle"
             font-size="14.4pt"
             fill="#000000"
             id="text131"> 20</text>
        </g>
      </g>
      <g
         transform="translate(463.820,383.860)"
         id="g133">
        <g
           transform="rotate(-0.0)"
           id="g135">
          <text
             x="0.000"
             y="0.000"
             font-family="cmr12"
             text-anchor="middle"
             font-size="14.4pt"
             fill="#000000"
             id="text137"> 10</text>
        </g>
      </g>
      <g
         transform="translate(506.800,383.860)"
         id="g139">
        <g
           transform="rotate(-0.0)"
           id="g141">
          <text
             x="0.000"
             y="0.000"
             font-family="cmr12"
             text-anchor="middle"
             font-size="14.4pt"
             fill="#000000"
             id="text143">  0</text>
        </g>
      </g>
      <polyline
         fill="none"
         stroke="#000000"
         stroke-width="0.5pt"
         stroke-dasharray="none"
         points="77.000,330.700 81.298,330.700 "
         id="polyline145" />
      <polyline
         fill="none"
         stroke="#000000"
         stroke-width="0.5pt"
         stroke-dasharray="none"
         points="77.000,298.400 81.298,298.400 "
         id="polyline147" />
      <polyline
         fill="none"
         stroke="#000000"
         stroke-width="0.5pt"
         stroke-dasharray="none"
         points="77.000,266.100 81.298,266.100 "
         id="polyline149" />
      <polyline
         fill="none"
         stroke="#000000"
         stroke-width="0.5pt"
         stroke-dasharray="none"
         points="77.000,233.800 81.298,233.800 "
         id="polyline151" />
      <polyline
         fill="none"
         stroke="#000000"
         stroke-width="0.5pt"
         stroke-dasharray="none"
         points="77.000,201.500 81.298,201.500 "
         id="polyline153" />
      <polyline
         fill="none"
         stroke="#000000"
         stroke-width="0.5pt"
         stroke-dasharray="none"
         points="77.000,169.200 81.298,169.200 "
         id="polyline155" />
      <polyline
         fill="none"
         stroke="#000000"
         stroke-width="0.5pt"
         stroke-dasharray="none"
         points="77.000,136.900 81.298,136.900 "
         id="polyline157" />
      <polyline
         fill="none"
         stroke="#000000"
         stroke-width="0.5pt"
         stroke-dasharray="none"
         points="77.000,104.600 81.298,104.600 "
         id="polyline159" />
      <polyline
         fill="none"
         stroke="#000000"
         stroke-width="0.5pt"
         stroke-dasharray="none"
         points="77.000,72.300 81.298,72.300 "
         id="polyline161" />
      <polyline
         fill="none"
         stroke="#000000"
         stroke-width="0.5pt"
         stroke-dasharray="none"
         points="77.000,363.000 77.000,40.000 "
         id="polyline163" />
      <g
         transform="translate(68.404,336.100)"
         id="g165">
        <g
           transform="rotate(-0.0)"
           id="g167">
          <text
             x="0.000"
             y="0.000"
             font-family="cmr12"
             text-anchor="end"
             font-size="14.4pt"
             fill="#000000"
             id="text169"> 10</text>
        </g>
      </g>
      <g
         transform="translate(68.404,303.800)"
         id="g171">
        <g
           transform="rotate(-0.0)"
           id="g173">
          <text
             x="0.000"
             y="0.000"
             font-family="cmr12"
             text-anchor="end"
             font-size="14.4pt"
             fill="#000000"
             id="text175"> 20</text>
        </g>
      </g>
      <g
         transform="translate(68.404,271.500)"
         id="g177">
        <g
           transform="rotate(-0.0)"
           id="g179">
          <text
             x="0.000"
             y="0.000"
             font-family="cmr12"
             text-anchor="end"
             font-size="14.4pt"
             fill="#000000"
             id="text181"> 30</text>
        </g>
      </g>
      <g
         transform="translate(68.404,239.200)"
         id="g183">
        <g
           transform="rotate(-0.0)"
           id="g185">
          <text
             x="0.000"
             y="0.000"
             font-family="cmr12"
             text-anchor="end"
             font-size="14.4pt"
             fill="#000000"
             id="text187"> 40</text>
        </g>
      </g>
      <g
         transform="translate(68.404,206.900)"
         id="g189">
        <g
           transform="rotate(-0.0)"
           id="g191">
          <text
             x="0.000"
             y="0.000"
             font-family="cmr12"
             text-anchor="end"
             font-size="14.4pt"
             fill="#000000"
             id="text193"> 50</text>
        </g>
      </g>
      <g
         transform="translate(68.404,174.600)"
         id="g195">
        <g
           transform="rotate(-0.0)"
           id="g197">
          <text
             x="0.000"
             y="0.000"
             font-family="cmr12"
             text-anchor="end"
             font-size="14.4pt"
             fill="#000000"
             id="text199"> 60</text>
        </g>
      </g>
      <g
         transform="translate(68.404,142.300)"
         id="g201">
        <g
           transform="rotate(-0.0)"
           id="g203">
          <text
             x="0.000"
             y="0.000"
             font-family="cmr12"
             text-anchor="end"
             font-size="14.4pt"
             fill="#000000"
             id="text205"> 70</text>
        </g>
      </g>
      <g
         transform="translate(68.404,110.000)"
         id="g207">
        <g
           transform="rotate(-0.0)"
           id="g209">
          <text
             x="0.000"
             y="0.000"
             font-family="cmr12"
             text-anchor="end"
             font-size="14.4pt"
             fill="#000000"
             id="text211"> 80</text>
        </g>
      </g>
      <g
         transform="translate(68.404,77.700)"
         id="g213">
        <g
           transform="rotate(-0.0)"
           id="g215">
          <text
             x="0.000"
             y="0.000"
             font-family="cmr12"
             text-anchor="end"
             font-size="14.4pt"
             fill="#000000"
             id="text217"> 90</text>
        </g>
      </g>
      <g
         transform="translate(68.404,45.400)"
         id="g219">
        <g
           transform="rotate(-0.0)"
           id="g221">
          <text
             x="0.000"
             y="0.000"
             font-family="cmr12"
             text-anchor="end"
             font-size="14.4pt"
             fill="#000000"
             id="text223">100</text>
        </g>
      </g>
      <polyline
         fill="none"
         stroke="#000000"
         stroke-width="0.5pt"
         stroke-dasharray="none"
         points="77.000,363.000 77.000,359.770 "
         id="polyline225" />
      <polyline
         fill="none"
         stroke="#000000"
         stroke-width="0.5pt"
         stroke-dasharray="none"
         points="77.000,363.000 77.000,363.000 "
         id="polyline227" />
    </g>
  </g>
  <g
     id="g229">
    <clipPath
       id="ID000001">
      <rect
         x="246.833"
         y="161.667"
         width="255.000"
         height="84.667"
         id="rect232" />
    </clipPath>
    <polyline
       fill="#ffffff"
       fill-opacity="1.00"
       stroke="none"
       stroke-width="0.5pt"
       stroke-opacity="1.00"
       stroke-dasharray="none"
       points="246.833,246.333 501.833,246.333 501.833,161.667 246.833,161.667 "
       id="polyline234" />
    <polyline
       fill="#ffffff"
       fill-opacity="1.00"
       stroke="none"
       stroke-width="0.5pt"
       stroke-opacity="1.00"
       stroke-dasharray="none"
       points="246.833,161.667 501.833,161.667 501.833,161.667 246.833,161.667 "
       id="polyline236" />
    <polyline
       fill="#ffffff"
       fill-opacity="1.00"
       stroke="none"
       stroke-width="0.5pt"
       stroke-opacity="1.00"
       stroke-dasharray="none"
       points="246.833,246.333 246.833,246.333 246.833,161.667 246.833,161.667 "
       id="polyline238" />
    <g
       id="g240">
      <g
         transform="translate(299.333,183.698)"
         id="g242">
        <g
           transform="rotate(-0.0)"
           id="g244">
          <text
             x="0.000"
             y="0.000"
             font-family="cmr12"
             text-anchor="start"
             font-size="14.4pt"
             fill="#000000"
             id="text246">Pretest</text>
        </g>
      </g>
      <g
         clip-path="url(#ID000001)"
         id="g248">
        <polyline
           fill="none"
           stroke="#0000ff"
           stroke-width="0.5pt"
           stroke-dasharray="none"
           points="254.833,177.333 294.833,177.333 "
           id="polyline250" />
        <g
           id="g252" />
      </g>
      <g
         clip-path="url(#ID000001)"
         id="g254">
        <g
           id="g256" />
      </g>
      <g
         transform="translate(299.333,210.912)"
         id="g258">
        <g
           transform="rotate(-0.0)"
           id="g260">
          <text
             x="0.000"
             y="0.000"
             font-family="cmr12"
             text-anchor="start"
             font-size="14.4pt"
             fill="#000000"
             id="text262">PT+Exercise</text>
        </g>
      </g>
      <g
         clip-path="url(#ID000001)"
         id="g264">
        <polyline
           fill="none"
           stroke="#007f00"
           stroke-width="0.5pt"
           stroke-dasharray="none"
           points="254.833,204.000 294.833,204.000 "
           id="polyline266" />
        <g
           id="g268" />
      </g>
      <g
         clip-path="url(#ID000001)"
         id="g270">
        <g
           id="g272" />
      </g>
      <g
         transform="translate(299.333,237.118)"
         id="g274">
        <g
           transform="rotate(-0.0)"
           id="g276">
          <text
             x="0.000"
             y="0.000"
             font-family="cmr12"
             text-anchor="start"
             font-size="14.4pt"
             fill="#000000"
             id="text278">PT+EX+Proposed</text>
        </g>
      </g>
      <g
         clip-path="url(#ID000001)"
         id="g280">
        <polyline
           fill="none"
           stroke="#ff0000"
           stroke-width="0.5pt"
           stroke-dasharray="none"
           points="254.833,230.667 294.833,230.667 "
           id="polyline282" />
        <g
           id="g284" />
      </g>
      <g
         clip-path="url(#ID000001)"
         id="g286">
        <g
           id="g288" />
      </g>
    </g>
    <g
       id="g290">
      <polyline
         fill="none"
         stroke="#000000"
         stroke-width="0.5pt"
         stroke-dasharray="none"
         points="246.833,246.333 501.833,246.333 "
         id="polyline292" />
      <polyline
         fill="none"
         stroke="#000000"
         stroke-width="0.5pt"
         stroke-dasharray="none"
         points="246.833,161.667 501.833,161.667 "
         id="polyline294" />
      <polyline
         fill="none"
         stroke="#000000"
         stroke-width="0.5pt"
         stroke-dasharray="none"
         points="246.833,246.333 246.833,161.667 "
         id="polyline296" />
      <polyline
         fill="none"
         stroke="#000000"
         stroke-width="0.5pt"
         stroke-dasharray="none"
         points="501.833,246.333 501.833,161.667 "
         id="polyline298" />
      <polyline
         fill="none"
         stroke="#000000"
         stroke-width="0.5pt"
         stroke-dasharray="none"
         points="246.833,246.333 246.833,245.487 "
         id="polyline300" />
      <polyline
         fill="none"
         stroke="#000000"
         stroke-width="0.5pt"
         stroke-dasharray="none"
         points="246.833,246.333 246.833,246.333 "
         id="polyline302" />
    </g>
  </g>
  <g
     id="g304">
    <clipPath
       id="ID000002">
      <rect
         x="0.000"
         y="0.000"
         width="560.000"
         height="420.000"
         id="rect307" />
    </clipPath>
    <g
       id="g309">
      <g
         clip-path="url(#ID000002)"
         id="g311">
        <polyline
           fill="none"
           stroke="#000000"
           stroke-width="0.0pt"
           stroke-dasharray="none"
           points="280.000,5.000 "
           id="polyline313" />
        <g
           id="g315">
          <polyline
             fill="#000000"
             fill-opacity="1.00"
             stroke="#ffffff"
             stroke-width="0.0pt"
             stroke-opacity="1.00"
             stroke-dasharray="none"
             points="276.000,1.000 276.000,9.000 284.000,9.000 284.000,1.000 276.000,1.000 "
             id="polyline317" />
        </g>
      </g>
      <g
         clip-path="url(#ID000002)"
         id="g319">
        <polyline
           fill="none"
           stroke="#000000"
           stroke-width="0.0pt"
           stroke-dasharray="none"
           points="555.000,210.000 "
           id="polyline321" />
        <g
           id="g323">
          <polyline
             fill="#000000"
             fill-opacity="1.00"
             stroke="#ffffff"
             stroke-width="0.0pt"
             stroke-opacity="1.00"
             stroke-dasharray="none"
             points="551.000,206.000 551.000,214.000 559.000,214.000 559.000,206.000 551.000,206.000 "
             id="polyline325" />
        </g>
      </g>
      <g
         clip-path="url(#ID000002)"
         id="g327">
        <polyline
           fill="none"
           stroke="#000000"
           stroke-width="0.0pt"
           stroke-dasharray="none"
           points="280.000,415.000 "
           id="polyline329" />
        <g
           id="g331">
          <polyline
             fill="#000000"
             fill-opacity="1.00"
             stroke="#ffffff"
             stroke-width="0.0pt"
             stroke-opacity="1.00"
             stroke-dasharray="none"
             points="276.000,411.000 276.000,419.000 284.000,419.000 284.000,411.000 276.000,411.000 "
             id="polyline333" />
        </g>
      </g>
      <g
         clip-path="url(#ID000002)"
         id="g335">
        <polyline
           fill="none"
           stroke="#000000"
           stroke-width="0.0pt"
           stroke-dasharray="none"
           points="5.000,210.000 "
           id="polyline337" />
        <g
           id="g339">
          <polyline
             fill="#000000"
             fill-opacity="1.00"
             stroke="#ffffff"
             stroke-width="0.0pt"
             stroke-opacity="1.00"
             stroke-dasharray="none"
             points="1.000,206.000 1.000,214.000 9.000,214.000 9.000,206.000 1.000,206.000 "
             id="polyline341" />
        </g>
      </g>
      <g
         clip-path="url(#ID000002)"
         id="g343">
        <polyline
           fill="none"
           stroke="#000000"
           stroke-width="0.0pt"
           stroke-dasharray="none"
           points="5.000,5.000 "
           id="polyline345" />
        <g
           id="g347">
          <polyline
             fill="#000000"
             fill-opacity="1.00"
             stroke="#ffffff"
             stroke-width="0.0pt"
             stroke-opacity="1.00"
             stroke-dasharray="none"
             points="1.000,1.000 1.000,9.000 9.000,9.000 9.000,1.000 1.000,1.000 "
             id="polyline349" />
        </g>
      </g>
      <g
         clip-path="url(#ID000002)"
         id="g351">
        <polyline
           fill="none"
           stroke="#000000"
           stroke-width="0.0pt"
           stroke-dasharray="none"
           points="555.000,415.000 "
           id="polyline353" />
        <g
           id="g355">
          <polyline
             fill="#000000"
             fill-opacity="1.00"
             stroke="#ffffff"
             stroke-width="0.0pt"
             stroke-opacity="1.00"
             stroke-dasharray="none"
             points="551.000,411.000 551.000,419.000 559.000,419.000 559.000,411.000 551.000,411.000 "
             id="polyline357" />
        </g>
      </g>
      <g
         clip-path="url(#ID000002)"
         id="g359">
        <polyline
           fill="none"
           stroke="#000000"
           stroke-width="0.0pt"
           stroke-dasharray="none"
           points="555.000,5.000 "
           id="polyline361" />
        <g
           id="g363">
          <polyline
             fill="#000000"
             fill-opacity="1.00"
             stroke="#ffffff"
             stroke-width="0.0pt"
             stroke-opacity="1.00"
             stroke-dasharray="none"
             points="551.000,1.000 551.000,9.000 559.000,9.000 559.000,1.000 551.000,1.000 "
             id="polyline365" />
        </g>
      </g>
      <g
         clip-path="url(#ID000002)"
         id="g367">
        <polyline
           fill="none"
           stroke="#000000"
           stroke-width="0.0pt"
           stroke-dasharray="none"
           points="5.000,415.000 "
           id="polyline369" />
        <g
           id="g371">
          <polyline
             fill="#000000"
             fill-opacity="1.00"
             stroke="#ffffff"
             stroke-width="0.0pt"
             stroke-opacity="1.00"
             stroke-dasharray="none"
             points="1.000,411.000 1.000,419.000 9.000,419.000 9.000,411.000 1.000,411.000 "
             id="polyline373" />
        </g>
      </g>
    </g>
  </g>
  <text
     xml:space="preserve"
     style="font-size:16px;font-style:normal;font-variant:normal;font-weight:normal;font-stretch:normal;line-height:125%;letter-spacing:0px;word-spacing:0px;fill:#000000;fill-opacity:1;stroke:none;font-family:cmsy10;-inkscape-font-specification:cmsy10"
     x="376.74026"
     y="25.558296"
     id="text3484"
     sodipodi:linespacing="125%"><tspan
       sodipodi:role="line"
       id="tspan3486"
       x="376.74026"
       y="25.558296">¸</tspan></text>
</svg>
