<?xml version="1.0" encoding="UTF-8" standalone="no"?>
<!-- Created with Inkscape (http://www.inkscape.org/) -->

<svg
   xmlns:dc="http://purl.org/dc/elements/1.1/"
   xmlns:cc="http://creativecommons.org/ns#"
   xmlns:rdf="http://www.w3.org/1999/02/22-rdf-syntax-ns#"
   xmlns:svg="http://www.w3.org/2000/svg"
   xmlns="http://www.w3.org/2000/svg"
   xmlns:sodipodi="http://sodipodi.sourceforge.net/DTD/sodipodi-0.dtd"
   xmlns:inkscape="http://www.inkscape.org/namespaces/inkscape"
   width="308.4361mm"
   height="142.91016mm"
   viewBox="0 0 1092.8838 506.37457"
   id="svg3784"
   version="1.1"
   inkscape:version="0.91 r13725"
   sodipodi:docname="PandT_BandpassFilter_2.svg">
  <defs
     id="defs3786">
    <clipPath
       id="ID000001">
      <rect
         x="166.481"
         y="42.82"
         width="992.48401"
         height="465.314"
         id="rect11" />
    </clipPath>
  </defs>
  <sodipodi:namedview
     id="base"
     pagecolor="#ffffff"
     bordercolor="#666666"
     borderopacity="1.0"
     inkscape:pageopacity="0.0"
     inkscape:pageshadow="2"
     inkscape:zoom="2.8"
     inkscape:cx="908.76753"
     inkscape:cy="41.853885"
     inkscape:document-units="px"
     inkscape:current-layer="layer1"
     showgrid="false"
     fit-margin-top="0"
     fit-margin-left="0"
     fit-margin-right="0"
     fit-margin-bottom="0"
     inkscape:window-width="1366"
     inkscape:window-height="706"
     inkscape:window-x="-8"
     inkscape:window-y="-8"
     inkscape:window-maximized="1" />
  <metadata
     id="metadata3789">
    <rdf:RDF>
      <cc:Work
         rdf:about="">
        <dc:format>image/svg+xml</dc:format>
        <dc:type
           rdf:resource="http://purl.org/dc/dcmitype/StillImage" />
        <dc:title />
      </cc:Work>
    </rdf:RDF>
  </metadata>
  <g
     inkscape:label="Capa 1"
     inkscape:groupmode="layer"
     id="layer1"
     transform="translate(-62.129509,-333.46063)">
    <g
       id="ID000000"
       transform="translate(-12.802136,294.50757)">
      <clipPath
         id="clipPath3583">
        <rect
           x="166.481"
           y="42.82"
           width="992.48401"
           height="465.314"
           id="rect3585" />
      </clipPath>
      <polygon
         points="1158.966,42.82 166.481,42.82 166.481,508.134 1158.966,508.134 "
         id="polygon13"
         style="fill:#ffffff;fill-opacity:1;stroke:none;stroke-width:0.5pt;stroke-dasharray:none;stroke-opacity:1" />
      <polygon
         points="1158.966,42.82 166.481,42.82 166.481,42.82 1158.966,42.82 "
         id="polygon15"
         style="fill:#ffffff;fill-opacity:1;stroke:none;stroke-width:0.5pt;stroke-dasharray:none;stroke-opacity:1" />
      <polygon
         points="166.481,42.82 166.481,42.82 166.481,508.134 166.481,508.134 "
         id="polygon17"
         style="fill:#ffffff;fill-opacity:1;stroke:none;stroke-width:0.5pt;stroke-dasharray:none;stroke-opacity:1" />
      <polyline
         points="497.309,508.134 497.309,42.820 "
         id="polyline19"
         style="fill:none;stroke:#000000;stroke-width:0.5pt;stroke-dasharray:2, 2" />
      <polyline
         points="828.137,508.134 828.137,42.820 "
         id="polyline21"
         style="fill:none;stroke:#000000;stroke-width:0.5pt;stroke-dasharray:2, 2" />
      <polyline
         points="266.070,508.134 266.070,42.820 "
         id="polyline23"
         style="fill:none;stroke:#000000;stroke-width:0.5pt;stroke-dasharray:2, 2" />
      <polyline
         points="324.326,508.134 324.326,42.820 "
         id="polyline25"
         style="fill:none;stroke:#000000;stroke-width:0.5pt;stroke-dasharray:2, 2" />
      <polyline
         points="365.660,508.134 365.660,42.820 "
         id="polyline27"
         style="fill:none;stroke:#000000;stroke-width:0.5pt;stroke-dasharray:2, 2" />
      <polyline
         points="397.720,508.134 397.720,42.820 "
         id="polyline29"
         style="fill:none;stroke:#000000;stroke-width:0.5pt;stroke-dasharray:2, 2" />
      <polyline
         points="423.916,508.134 423.916,42.820 "
         id="polyline31"
         style="fill:none;stroke:#000000;stroke-width:0.5pt;stroke-dasharray:2, 2" />
      <polyline
         points="446.063,508.134 446.063,42.820 "
         id="polyline33"
         style="fill:none;stroke:#000000;stroke-width:0.5pt;stroke-dasharray:2, 2" />
      <polyline
         points="465.249,508.134 465.249,42.820 "
         id="polyline35"
         style="fill:none;stroke:#000000;stroke-width:0.5pt;stroke-dasharray:2, 2" />
      <polyline
         points="482.172,508.134 482.172,42.820 "
         id="polyline37"
         style="fill:none;stroke:#000000;stroke-width:0.5pt;stroke-dasharray:2, 2" />
      <polyline
         points="596.899,508.134 596.899,42.820 "
         id="polyline39"
         style="fill:none;stroke:#000000;stroke-width:0.5pt;stroke-dasharray:2, 2" />
      <polyline
         points="655.155,508.134 655.155,42.820 "
         id="polyline41"
         style="fill:none;stroke:#000000;stroke-width:0.5pt;stroke-dasharray:2, 2" />
      <polyline
         points="696.488,508.134 696.488,42.820 "
         id="polyline43"
         style="fill:none;stroke:#000000;stroke-width:0.5pt;stroke-dasharray:2, 2" />
      <polyline
         points="728.548,508.134 728.548,42.820 "
         id="polyline45"
         style="fill:none;stroke:#000000;stroke-width:0.5pt;stroke-dasharray:2, 2" />
      <polyline
         points="754.744,508.134 754.744,42.820 "
         id="polyline47"
         style="fill:none;stroke:#000000;stroke-width:0.5pt;stroke-dasharray:2, 2" />
      <polyline
         points="776.892,508.134 776.892,42.820 "
         id="polyline49"
         style="fill:none;stroke:#000000;stroke-width:0.5pt;stroke-dasharray:2, 2" />
      <polyline
         points="796.077,508.134 796.077,42.820 "
         id="polyline51"
         style="fill:none;stroke:#000000;stroke-width:0.5pt;stroke-dasharray:2, 2" />
      <polyline
         points="813.000,508.134 813.000,42.820 "
         id="polyline53"
         style="fill:none;stroke:#000000;stroke-width:0.5pt;stroke-dasharray:2, 2" />
      <polyline
         points="927.727,508.134 927.727,42.820 "
         id="polyline55"
         style="fill:none;stroke:#000000;stroke-width:0.5pt;stroke-dasharray:2, 2" />
      <polyline
         points="985.983,508.134 985.983,42.820 "
         id="polyline57"
         style="fill:none;stroke:#000000;stroke-width:0.5pt;stroke-dasharray:2, 2" />
      <polyline
         points="1027.316,508.134 1027.316,42.820 "
         id="polyline59"
         style="fill:none;stroke:#000000;stroke-width:0.5pt;stroke-dasharray:2, 2" />
      <polyline
         points="1059.376,508.134 1059.376,42.820 "
         id="polyline61"
         style="fill:none;stroke:#000000;stroke-width:0.5pt;stroke-dasharray:2, 2" />
      <polyline
         points="1085.572,508.134 1085.572,42.820 "
         id="polyline63"
         style="fill:none;stroke:#000000;stroke-width:0.5pt;stroke-dasharray:2, 2" />
      <polyline
         points="1107.720,508.134 1107.720,42.820 "
         id="polyline65"
         style="fill:none;stroke:#000000;stroke-width:0.5pt;stroke-dasharray:2, 2" />
      <polyline
         points="1126.905,508.134 1126.905,42.820 "
         id="polyline67"
         style="fill:none;stroke:#000000;stroke-width:0.5pt;stroke-dasharray:2, 2" />
      <polyline
         points="1143.828,508.134 1143.828,42.820 "
         id="polyline69"
         style="fill:none;stroke:#000000;stroke-width:0.5pt;stroke-dasharray:2, 2" />
      <polyline
         points="166.481,449.970 1158.966,449.970 "
         id="polyline71"
         style="fill:none;stroke:#000000;stroke-width:0.5pt;stroke-dasharray:2, 2" />
      <polyline
         points="166.481,391.806 1158.966,391.806 "
         id="polyline73"
         style="fill:none;stroke:#000000;stroke-width:0.5pt;stroke-dasharray:2, 2" />
      <polyline
         points="166.481,333.642 1158.966,333.642 "
         id="polyline75"
         style="fill:none;stroke:#000000;stroke-width:0.5pt;stroke-dasharray:2, 2" />
      <polyline
         points="166.481,275.477 1158.966,275.477 "
         id="polyline77"
         style="fill:none;stroke:#000000;stroke-width:0.5pt;stroke-dasharray:2, 2" />
      <polyline
         points="166.481,217.313 1158.966,217.313 "
         id="polyline79"
         style="fill:none;stroke:#000000;stroke-width:0.5pt;stroke-dasharray:2, 2" />
      <polyline
         points="166.481,159.149 1158.966,159.149 "
         id="polyline81"
         style="fill:none;stroke:#000000;stroke-width:0.5pt;stroke-dasharray:2, 2" />
      <polyline
         points="166.481,100.985 1158.966,100.985 "
         id="polyline83"
         style="fill:none;stroke:#000000;stroke-width:0.5pt;stroke-dasharray:2, 2" />
      <polyline
         points="497.309,42.820 497.309,42.820 "
         id="polyline85"
         style="fill:none;stroke:#000000;stroke-width:0.5pt;stroke-dasharray:2, 2" />
      <polyline
         points="828.137,42.820 828.137,42.820 "
         id="polyline87"
         style="fill:none;stroke:#000000;stroke-width:0.5pt;stroke-dasharray:2, 2" />
      <polyline
         points="266.070,42.820 266.070,42.820 "
         id="polyline89"
         style="fill:none;stroke:#000000;stroke-width:0.5pt;stroke-dasharray:2, 2" />
      <polyline
         points="324.326,42.820 324.326,42.820 "
         id="polyline91"
         style="fill:none;stroke:#000000;stroke-width:0.5pt;stroke-dasharray:2, 2" />
      <polyline
         points="365.660,42.820 365.660,42.820 "
         id="polyline93"
         style="fill:none;stroke:#000000;stroke-width:0.5pt;stroke-dasharray:2, 2" />
      <polyline
         points="397.720,42.820 397.720,42.820 "
         id="polyline95"
         style="fill:none;stroke:#000000;stroke-width:0.5pt;stroke-dasharray:2, 2" />
      <polyline
         points="423.916,42.820 423.916,42.820 "
         id="polyline97"
         style="fill:none;stroke:#000000;stroke-width:0.5pt;stroke-dasharray:2, 2" />
      <polyline
         points="446.063,42.820 446.063,42.820 "
         id="polyline99"
         style="fill:none;stroke:#000000;stroke-width:0.5pt;stroke-dasharray:2, 2" />
      <polyline
         points="465.249,42.820 465.249,42.820 "
         id="polyline101"
         style="fill:none;stroke:#000000;stroke-width:0.5pt;stroke-dasharray:2, 2" />
      <polyline
         points="482.172,42.820 482.172,42.820 "
         id="polyline103"
         style="fill:none;stroke:#000000;stroke-width:0.5pt;stroke-dasharray:2, 2" />
      <polyline
         points="596.899,42.820 596.899,42.820 "
         id="polyline105"
         style="fill:none;stroke:#000000;stroke-width:0.5pt;stroke-dasharray:2, 2" />
      <polyline
         points="655.155,42.820 655.155,42.820 "
         id="polyline107"
         style="fill:none;stroke:#000000;stroke-width:0.5pt;stroke-dasharray:2, 2" />
      <polyline
         points="696.488,42.820 696.488,42.820 "
         id="polyline109"
         style="fill:none;stroke:#000000;stroke-width:0.5pt;stroke-dasharray:2, 2" />
      <polyline
         points="728.548,42.820 728.548,42.820 "
         id="polyline111"
         style="fill:none;stroke:#000000;stroke-width:0.5pt;stroke-dasharray:2, 2" />
      <polyline
         points="754.744,42.820 754.744,42.820 "
         id="polyline113"
         style="fill:none;stroke:#000000;stroke-width:0.5pt;stroke-dasharray:2, 2" />
      <polyline
         points="776.892,42.820 776.892,42.820 "
         id="polyline115"
         style="fill:none;stroke:#000000;stroke-width:0.5pt;stroke-dasharray:2, 2" />
      <polyline
         points="796.077,42.820 796.077,42.820 "
         id="polyline117"
         style="fill:none;stroke:#000000;stroke-width:0.5pt;stroke-dasharray:2, 2" />
      <polyline
         points="813.000,42.820 813.000,42.820 "
         id="polyline119"
         style="fill:none;stroke:#000000;stroke-width:0.5pt;stroke-dasharray:2, 2" />
      <polyline
         points="927.727,42.820 927.727,42.820 "
         id="polyline121"
         style="fill:none;stroke:#000000;stroke-width:0.5pt;stroke-dasharray:2, 2" />
      <polyline
         points="985.983,42.820 985.983,42.820 "
         id="polyline123"
         style="fill:none;stroke:#000000;stroke-width:0.5pt;stroke-dasharray:2, 2" />
      <polyline
         points="1027.316,42.820 1027.316,42.820 "
         id="polyline125"
         style="fill:none;stroke:#000000;stroke-width:0.5pt;stroke-dasharray:2, 2" />
      <polyline
         points="1059.376,42.820 1059.376,42.820 "
         id="polyline127"
         style="fill:none;stroke:#000000;stroke-width:0.5pt;stroke-dasharray:2, 2" />
      <polyline
         points="1085.572,42.820 1085.572,42.820 "
         id="polyline129"
         style="fill:none;stroke:#000000;stroke-width:0.5pt;stroke-dasharray:2, 2" />
      <polyline
         points="1107.720,42.820 1107.720,42.820 "
         id="polyline131"
         style="fill:none;stroke:#000000;stroke-width:0.5pt;stroke-dasharray:2, 2" />
      <polyline
         points="1126.905,42.820 1126.905,42.820 "
         id="polyline133"
         style="fill:none;stroke:#000000;stroke-width:0.5pt;stroke-dasharray:2, 2" />
      <polyline
         points="1143.828,42.820 1143.828,42.820 "
         id="polyline135"
         style="fill:none;stroke:#000000;stroke-width:0.5pt;stroke-dasharray:2, 2" />
      <polyline
         points="166.481,42.820 1158.966,42.820 "
         id="polyline137"
         style="fill:none;stroke:#000000;stroke-width:0.5pt;stroke-dasharray:2, 2" />
      <polyline
         points="166.481,449.970 166.481,449.970 "
         id="polyline139"
         style="fill:none;stroke:#000000;stroke-width:0.5pt;stroke-dasharray:2, 2" />
      <polyline
         points="166.481,391.806 166.481,391.806 "
         id="polyline141"
         style="fill:none;stroke:#000000;stroke-width:0.5pt;stroke-dasharray:2, 2" />
      <polyline
         points="166.481,333.642 166.481,333.642 "
         id="polyline143"
         style="fill:none;stroke:#000000;stroke-width:0.5pt;stroke-dasharray:2, 2" />
      <polyline
         points="166.481,275.477 166.481,275.477 "
         id="polyline145"
         style="fill:none;stroke:#000000;stroke-width:0.5pt;stroke-dasharray:2, 2" />
      <polyline
         points="166.481,217.313 166.481,217.313 "
         id="polyline147"
         style="fill:none;stroke:#000000;stroke-width:0.5pt;stroke-dasharray:2, 2" />
      <polyline
         points="166.481,159.149 166.481,159.149 "
         id="polyline149"
         style="fill:none;stroke:#000000;stroke-width:0.5pt;stroke-dasharray:2, 2" />
      <polyline
         points="166.481,100.985 166.481,100.985 "
         id="polyline151"
         style="fill:none;stroke:#000000;stroke-width:0.5pt;stroke-dasharray:2, 2" />
      <polyline
         points="166.481,508.134 166.481,42.820 "
         id="polyline153"
         style="fill:none;stroke:#000000;stroke-width:0.5pt;stroke-dasharray:2, 2" />
      <g
         id="g155">
        <g
           id="ID000002"
           clip-path="url(#ID000001)">
          <polyline
             points="166.481,245.692 266.070,225.888 324.326,212.566 365.660,201.967 397.720,193.049 423.916,185.347 446.063,178.584 465.249,172.571 482.172,167.171 497.309,162.281 511.003,157.819 523.505,153.724 535.005,149.945 545.653,146.440 555.565,143.177 564.838,140.128 573.548,137.269 581.761,134.582 589.529,132.049 596.899,129.657 603.909,127.393 610.592,125.246 616.979,123.207 623.094,121.268 628.959,119.421 634.594,117.661 640.017,115.981 645.242,114.377 650.284,112.843 655.155,111.376 659.866,109.972 664.427,108.627 668.848,107.339 673.138,106.104 677.302,104.920 681.350,103.784 685.286,102.695 689.118,101.651 692.850,100.648 696.488,99.687 700.036,98.765 703.498,97.880 706.879,97.032 710.182,96.219 713.410,95.439 716.568,94.693 719.658,93.978 722.683,93.294 725.646,92.639 728.548,92.014 731.393,91.416 734.183,90.846 736.920,90.303 739.606,89.786 742.242,89.293 744.831,88.826 747.374,88.382 749.873,87.963 752.329,87.566 754.744,87.191 757.119,86.839 759.455,86.508 761.754,86.198 764.016,85.909 766.244,85.640 768.438,85.391 770.598,85.162 772.727,84.952 774.824,84.761 776.892,84.588 778.930,84.433 780.939,84.297 782.921,84.177 784.876,84.075 786.804,83.991 788.707,83.922 790.585,83.871 792.439,83.835 794.270,83.815 796.077,83.811 797.862,83.823 799.625,83.849 801.366,83.890 803.087,83.946 804.787,84.017 806.468,84.101 808.129,84.200 809.771,84.312 811.394,84.437 813.000,84.576 814.587,84.728 816.157,84.892 817.711,85.068 819.247,85.257 820.768,85.458 822.272,85.670 823.761,85.894 825.235,86.128 826.693,86.374 828.137,86.630 829.567,86.896 830.983,87.172 832.384,87.457 833.773,87.752 835.148,88.056 836.509,88.368 837.858,88.689 839.195,89.017 840.519,89.353 841.831,89.697 843.132,90.047 844.420,90.403 845.697,90.766 846.963,91.134 848.218,91.507 849.462,91.886 850.695,92.268 851.918,92.654 853.131,93.044 854.333,93.437 855.525,93.833 856.708,94.230 857.881,94.629 859.044,95.030 860.198,95.431 861.343,95.832 862.479,96.233 863.606,96.633 864.724,97.032 865.833,97.430 866.934,97.825 868.027,98.218 869.111,98.608 870.187,98.994 871.256,99.377 872.316,99.755 873.369,100.129 874.413,100.498 875.451,100.862 876.481,101.220 877.503,101.572 878.519,101.919 879.527,102.259 880.528,102.592 881.523,102.919 882.510,103.239 883.491,103.552 884.465,103.858 885.432,104.156 886.393,104.448 887.348,104.733 888.296,105.010 889.239,105.281 890.175,105.545 891.105,105.802 892.029,106.053 892.947,106.297 893.859,106.536 894.765,106.768 895.666,106.995 896.561,107.217 897.451,107.433 898.335,107.646 899.214,107.853 900.087,108.057 900.955,108.258 901.818,108.455 902.676,108.649 903.529,108.842 904.376,109.032 905.219,109.221 906.057,109.408 906.890,109.595 907.718,109.782 908.541,109.969 909.360,110.157 910.174,110.345 910.983,110.535 911.788,110.727 912.589,110.922 913.385,111.118 914.176,111.318 914.964,111.522 915.747,111.729 916.525,111.940 917.300,112.155 918.070,112.376 918.837,112.601 919.599,112.832 920.357,113.069 921.111,113.312 921.862,113.561 922.608,113.816 923.350,114.079 924.089,114.348 924.824,114.625 925.555,114.909 926.283,115.201 927.007,115.501 927.727,115.809 928.443,116.126 929.156,116.450 929.866,116.784 930.572,117.126 931.274,117.477 931.974,117.837 932.669,118.206 933.362,118.584 934.051,118.972 934.737,119.369 935.419,119.775 936.099,120.191 936.775,120.617 937.448,121.052 938.117,121.497 938.784,121.952 939.448,122.416 940.108,122.890 940.766,123.374 941.421,123.868 942.072,124.371 942.721,124.885 943.367,125.407 944.009,125.940 944.649,126.482 945.287,127.034 945.921,127.596 946.552,128.166 947.181,128.747 947.807,129.337 948.431,129.936 949.051,130.544 949.669,131.162 950.284,131.788 950.897,132.424 951.507,133.069 952.115,133.722 952.720,134.384 953.322,135.055 953.922,135.735 954.519,136.423 955.114,137.119 955.707,137.823 956.297,138.536 956.885,139.257 957.470,139.985 958.053,140.722 958.633,141.466 959.211,142.218 959.787,142.978 960.361,143.745 960.932,144.520 961.501,145.303 962.068,146.092 962.632,146.889 963.195,147.694 963.755,148.506 964.313,149.325 964.869,150.151 965.422,150.985 965.974,151.827 966.523,152.676 967.071,153.532 967.616,154.397 968.159,155.269 968.700,156.149 969.239,157.038 969.777,157.935 970.312,158.840 970.845,159.755 971.376,160.679 971.905,161.612 972.432,162.556 972.958,163.509 973.481,164.474 974.003,165.449 974.522,166.437 975.040,167.436 975.556,168.449 976.070,169.475 976.582,170.515 977.093,171.570 977.601,172.641 978.108,173.729 978.613,174.834 979.116,175.957 979.618,177.100 980.117,178.263 980.615,179.448 981.112,180.657 981.606,181.889 982.099,183.147 982.590,184.433 983.080,185.748 983.568,187.093 984.054,188.471 984.539,189.884 985.022,191.334 985.503,192.823 985.983,194.354 986.461,195.929 986.937,197.553 987.412,199.227 987.886,200.957 988.358,202.745 988.828,204.596 989.297,206.515 989.764,208.508 990.230,210.581 990.694,212.740 991.156,214.993 991.618,217.348 992.078,219.817 992.536,222.409 992.993,225.139 993.448,228.022 993.902,231.075 994.355,234.320 994.806,237.783 995.255,241.496 995.704,245.496 996.151,249.833 996.596,254.567 997.040,259.781 997.483,265.580 997.924,272.117 998.364,279.605 998.803,288.372 999.240,298.951 999.676,312.299 1000.111,330.415 1000.545,358.788 1000.977,428.930 1001.408,394.020 1001.837,347.841 1002.265,324.214 1002.692,308.247 1003.118,296.189 1003.542,286.510 1003.966,278.434 1004.388,271.512 1004.808,265.460 1005.228,260.091 1005.646,255.269 1006.063,250.897 1006.479,246.902 1006.894,243.227 1007.307,239.828 1007.719,236.667 1008.131,233.717 1008.540,230.954 1008.949,228.356 1009.357,225.907 1009.763,223.592 1010.169,221.400 1010.573,219.319 1010.976,217.339 1011.378,215.453 1011.778,213.654 1012.178,211.934 1012.577,210.288 1012.974,208.711 1013.370,207.198 1013.766,205.745 1014.160,204.349 1014.553,203.005 1014.945,201.710 1015.336,200.462 1015.726,199.258 1016.115,198.096 1016.502,196.972 1016.889,195.886 1017.275,194.835 1017.660,193.817 1018.043,192.830 1018.426,191.873 1018.807,190.945 1019.188,190.044 1019.568,189.168 1019.946,188.317 1020.324,187.490 1020.700,186.684 1021.076,185.900 1021.451,185.136 1021.824,184.391 1022.197,183.665 1022.569,182.956 1022.940,182.264 1023.309,181.588 1023.678,180.927 1024.046,180.281 1024.413,179.650 1024.779,179.031 1025.144,178.426 1025.509,177.833 1025.872,177.252 1026.234,176.683 1026.596,176.125 1026.956,175.577 1027.316,175.039 1027.675,174.512 1028.032,173.994 1028.389,173.485 1028.746,172.985 1029.101,172.494 1029.455,172.011 1029.808,171.536 1030.161,171.069 1030.513,170.610 1030.864,170.158 1031.214,169.714 1031.563,169.277 1031.911,168.846 1032.259,168.423 1032.605,168.007 1032.951,167.597 1033.296,167.194 1033.640,166.798 1033.983,166.408 1034.326,166.024 1034.668,165.647 1035.008,165.276 1035.349,164.911 1035.688,164.553 1036.026,164.201 1036.364,163.855 1036.701,163.515 1037.037,163.182 1037.372,162.855 1037.707,162.534 1038.040,162.219 1038.373,161.911 1038.706,161.609 1039.037,161.313 1039.368,161.024 1039.698,160.741 1040.027,160.465 1040.355,160.195 1040.683,159.932 1041.010,159.675 1041.336,159.425 1041.661,159.182 1041.986,158.945 1042.310,158.715 1042.633,158.492 1042.956,158.276 1043.278,158.066 1043.599,157.863 1043.919,157.668 1044.239,157.479 1044.557,157.297 1044.876,157.122 1045.193,156.954 1045.510,156.793 1045.826,156.640 1046.142,156.493 1046.456,156.353 1046.770,156.220 1047.084,156.095 1047.396,155.976 1047.708,155.865 1048.020,155.760 1048.330,155.663 1048.640,155.572 1048.950,155.489 1049.258,155.412 1049.566,155.343 1049.874,155.280 1050.180,155.224 1050.486,155.175 1050.792,155.132 1051.096,155.097 1051.401,155.068 1051.704,155.045 1052.007,155.029 1052.309,155.019 1052.610,155.016 1052.911,155.019 1053.212,155.029 1053.511,155.044 1053.810,155.065 1054.109,155.093 1054.406,155.126 1054.704,155.165 1055.000,155.209 1055.296,155.259 1055.591,155.315 1055.886,155.376 1056.180,155.442 1056.474,155.514 1056.767,155.590 1057.059,155.672 1057.351,155.758 1057.642,155.849 1057.932,155.944 1058.222,156.044 1058.512,156.149 1058.801,156.257 1059.089,156.370 1059.376,156.487 1059.664,156.608 1059.950,156.733 1060.236,156.862 1060.521,156.994 1060.806,157.130 1061.090,157.270 1061.374,157.413 1061.657,157.559 1061.940,157.709 1062.222,157.862 1062.503,158.018 1062.784,158.177 1063.064,158.339 1063.344,158.504 1063.623,158.671 1063.902,158.842 1064.180,159.016 1064.458,159.192 1064.735,159.371 1065.012,159.553 1065.288,159.738 1065.563,159.925 1065.838,160.115 1066.113,160.307 1066.386,160.503 1066.660,160.701 1066.933,160.902 1067.205,161.105 1067.477,161.311 1067.748,161.520 1068.019,161.732 1068.289,161.947 1068.559,162.165 1068.829,162.385 1069.097,162.609 1069.366,162.836 1069.634,163.066 1069.901,163.299 1070.168,163.536 1070.434,163.776 1070.700,164.019 1070.965,164.266 1071.230,164.517 1071.494,164.771 1071.758,165.030 1072.022,165.292 1072.284,165.559 1072.547,165.829 1072.809,166.104 1073.070,166.384 1073.331,166.668 1073.592,166.957 1073.852,167.251 1074.111,167.550 1074.371,167.854 1074.629,168.163 1074.887,168.478 1075.145,168.798 1075.402,169.124 1075.659,169.456 1075.915,169.795 1076.171,170.139 1076.427,170.490 1076.682,170.847 1076.936,171.211 1077.190,171.582 1077.444,171.960 1077.697,172.345 1077.950,172.737 1078.202,173.138 1078.454,173.545 1078.705,173.961 1078.956,174.385 1079.207,174.817 1079.457,175.258 1079.707,175.707 1079.956,176.165 1080.205,176.632 1080.453,177.108 1080.701,177.594 1080.948,178.089 1081.196,178.594 1081.442,179.109 1081.688,179.634 1081.934,180.169 1082.180,180.715 1082.425,181.272 1082.669,181.839 1082.913,182.418 1083.157,183.008 1083.400,183.610 1083.643,184.223 1083.886,184.849 1084.128,185.487 1084.369,186.137 1084.611,186.800 1084.852,187.476 1085.092,188.166 1085.332,188.869 1085.572,189.586 1085.811,190.316 1086.050,191.062 1086.288,191.822 1086.526,192.597 1086.764,193.388 1087.001,194.195 1087.238,195.017 1087.475,195.857 1087.711,196.713 1087.947,197.587 1088.182,198.479 1088.417,199.389 1088.652,200.318 1088.886,201.267 1089.120,202.236 1089.353,203.226 1089.586,204.237 1089.819,205.271 1090.051,206.327 1090.283,207.408 1090.515,208.513 1090.746,209.643 1090.976,210.801 1091.207,211.986 1091.437,213.200 1091.667,214.444 1091.896,215.721 1092.125,217.030 1092.354,218.374 1092.582,219.754 1092.810,221.173 1093.037,222.632 1093.264,224.134 1093.491,225.682 1093.718,227.277 1093.944,228.923 1094.169,230.624 1094.395,232.382 1094.620,234.202 1094.845,236.089 1095.069,238.047 1095.293,240.083 1095.516,242.201 1095.740,244.410 1095.963,246.718 1096.185,249.134 1096.407,251.668 1096.629,254.334 1096.851,257.145 1097.072,260.117 1097.293,263.273 1097.514,266.635 1097.734,270.232 1097.954,274.101 1098.173,278.285 1098.392,282.843 1098.611,287.846 1098.830,293.394 1099.048,299.618 1099.266,306.710 1099.483,314.952 1099.700,324.792 1099.917,337.008 1100.134,353.128 1100.350,376.906 1100.566,423.230 1100.782,458.282 1100.997,388.279 1101.212,360.041 1101.426,342.056 1101.641,328.836 1101.855,318.382 1102.068,309.737 1102.281,302.367 1102.495,295.947 1102.707,290.260 1102.920,285.158 1103.132,280.532 1103.343,276.301 1103.555,272.405 1103.766,268.795 1103.977,265.432 1104.187,262.286 1104.398,259.331 1104.607,256.546 1104.817,253.912 1105.026,251.416 1105.235,249.043 1105.444,246.782 1105.652,244.625 1105.860,242.562 1106.068,240.586 1106.276,238.690 1106.483,236.870 1106.690,235.118 1106.896,233.432 1107.103,231.806 1107.309,230.237 1107.514,228.721 1107.720,227.256 1107.925,225.839 1108.130,224.466 1108.334,223.136 1108.538,221.847 1108.742,220.596 1108.946,219.382 1109.149,218.202 1109.352,217.056 1109.555,215.942 1109.758,214.859 1109.960,213.805 1110.162,212.778 1110.364,211.779 1110.565,210.806 1110.766,209.858 1110.967,208.933 1111.167,208.032 1111.368,207.154 1111.568,206.297 1111.767,205.460 1111.967,204.644 1112.166,203.848 1112.365,203.070 1112.563,202.311 1112.762,201.569 1112.960,200.844 1113.157,200.136 1113.355,199.444 1113.552,198.768 1113.749,198.107 1113.946,197.461 1114.142,196.829 1114.338,196.211 1114.534,195.607 1114.730,195.016 1114.925,194.437 1115.120,193.871 1115.315,193.317 1115.510,192.775 1115.704,192.244 1115.898,191.725 1116.092,191.216 1116.285,190.718 1116.478,190.230 1116.671,189.753 1116.864,189.285 1117.057,188.826 1117.249,188.377 1117.441,187.937 1117.632,187.506 1117.824,187.083 1118.015,186.669 1118.206,186.263 1118.397,185.865 1118.587,185.475 1118.777,185.093 1118.967,184.718 1119.157,184.351 1119.346,183.990 1119.535,183.637 1119.724,183.290 1119.913,182.951 1120.101,182.618 1120.290,182.291 1120.478,181.971 1120.665,181.657 1120.853,181.349 1121.040,181.047 1121.227,180.751 1121.414,180.461 1121.600,180.176 1121.786,179.898 1121.972,179.624 1122.158,179.357 1122.344,179.094 1122.529,178.837 1122.714,178.586 1122.899,178.339 1123.083,178.098 1123.267,177.861 1123.452,177.630 1123.635,177.404 1123.819,177.182 1124.002,176.966 1124.186,176.754 1124.368,176.548 1124.551,176.346 1124.734,176.148 1124.916,175.956 1125.098,175.768 1125.280,175.585 1125.461,175.406 1125.642,175.232 1125.823,175.063 1126.004,174.898 1126.185,174.738 1126.365,174.583 1126.545,174.432 1126.725,174.285 1126.905,174.143 1127.085,174.006 1127.264,173.873 1127.443,173.745 1127.622,173.621 1127.800,173.502 1127.979,173.387 1128.157,173.277 1128.335,173.172 1128.512,173.071 1128.690,172.974 1128.867,172.882 1129.044,172.795 1129.221,172.712 1129.398,172.634 1129.574,172.561 1129.750,172.492 1129.926,172.428 1130.102,172.368 1130.278,172.314 1130.453,172.264 1130.628,172.218 1130.803,172.178 1130.978,172.142 1131.152,172.111 1131.326,172.084 1131.500,172.063 1131.674,172.046 1131.848,172.034 1132.021,172.027 1132.194,172.025 1132.367,172.028 1132.540,172.036 1132.713,172.048 1132.885,172.066 1133.057,172.088 1133.229,172.115 1133.401,172.147 1133.573,172.185 1133.744,172.227 1133.915,172.274 1134.086,172.326 1134.257,172.383 1134.427,172.444 1134.598,172.511 1134.768,172.583 1134.938,172.660 1135.107,172.742 1135.277,172.828 1135.446,172.920 1135.615,173.016 1135.784,173.118 1135.953,173.224 1136.122,173.335 1136.290,173.452 1136.458,173.573 1136.626,173.699 1136.794,173.830 1136.961,173.965 1137.129,174.106 1137.296,174.251 1137.463,174.402 1137.630,174.557 1137.796,174.717 1137.963,174.882 1138.129,175.052 1138.295,175.226 1138.461,175.406 1138.626,175.590 1138.792,175.779 1138.957,175.973 1139.122,176.172 1139.287,176.376 1139.451,176.584 1139.616,176.798 1139.780,177.016 1139.944,177.240 1140.108,177.468 1140.272,177.701 1140.436,177.940 1140.599,178.183 1140.762,178.432 1140.925,178.685 1141.088,178.944 1141.251,179.208 1141.413,179.477 1141.575,179.751 1141.737,180.031 1141.899,180.316 1142.061,180.607 1142.222,180.903 1142.384,181.205 1142.545,181.513 1142.706,181.826 1142.867,182.145 1143.027,182.470 1143.188,182.801 1143.348,183.138 1143.508,183.481 1143.668,183.830 1143.828,184.186 1143.987,184.548 1144.147,184.917 1144.306,185.292 1144.465,185.674 1144.624,186.063 1144.782,186.459 1144.941,186.862 1145.099,187.272 1145.257,187.690 1145.415,188.115 1145.573,188.548 1145.731,188.989 1145.888,189.437 1146.046,189.894 1146.203,190.359 1146.360,190.832 1146.516,191.314 1146.673,191.805 1146.829,192.305 1146.986,192.813 1147.142,193.332 1147.298,193.859 1147.453,194.397 1147.609,194.945 1147.764,195.502 1147.920,196.070 1148.075,196.649 1148.230,197.239 1148.384,197.840 1148.539,198.453 1148.693,199.077 1148.848,199.714 1149.002,200.363 1149.156,201.025 1149.309,201.700 1149.463,202.388 1149.616,203.090 1149.770,203.807 1149.923,204.538 1150.076,205.284 1150.228,206.046 1150.381,206.824 1150.533,207.619 1150.686,208.431 1150.838,209.260 1150.990,210.108 1151.142,210.975 1151.293,211.861 1151.445,212.768 1151.596,213.695 1151.747,214.644 1151.898,215.617 1152.049,216.612 1152.200,217.632 1152.350,218.678 1152.501,219.750 1152.651,220.850 1152.801,221.979 1152.951,223.138 1153.100,224.329 1153.250,225.553 1153.399,226.812 1153.549,228.107 1153.698,229.442 1153.847,230.816 1153.996,232.234 1154.144,233.696 1154.293,235.207 1154.441,236.769 1154.589,238.385 1154.737,240.058 1154.885,241.793 1155.033,243.595 1155.181,245.467 1155.328,247.415 1155.475,249.446 1155.622,251.566 1155.769,253.783 1155.916,256.106 1156.063,258.545 1156.209,261.111 1156.356,263.820 1156.502,266.686 1156.648,269.728 1156.794,272.970 1156.940,276.437 1157.086,280.165 1157.231,284.193 1157.376,288.575 1157.522,293.378 1157.667,298.689 1157.812,304.630 1157.956,311.367 1158.101,319.147 1158.245,328.351 1158.390,339.619 1158.534,354.149 1158.678,374.631 1158.822,409.647 "
             id="polyline158"
             style="fill:none;stroke:#0000ff;stroke-width:0.5pt;stroke-dasharray:none" />
          <g
             id="g160" />
        </g>
        <g
           id="ID000003" />
        <g
           id="ID000004" />
        <g
           id="ID000005" />
      </g>
      <g
         id="g165">
        <polyline
           points="497.309,508.134 497.309,498.210 "
           id="polyline167"
           style="fill:none;stroke:#000000;stroke-width:0.5pt;stroke-dasharray:none" />
        <polyline
           points="828.137,508.134 828.137,498.210 "
           id="polyline169"
           style="fill:none;stroke:#000000;stroke-width:0.5pt;stroke-dasharray:none" />
        <polyline
           points="166.481,508.134 1158.966,508.134 "
           id="polyline171"
           style="fill:none;stroke:#000000;stroke-width:0.5pt;stroke-dasharray:none" />
        <polyline
           points="497.309,42.820 497.309,52.745 "
           id="polyline173"
           style="fill:none;stroke:#000000;stroke-width:0.5pt;stroke-dasharray:none" />
        <polyline
           points="828.137,42.820 828.137,52.745 "
           id="polyline175"
           style="fill:none;stroke:#000000;stroke-width:0.5pt;stroke-dasharray:none" />
        <polyline
           points="166.481,42.820 1158.966,42.820 "
           id="polyline177"
           style="fill:none;stroke:#000000;stroke-width:0.5pt;stroke-dasharray:none" />
        <polyline
           points="266.070,508.134 266.070,503.172 "
           id="polyline179"
           style="fill:none;stroke:#000000;stroke-width:0.5pt;stroke-dasharray:none" />
        <polyline
           points="324.326,508.134 324.326,503.172 "
           id="polyline181"
           style="fill:none;stroke:#000000;stroke-width:0.5pt;stroke-dasharray:none" />
        <polyline
           points="365.660,508.134 365.660,503.172 "
           id="polyline183"
           style="fill:none;stroke:#000000;stroke-width:0.5pt;stroke-dasharray:none" />
        <polyline
           points="397.720,508.134 397.720,503.172 "
           id="polyline185"
           style="fill:none;stroke:#000000;stroke-width:0.5pt;stroke-dasharray:none" />
        <polyline
           points="423.916,508.134 423.916,503.172 "
           id="polyline187"
           style="fill:none;stroke:#000000;stroke-width:0.5pt;stroke-dasharray:none" />
        <polyline
           points="446.063,508.134 446.063,503.172 "
           id="polyline189"
           style="fill:none;stroke:#000000;stroke-width:0.5pt;stroke-dasharray:none" />
        <polyline
           points="465.249,508.134 465.249,503.172 "
           id="polyline191"
           style="fill:none;stroke:#000000;stroke-width:0.5pt;stroke-dasharray:none" />
        <polyline
           points="482.172,508.134 482.172,503.172 "
           id="polyline193"
           style="fill:none;stroke:#000000;stroke-width:0.5pt;stroke-dasharray:none" />
        <polyline
           points="596.899,508.134 596.899,503.172 "
           id="polyline195"
           style="fill:none;stroke:#000000;stroke-width:0.5pt;stroke-dasharray:none" />
        <polyline
           points="655.155,508.134 655.155,503.172 "
           id="polyline197"
           style="fill:none;stroke:#000000;stroke-width:0.5pt;stroke-dasharray:none" />
        <polyline
           points="696.488,508.134 696.488,503.172 "
           id="polyline199"
           style="fill:none;stroke:#000000;stroke-width:0.5pt;stroke-dasharray:none" />
        <polyline
           points="728.548,508.134 728.548,503.172 "
           id="polyline201"
           style="fill:none;stroke:#000000;stroke-width:0.5pt;stroke-dasharray:none" />
        <polyline
           points="754.744,508.134 754.744,503.172 "
           id="polyline203"
           style="fill:none;stroke:#000000;stroke-width:0.5pt;stroke-dasharray:none" />
        <polyline
           points="776.892,508.134 776.892,503.172 "
           id="polyline205"
           style="fill:none;stroke:#000000;stroke-width:0.5pt;stroke-dasharray:none" />
        <polyline
           points="796.077,508.134 796.077,503.172 "
           id="polyline207"
           style="fill:none;stroke:#000000;stroke-width:0.5pt;stroke-dasharray:none" />
        <polyline
           points="813.000,508.134 813.000,503.172 "
           id="polyline209"
           style="fill:none;stroke:#000000;stroke-width:0.5pt;stroke-dasharray:none" />
        <polyline
           points="927.727,508.134 927.727,503.172 "
           id="polyline211"
           style="fill:none;stroke:#000000;stroke-width:0.5pt;stroke-dasharray:none" />
        <polyline
           points="985.983,508.134 985.983,503.172 "
           id="polyline213"
           style="fill:none;stroke:#000000;stroke-width:0.5pt;stroke-dasharray:none" />
        <polyline
           points="1027.316,508.134 1027.316,503.172 "
           id="polyline215"
           style="fill:none;stroke:#000000;stroke-width:0.5pt;stroke-dasharray:none" />
        <polyline
           points="1059.376,508.134 1059.376,503.172 "
           id="polyline217"
           style="fill:none;stroke:#000000;stroke-width:0.5pt;stroke-dasharray:none" />
        <polyline
           points="1085.572,508.134 1085.572,503.172 "
           id="polyline219"
           style="fill:none;stroke:#000000;stroke-width:0.5pt;stroke-dasharray:none" />
        <polyline
           points="1107.720,508.134 1107.720,503.172 "
           id="polyline221"
           style="fill:none;stroke:#000000;stroke-width:0.5pt;stroke-dasharray:none" />
        <polyline
           points="1126.905,508.134 1126.905,503.172 "
           id="polyline223"
           style="fill:none;stroke:#000000;stroke-width:0.5pt;stroke-dasharray:none" />
        <polyline
           points="1143.828,508.134 1143.828,503.172 "
           id="polyline225"
           style="fill:none;stroke:#000000;stroke-width:0.5pt;stroke-dasharray:none" />
        <polyline
           points="266.070,42.820 266.070,47.783 "
           id="polyline227"
           style="fill:none;stroke:#000000;stroke-width:0.5pt;stroke-dasharray:none" />
        <polyline
           points="324.326,42.820 324.326,47.783 "
           id="polyline229"
           style="fill:none;stroke:#000000;stroke-width:0.5pt;stroke-dasharray:none" />
        <polyline
           points="365.660,42.820 365.660,47.783 "
           id="polyline231"
           style="fill:none;stroke:#000000;stroke-width:0.5pt;stroke-dasharray:none" />
        <polyline
           points="397.720,42.820 397.720,47.783 "
           id="polyline233"
           style="fill:none;stroke:#000000;stroke-width:0.5pt;stroke-dasharray:none" />
        <polyline
           points="423.916,42.820 423.916,47.783 "
           id="polyline235"
           style="fill:none;stroke:#000000;stroke-width:0.5pt;stroke-dasharray:none" />
        <polyline
           points="446.063,42.820 446.063,47.783 "
           id="polyline237"
           style="fill:none;stroke:#000000;stroke-width:0.5pt;stroke-dasharray:none" />
        <polyline
           points="465.249,42.820 465.249,47.783 "
           id="polyline239"
           style="fill:none;stroke:#000000;stroke-width:0.5pt;stroke-dasharray:none" />
        <polyline
           points="482.172,42.820 482.172,47.783 "
           id="polyline241"
           style="fill:none;stroke:#000000;stroke-width:0.5pt;stroke-dasharray:none" />
        <polyline
           points="596.899,42.820 596.899,47.783 "
           id="polyline243"
           style="fill:none;stroke:#000000;stroke-width:0.5pt;stroke-dasharray:none" />
        <polyline
           points="655.155,42.820 655.155,47.783 "
           id="polyline245"
           style="fill:none;stroke:#000000;stroke-width:0.5pt;stroke-dasharray:none" />
        <polyline
           points="696.488,42.820 696.488,47.783 "
           id="polyline247"
           style="fill:none;stroke:#000000;stroke-width:0.5pt;stroke-dasharray:none" />
        <polyline
           points="728.548,42.820 728.548,47.783 "
           id="polyline249"
           style="fill:none;stroke:#000000;stroke-width:0.5pt;stroke-dasharray:none" />
        <polyline
           points="754.744,42.820 754.744,47.783 "
           id="polyline251"
           style="fill:none;stroke:#000000;stroke-width:0.5pt;stroke-dasharray:none" />
        <polyline
           points="776.892,42.820 776.892,47.783 "
           id="polyline253"
           style="fill:none;stroke:#000000;stroke-width:0.5pt;stroke-dasharray:none" />
        <polyline
           points="796.077,42.820 796.077,47.783 "
           id="polyline255"
           style="fill:none;stroke:#000000;stroke-width:0.5pt;stroke-dasharray:none" />
        <polyline
           points="813.000,42.820 813.000,47.783 "
           id="polyline257"
           style="fill:none;stroke:#000000;stroke-width:0.5pt;stroke-dasharray:none" />
        <polyline
           points="927.727,42.820 927.727,47.783 "
           id="polyline259"
           style="fill:none;stroke:#000000;stroke-width:0.5pt;stroke-dasharray:none" />
        <polyline
           points="985.983,42.820 985.983,47.783 "
           id="polyline261"
           style="fill:none;stroke:#000000;stroke-width:0.5pt;stroke-dasharray:none" />
        <polyline
           points="1027.316,42.820 1027.316,47.783 "
           id="polyline263"
           style="fill:none;stroke:#000000;stroke-width:0.5pt;stroke-dasharray:none" />
        <polyline
           points="1059.376,42.820 1059.376,47.783 "
           id="polyline265"
           style="fill:none;stroke:#000000;stroke-width:0.5pt;stroke-dasharray:none" />
        <polyline
           points="1085.572,42.820 1085.572,47.783 "
           id="polyline267"
           style="fill:none;stroke:#000000;stroke-width:0.5pt;stroke-dasharray:none" />
        <polyline
           points="1107.720,42.820 1107.720,47.783 "
           id="polyline269"
           style="fill:none;stroke:#000000;stroke-width:0.5pt;stroke-dasharray:none" />
        <polyline
           points="1126.905,42.820 1126.905,47.783 "
           id="polyline271"
           style="fill:none;stroke:#000000;stroke-width:0.5pt;stroke-dasharray:none" />
        <polyline
           points="1143.828,42.820 1143.828,47.783 "
           id="polyline273"
           style="fill:none;stroke:#000000;stroke-width:0.5pt;stroke-dasharray:none" />
        <g
           transform="translate(166.481,532.253)"
           id="g275">
          <g
             id="g277">
            <text
               x="0"
               y="0"
               font-size="9pt"
               id="text279"
               style="font-size:11.25px;font-family:Helvetica;text-anchor:middle;fill:#000000">10<tspan
   font-size="6.6pt"
   dy="-8.25"
   id="tspan281"
   style="font-size:8.25px">-3</tspan>
</text>
          </g>
        </g>
        <g
           transform="translate(497.309,532.253)"
           id="g283">
          <g
             id="g285">
            <text
               x="0"
               y="0"
               font-size="9pt"
               id="text287"
               style="font-size:11.25px;font-family:Helvetica;text-anchor:middle;fill:#000000">1.8</text>
          </g>
        </g>
        <g
           transform="translate(828.137,532.253)"
           id="g291">
          <g
             id="g293">
            <text
               x="0"
               y="0"
               font-size="9pt"
               id="text295"
               style="font-size:11.25px;font-family:Helvetica;text-anchor:middle;fill:#000000">18<tspan
   font-size="6.6pt"
   id="tspan297"
   style="font-size:8.25px" />
</text>
          </g>
        </g>
        <g
           transform="translate(1158.966,532.253)"
           id="g299">
          <g
             id="g301">
            <text
               x="0"
               y="0"
               font-size="9pt"
               id="text303"
               style="font-size:11.25px;font-family:Helvetica;text-anchor:middle;fill:#000000">180</text>
          </g>
        </g>
        <polyline
           points="166.481,449.970 176.406,449.970 "
           id="polyline307"
           style="fill:none;stroke:#000000;stroke-width:0.5pt;stroke-dasharray:none" />
        <polyline
           points="166.481,391.806 176.406,391.806 "
           id="polyline309"
           style="fill:none;stroke:#000000;stroke-width:0.5pt;stroke-dasharray:none" />
        <polyline
           points="166.481,333.642 176.406,333.642 "
           id="polyline311"
           style="fill:none;stroke:#000000;stroke-width:0.5pt;stroke-dasharray:none" />
        <polyline
           points="166.481,275.477 176.406,275.477 "
           id="polyline313"
           style="fill:none;stroke:#000000;stroke-width:0.5pt;stroke-dasharray:none" />
        <polyline
           points="166.481,217.313 176.406,217.313 "
           id="polyline315"
           style="fill:none;stroke:#000000;stroke-width:0.5pt;stroke-dasharray:none" />
        <polyline
           points="166.481,159.149 176.406,159.149 "
           id="polyline317"
           style="fill:none;stroke:#000000;stroke-width:0.5pt;stroke-dasharray:none" />
        <polyline
           points="166.481,100.985 176.406,100.985 "
           id="polyline319"
           style="fill:none;stroke:#000000;stroke-width:0.5pt;stroke-dasharray:none" />
        <polyline
           points="166.481,508.134 166.481,42.820 "
           id="polyline321"
           style="fill:none;stroke:#000000;stroke-width:0.5pt;stroke-dasharray:none" />
        <polyline
           points="1158.966,449.970 1149.041,449.970 "
           id="polyline323"
           style="fill:none;stroke:#000000;stroke-width:0.5pt;stroke-dasharray:none" />
        <polyline
           points="1158.966,391.806 1149.041,391.806 "
           id="polyline325"
           style="fill:none;stroke:#000000;stroke-width:0.5pt;stroke-dasharray:none" />
        <polyline
           points="1158.966,333.642 1149.041,333.642 "
           id="polyline327"
           style="fill:none;stroke:#000000;stroke-width:0.5pt;stroke-dasharray:none" />
        <polyline
           points="1158.966,275.477 1149.041,275.477 "
           id="polyline329"
           style="fill:none;stroke:#000000;stroke-width:0.5pt;stroke-dasharray:none" />
        <polyline
           points="1158.966,217.313 1149.041,217.313 "
           id="polyline331"
           style="fill:none;stroke:#000000;stroke-width:0.5pt;stroke-dasharray:none" />
        <polyline
           points="1158.966,159.149 1149.041,159.149 "
           id="polyline333"
           style="fill:none;stroke:#000000;stroke-width:0.5pt;stroke-dasharray:none" />
        <polyline
           points="1158.966,100.985 1149.041,100.985 "
           id="polyline335"
           style="fill:none;stroke:#000000;stroke-width:0.5pt;stroke-dasharray:none" />
        <polyline
           points="1158.966,508.134 1158.966,42.820 "
           id="polyline337"
           style="fill:none;stroke:#000000;stroke-width:0.5pt;stroke-dasharray:none" />
        <g
           transform="translate(146.632,512.353)"
           id="g339">
          <g
             id="g341">
            <text
               x="0"
               y="0"
               font-size="9pt"
               id="text343"
               style="font-size:11.25px;font-family:Helvetica;text-anchor:end;fill:#000000">-140</text>
          </g>
        </g>
        <g
           transform="translate(146.632,454.189)"
           id="g345">
          <g
             id="g347">
            <text
               x="0"
               y="0"
               font-size="9pt"
               id="text349"
               style="font-size:11.25px;font-family:Helvetica;text-anchor:end;fill:#000000">-120</text>
          </g>
        </g>
        <g
           transform="translate(146.632,396.025)"
           id="g351">
          <g
             id="g353">
            <text
               x="0"
               y="0"
               font-size="9pt"
               id="text355"
               style="font-size:11.25px;font-family:Helvetica;text-anchor:end;fill:#000000">-100</text>
          </g>
        </g>
        <g
           transform="translate(146.632,337.86)"
           id="g357">
          <g
             id="g359">
            <text
               x="0"
               y="0"
               font-size="9pt"
               id="text361"
               style="font-size:11.25px;font-family:Helvetica;text-anchor:end;fill:#000000">-80</text>
          </g>
        </g>
        <g
           transform="translate(146.632,279.696)"
           id="g363">
          <g
             id="g365">
            <text
               x="0"
               y="0"
               font-size="9pt"
               id="text367"
               style="font-size:11.25px;font-family:Helvetica;text-anchor:end;fill:#000000">-60</text>
          </g>
        </g>
        <g
           transform="translate(146.632,221.532)"
           id="g369">
          <g
             id="g371">
            <text
               x="0"
               y="0"
               font-size="9pt"
               id="text373"
               style="font-size:11.25px;font-family:Helvetica;text-anchor:end;fill:#000000">-40</text>
          </g>
        </g>
        <g
           transform="translate(146.632,163.368)"
           id="g375">
          <g
             id="g377">
            <text
               x="0"
               y="0"
               font-size="9pt"
               id="text379"
               style="font-size:11.25px;font-family:Helvetica;text-anchor:end;fill:#000000">-20</text>
          </g>
        </g>
        <g
           transform="translate(146.632,105.203)"
           id="g381">
          <g
             id="g383">
            <text
               x="0"
               y="0"
               font-size="9pt"
               id="text385"
               style="font-size:11.25px;font-family:Helvetica;text-anchor:end;fill:#000000">0</text>
          </g>
        </g>
        <g
           transform="translate(146.632,47.039)"
           id="g387">
          <g
             id="g389">
            <text
               x="0"
               y="0"
               font-size="9pt"
               id="text391"
               style="font-size:11.25px;font-family:Helvetica;text-anchor:end;fill:#000000">20</text>
          </g>
        </g>
        <polyline
           points="166.481,508.134 166.481,503.481 "
           id="polyline393"
           style="fill:none;stroke:#000000;stroke-width:0.5pt;stroke-dasharray:none" />
        <polyline
           points="166.481,508.134 166.481,508.134 "
           id="polyline395"
           style="fill:none;stroke:#000000;stroke-width:0.5pt;stroke-dasharray:none" />
      </g>
      <polyline
         transform="translate(-26.747715,-1.0336493)"
         style="fill:none;stroke:#000000;stroke-width:0.5pt;stroke-dasharray:2, 2"
         points="1027.316,508.134 1027.316,42.820 "
         id="polyline59-6" />
    </g>
    <text
       xml:space="preserve"
       style="font-style:normal;font-weight:normal;font-size:12.5px;line-height:125%;font-family:sans-serif;letter-spacing:0px;word-spacing:0px;fill:#000000;fill-opacity:1;stroke:none;stroke-width:1px;stroke-linecap:butt;stroke-linejoin:miter;stroke-opacity:1"
       x="577.51038"
       y="837.32056"
       id="text3828"
       sodipodi:linespacing="125%"><tspan
         sodipodi:role="line"
         id="tspan3830"
         x="577.51038"
         y="837.32056">Frequency [Hz]</tspan></text>
    <text
       xml:space="preserve"
       style="font-style:normal;font-weight:normal;font-size:12.5px;line-height:125%;font-family:sans-serif;letter-spacing:0px;word-spacing:0px;fill:#000000;fill-opacity:1;stroke:none;stroke-width:1px;stroke-linecap:butt;stroke-linejoin:miter;stroke-opacity:1"
       x="-624.59778"
       y="71.626579"
       id="text3828-7"
       sodipodi:linespacing="125%"
       transform="matrix(0,-1,1,0,0,0)"><tspan
         sodipodi:role="line"
         id="tspan3830-0"
         x="-624.59778"
         y="71.626579">Amplitude [dB]</tspan></text>
    <text
       xml:space="preserve"
       style="font-style:normal;font-weight:normal;font-size:12.5px;line-height:125%;font-family:sans-serif;letter-spacing:0px;word-spacing:0px;fill:#000000;fill-opacity:1;stroke:none;stroke-width:1px;stroke-linecap:butt;stroke-linejoin:miter;stroke-opacity:1"
       x="981.41528"
       y="826.62091"
       id="text3535"
       sodipodi:linespacing="125%"><tspan
         sodipodi:role="line"
         id="tspan3537"
         x="981.41528"
         y="826.62091"
         style="font-size:11.25px">60</tspan></text>
  </g>
</svg>
