<?xml version="1.0" encoding="UTF-8" standalone="no"?>
<!-- Created with Inkscape (http://www.inkscape.org/) -->

<svg
   xmlns:dc="http://purl.org/dc/elements/1.1/"
   xmlns:cc="http://creativecommons.org/ns#"
   xmlns:rdf="http://www.w3.org/1999/02/22-rdf-syntax-ns#"
   xmlns:svg="http://www.w3.org/2000/svg"
   xmlns="http://www.w3.org/2000/svg"
   xmlns:sodipodi="http://sodipodi.sourceforge.net/DTD/sodipodi-0.dtd"
   xmlns:inkscape="http://www.inkscape.org/namespaces/inkscape"
   width="317.49988mm"
   height="153.87051mm"
   viewBox="0 0 1124.9996 545.21048"
   id="svg6196"
   version="1.1"
   inkscape:version="0.91 r13725"
   sodipodi:docname="PandT_movingAverage_2.svg">
  <defs
     id="defs6198">
    <clipPath
       id="ID000000">
      <rect
         id="rect4145"
         height="496.33499"
         width="1058.65"
         y="45.674999"
         x="177.58" />
    </clipPath>
  </defs>
  <sodipodi:namedview
     id="base"
     pagecolor="#ffffff"
     bordercolor="#666666"
     borderopacity="1.0"
     inkscape:pageopacity="0.0"
     inkscape:pageshadow="2"
     inkscape:zoom="0.35"
     inkscape:cx="94.64262"
     inkscape:cy="475.46238"
     inkscape:document-units="px"
     inkscape:current-layer="layer1"
     showgrid="false"
     fit-margin-top="0"
     fit-margin-left="0"
     fit-margin-right="0"
     fit-margin-bottom="0"
     inkscape:window-width="1366"
     inkscape:window-height="706"
     inkscape:window-x="-8"
     inkscape:window-y="-8"
     inkscape:window-maximized="1" />
  <metadata
     id="metadata6201">
    <rdf:RDF>
      <cc:Work
         rdf:about="">
        <dc:format>image/svg+xml</dc:format>
        <dc:type
           rdf:resource="http://purl.org/dc/dcmitype/StillImage" />
        <dc:title></dc:title>
      </cc:Work>
    </rdf:RDF>
  </metadata>
  <g
     inkscape:label="Capa 1"
     inkscape:groupmode="layer"
     id="layer1"
     transform="translate(151.07119,-462.61411)">
    <g
       transform="translate(-262.61416,421.02911)"
       id="g5859">
      <g
         id="g4142">
        <clipPath
           id="clipPath6034">
          <rect
             id="rect6036"
             height="496.33499"
             width="1058.65"
             y="45.674999"
             x="177.58" />
        </clipPath>
        <polyline
           style="fill:#ffffff;fill-opacity:1;stroke:none;stroke-width:0.5pt;stroke-dasharray:none;stroke-opacity:1"
           id="polyline4147"
           points="177.580,542.010 1236.230,542.010 1236.230,45.675 177.580,45.675 " />
        <polyline
           style="fill:#ffffff;fill-opacity:1;stroke:none;stroke-width:0.5pt;stroke-dasharray:none;stroke-opacity:1"
           id="polyline4149"
           points="177.580,45.675 1236.230,45.675 1236.230,45.675 177.580,45.675 " />
        <polyline
           style="fill:#ffffff;fill-opacity:1;stroke:none;stroke-width:0.5pt;stroke-dasharray:none;stroke-opacity:1"
           id="polyline4151"
           points="177.580,542.010 177.580,542.010 177.580,45.675 177.580,45.675 " />
        <polyline
           style="fill:none;stroke:#000000;stroke-width:0.5pt;stroke-dasharray:2"
           id="polyline4153"
           points="502.791,542.010 502.791,45.675 " />
        <polyline
           style="fill:none;stroke:#000000;stroke-width:0.5pt;stroke-dasharray:2"
           id="polyline4155"
           points="828.002,542.010 828.002,45.675 " />
        <polyline
           style="fill:none;stroke:#000000;stroke-width:0.5pt;stroke-dasharray:2"
           id="polyline4157"
           points="1153.213,542.010 1153.213,45.675 " />
        <polyline
           style="fill:none;stroke:#000000;stroke-width:0.5pt;stroke-dasharray:2"
           id="polyline4159"
           points="275.478,542.010 275.478,45.675 " />
        <polyline
           style="fill:none;stroke:#000000;stroke-width:0.5pt;stroke-dasharray:2"
           id="polyline4161"
           points="332.745,542.010 332.745,45.675 " />
        <polyline
           style="fill:none;stroke:#000000;stroke-width:0.5pt;stroke-dasharray:2"
           id="polyline4163"
           points="373.376,542.010 373.376,45.675 " />
        <polyline
           style="fill:none;stroke:#000000;stroke-width:0.5pt;stroke-dasharray:2"
           id="polyline4165"
           points="404.893,542.010 404.893,45.675 " />
        <polyline
           style="fill:none;stroke:#000000;stroke-width:0.5pt;stroke-dasharray:2"
           id="polyline4167"
           points="430.643,542.010 430.643,45.675 " />
        <polyline
           style="fill:none;stroke:#000000;stroke-width:0.5pt;stroke-dasharray:2"
           id="polyline4169"
           points="452.415,542.010 452.415,45.675 " />
        <polyline
           style="fill:none;stroke:#000000;stroke-width:0.5pt;stroke-dasharray:2"
           id="polyline4171"
           points="471.275,542.010 471.275,45.675 " />
        <polyline
           style="fill:none;stroke:#000000;stroke-width:0.5pt;stroke-dasharray:2"
           id="polyline4173"
           points="487.910,542.010 487.910,45.675 " />
        <polyline
           style="fill:none;stroke:#000000;stroke-width:0.5pt;stroke-dasharray:2"
           id="polyline4175"
           points="600.689,542.010 600.689,45.675 " />
        <polyline
           style="fill:none;stroke:#000000;stroke-width:0.5pt;stroke-dasharray:2"
           id="polyline4177"
           points="657.956,542.010 657.956,45.675 " />
        <polyline
           style="fill:none;stroke:#000000;stroke-width:0.5pt;stroke-dasharray:2"
           id="polyline4179"
           points="698.587,542.010 698.587,45.675 " />
        <polyline
           style="fill:none;stroke:#000000;stroke-width:0.5pt;stroke-dasharray:2"
           id="polyline4181"
           points="730.104,542.010 730.104,45.675 " />
        <polyline
           style="fill:none;stroke:#000000;stroke-width:0.5pt;stroke-dasharray:2"
           id="polyline4183"
           points="755.854,542.010 755.854,45.675 " />
        <polyline
           style="fill:none;stroke:#000000;stroke-width:0.5pt;stroke-dasharray:2"
           id="polyline4185"
           points="777.626,542.010 777.626,45.675 " />
        <polyline
           style="fill:none;stroke:#000000;stroke-width:0.5pt;stroke-dasharray:2"
           id="polyline4187"
           points="796.486,542.010 796.486,45.675 " />
        <polyline
           style="fill:none;stroke:#000000;stroke-width:0.5pt;stroke-dasharray:2"
           id="polyline4189"
           points="813.121,542.010 813.121,45.675 " />
        <polyline
           style="fill:none;stroke:#000000;stroke-width:0.5pt;stroke-dasharray:2"
           id="polyline4191"
           points="925.900,542.010 925.900,45.675 " />
        <polyline
           style="fill:none;stroke:#000000;stroke-width:0.5pt;stroke-dasharray:2"
           id="polyline4193"
           points="983.167,542.010 983.167,45.675 " />
        <polyline
           style="fill:none;stroke:#000000;stroke-width:0.5pt;stroke-dasharray:2"
           id="polyline4195"
           points="1023.798,542.010 1023.798,45.675 " />
        <polyline
           style="fill:none;stroke:#000000;stroke-width:0.5pt;stroke-dasharray:2"
           id="polyline4197"
           points="1055.314,542.010 1055.314,45.675 " />
        <polyline
           style="fill:none;stroke:#000000;stroke-width:0.5pt;stroke-dasharray:2"
           id="polyline4199"
           points="1081.065,542.010 1081.065,45.675 " />
        <polyline
           style="fill:none;stroke:#000000;stroke-width:0.5pt;stroke-dasharray:2"
           id="polyline4201"
           points="1102.837,542.010 1102.837,45.675 " />
        <polyline
           style="fill:none;stroke:#000000;stroke-width:0.5pt;stroke-dasharray:2"
           id="polyline4203"
           points="1121.696,542.010 1121.696,45.675 " />
        <polyline
           style="fill:none;stroke:#000000;stroke-width:0.5pt;stroke-dasharray:2"
           id="polyline4205"
           points="1138.332,542.010 1138.332,45.675 " />
        <polyline
           style="fill:none;stroke:#000000;stroke-width:0.5pt;stroke-dasharray:2"
           id="polyline4207"
           points="177.580,486.862 1236.230,486.862 " />
        <polyline
           style="fill:none;stroke:#000000;stroke-width:0.5pt;stroke-dasharray:2"
           id="polyline4209"
           points="177.580,431.713 1236.230,431.713 " />
        <polyline
           style="fill:none;stroke:#000000;stroke-width:0.5pt;stroke-dasharray:2"
           id="polyline4211"
           points="177.580,376.565 1236.230,376.565 " />
        <polyline
           style="fill:none;stroke:#000000;stroke-width:0.5pt;stroke-dasharray:2"
           id="polyline4213"
           points="177.580,321.417 1236.230,321.417 " />
        <polyline
           style="fill:none;stroke:#000000;stroke-width:0.5pt;stroke-dasharray:2"
           id="polyline4215"
           points="177.580,266.268 1236.230,266.268 " />
        <polyline
           style="fill:none;stroke:#000000;stroke-width:0.5pt;stroke-dasharray:2"
           id="polyline4217"
           points="177.580,211.120 1236.230,211.120 " />
        <polyline
           style="fill:none;stroke:#000000;stroke-width:0.5pt;stroke-dasharray:2"
           id="polyline4219"
           points="177.580,155.972 1236.230,155.972 " />
        <polyline
           style="fill:none;stroke:#000000;stroke-width:0.5pt;stroke-dasharray:2"
           id="polyline4221"
           points="177.580,100.823 1236.230,100.823 " />
        <polyline
           style="fill:none;stroke:#000000;stroke-width:0.5pt;stroke-dasharray:2"
           id="polyline4223"
           points="502.791,45.675 502.791,45.675 " />
        <polyline
           style="fill:none;stroke:#000000;stroke-width:0.5pt;stroke-dasharray:2"
           id="polyline4225"
           points="828.002,45.675 828.002,45.675 " />
        <polyline
           style="fill:none;stroke:#000000;stroke-width:0.5pt;stroke-dasharray:2"
           id="polyline4227"
           points="1153.213,45.675 1153.213,45.675 " />
        <polyline
           style="fill:none;stroke:#000000;stroke-width:0.5pt;stroke-dasharray:2"
           id="polyline4229"
           points="275.478,45.675 275.478,45.675 " />
        <polyline
           style="fill:none;stroke:#000000;stroke-width:0.5pt;stroke-dasharray:2"
           id="polyline4231"
           points="332.745,45.675 332.745,45.675 " />
        <polyline
           style="fill:none;stroke:#000000;stroke-width:0.5pt;stroke-dasharray:2"
           id="polyline4233"
           points="373.376,45.675 373.376,45.675 " />
        <polyline
           style="fill:none;stroke:#000000;stroke-width:0.5pt;stroke-dasharray:2"
           id="polyline4235"
           points="404.893,45.675 404.893,45.675 " />
        <polyline
           style="fill:none;stroke:#000000;stroke-width:0.5pt;stroke-dasharray:2"
           id="polyline4237"
           points="430.643,45.675 430.643,45.675 " />
        <polyline
           style="fill:none;stroke:#000000;stroke-width:0.5pt;stroke-dasharray:2"
           id="polyline4239"
           points="452.415,45.675 452.415,45.675 " />
        <polyline
           style="fill:none;stroke:#000000;stroke-width:0.5pt;stroke-dasharray:2"
           id="polyline4241"
           points="471.275,45.675 471.275,45.675 " />
        <polyline
           style="fill:none;stroke:#000000;stroke-width:0.5pt;stroke-dasharray:2"
           id="polyline4243"
           points="487.910,45.675 487.910,45.675 " />
        <polyline
           style="fill:none;stroke:#000000;stroke-width:0.5pt;stroke-dasharray:2"
           id="polyline4245"
           points="600.689,45.675 600.689,45.675 " />
        <polyline
           style="fill:none;stroke:#000000;stroke-width:0.5pt;stroke-dasharray:2"
           id="polyline4247"
           points="657.956,45.675 657.956,45.675 " />
        <polyline
           style="fill:none;stroke:#000000;stroke-width:0.5pt;stroke-dasharray:2"
           id="polyline4249"
           points="698.587,45.675 698.587,45.675 " />
        <polyline
           style="fill:none;stroke:#000000;stroke-width:0.5pt;stroke-dasharray:2"
           id="polyline4251"
           points="730.104,45.675 730.104,45.675 " />
        <polyline
           style="fill:none;stroke:#000000;stroke-width:0.5pt;stroke-dasharray:2"
           id="polyline4253"
           points="755.854,45.675 755.854,45.675 " />
        <polyline
           style="fill:none;stroke:#000000;stroke-width:0.5pt;stroke-dasharray:2"
           id="polyline4255"
           points="777.626,45.675 777.626,45.675 " />
        <polyline
           style="fill:none;stroke:#000000;stroke-width:0.5pt;stroke-dasharray:2"
           id="polyline4257"
           points="796.486,45.675 796.486,45.675 " />
        <polyline
           style="fill:none;stroke:#000000;stroke-width:0.5pt;stroke-dasharray:2"
           id="polyline4259"
           points="813.121,45.675 813.121,45.675 " />
        <polyline
           style="fill:none;stroke:#000000;stroke-width:0.5pt;stroke-dasharray:2"
           id="polyline4261"
           points="925.900,45.675 925.900,45.675 " />
        <polyline
           style="fill:none;stroke:#000000;stroke-width:0.5pt;stroke-dasharray:2"
           id="polyline4263"
           points="983.167,45.675 983.167,45.675 " />
        <polyline
           style="fill:none;stroke:#000000;stroke-width:0.5pt;stroke-dasharray:2"
           id="polyline4265"
           points="1023.798,45.675 1023.798,45.675 " />
        <polyline
           style="fill:none;stroke:#000000;stroke-width:0.5pt;stroke-dasharray:2"
           id="polyline4267"
           points="1055.314,45.675 1055.314,45.675 " />
        <polyline
           style="fill:none;stroke:#000000;stroke-width:0.5pt;stroke-dasharray:2"
           id="polyline4269"
           points="1081.065,45.675 1081.065,45.675 " />
        <polyline
           style="fill:none;stroke:#000000;stroke-width:0.5pt;stroke-dasharray:2"
           id="polyline4271"
           points="1102.837,45.675 1102.837,45.675 " />
        <polyline
           style="fill:none;stroke:#000000;stroke-width:0.5pt;stroke-dasharray:2"
           id="polyline4273"
           points="1121.696,45.675 1121.696,45.675 " />
        <polyline
           style="fill:none;stroke:#000000;stroke-width:0.5pt;stroke-dasharray:2"
           id="polyline4275"
           points="1138.332,45.675 1138.332,45.675 " />
        <polyline
           style="fill:none;stroke:#000000;stroke-width:0.5pt;stroke-dasharray:2"
           id="polyline4277"
           points="177.580,45.675 1236.230,45.675 " />
        <polyline
           style="fill:none;stroke:#000000;stroke-width:0.5pt;stroke-dasharray:2"
           id="polyline4279"
           points="177.580,486.862 177.580,486.862 " />
        <polyline
           style="fill:none;stroke:#000000;stroke-width:0.5pt;stroke-dasharray:2"
           id="polyline4281"
           points="177.580,431.713 177.580,431.713 " />
        <polyline
           style="fill:none;stroke:#000000;stroke-width:0.5pt;stroke-dasharray:2"
           id="polyline4283"
           points="177.580,376.565 177.580,376.565 " />
        <polyline
           style="fill:none;stroke:#000000;stroke-width:0.5pt;stroke-dasharray:2"
           id="polyline4285"
           points="177.580,321.417 177.580,321.417 " />
        <polyline
           style="fill:none;stroke:#000000;stroke-width:0.5pt;stroke-dasharray:2"
           id="polyline4287"
           points="177.580,266.268 177.580,266.268 " />
        <polyline
           style="fill:none;stroke:#000000;stroke-width:0.5pt;stroke-dasharray:2"
           id="polyline4289"
           points="177.580,211.120 177.580,211.120 " />
        <polyline
           style="fill:none;stroke:#000000;stroke-width:0.5pt;stroke-dasharray:2"
           id="polyline4291"
           points="177.580,155.972 177.580,155.972 " />
        <polyline
           style="fill:none;stroke:#000000;stroke-width:0.5pt;stroke-dasharray:2"
           id="polyline4293"
           points="177.580,100.823 177.580,100.823 " />
        <polyline
           style="fill:none;stroke:#000000;stroke-width:0.5pt;stroke-dasharray:2"
           id="polyline4295"
           points="177.580,542.010 177.580,45.675 " />
        <g
           id="g4297">
          <g
             id="g4299"
             clip-path="url(#ID000000)">
            <polyline
               style="fill:none;stroke:#0000ff;stroke-width:0.5pt;stroke-dasharray:none"
               id="polyline4301"
               points="260.597,45.732 358.496,45.905 415.762,46.193 456.394,46.597 487.910,47.119 513.661,47.760 535.432,48.522 554.292,49.408 570.927,50.420 585.808,51.562 599.270,52.837 611.559,54.250 622.864,55.806 633.331,57.512 643.075,59.374 652.190,61.400 660.753,63.601 668.826,65.986 676.462,68.569 683.706,71.364 690.597,74.390 697.168,77.669 703.446,81.225 709.457,85.091 715.223,89.306 720.762,93.919 726.092,98.995 731.229,104.616 736.185,110.897 740.973,117.994 745.604,126.138 750.089,135.687 754.435,147.234 758.651,161.888 762.745,182.113 766.724,215.624 770.594,376.490 774.360,221.753 778.029,189.048 781.605,170.821 785.092,158.472 788.496,149.365 791.819,142.334 795.066,136.765 798.240,132.293 801.344,128.685 804.382,125.783 807.355,123.479 810.268,121.691 813.121,120.363 815.918,119.451 818.660,118.922 821.351,118.755 823.991,118.932 826.582,119.443 829.127,120.285 831.627,121.457 834.083,122.965 836.498,124.818 838.872,127.035 841.206,129.637 843.503,132.657 845.762,136.138 847.987,140.138 850.177,144.734 852.333,150.034 854.457,156.191 856.549,163.427 858.611,172.090 860.643,182.760 862.647,196.514 864.622,215.733 866.570,247.732 868.492,376.409 870.388,256.113 872.258,221.827 874.105,202.697 875.927,189.626 877.726,179.877 879.503,172.255 881.257,166.131 882.990,161.132 884.702,157.020 886.394,153.636 888.065,150.867 889.717,148.632 891.350,146.872 892.964,145.541 894.560,144.608 896.138,144.048 897.699,143.845 899.243,143.987 900.769,144.469 902.280,145.291 903.775,146.458 905.254,147.979 906.717,149.871 908.166,152.156 909.600,154.865 911.019,158.042 912.424,161.741 913.816,166.041 915.194,171.047 916.559,176.909 917.910,183.846 919.249,192.201 920.575,202.541 921.889,215.915 923.191,234.626 924.480,265.619 925.759,376.275 927.025,277.137 928.281,241.611 929.525,221.952 930.759,208.518 931.982,198.476 933.194,190.596 934.396,184.235 935.588,179.014 936.770,174.691 937.942,171.104 939.104,168.140 940.257,165.715 941.401,163.770 942.535,162.260 943.661,161.151 944.777,160.420 945.885,160.048 946.984,160.025 948.075,160.345 949.157,161.007 950.231,162.017 951.297,163.383 952.355,165.122 953.405,167.255 954.447,169.814 955.482,172.839 956.509,176.389 957.529,180.537 958.542,185.389 959.547,191.092 960.545,197.863 961.536,206.037 962.520,216.171 963.498,229.289 964.468,247.615 965.433,277.755 966.390,376.086 967.341,292.654 968.286,255.928 969.224,235.828 970.157,222.127 971.083,211.884 972.003,203.837 972.917,197.328 973.825,191.972 974.728,187.523 975.625,183.816 976.516,180.737 977.401,178.201 978.281,176.148 979.156,174.533 980.025,173.321 980.889,172.489 981.747,172.017 982.601,171.897 983.449,172.120 984.292,172.688 985.130,173.603 985.964,174.875 986.792,176.520 987.616,178.559 988.434,181.024 989.248,183.956 990.058,187.409 990.863,191.459 991.663,196.208 992.458,201.804 993.250,208.459 994.037,216.502 994.819,226.480 995.597,239.389 996.371,257.384 997.141,286.750 997.906,375.843 998.668,305.159 999.425,267.202 1000.178,246.692 1000.928,232.760 1001.673,222.354 1002.414,214.177 1003.152,207.558 1003.885,202.103 1004.615,197.564 1005.342,193.773 1006.064,190.613 1006.783,188.000 1007.498,185.873 1008.209,184.185 1008.917,182.903 1009.622,182.001 1010.323,181.462 1011.020,181.274 1011.714,181.431 1012.405,181.932 1013.092,182.781 1013.776,183.988 1014.457,185.567 1015.134,187.540 1015.808,189.938 1016.479,192.801 1017.147,196.184 1017.812,200.161 1018.473,204.834 1019.132,210.347 1019.787,216.910 1020.439,224.847 1021.089,234.692 1021.735,247.420 1022.379,265.114 1023.019,293.761 1023.657,375.545 1024.292,315.775 1024.924,276.528 1025.553,255.617 1026.179,241.470 1026.803,230.920 1027.423,222.632 1028.042,215.922 1028.657,210.387 1029.270,205.776 1029.880,201.919 1030.487,198.697 1031.092,196.025 1031.694,193.841 1032.294,192.098 1032.891,190.762 1033.486,189.807 1034.078,189.217 1034.668,188.978 1035.255,189.084 1035.840,189.535 1036.422,190.334 1037.003,191.491 1037.580,193.019 1038.155,194.941 1038.728,197.287 1039.299,200.096 1039.867,203.424 1040.434,207.342 1040.997,211.952 1041.559,217.397 1042.118,223.882 1042.675,231.726 1043.230,241.454 1043.783,254.014 1044.334,271.427 1044.882,299.399 1045.429,375.192 1045.973,325.106 1046.515,284.495 1047.055,263.183 1047.593,248.829 1048.129,238.143 1048.663,229.756 1049.195,222.965 1049.725,217.361 1050.253,212.689 1050.779,208.776 1051.303,205.502 1051.825,202.782 1052.346,200.551 1052.864,198.763 1053.380,197.384 1053.895,196.387 1054.408,195.754 1054.918,195.474 1055.427,195.540 1055.934,195.950 1056.440,196.709 1056.943,197.824 1057.445,199.311 1057.945,201.191 1058.443,203.494 1058.940,206.258 1059.434,209.539 1059.927,213.407 1060.419,217.964 1060.908,223.348 1061.396,229.764 1061.882,237.525 1062.367,247.144 1062.850,259.548 1063.331,276.694 1063.810,304.027 1064.288,374.784 1064.765,333.522 1065.239,291.455 1065.713,269.736 1066.184,255.179 1066.654,244.364 1067.123,235.883 1067.590,229.018 1068.055,223.352 1068.519,218.625 1068.981,214.663 1069.442,211.345 1069.901,208.582 1070.359,206.311 1070.815,204.485 1071.270,203.069 1071.724,202.036 1072.176,201.368 1072.626,201.053 1073.075,201.084 1073.523,201.460 1073.969,202.184 1074.414,203.264 1074.857,204.716 1075.299,206.560 1075.740,208.825 1076.179,211.550 1076.617,214.790 1077.054,218.615 1077.489,223.123 1077.923,228.452 1078.356,234.805 1078.787,242.489 1079.217,252.006 1079.646,264.262 1080.073,281.152 1080.499,307.879 1080.924,374.319 1081.347,341.266 1081.769,297.638 1082.190,275.503 1082.610,260.743 1083.029,249.802 1083.446,241.231 1083.862,234.296 1084.277,228.572 1084.690,223.796 1085.103,219.790 1085.514,216.430 1085.924,213.630 1086.333,211.324 1086.740,209.464 1087.147,208.015 1087.552,206.950 1087.956,206.251 1088.359,205.906 1088.761,205.906 1089.161,206.252 1089.561,206.945 1089.959,207.995 1090.357,209.415 1090.753,211.227 1091.148,213.459 1091.542,216.150 1091.935,219.352 1092.327,223.137 1092.717,227.601 1093.107,232.881 1093.495,239.174 1093.883,246.785 1094.269,256.205 1094.655,268.319 1095.039,284.964 1095.422,311.112 1095.805,373.797 1096.186,348.509 1096.566,303.200 1096.945,280.638 1097.323,265.675 1097.700,254.609 1098.076,245.951 1098.452,238.948 1098.826,233.170 1099.199,228.347 1099.571,224.299 1099.942,220.902 1100.312,218.067 1100.682,215.729 1101.050,213.839 1101.417,212.360 1101.784,211.267 1102.149,210.540 1102.514,210.166 1102.877,210.140 1103.240,210.458 1103.601,211.124 1103.962,212.146 1104.322,213.538 1104.681,215.320 1105.039,217.522 1105.396,220.181 1105.752,223.349 1106.108,227.097 1106.462,231.520 1106.816,236.752 1107.168,242.990 1107.520,250.531 1107.871,259.858 1108.221,271.835 1108.570,288.243 1108.918,313.838 1109.266,373.218 1109.612,355.381 1109.958,308.252 1110.303,285.251 1110.647,270.082 1110.990,258.893 1111.333,250.148 1111.674,243.080 1112.015,237.249 1112.355,232.381 1112.694,228.295 1113.032,224.863 1113.370,221.996 1113.707,219.627 1114.042,217.708 1114.378,216.203 1114.712,215.083 1115.045,214.330 1115.378,213.932 1115.710,213.880 1116.041,214.173 1116.372,214.814 1116.701,215.810 1117.030,217.176 1117.358,218.932 1117.685,221.105 1118.012,223.734 1118.338,226.871 1118.663,230.584 1118.987,234.967 1119.311,240.155 1119.633,246.340 1119.956,253.813 1120.277,263.051 1120.598,274.895 1120.917,291.073 1121.237,316.140 1121.555,372.580 1121.873,361.987 1122.190,312.878 1122.506,289.424 1122.822,274.046 1123.137,262.733 1123.451,253.903 1123.764,246.771 1124.077,240.889 1124.389,235.978 1124.701,231.854 1125.012,228.389 1125.322,225.491 1125.631,223.094 1125.940,221.149 1126.248,219.617 1126.555,218.473 1126.862,217.696 1127.168,217.274 1127.473,217.199 1127.778,217.468 1128.082,218.086 1128.385,219.058 1128.688,220.400 1128.990,222.130 1129.292,224.277 1129.593,226.878 1129.893,229.984 1130.192,233.664 1130.491,238.011 1130.790,243.155 1131.087,249.288 1131.384,256.697 1131.681,265.847 1131.976,277.562 1132.272,293.518 1132.566,318.078 1132.860,371.883 1133.153,368.415 1133.446,317.141 1133.738,293.218 1134.030,277.628 1134.321,266.190 1134.611,257.276 1134.901,250.080 1135.190,244.148 1135.478,239.195 1135.766,235.035 1136.054,231.538 1136.340,228.611 1136.627,226.187 1136.912,224.216 1137.197,222.660 1137.482,221.492 1137.766,220.693 1138.049,220.248 1138.332,220.151 1138.614,220.399 1138.896,220.994 1139.177,221.944 1139.457,223.262 1139.737,224.968 1140.017,227.090 1140.295,229.664 1140.574,232.742 1140.851,236.389 1141.129,240.700 1141.405,245.804 1141.681,251.887 1141.957,259.233 1142.232,268.298 1142.507,279.886 1142.781,295.626 1143.054,319.700 1143.327,371.125 1143.599,374.744 1143.871,321.090 1144.143,296.680 1144.413,280.875 1144.684,269.311 1144.953,260.312 1145.223,253.054 1145.492,247.072 1145.760,242.079 1146.028,237.883 1146.295,234.354 1146.562,231.399 1146.828,228.949 1147.093,226.954 1147.359,225.375 1147.623,224.185 1147.888,223.363 1148.151,222.898 1148.415,222.779 1148.677,223.006 1148.940,223.580 1149.202,224.508 1149.463,225.804 1149.724,227.487 1149.984,229.585 1150.244,232.134 1150.503,235.183 1150.762,238.800 1151.021,243.077 1151.279,248.140 1151.536,254.174 1151.793,261.459 1152.050,270.441 1152.306,281.907 1152.561,297.437 1152.817,321.044 1153.071,370.306 1153.326,381.051 1153.579,324.764 1153.833,299.850 1154.086,283.824 1154.338,272.134 1154.590,263.050 1154.842,255.729 1155.093,249.698 1155.343,244.664 1155.593,240.434 1155.843,236.875 1156.093,233.892 1156.341,231.417 1156.590,229.398 1156.838,227.796 1157.085,226.584 1157.333,225.742 1157.579,225.256 1157.826,225.118 1158.071,225.324 1158.317,225.877 1158.562,226.785 1158.806,228.060 1159.050,229.721 1159.294,231.795 1159.538,234.319 1159.780,237.342 1160.023,240.929 1160.265,245.172 1160.507,250.195 1160.748,256.182 1160.989,263.407 1161.229,272.307 1161.469,283.653 1161.709,298.979 1161.948,322.137 1162.187,369.423 1162.425,387.417 1162.663,328.194 1162.900,302.756 1163.138,286.506 1163.374,274.687 1163.611,265.517 1163.847,258.134 1164.082,252.055 1164.318,246.980 1164.552,242.716 1164.787,239.127 1165.021,236.118 1165.254,233.618 1165.488,231.575 1165.721,229.952 1165.953,228.720 1166.185,227.857 1166.417,227.351 1166.648,227.193 1166.879,227.380 1167.110,227.913 1167.340,228.801 1167.570,230.055 1167.799,231.695 1168.028,233.746 1168.257,236.246 1168.486,239.242 1168.714,242.801 1168.941,247.010 1169.168,251.996 1169.395,257.936 1169.622,265.102 1169.848,273.923 1170.074,285.151 1170.299,300.278 1170.524,323.003 1170.749,368.476 1170.973,393.928 1171.197,331.407 1171.421,305.423 1171.644,288.943 1171.867,276.994 1172.090,267.738 1172.312,260.293 1172.534,254.165 1172.756,249.051 1172.977,244.753 1173.198,241.134 1173.418,238.098 1173.638,235.574 1173.858,233.509 1174.078,231.865 1174.297,230.612 1174.516,229.730 1174.734,229.204 1174.952,229.027 1175.170,229.195 1175.387,229.709 1175.605,230.577 1175.821,231.811 1176.038,233.430 1176.254,235.460 1176.470,237.936 1176.685,240.907 1176.900,244.437 1177.115,248.614 1177.330,253.562 1177.544,259.457 1177.758,266.564 1177.971,275.307 1178.184,286.421 1178.397,301.353 1178.610,323.661 1178.822,367.462 1179.034,400.689 1179.245,334.423 1179.457,307.871 1179.668,291.156 1179.878,279.074 1180.089,269.733 1180.299,262.225 1180.508,256.048 1180.718,250.894 1180.927,246.563 1181.136,242.915 1181.344,239.853 1181.552,237.305 1181.760,235.218 1181.968,233.553 1182.175,232.280 1182.382,231.378 1182.588,230.834 1182.795,230.638 1183.001,230.787 1183.207,231.283 1183.412,232.132 1183.617,233.346 1183.822,234.945 1184.027,236.953 1184.231,239.406 1184.435,242.351 1184.638,245.853 1184.842,249.999 1185.045,254.910 1185.248,260.760 1185.450,267.811 1185.652,276.477 1185.854,287.478 1186.056,302.221 1186.257,324.127 1186.458,366.381 1186.659,407.830 1186.859,337.261 1187.060,310.116 1187.260,293.160 1187.459,280.944 1187.659,271.515 1187.858,263.944 1188.056,257.719 1188.255,252.526 1188.453,248.161 1188.651,244.485 1188.849,241.397 1189.046,238.825 1189.243,236.716 1189.440,235.031 1189.637,233.738 1189.833,232.818 1190.029,232.255 1190.225,232.041 1190.420,232.171 1190.615,232.649 1190.810,233.479 1191.005,234.674 1191.199,236.252 1191.394,238.239 1191.588,240.669 1191.781,243.590 1191.974,247.065 1192.168,251.180 1192.360,256.054 1192.553,261.860 1192.745,268.855 1192.937,277.446 1193.129,288.335 1193.320,302.894 1193.512,324.412 1193.703,365.229 1193.893,415.522 1194.084,339.936 1194.274,312.172 1194.464,294.968 1194.654,282.617 1194.843,273.099 1195.032,265.465 1195.221,259.191 1195.410,253.959 1195.599,249.561 1195.787,245.856 1195.975,242.742 1196.162,240.147 1196.350,238.017 1196.537,236.310 1196.724,234.999 1196.911,234.060 1197.097,233.478 1197.283,233.246 1197.469,233.359 1197.655,233.818 1197.840,234.630 1198.026,235.806 1198.211,237.365 1198.395,239.331 1198.580,241.739 1198.764,244.635 1198.948,248.083 1199.132,252.167 1199.316,257.005 1199.499,262.768 1199.682,269.707 1199.865,278.224 1200.047,289.005 1200.230,303.383 1200.412,324.526 1200.594,364.006 1200.775,424.010 1200.957,342.461 1201.138,314.049 1201.319,296.592 1201.500,284.102 1201.680,274.495 1201.860,266.797 1202.040,260.474 1202.220,255.203 1202.400,250.772 1202.579,247.038 1202.758,243.899 1202.937,241.281 1203.116,239.129 1203.294,237.402 1203.473,236.071 1203.651,235.114 1203.828,234.515 1204.006,234.265 1204.183,234.360 1204.360,234.801 1204.537,235.595 1204.714,236.752 1204.890,238.291 1205.066,240.237 1205.242,242.623 1205.418,245.495 1205.594,248.916 1205.769,252.970 1205.944,257.773 1206.119,263.492 1206.294,270.377 1206.468,278.821 1206.643,289.495 1206.817,303.697 1206.990,324.478 1207.164,362.707 1207.337,433.665 1207.511,344.847 1207.684,315.757 1207.856,298.039 1208.029,285.408 1208.201,275.711 1208.373,267.949 1208.545,261.577 1208.717,256.266 1208.889,251.802 1209.060,248.039 1209.231,244.875 1209.402,242.234 1209.573,240.061 1209.743,238.314 1209.913,236.964 1210.083,235.989 1210.253,235.372 1210.423,235.104 1210.592,235.182 1210.762,235.605 1210.931,236.381 1211.099,237.520 1211.268,239.039 1211.437,240.965 1211.605,243.329 1211.773,246.178 1211.941,249.572 1212.108,253.596 1212.276,258.364 1212.443,264.041 1212.610,270.872 1212.777,279.243 1212.944,289.813 1213.110,303.842 1213.276,324.273 1213.442,361.332 1213.608,445.098 1213.774,347.103 1213.939,317.303 1214.105,299.317 1214.270,286.543 1214.435,276.754 1214.599,268.927 1214.764,262.506 1214.928,257.155 1215.092,252.658 1215.256,248.867 1215.420,245.677 1215.584,243.013 1215.747,240.819 1215.910,239.053 1216.073,237.684 1216.236,236.690 1216.399,236.055 1216.561,235.770 1216.723,235.830 1216.885,236.237 1217.047,236.994 1217.209,238.115 1217.370,239.615 1217.532,241.520 1217.693,243.863 1217.854,246.688 1218.015,250.057 1218.175,254.051 1218.336,258.784 1218.496,264.419 1218.656,271.197 1218.816,279.497 1218.975,289.964 1219.135,303.825 1219.294,323.916 1219.453,359.876 1219.612,459.452 1219.771,349.239 1219.930,318.692 1220.088,300.431 1220.246,287.511 1220.404,277.630 1220.562,269.737 1220.720,263.266 1220.878,257.876 1221.035,253.346 1221.192,249.526 1221.349,246.311 1221.506,243.624 1221.663,241.408 1221.819,239.622 1221.975,238.235 1222.132,237.223 1222.288,236.570 1222.443,236.268 1222.599,236.311 1222.755,236.700 1222.910,237.440 1223.065,238.542 1223.220,240.024 1223.375,241.909 1223.529,244.230 1223.684,247.032 1223.838,250.374 1223.992,254.339 1224.146,259.037 1224.300,264.631 1224.453,271.356 1224.607,279.587 1224.760,289.952 1224.913,303.648 1225.066,323.410 1225.219,358.336 1225.372,479.282 1225.524,351.261 1225.676,319.929 1225.828,301.386 1225.980,288.317 1226.132,278.341 1226.284,270.383 1226.435,263.862 1226.586,258.431 1226.738,253.868 1226.889,250.019 1227.039,246.779 1227.190,244.069 1227.341,241.833 1227.491,240.027 1227.641,238.620 1227.791,237.590 1227.941,236.920 1228.091,236.601 1228.240,236.626 1228.390,236.998 1228.539,237.720 1228.688,238.805 1228.837,240.267 1228.985,242.132 1229.134,244.432 1229.283,247.211 1229.431,250.528 1229.579,254.463 1229.727,259.128 1229.875,264.680 1230.022,271.354 1230.170,279.515 1230.317,289.780 1230.464,303.315 1230.611,322.758 1230.758,356.709 1230.905,512.727 1231.052,353.177 1231.198,321.018 1231.344,302.184 1231.491,288.962 1231.637,278.892 1231.782,270.867 1231.928,264.295 1232.074,258.824 1232.219,254.227 1232.364,250.350 1232.509,247.084 1232.654,244.352 1232.799,242.094 1232.944,240.269 1233.088,238.843 1233.232,237.795 1233.377,237.108 1233.521,236.771 1233.665,236.779 1233.808,237.134 1233.952,237.839 1234.095,238.905 1234.239,240.349 1234.382,242.194 1234.525,244.473 1234.668,247.228 1234.811,250.520 1234.953,254.426 1235.096,259.056 1235.238,264.568 1235.380,271.190 1235.522,279.283 1235.664,289.450 1235.806,302.826 1235.947,321.961 1236.089,354.991 " />
            <g
               id="g4303" />
          </g>
        </g>
        <g
           id="g4305">
          <polyline
             style="fill:none;stroke:#000000;stroke-width:0.5pt;stroke-dasharray:none"
             id="polyline4307"
             points="502.791,542.010 502.791,531.424 " />
          <polyline
             style="fill:none;stroke:#000000;stroke-width:0.5pt;stroke-dasharray:none"
             id="polyline4309"
             points="828.002,542.010 828.002,531.424 " />
          <polyline
             style="fill:none;stroke:#000000;stroke-width:0.5pt;stroke-dasharray:none"
             id="polyline4311"
             points="1153.213,542.010 1153.213,531.424 " />
          <polyline
             style="fill:none;stroke:#000000;stroke-width:0.5pt;stroke-dasharray:none"
             id="polyline4313"
             points="177.580,542.010 1236.230,542.010 " />
          <polyline
             style="fill:none;stroke:#000000;stroke-width:0.5pt;stroke-dasharray:none"
             id="polyline4315"
             points="502.791,45.675 502.791,56.262 " />
          <polyline
             style="fill:none;stroke:#000000;stroke-width:0.5pt;stroke-dasharray:none"
             id="polyline4317"
             points="828.002,45.675 828.002,56.262 " />
          <polyline
             style="fill:none;stroke:#000000;stroke-width:0.5pt;stroke-dasharray:none"
             id="polyline4319"
             points="1153.213,45.675 1153.213,56.262 " />
          <polyline
             style="fill:none;stroke:#000000;stroke-width:0.5pt;stroke-dasharray:none"
             id="polyline4321"
             points="177.580,45.675 1236.230,45.675 " />
          <g
             id="g4323"
             transform="translate(177.58,563.937)">
            <g
               id="g4325">
              <text
                 style="font-size:10px;font-family:Helvetica;text-anchor:middle;fill:#000000"
                 id="text4327"
                 font-size="8.0pt"
                 y="0"
                 x="0">10<tspan
   style="font-size:7.5px"
   id="tspan4329"
   dy="-7.5"
   font-size="6.0pt">-1</tspan>
</text>
            </g>
          </g>
          <g
             id="g4331"
             transform="translate(502.791,563.937)">
            <g
               id="g4333">
              <text
                 style="font-size:10px;font-family:Helvetica;text-anchor:middle;fill:#000000"
                 id="text4335"
                 font-size="8.0pt"
                 y="0"
                 x="0">10<tspan
   style="font-size:7.5px"
   id="tspan4337"
   dy="-7.5"
   font-size="6.0pt">0</tspan>
</text>
            </g>
          </g>
          <g
             id="g4339"
             transform="translate(828.002,563.937)">
            <g
               id="g4341">
              <text
                 style="font-size:10px;font-family:Helvetica;text-anchor:middle;fill:#000000"
                 id="text4343"
                 font-size="8.0pt"
                 y="0"
                 x="0">10<tspan
   style="font-size:7.5px"
   id="tspan4345"
   dy="-7.5"
   font-size="6.0pt">1</tspan>
</text>
            </g>
          </g>
          <g
             id="g4347"
             transform="translate(1153.213,563.937)">
            <g
               id="g4349">
              <text
                 style="font-size:10px;font-family:Helvetica;text-anchor:middle;fill:#000000"
                 id="text4351"
                 font-size="8.0pt"
                 y="0"
                 x="0">10<tspan
   style="font-size:7.5px"
   id="tspan4353"
   dy="-7.5"
   font-size="6.0pt">2</tspan>
</text>
            </g>
          </g>
          <polyline
             style="fill:none;stroke:#000000;stroke-width:0.5pt;stroke-dasharray:none"
             id="polyline4355"
             points="177.580,486.862 188.167,486.862 " />
          <polyline
             style="fill:none;stroke:#000000;stroke-width:0.5pt;stroke-dasharray:none"
             id="polyline4357"
             points="177.580,431.713 188.167,431.713 " />
          <polyline
             style="fill:none;stroke:#000000;stroke-width:0.5pt;stroke-dasharray:none"
             id="polyline4359"
             points="177.580,376.565 188.167,376.565 " />
          <polyline
             style="fill:none;stroke:#000000;stroke-width:0.5pt;stroke-dasharray:none"
             id="polyline4361"
             points="177.580,321.417 188.167,321.417 " />
          <polyline
             style="fill:none;stroke:#000000;stroke-width:0.5pt;stroke-dasharray:none"
             id="polyline4363"
             points="177.580,266.268 188.167,266.268 " />
          <polyline
             style="fill:none;stroke:#000000;stroke-width:0.5pt;stroke-dasharray:none"
             id="polyline4365"
             points="177.580,211.120 188.167,211.120 " />
          <polyline
             style="fill:none;stroke:#000000;stroke-width:0.5pt;stroke-dasharray:none"
             id="polyline4367"
             points="177.580,155.972 188.167,155.972 " />
          <polyline
             style="fill:none;stroke:#000000;stroke-width:0.5pt;stroke-dasharray:none"
             id="polyline4369"
             points="177.580,100.823 188.167,100.823 " />
          <polyline
             style="fill:none;stroke:#000000;stroke-width:0.5pt;stroke-dasharray:none"
             id="polyline4371"
             points="177.580,542.010 177.580,45.675 " />
          <polyline
             style="fill:none;stroke:#000000;stroke-width:0.5pt;stroke-dasharray:none"
             id="polyline4373"
             points="1236.230,486.862 1225.643,486.862 " />
          <polyline
             style="fill:none;stroke:#000000;stroke-width:0.5pt;stroke-dasharray:none"
             id="polyline4375"
             points="1236.230,431.713 1225.643,431.713 " />
          <polyline
             style="fill:none;stroke:#000000;stroke-width:0.5pt;stroke-dasharray:none"
             id="polyline4377"
             points="1236.230,376.565 1225.643,376.565 " />
          <polyline
             style="fill:none;stroke:#000000;stroke-width:0.5pt;stroke-dasharray:none"
             id="polyline4379"
             points="1236.230,321.417 1225.643,321.417 " />
          <polyline
             style="fill:none;stroke:#000000;stroke-width:0.5pt;stroke-dasharray:none"
             id="polyline4381"
             points="1236.230,266.268 1225.643,266.268 " />
          <polyline
             style="fill:none;stroke:#000000;stroke-width:0.5pt;stroke-dasharray:none"
             id="polyline4383"
             points="1236.230,211.120 1225.643,211.120 " />
          <polyline
             style="fill:none;stroke:#000000;stroke-width:0.5pt;stroke-dasharray:none"
             id="polyline4385"
             points="1236.230,155.972 1225.643,155.972 " />
          <polyline
             style="fill:none;stroke:#000000;stroke-width:0.5pt;stroke-dasharray:none"
             id="polyline4387"
             points="1236.230,100.823 1225.643,100.823 " />
          <polyline
             style="fill:none;stroke:#000000;stroke-width:0.5pt;stroke-dasharray:none"
             id="polyline4389"
             points="1236.230,542.010 1236.230,45.675 " />
          <g
             id="g4391"
             transform="translate(156.407,545.01)">
            <g
               id="g4393">
              <text
                 style="font-size:10px;font-family:Helvetica;text-anchor:end;fill:#000000"
                 id="text4395"
                 font-size="8.0pt"
                 y="0"
                 x="0">-90</text>
            </g>
          </g>
          <g
             id="g4397"
             transform="translate(156.407,489.862)">
            <g
               id="g4399">
              <text
                 style="font-size:10px;font-family:Helvetica;text-anchor:end;fill:#000000"
                 id="text4401"
                 font-size="8.0pt"
                 y="0"
                 x="0">-80</text>
            </g>
          </g>
          <g
             id="g4403"
             transform="translate(156.407,434.713)">
            <g
               id="g4405">
              <text
                 style="font-size:10px;font-family:Helvetica;text-anchor:end;fill:#000000"
                 id="text4407"
                 font-size="8.0pt"
                 y="0"
                 x="0">-70</text>
            </g>
          </g>
          <g
             id="g4409"
             transform="translate(156.407,379.565)">
            <g
               id="g4411">
              <text
                 style="font-size:10px;font-family:Helvetica;text-anchor:end;fill:#000000"
                 id="text4413"
                 font-size="8.0pt"
                 y="0"
                 x="0">-60</text>
            </g>
          </g>
          <g
             id="g4415"
             transform="translate(156.407,324.417)">
            <g
               id="g4417">
              <text
                 style="font-size:10px;font-family:Helvetica;text-anchor:end;fill:#000000"
                 id="text4419"
                 font-size="8.0pt"
                 y="0"
                 x="0">-50</text>
            </g>
          </g>
          <g
             id="g4421"
             transform="translate(156.407,269.268)">
            <g
               id="g4423">
              <text
                 style="font-size:10px;font-family:Helvetica;text-anchor:end;fill:#000000"
                 id="text4425"
                 font-size="8.0pt"
                 y="0"
                 x="0">-40</text>
            </g>
          </g>
          <g
             id="g4427"
             transform="translate(156.407,214.12)">
            <g
               id="g4429">
              <text
                 style="font-size:10px;font-family:Helvetica;text-anchor:end;fill:#000000"
                 id="text4431"
                 font-size="8.0pt"
                 y="0"
                 x="0">-30</text>
            </g>
          </g>
          <g
             id="g4433"
             transform="translate(156.407,158.972)">
            <g
               id="g4435">
              <text
                 style="font-size:10px;font-family:Helvetica;text-anchor:end;fill:#000000"
                 id="text4437"
                 font-size="8.0pt"
                 y="0"
                 x="0">-20</text>
            </g>
          </g>
          <g
             id="g4439"
             transform="translate(156.407,103.823)">
            <g
               id="g4441">
              <text
                 style="font-size:10px;font-family:Helvetica;text-anchor:end;fill:#000000"
                 id="text4443"
                 font-size="8.0pt"
                 y="0"
                 x="0">-10</text>
            </g>
          </g>
          <g
             id="g4445"
             transform="translate(156.407,48.675)">
            <g
               id="g4447">
              <text
                 style="font-size:10px;font-family:Helvetica;text-anchor:end;fill:#000000"
                 id="text4449"
                 font-size="8.0pt"
                 y="0"
                 x="0">0</text>
            </g>
          </g>
          <polyline
             style="fill:none;stroke:#000000;stroke-width:0.5pt;stroke-dasharray:none"
             id="polyline4451"
             points="177.580,542.010 177.580,537.047 " />
          <polyline
             style="fill:none;stroke:#000000;stroke-width:0.5pt;stroke-dasharray:none"
             id="polyline4453"
             points="177.580,542.010 177.580,542.010 " />
        </g>
      </g>
      <text
         sodipodi:linespacing="125%"
         id="text5819"
         y="583.77789"
         x="631.61078"
         style="font-style:normal;font-weight:normal;font-size:15px;line-height:125%;font-family:sans-serif;letter-spacing:0px;word-spacing:0px;fill:#000000;fill-opacity:1;stroke:none;stroke-width:1px;stroke-linecap:butt;stroke-linejoin:miter;stroke-opacity:1"
         xml:space="preserve"><tspan
           y="583.77789"
           x="631.61078"
           id="tspan5821"
           sodipodi:role="line">Frequency [Hz]</tspan></text>
      <text
         transform="matrix(0,-1,1,0,0,0)"
         sodipodi:linespacing="125%"
         id="text5819-8"
         y="122.93945"
         x="-359.37869"
         style="font-style:normal;font-weight:normal;font-size:15px;line-height:125%;font-family:sans-serif;letter-spacing:0px;word-spacing:0px;fill:#000000;fill-opacity:1;stroke:none;stroke-width:1px;stroke-linecap:butt;stroke-linejoin:miter;stroke-opacity:1"
         xml:space="preserve"><tspan
           y="122.93945"
           x="-359.37869"
           id="tspan5821-4"
           sodipodi:role="line">Amplitude [dB]</tspan></text>
    </g>
  </g>
</svg>
