<?xml version="1.0" encoding="UTF-8" standalone="no"?>
<!-- Created with Inkscape (http://www.inkscape.org/) -->

<svg
   xmlns:dc="http://purl.org/dc/elements/1.1/"
   xmlns:cc="http://creativecommons.org/ns#"
   xmlns:rdf="http://www.w3.org/1999/02/22-rdf-syntax-ns#"
   xmlns:svg="http://www.w3.org/2000/svg"
   xmlns="http://www.w3.org/2000/svg"
   xmlns:sodipodi="http://sodipodi.sourceforge.net/DTD/sodipodi-0.dtd"
   xmlns:inkscape="http://www.inkscape.org/namespaces/inkscape"
   width="323.9895mm"
   height="163.60831mm"
   viewBox="0 0 1147.9943 579.71447"
   id="svg3667"
   version="1.1"
   inkscape:version="0.91 r13725"
   sodipodi:docname="PandT_DiffSignal_2.svg">
  <defs
     id="defs3669">
    <clipPath
       id="ID000000">
      <rect
         x="177.58"
         y="48.900002"
         width="1058.65"
         height="531.38"
         id="rect11" />
    </clipPath>
  </defs>
  <sodipodi:namedview
     id="base"
     pagecolor="#ffffff"
     bordercolor="#666666"
     borderopacity="1.0"
     inkscape:pageopacity="0.0"
     inkscape:pageshadow="2"
     inkscape:zoom="0.7"
     inkscape:cx="528.96266"
     inkscape:cy="314.4699"
     inkscape:document-units="px"
     inkscape:current-layer="g8"
     showgrid="false"
     fit-margin-top="0"
     fit-margin-left="0"
     fit-margin-right="0"
     fit-margin-bottom="0"
     inkscape:window-width="1366"
     inkscape:window-height="706"
     inkscape:window-x="-8"
     inkscape:window-y="-8"
     inkscape:window-maximized="1" />
  <metadata
     id="metadata3672">
    <rdf:RDF>
      <cc:Work
         rdf:about="">
        <dc:format>image/svg+xml</dc:format>
        <dc:type
           rdf:resource="http://purl.org/dc/dcmitype/StillImage" />
        <dc:title></dc:title>
      </cc:Work>
    </rdf:RDF>
  </metadata>
  <g
     inkscape:label="Capa 1"
     inkscape:groupmode="layer"
     id="layer1"
     transform="translate(-74.574272,-313.93354)">
    <g
       transform="translate(-28.99247,269.22104)"
       id="g8">
      <clipPath
         id="clipPath3566">
        <rect
           x="177.58"
           y="48.900002"
           width="1058.65"
           height="531.38"
           id="rect3568" />
      </clipPath>
      <polyline
         style="fill:#ffffff;fill-opacity:1;stroke:none;stroke-width:0.5pt;stroke-dasharray:none;stroke-opacity:1"
         points="177.580,580.280 1236.230,580.280 1236.230,48.900 177.580,48.900 "
         id="polyline13" />
      <polyline
         style="fill:#ffffff;fill-opacity:1;stroke:none;stroke-width:0.5pt;stroke-dasharray:none;stroke-opacity:1"
         points="177.580,48.900 1236.230,48.900 1236.230,48.900 177.580,48.900 "
         id="polyline15" />
      <polyline
         style="fill:#ffffff;fill-opacity:1;stroke:none;stroke-width:0.5pt;stroke-dasharray:none;stroke-opacity:1"
         points="177.580,580.280 177.580,580.280 177.580,48.900 177.580,48.900 "
         id="polyline17" />
      <g
         id="g19"
         transform="translate(14,0)">
        <g
           clip-path="url(#ID000000)"
           id="g21">
          <polyline
             style="fill:none;stroke:#0000ff;stroke-width:0.5pt;stroke-dasharray:none"
             points="178.336,314.613 179.092,314.730 179.849,315.009 180.605,315.474 181.361,316.125 182.117,316.962 182.873,317.938 183.629,318.918 184.386,319.771 185.142,320.453 185.898,320.956 186.654,321.271 187.410,321.412 188.167,321.440 188.923,321.402 189.679,321.309 190.435,320.420 191.191,317.266 191.947,311.864 192.704,305.725 193.460,299.606 194.216,293.518 194.972,288.954 195.728,288.775 196.484,292.818 197.241,298.288 197.997,304.037 198.753,310.125 199.509,315.691 200.265,319.331 201.022,321.324 201.778,322.917 202.534,324.175 203.290,324.731 204.046,324.414 204.802,323.242 205.559,321.419 206.315,319.151 207.071,316.695 207.827,314.279 208.583,312.135 209.340,310.355 210.096,308.905 210.852,308.025 211.608,308.043 212.364,309.213 213.120,311.744 213.877,315.476 214.633,319.546 215.389,322.901 216.145,325.092 216.901,326.006 217.657,325.549 218.414,323.721 219.170,320.982 219.926,318.184 220.682,315.807 221.438,313.997 222.195,312.785 222.951,312.274 223.707,312.536 224.463,313.157 225.219,313.693 225.975,313.897 226.732,313.515 227.488,312.452 228.244,310.955 229.000,309.459 229.756,308.167 230.513,307.189 231.269,306.907 232.025,307.535 232.781,308.792 233.537,310.565 234.293,313.195 235.050,316.945 235.806,321.877 236.562,328.120 237.318,335.884 238.074,344.634 238.830,352.902 239.587,359.622 240.343,364.501 241.099,367.005 241.855,365.903 242.611,360.268 243.368,350.240 244.124,335.725 244.880,315.437 245.636,288.221 246.392,254.452 247.148,216.421 247.905,178.050 248.661,144.542 249.417,122.750 250.173,120.750 250.929,145.204 251.686,197.136 252.442,269.918 253.198,351.854 253.954,429.217 254.710,487.873 255.466,516.799 256.223,513.049 256.979,483.045 257.735,438.225 258.491,389.991 259.247,347.603 260.003,316.599 260.760,297.538 261.516,287.356 262.272,282.321 263.028,279.906 263.784,278.950 264.541,279.537 265.297,282.242 266.053,286.963 266.809,292.869 267.565,299.005 268.321,304.548 269.078,308.717 269.834,311.360 270.590,313.138 271.346,314.469 272.102,315.243 272.858,315.375 273.615,315.056 274.371,314.477 275.127,313.498 275.883,312.267 276.639,311.523 277.396,311.789 278.152,313.001 278.908,314.721 279.664,316.609 280.420,318.305 281.176,319.118 281.933,318.790 282.689,317.652 283.445,316.091 284.201,314.452 284.957,313.087 285.714,312.268 286.470,312.026 287.226,312.219 287.982,312.632 288.738,312.957 289.494,313.118 290.251,313.440 291.007,313.967 291.763,314.481 292.519,315.106 293.275,315.994 294.031,316.893 294.788,317.340 295.544,317.180 296.300,316.498 297.056,315.343 297.812,313.956 298.569,312.738 299.325,311.932 300.081,311.732 300.837,312.249 301.593,313.223 302.349,314.289 303.106,315.231 303.862,315.935 304.618,316.266 305.374,316.071 306.130,315.507 306.887,314.923 307.643,314.452 308.399,314.050 309.155,313.684 309.911,313.472 310.667,313.507 311.424,313.587 312.180,313.621 312.936,313.770 313.692,314.093 314.448,314.452 315.205,314.642 315.961,314.687 316.717,314.714 317.473,314.738 318.229,314.842 318.985,315.187 319.742,315.841 320.498,316.686 321.254,317.494 322.010,318.010 322.766,318.008 323.522,317.509 324.279,316.844 325.035,316.232 325.791,315.604 326.547,315.131 327.303,315.182 328.060,315.675 328.816,316.119 329.572,316.292 330.328,316.430 331.084,316.489 331.840,316.029 332.597,315.075 333.353,314.116 334.109,313.410 334.865,312.808 335.621,312.239 336.378,312.023 337.134,312.237 337.890,312.436 338.646,312.276 339.402,311.894 340.158,311.710 340.915,311.707 341.671,311.488 342.427,311.097 343.183,310.927 343.939,311.100 344.695,311.275 345.452,311.233 346.208,311.370 346.964,312.021 347.720,312.924 348.476,313.679 349.233,314.292 349.989,315.015 350.745,315.872 351.501,316.518 352.257,316.726 353.013,316.665 353.770,316.522 354.526,316.393 355.282,316.208 356.038,315.945 356.794,315.853 357.551,316.047 358.307,316.392 359.063,316.553 359.819,316.331 360.575,316.091 361.331,316.150 362.088,316.294 362.844,316.182 363.600,315.858 364.356,315.604 365.112,315.318 365.868,314.702 366.625,313.851 367.381,313.183 368.137,312.914 368.893,312.833 369.649,312.707 370.406,312.683 371.162,312.944 371.918,313.286 372.674,313.551 373.430,313.958 374.186,314.612 374.943,315.237 375.699,315.704 376.455,316.224 377.211,316.780 377.967,317.140 378.724,317.354 379.480,317.446 380.236,317.178 380.992,316.412 381.748,315.304 382.504,314.044 383.261,312.658 384.017,311.456 384.773,310.876 385.529,310.911 386.285,311.412 387.041,312.320 387.798,313.489 388.554,314.624 389.310,315.528 390.066,316.225 390.822,316.558 391.579,316.370 392.335,316.047 393.091,315.936 393.847,315.851 394.603,315.610 395.359,315.472 396.116,315.670 396.872,315.812 397.628,315.535 398.384,315.175 399.140,315.158 399.896,315.396 400.653,315.522 401.409,315.408 402.165,315.136 402.921,314.616 403.677,313.788 404.434,312.873 405.190,312.178 405.946,311.954 406.702,312.267 407.458,312.995 408.214,313.897 408.971,314.620 409.727,315.100 410.483,315.554 411.239,316.127 411.995,316.796 412.752,317.432 413.508,318.135 414.264,318.887 415.020,319.102 415.776,318.326 416.532,316.837 417.289,315.259 418.045,313.770 418.801,312.245 419.557,311.105 420.313,310.743 421.070,310.591 421.826,309.952 422.582,308.919 423.338,307.997 424.094,307.274 424.850,306.785 425.607,307.140 426.363,308.571 427.119,310.629 427.875,312.842 428.631,314.835 429.387,316.256 430.144,316.871 430.900,316.893 431.656,316.507 432.412,315.552 433.168,314.110 433.925,312.627 434.681,311.721 435.437,311.708 436.193,312.562 436.949,314.480 437.705,317.717 438.462,321.811 439.218,325.249 439.974,326.764 440.730,326.535 441.486,325.077 442.242,322.376 442.999,318.780 443.755,315.532 444.511,313.673 445.267,313.011 446.023,312.964 446.780,313.386 447.536,314.013 448.292,314.172 449.048,313.443 449.804,312.104 450.560,310.472 451.317,308.597 452.073,306.963 452.829,306.247 453.585,306.608 454.341,307.775 455.098,309.804 455.854,313.153 456.610,317.742 457.366,323.263 458.122,329.907 458.878,338.079 459.635,347.635 460.391,357.451 461.147,366.253 461.903,373.389 462.659,378.173 463.416,378.778 464.172,372.896 464.928,359.667 465.684,339.500 466.440,312.264 467.196,277.353 467.953,236.185 468.709,192.996 469.465,152.680 470.221,119.713 470.977,99.341 471.733,98.255 472.490,121.898 473.246,170.858 474.002,240.140 474.758,320.839 475.514,402.242 476.271,472.666 477.027,520.965 477.783,540.210 478.539,530.724 479.295,499.231 480.051,454.654 480.808,405.405 481.564,359.051 482.320,321.348 483.076,294.678 483.832,278.074 484.589,269.085 485.345,265.441 486.101,265.585 486.857,268.486 487.613,273.306 488.369,279.444 489.126,286.534 489.882,294.128 490.638,301.450 491.394,307.715 492.150,312.542 492.906,315.624 493.663,316.688 494.419,316.061 495.175,314.666 495.931,313.355 496.687,312.377 497.444,311.817 498.200,312.081 498.956,313.263 499.712,314.687 500.468,315.626 501.224,316.039 501.981,316.197 502.737,316.045 503.493,315.575 504.249,315.317 505.005,315.608 505.761,316.122 506.518,316.473 507.274,316.567 508.030,316.447 508.786,315.963 509.542,315.031 510.299,313.923 511.055,313.053 511.811,312.654 512.567,312.527 513.323,312.444 514.079,312.493 514.836,312.779 515.592,313.156 516.348,313.399 517.104,313.613 517.860,313.908 518.617,314.147 519.373,314.230 520.129,314.121 520.885,313.992 521.641,313.972 522.397,314.032 523.154,314.196 523.910,314.365 524.666,314.532 525.422,314.727 526.178,314.873 526.935,314.947 527.691,314.955 528.447,315.064 529.203,315.220 529.959,315.146 530.715,314.875 531.472,314.689 532.228,314.738 532.984,314.808 533.740,314.748 534.496,314.750 535.252,314.906 536.009,315.030 536.765,314.875 537.521,314.611 538.277,314.721 539.033,315.162 539.790,315.507 540.546,315.702 541.302,316.098 542.058,316.670 542.814,316.937 543.570,316.948 544.327,317.161 545.083,317.634 545.839,318.003 546.595,318.210 547.351,318.581 548.107,319.024 548.864,319.192 549.620,319.073 550.376,318.857 551.132,318.459 551.888,317.578 552.645,316.291 553.401,314.842 554.157,313.193 554.913,311.244 555.669,309.218 556.425,307.491 557.182,306.159 557.938,305.197 558.694,304.716 559.450,304.911 560.206,305.814 560.963,307.190 561.719,308.777 562.475,310.506 563.231,312.328 563.987,313.954 564.743,315.112 565.500,315.887 566.256,316.482 567.012,316.893 567.768,317.102 568.524,317.258 569.280,317.402 570.037,317.486 570.793,317.503 571.549,317.368 572.305,317.069 573.061,316.707 573.818,316.398 574.574,316.090 575.330,315.693 576.086,315.378 576.842,315.234 577.598,315.229 578.355,315.249 579.111,315.087 579.867,314.788 580.623,314.480 581.379,314.020 582.136,313.243 582.892,312.495 583.648,312.212 584.404,312.324 585.160,312.582 585.916,313.079 586.673,313.977 587.429,314.862 588.185,315.345 588.941,315.538 589.697,315.629 590.454,315.668 591.210,315.515 591.966,315.323 592.722,315.433 593.478,315.743 594.234,316.055 594.991,316.298 595.747,316.438 596.503,316.391 597.259,316.139 598.015,315.877 598.771,315.617 599.528,315.215 600.284,314.791 601.040,314.541 601.796,314.326 602.552,313.945 603.309,313.474 604.065,313.066 604.821,312.852 605.577,312.846 606.333,312.975 607.089,313.226 607.846,313.557 608.602,313.991 609.358,314.398 610.114,314.635 610.870,314.888 611.626,315.249 612.383,315.747 613.139,316.328 613.895,316.791 614.651,316.995 615.407,316.731 616.164,316.000 616.920,314.997 617.676,313.845 618.432,312.805 619.188,312.150 619.944,312.058 620.701,312.505 621.457,313.230 622.213,314.034 622.969,314.775 623.725,315.351 624.482,315.719 625.238,315.879 625.994,315.917 626.750,315.928 627.506,315.975 628.262,316.016 629.019,315.979 629.775,315.784 630.531,315.458 631.287,315.259 632.043,315.315 632.799,315.548 633.556,315.996 634.312,316.791 635.068,317.791 635.824,318.491 636.580,318.501 637.337,317.782 638.093,316.429 638.849,314.586 639.605,312.467 640.361,310.403 641.117,308.861 641.874,308.170 642.630,308.144 643.386,308.381 644.142,308.800 644.898,309.376 645.655,309.788 646.411,309.838 647.167,309.951 647.923,310.552 648.679,311.456 649.435,312.476 650.192,313.791 650.948,315.377 651.704,316.713 652.460,317.585 653.216,318.227 653.972,318.524 654.729,318.096 655.485,316.743 656.241,314.626 656.997,312.111 657.753,309.766 658.510,308.270 659.266,308.067 660.022,309.499 660.778,312.574 661.534,316.521 662.290,320.131 663.047,322.655 663.803,324.028 664.559,324.318 665.315,323.684 666.071,322.453 666.828,320.891 667.584,319.230 668.340,317.680 669.096,316.220 669.852,314.602 670.608,312.870 671.365,311.558 672.121,310.850 672.877,310.276 673.633,309.608 674.389,309.177 675.145,309.182 675.902,309.496 676.658,310.266 677.414,312.040 678.170,315.334 678.926,320.298 679.683,326.813 680.439,334.656 681.195,343.496 681.951,352.663 682.707,360.791 683.463,366.543 684.220,369.521 684.976,369.501 685.732,365.277 686.488,355.223 687.244,338.780 688.001,316.053 688.757,286.199 689.513,248.228 690.269,204.004 691.025,159.077 691.781,120.491 692.538,95.887 693.294,94.583 694.050,125.091 694.806,188.360 695.562,275.137 696.318,370.338 697.075,457.506 697.831,520.418 698.587,546.713 699.343,534.524 700.099,493.813 700.856,439.782 701.612,385.947 702.368,341.444 703.124,310.881 703.880,293.980 704.636,286.241 705.393,282.352 706.149,279.275 706.905,276.791 707.661,276.005 708.417,277.708 709.174,282.171 709.930,288.904 710.686,296.507 711.442,303.551 712.198,309.208 712.954,313.189 713.711,315.431 714.467,316.205 715.223,316.266 715.979,316.191 716.735,316.087 717.491,316.017 718.248,315.957 719.004,315.717 719.760,315.292 720.516,314.826 721.272,314.470 722.029,314.301 722.785,314.306 723.541,314.480 724.297,314.614 725.053,314.438 725.809,313.915 726.566,313.190 727.322,312.526 728.078,311.937 728.834,311.333 729.590,311.102 730.347,311.538 731.103,312.254 731.859,312.847 732.615,313.497 733.371,314.503 734.127,315.564 734.884,316.390 735.640,317.206 736.396,318.018 737.152,318.532 737.908,318.618 738.665,318.315 739.421,317.688 740.177,316.790 740.933,315.743 741.689,314.702 742.445,313.806 743.202,313.199 743.958,312.812 744.714,312.501 745.470,312.402 746.226,312.566 746.982,312.671 747.739,312.428 748.495,312.016 749.251,311.832 750.007,311.836 750.763,311.812 751.520,311.977 752.276,312.690 753.032,313.796 753.788,314.779 754.544,315.597 755.300,316.535 756.057,317.376 756.813,317.760 757.569,317.853 758.325,317.925 759.081,317.803 759.838,317.394 760.594,317.122 761.350,317.235 762.106,317.448 762.862,317.597 763.618,317.867 764.375,318.210 765.131,318.217 765.887,317.845 766.643,317.437 767.399,317.076 768.155,316.539 768.912,315.794 769.668,315.011 770.424,313.998 771.180,312.424 771.936,310.484 772.693,308.706 773.449,307.307 774.205,306.343 774.961,306.122 775.717,306.834 776.473,308.205 777.230,309.698 777.986,311.058 778.742,312.265 779.498,313.155 780.254,313.653 781.010,313.943 781.767,314.332 782.523,314.883 783.279,315.409 784.035,315.920 784.791,316.534 785.548,317.141 786.304,317.447 787.060,317.420 787.816,317.320 788.572,317.262 789.328,317.092 790.085,316.648 790.841,316.115 791.597,315.700 792.353,315.330 793.109,314.801 793.866,314.032 794.622,313.329 795.378,312.893 796.134,312.646 796.890,312.536 797.646,312.624 798.403,313.061 799.159,313.755 799.915,314.509 800.671,315.221 801.427,315.853 802.184,316.426 802.940,316.860 803.696,317.051 804.452,316.967 805.208,316.592 805.964,315.933 806.721,315.219 807.477,314.733 808.233,314.549 808.989,314.702 809.745,315.156 810.501,315.693 811.258,315.976 812.014,315.877 812.770,315.425 813.526,314.568 814.282,313.531 815.039,312.753 815.795,312.439 816.551,312.509 817.307,312.854 818.063,313.443 818.819,314.116 819.576,314.806 820.332,315.466 821.088,315.891 821.844,316.137 822.600,316.393 823.356,316.597 824.113,316.475 824.869,316.038 825.625,315.641 826.381,315.280 827.137,314.671 827.894,313.886 828.650,313.221 829.406,312.762 830.162,312.364 830.918,311.968 831.674,311.792 832.431,311.988 833.187,312.434 833.943,312.896 834.699,313.324 835.455,313.974 836.212,314.865 836.968,315.791 837.724,316.718 838.480,317.605 839.236,318.227 839.992,318.458 840.749,318.439 841.505,318.207 842.261,317.585 843.017,316.793 843.773,316.351 844.529,316.199 845.286,316.021 846.042,315.797 846.798,315.626 847.554,315.444 848.310,315.042 849.067,314.315 849.823,313.273 850.579,312.181 851.335,311.350 852.091,310.655 852.847,309.985 853.604,309.699 854.360,309.990 855.116,310.468 855.872,310.810 856.628,311.155 857.385,311.628 858.141,311.963 858.897,312.045 859.653,312.147 860.409,312.482 861.165,313.108 861.922,313.946 862.678,314.863 863.434,315.781 864.190,316.502 864.946,316.759 865.703,316.390 866.459,315.536 867.215,314.533 867.971,313.355 868.727,311.774 869.483,309.972 870.240,308.543 870.996,307.921 871.752,308.164 872.508,309.462 873.264,312.320 874.020,316.757 874.777,321.741 875.533,325.935 876.289,328.594 877.045,329.557 877.801,328.720 878.558,326.169 879.314,322.615 880.070,318.991 880.826,315.938 881.582,313.657 882.338,312.041 883.095,310.911 883.851,310.096 884.607,309.334 885.363,308.330 886.119,307.140 886.876,306.119 887.632,305.437 888.388,305.078 889.144,305.280 889.900,306.428 890.656,308.461 891.413,311.172 892.169,314.880 892.925,320.095 893.681,327.078 894.437,335.788 895.193,345.770 895.950,356.011 896.706,365.200 897.462,372.416 898.218,376.840 898.974,377.136 899.731,372.310 900.487,362.348 901.243,347.346 901.999,326.760 902.755,300.201 903.511,268.360 904.268,232.327 905.024,193.655 905.780,155.764 906.536,124.092 907.292,105.503 908.048,107.970 908.805,138.494 909.561,198.261 910.317,279.710 911.073,369.332 911.829,451.784 912.586,511.806 913.342,537.782 914.098,527.386 914.854,489.201 915.610,437.509 916.366,385.377 917.123,341.825 917.879,311.535 918.635,294.456 919.391,286.667 920.147,283.141 920.904,280.799 921.660,279.179 922.416,278.904 923.172,280.657 923.928,284.778 924.684,290.840 925.441,297.651 926.197,303.957 926.953,309.220 927.709,313.173 928.465,315.389 929.221,316.018 929.978,315.863 930.734,315.407 931.490,314.560 932.246,313.489 933.002,312.817 933.759,312.676 934.515,312.718 935.271,312.996 936.027,313.722 936.783,314.676 937.539,315.513 938.296,316.117 939.052,316.453 939.808,316.389 940.564,315.888 941.320,315.097 942.077,314.203 942.833,313.438 943.589,312.929 944.345,312.623 945.101,312.599 945.857,313.072 946.614,313.880 947.370,314.529 948.126,314.833 948.882,314.986 949.638,315.121 950.394,315.120 951.151,314.933 951.907,314.797 952.663,314.868 953.419,314.989 954.175,314.999 954.932,314.938 955.688,314.836 956.444,314.626 957.200,314.416 957.956,314.483 958.712,314.760 959.469,314.891 960.225,314.772 960.981,314.613 961.737,314.485 962.493,314.251 963.250,313.879 964.006,313.602 964.762,313.795 965.518,314.366 966.274,314.747 967.030,314.790 967.787,314.838 968.543,315.009 969.299,314.988 970.055,314.770 970.811,314.795 971.568,315.097 972.324,315.384 973.080,315.544 973.836,315.597 974.592,315.551 975.348,315.505 976.105,315.536 976.861,315.547 977.617,315.675 978.373,316.158 979.129,316.911 979.885,317.670 980.642,318.259 981.398,318.625 982.154,318.573 982.910,317.955 983.666,316.775 984.423,315.082 985.179,313.158 985.935,311.375 986.691,309.874 987.447,308.725 988.203,308.124 988.960,308.105 989.716,308.521 990.472,309.302 991.228,310.207 991.984,310.869 992.741,311.329 993.497,311.924 994.253,312.586 995.009,313.007 995.765,313.485 996.521,314.485 997.278,315.730 998.034,316.703 998.790,317.399 999.546,317.976 1000.302,318.313 1001.058,318.261 1001.815,317.824 1002.571,317.127 1003.327,316.311 1004.083,315.440 1004.839,314.609 1005.596,313.918 1006.352,313.528 1007.108,313.556 1007.864,313.887 1008.620,314.328 1009.376,314.657 1010.133,314.738 1010.889,314.609 1011.645,314.326 1012.401,314.071 1013.157,314.106 1013.914,314.416 1014.670,314.795 1015.426,315.155 1016.182,315.369 1016.938,315.273 1017.694,314.937 1018.451,314.740 1019.207,314.929 1019.963,315.310 1020.719,315.801 1021.475,316.382 1022.231,316.657 1022.988,316.297 1023.744,315.461 1024.500,314.548 1025.256,313.706 1026.012,313.007 1026.769,312.723 1027.525,312.948 1028.281,313.461 1029.037,314.072 1029.793,314.738 1030.549,315.343 1031.306,315.783 1032.062,316.064 1032.818,316.133 1033.574,315.964 1034.330,315.656 1035.087,315.321 1035.843,314.888 1036.599,314.211 1037.355,313.461 1038.111,312.904 1038.867,312.465 1039.624,312.024 1040.380,311.862 1041.136,312.290 1041.892,313.187 1042.648,314.265 1043.404,315.449 1044.161,316.637 1044.917,317.456 1045.673,317.728 1046.429,317.506 1047.185,316.710 1047.942,315.490 1048.698,314.381 1049.454,313.724 1050.210,313.541 1050.966,313.945 1051.722,314.942 1052.479,316.170 1053.235,317.164 1053.991,317.773 1054.747,317.980 1055.503,317.531 1056.259,316.540 1057.016,315.466 1057.772,314.635 1058.528,314.173 1059.284,313.966 1060.040,314.016 1060.797,314.367 1061.553,314.762 1062.309,314.694 1063.065,314.011 1063.821,313.176 1064.577,312.437 1065.334,311.599 1066.090,310.845 1066.846,310.824 1067.602,311.541 1068.358,312.189 1069.115,312.455 1069.871,312.716 1070.627,312.883 1071.383,312.432 1072.139,311.513 1072.895,310.851 1073.652,310.798 1074.408,311.114 1075.164,311.647 1075.920,312.531 1076.676,313.706 1077.432,314.854 1078.189,315.531 1078.945,315.684 1079.701,315.830 1080.457,316.180 1081.213,316.279 1081.970,315.701 1082.726,314.740 1083.482,313.822 1084.238,312.855 1084.994,311.878 1085.750,311.484 1086.507,312.390 1087.263,314.662 1088.019,317.655 1088.775,320.538 1089.531,322.567 1090.288,323.422 1091.044,323.159 1091.800,321.937 1092.556,319.894 1093.312,317.403 1094.068,315.262 1094.825,313.938 1095.581,313.138 1096.337,312.532 1097.093,312.412 1097.849,313.063 1098.606,314.045 1099.362,314.788 1100.118,315.203 1100.874,315.299 1101.630,314.816 1102.386,313.679 1103.143,312.247 1103.899,310.801 1104.655,309.510 1105.411,308.733 1106.167,308.779 1106.923,309.741 1107.680,311.740 1108.436,315.145 1109.192,320.143 1109.948,326.442 1110.704,333.810 1111.461,341.949 1112.217,350.021 1112.973,356.926 1113.729,361.908 1114.485,364.684 1115.241,364.459 1115.998,359.674 1116.754,349.248 1117.510,332.835 1118.266,309.741 1119.022,278.580 1119.779,239.491 1120.535,196.353 1121.291,155.536 1122.047,124.257 1122.803,111.055 1123.559,124.758 1124.316,169.451 1125.072,240.353 1125.828,325.516 1126.584,409.881 1127.340,477.678 1128.096,515.739 1128.853,519.021 1129.609,492.703 1130.365,448.423 1131.121,398.972 1131.877,354.855 1132.634,322.563 1133.390,303.254 1134.146,293.608 1134.902,289.068 1135.658,286.311 1136.414,283.963 1137.171,282.060 1137.927,281.417 1138.683,283.056 1139.439,287.175 1140.195,292.813 1140.952,298.649 1141.708,303.788 1142.464,307.896 1143.220,310.844 1143.976,312.516 1144.732,313.181 1145.489,313.627 1146.245,314.467 1147.001,315.502 1147.757,316.261 1148.513,316.733 1149.269,317.108 1150.026,317.218 1150.782,316.823 1151.538,316.212 1152.294,315.817 1153.050,315.686 1153.807,315.650 1154.563,315.559 1155.319,315.316 1156.075,314.978 1156.831,314.738 1157.587,314.556 1158.344,314.330 1159.100,314.207 1159.856,314.408 1160.612,314.751 "
             id="polyline23" />
          <g
             id="g25" />
        </g>
        <g
           transform="translate(706.405,41.995)"
           id="g27">
          <g
             id="g29" />
        </g>
      </g>
      <g
         id="g33">
        <polyline
           style="fill:none;stroke:#000000;stroke-width:0.5pt;stroke-dasharray:none"
           points="328.816,580.280 328.816,569.693 "
           id="polyline35" />
        <polyline
           style="fill:none;stroke:#000000;stroke-width:0.5pt;stroke-dasharray:none"
           points="480.051,580.280 480.051,569.693 "
           id="polyline37" />
        <polyline
           style="fill:none;stroke:#000000;stroke-width:0.5pt;stroke-dasharray:none"
           points="631.287,580.280 631.287,569.693 "
           id="polyline39" />
        <polyline
           style="fill:none;stroke:#000000;stroke-width:0.5pt;stroke-dasharray:none"
           points="782.523,580.280 782.523,569.693 "
           id="polyline41" />
        <polyline
           style="fill:none;stroke:#000000;stroke-width:0.5pt;stroke-dasharray:none"
           points="933.759,580.280 933.759,569.693 "
           id="polyline43" />
        <polyline
           style="fill:none;stroke:#000000;stroke-width:0.5pt;stroke-dasharray:none"
           points="1084.994,580.280 1084.994,569.693 "
           id="polyline45" />
        <polyline
           style="fill:none;stroke:#000000;stroke-width:0.5pt;stroke-dasharray:none"
           points="177.580,580.280 1236.230,580.280 "
           id="polyline47" />
        <polyline
           style="fill:none;stroke:#000000;stroke-width:0.5pt;stroke-dasharray:none"
           points="328.816,48.900 328.816,59.487 "
           id="polyline49" />
        <polyline
           style="fill:none;stroke:#000000;stroke-width:0.5pt;stroke-dasharray:none"
           points="480.051,48.900 480.051,59.487 "
           id="polyline51" />
        <polyline
           style="fill:none;stroke:#000000;stroke-width:0.5pt;stroke-dasharray:none"
           points="631.287,48.900 631.287,59.487 "
           id="polyline53" />
        <polyline
           style="fill:none;stroke:#000000;stroke-width:0.5pt;stroke-dasharray:none"
           points="782.523,48.900 782.523,59.487 "
           id="polyline55" />
        <polyline
           style="fill:none;stroke:#000000;stroke-width:0.5pt;stroke-dasharray:none"
           points="933.759,48.900 933.759,59.487 "
           id="polyline57" />
        <polyline
           style="fill:none;stroke:#000000;stroke-width:0.5pt;stroke-dasharray:none"
           points="1084.994,48.900 1084.994,59.487 "
           id="polyline59" />
        <polyline
           style="fill:none;stroke:#000000;stroke-width:0.5pt;stroke-dasharray:none"
           points="177.580,48.900 1236.230,48.900 "
           id="polyline61" />
        <g
           transform="translate(177.58,598.908)"
           id="g63">
          <g
             id="g65">
            <text
               style="font-size:10px;font-family:Helvetica;text-anchor:middle;fill:#000000"
               x="0"
               y="0"
               font-size="8.0pt"
               id="text67">0</text>
          </g>
        </g>
        <g
           transform="translate(328.816,598.908)"
           id="g69">
          <g
             id="g71">
            <text
               x="0"
               y="0"
               font-size="8.0pt"
               id="text73"
               style="font-size:10px;font-family:Helvetica;text-anchor:middle;fill:#000000">0.55</text>
          </g>
        </g>
        <g
           transform="translate(480.051,598.908)"
           id="g75">
          <g
             id="g77">
            <text
               x="0"
               y="0"
               font-size="8.0pt"
               id="text79"
               style="font-size:10px;font-family:Helvetica;text-anchor:middle;fill:#000000">1.1</text>
          </g>
        </g>
        <g
           transform="translate(631.287,598.908)"
           id="g81">
          <g
             id="g83">
            <text
               x="0"
               y="0"
               font-size="8.0pt"
               id="text85"
               style="font-size:10px;font-family:Helvetica;text-anchor:middle;fill:#000000">1.65</text>
          </g>
        </g>
        <g
           transform="translate(782.523,598.908)"
           id="g87">
          <g
             id="g89">
            <text
               x="0"
               y="0"
               font-size="8.0pt"
               id="text91"
               style="font-size:10px;font-family:Helvetica;text-anchor:middle;fill:#000000">2.2</text>
          </g>
        </g>
        <g
           transform="translate(933.759,598.908)"
           id="g93">
          <g
             id="g95">
            <text
               x="0"
               y="0"
               font-size="8.0pt"
               id="text97"
               style="font-size:10px;font-family:Helvetica;text-anchor:middle;fill:#000000">2.75</text>
          </g>
        </g>
        <g
           transform="translate(1084.994,598.908)"
           id="g99">
          <g
             id="g101">
            <text
               x="0"
               y="0"
               font-size="8.0pt"
               id="text103"
               style="font-size:10px;font-family:Helvetica;text-anchor:middle;fill:#000000">3.3</text>
          </g>
        </g>
        <g
           transform="translate(1236.23,598.908)"
           id="g105">
          <g
             id="g107">
            <text
               x="0"
               y="0"
               font-size="8.0pt"
               id="text109"
               style="font-size:10px;font-family:Helvetica;text-anchor:middle;fill:#000000">3.85</text>
          </g>
        </g>
        <polyline
           style="fill:none;stroke:#000000;stroke-width:0.5pt;stroke-dasharray:none"
           points="177.580,513.857 188.167,513.857 "
           id="polyline111" />
        <polyline
           style="fill:none;stroke:#000000;stroke-width:0.5pt;stroke-dasharray:none"
           points="177.580,447.435 188.167,447.435 "
           id="polyline113" />
        <polyline
           style="fill:none;stroke:#000000;stroke-width:0.5pt;stroke-dasharray:none"
           points="177.580,381.012 188.167,381.012 "
           id="polyline115" />
        <polyline
           style="fill:none;stroke:#000000;stroke-width:0.5pt;stroke-dasharray:none"
           points="177.580,314.590 188.167,314.590 "
           id="polyline117" />
        <polyline
           style="fill:none;stroke:#000000;stroke-width:0.5pt;stroke-dasharray:none"
           points="177.580,248.168 188.167,248.168 "
           id="polyline119" />
        <polyline
           style="fill:none;stroke:#000000;stroke-width:0.5pt;stroke-dasharray:none"
           points="177.580,181.745 188.167,181.745 "
           id="polyline121" />
        <polyline
           style="fill:none;stroke:#000000;stroke-width:0.5pt;stroke-dasharray:none"
           points="177.580,115.323 188.167,115.323 "
           id="polyline123" />
        <polyline
           style="fill:none;stroke:#000000;stroke-width:0.5pt;stroke-dasharray:none"
           points="177.580,580.280 177.580,48.900 "
           id="polyline125" />
        <polyline
           style="fill:none;stroke:#000000;stroke-width:0.5pt;stroke-dasharray:none"
           points="1236.230,513.857 1225.643,513.857 "
           id="polyline127" />
        <polyline
           style="fill:none;stroke:#000000;stroke-width:0.5pt;stroke-dasharray:none"
           points="1236.230,447.435 1225.643,447.435 "
           id="polyline129" />
        <polyline
           style="fill:none;stroke:#000000;stroke-width:0.5pt;stroke-dasharray:none"
           points="1236.230,381.012 1225.643,381.012 "
           id="polyline131" />
        <polyline
           style="fill:none;stroke:#000000;stroke-width:0.5pt;stroke-dasharray:none"
           points="1236.230,314.590 1225.643,314.590 "
           id="polyline133" />
        <polyline
           style="fill:none;stroke:#000000;stroke-width:0.5pt;stroke-dasharray:none"
           points="1236.230,248.168 1225.643,248.168 "
           id="polyline135" />
        <polyline
           style="fill:none;stroke:#000000;stroke-width:0.5pt;stroke-dasharray:none"
           points="1236.230,181.745 1225.643,181.745 "
           id="polyline137" />
        <polyline
           style="fill:none;stroke:#000000;stroke-width:0.5pt;stroke-dasharray:none"
           points="1236.230,115.323 1225.643,115.323 "
           id="polyline139" />
        <polyline
           style="fill:none;stroke:#000000;stroke-width:0.5pt;stroke-dasharray:none"
           points="1236.230,580.280 1236.230,48.900 "
           id="polyline141" />
        <g
           transform="translate(156.407,583.28)"
           id="g143">
          <g
             id="g145">
            <text
               style="font-size:10px;font-family:Helvetica;text-anchor:end;fill:#000000"
               x="0"
               y="0"
               font-size="8.0pt"
               id="text147">-80</text>
          </g>
        </g>
        <g
           transform="translate(156.407,516.857)"
           id="g149">
          <g
             id="g151">
            <text
               style="font-size:10px;font-family:Helvetica;text-anchor:end;fill:#000000"
               x="0"
               y="0"
               font-size="8.0pt"
               id="text153">-60</text>
          </g>
        </g>
        <g
           transform="translate(156.407,450.435)"
           id="g155">
          <g
             id="g157">
            <text
               style="font-size:10px;font-family:Helvetica;text-anchor:end;fill:#000000"
               x="0"
               y="0"
               font-size="8.0pt"
               id="text159">-40</text>
          </g>
        </g>
        <g
           transform="translate(156.407,384.012)"
           id="g161">
          <g
             id="g163">
            <text
               style="font-size:10px;font-family:Helvetica;text-anchor:end;fill:#000000"
               x="0"
               y="0"
               font-size="8.0pt"
               id="text165">-20</text>
          </g>
        </g>
        <g
           transform="translate(156.407,317.59)"
           id="g167">
          <g
             id="g169">
            <text
               style="font-size:10px;font-family:Helvetica;text-anchor:end;fill:#000000"
               x="0"
               y="0"
               font-size="8.0pt"
               id="text171">0</text>
          </g>
        </g>
        <g
           transform="translate(156.407,251.168)"
           id="g173">
          <g
             id="g175">
            <text
               style="font-size:10px;font-family:Helvetica;text-anchor:end;fill:#000000"
               x="0"
               y="0"
               font-size="8.0pt"
               id="text177">20</text>
          </g>
        </g>
        <g
           transform="translate(156.407,184.745)"
           id="g179">
          <g
             id="g181">
            <text
               style="font-size:10px;font-family:Helvetica;text-anchor:end;fill:#000000"
               x="0"
               y="0"
               font-size="8.0pt"
               id="text183">40</text>
          </g>
        </g>
        <g
           transform="translate(156.407,118.323)"
           id="g185">
          <g
             id="g187">
            <text
               style="font-size:10px;font-family:Helvetica;text-anchor:end;fill:#000000"
               x="0"
               y="0"
               font-size="8.0pt"
               id="text189">60</text>
          </g>
        </g>
        <g
           transform="translate(156.407,51.9)"
           id="g191">
          <g
             id="g193">
            <text
               style="font-size:10px;font-family:Helvetica;text-anchor:end;fill:#000000"
               x="0"
               y="0"
               font-size="8.0pt"
               id="text195">80</text>
          </g>
        </g>
        <polyline
           style="fill:none;stroke:#000000;stroke-width:0.5pt;stroke-dasharray:none"
           points="177.580,580.280 177.580,574.966 "
           id="polyline197" />
        <polyline
           style="fill:none;stroke:#000000;stroke-width:0.5pt;stroke-dasharray:none"
           points="177.580,580.280 177.580,580.280 "
           id="polyline199" />
      </g>
    </g>
    <text
       xml:space="preserve"
       style="font-style:normal;font-weight:normal;font-size:15px;line-height:125%;font-family:sans-serif;letter-spacing:0px;word-spacing:0px;fill:#000000;fill-opacity:1;stroke:none;stroke-width:1px;stroke-linecap:butt;stroke-linejoin:miter;stroke-opacity:1"
       x="607.33856"
       y="890.77692"
       id="text3533"
       sodipodi:linespacing="125%"><tspan
         sodipodi:role="line"
         id="tspan3535"
         x="607.33856"
         y="890.77692">Time [s]</tspan></text>
    <text
       xml:space="preserve"
       style="font-style:normal;font-weight:normal;font-size:15px;line-height:125%;font-family:sans-serif;letter-spacing:0px;word-spacing:0px;fill:#000000;fill-opacity:1;stroke:none;stroke-width:1px;stroke-linecap:butt;stroke-linejoin:miter;stroke-opacity:1"
       x="-613.08655"
       y="85.970757"
       id="text3533-9"
       sodipodi:linespacing="125%"
       transform="matrix(0,-1,1,0,0,0)"><tspan
         sodipodi:role="line"
         id="tspan3535-3"
         x="-613.08655"
         y="85.970757">Amplitude []</tspan></text>
  </g>
</svg>
