<?xml version="1.0" encoding="UTF-8" standalone="no"?>
<svg
   xmlns:dc="http://purl.org/dc/elements/1.1/"
   xmlns:cc="http://creativecommons.org/ns#"
   xmlns:rdf="http://www.w3.org/1999/02/22-rdf-syntax-ns#"
   xmlns:svg="http://www.w3.org/2000/svg"
   xmlns="http://www.w3.org/2000/svg"
   xmlns:sodipodi="http://sodipodi.sourceforge.net/DTD/sodipodi-0.dtd"
   xmlns:inkscape="http://www.inkscape.org/namespaces/inkscape"
   style="font-style:normal;font-weight:normal;font-size:12px;font-family:Dialog;color-interpolation:auto;fill:#000000;fill-opacity:1;stroke:#000000;stroke-width:1;stroke-linecap:square;stroke-linejoin:miter;stroke-miterlimit:10;stroke-dasharray:none;stroke-dashoffset:0;stroke-opacity:1;color-rendering:auto;image-rendering:auto;shape-rendering:auto;text-rendering:auto"
   width="416.54398"
   height="256.89279"
   id="svg2"
   version="1.1"
   inkscape:version="0.91 r13725"
   sodipodi:docname="slewrate_hist.svg">
  <metadata
     id="metadata305">
    <rdf:RDF>
      <cc:Work
         rdf:about="">
        <dc:format>image/svg+xml</dc:format>
        <dc:type
           rdf:resource="http://purl.org/dc/dcmitype/StillImage" />
        <dc:title></dc:title>
      </cc:Work>
    </rdf:RDF>
  </metadata>
  <sodipodi:namedview
     pagecolor="#ffffff"
     bordercolor="#666666"
     borderopacity="1"
     objecttolerance="10"
     gridtolerance="10"
     guidetolerance="10"
     inkscape:pageopacity="0"
     inkscape:pageshadow="2"
     inkscape:window-width="1920"
     inkscape:window-height="1004"
     id="namedview303"
     showgrid="false"
     inkscape:zoom="1.2605042"
     inkscape:cx="215.40718"
     inkscape:cy="41.913925"
     inkscape:window-x="0"
     inkscape:window-y="24"
     inkscape:window-maximized="1"
     inkscape:current-layer="svg2"
     fit-margin-top="0"
     fit-margin-left="0"
     fit-margin-right="0"
     fit-margin-bottom="0" />
  <!--Generated by the Batik Graphics2D SVG Generator-->
  <defs
     id="genericDefs">
    <defs
       id="defs1">
      <clipPath
         id="clipPath1"
         clipPathUnits="userSpaceOnUse">
        <path
           id="path9"
           d="M 0,0 714,0 714,274 0,274 0,0 Z"
           inkscape:connector-curvature="0" />
      </clipPath>
    </defs>
  </defs>
  <g
     id="g21"
     style="font-size:15px;font-family:mwa_cmr10;color-interpolation:linearRGB;fill:#262626;stroke:#262626;color-rendering:optimizeQuality;image-rendering:optimizeQuality;text-rendering:geometricPrecision"
     transform="translate(220.87588,240.8229)">
    <path
       inkscape:connector-curvature="0"
       id="path23"
       d="m -60.7411,12.5387 0,-3.5 q 0,-0.125 0.125,-0.125 l 0.1875,0 q 0.0469,0 0.086,0.0391 0.039,0.039 0.039,0.0859 0,1.4687 0.9063,2.2734 0.9062,0.8047 2.3906,0.8047 0.5156,0 0.9609,-0.2969 0.4453,-0.2968 0.6875,-0.7812 0.2422,-0.4844 0.2422,-1.0156 0,-0.4532 -0.1875,-0.8828 -0.1875,-0.4297 -0.5312,-0.7422 -0.3438,-0.3125 -0.7657,-0.4219 l -1.9531,-0.4688 q -0.9687,-0.25 -1.5781,-1.0468 -0.6094,-0.7969 -0.6094,-1.7813 0,-0.7812 0.3985,-1.4609 0.3984,-0.6797 1.0625,-1.0781 0.664,-0.3985 1.4453,-0.3985 1.5,0 2.3906,1.0156 l 0.6094,-0.9687 q 0.0468,-0.0469 0.1093,-0.0469 l 0.0938,0 q 0.0469,0 0.0859,0.0313 0.0391,0.0312 0.0391,0.0937 l 0,3.4844 q 0,0.125 -0.125,0.125 l -0.1719,0 q -0.1406,0 -0.1406,-0.125 0,-0.3906 -0.125,-0.8438 -0.125,-0.4531 -0.3516,-0.8671 -0.2265,-0.4141 -0.4922,-0.6797 -0.7343,-0.7344 -1.9218,-0.7344 -0.5157,0 -0.9453,0.2578 -0.4297,0.2578 -0.6875,0.7109 -0.2579,0.4532 -0.2579,0.9375 0,0.6407 0.3985,1.1641 0.3984,0.5234 1.039,0.6953 l 1.9532,0.4688 q 0.4843,0.125 0.914,0.4297 0.4297,0.3046 0.711,0.7031 0.2812,0.3984 0.4453,0.8984 0.164,0.5 0.164,1.0156 0,0.8125 -0.375,1.5391 -0.375,0.7266 -1.0468,1.1641 -0.6719,0.4375 -1.4844,0.4375 -0.5,0 -1.0156,-0.1094 -0.5157,-0.1094 -0.961,-0.3359 -0.4453,-0.2266 -0.8047,-0.586 l -0.625,0.9844 q -0.0468,0.0469 -0.1093,0.0469 l -0.0938,0 q -0.125,0 -0.125,-0.1094 z"
       style="stroke:none" />
    <path
       inkscape:connector-curvature="0"
       id="path25"
       d="m -52.9679,12.3199 0,-0.5312 q 0.5,0 0.8359,-0.0781 0.336,-0.0782 0.336,-0.3907 l 0,-7.875 q 0,-0.4062 -0.125,-0.5859 -0.125,-0.1797 -0.3516,-0.2187 -0.2266,-0.0391 -0.6953,-0.0391 l 0,-0.5313 2.2187,-0.1562 0,9.4062 q 0,0.3125 0.3282,0.3907 0.3281,0.0781 0.8437,0.0781 l 0,0.5312 -3.3906,0 z"
       style="stroke:none" />
    <path
       inkscape:connector-curvature="0"
       id="path27"
       d="m -45.6282,12.4918 q -0.9219,0 -1.6797,-0.4844 -0.7578,-0.4843 -1.1953,-1.2812 -0.4375,-0.7969 -0.4375,-1.6875 0,-0.8906 0.3984,-1.6797 0.3985,-0.7891 1.1094,-1.2734 0.711,-0.4844 1.586,-0.4844 0.7031,0 1.2109,0.2266 0.5078,0.2265 0.8359,0.6406 0.3282,0.414 0.4922,0.9687 0.1641,0.5547 0.1641,1.2266 0,0.1875 -0.1406,0.1875 l -4.3438,0 0,0.1719 q 0,1.2343 0.5,2.1328 0.5,0.8984 1.6406,0.8984 0.4532,0 0.8438,-0.2109 0.3906,-0.211 0.6797,-0.5703 0.289,-0.3594 0.3984,-0.7813 0.0156,-0.0469 0.0547,-0.0937 0.0391,-0.0469 0.0859,-0.0469 l 0.1407,0 q 0.1406,0 0.1406,0.2031 -0.2031,0.8438 -0.9063,1.3906 -0.7031,0.5469 -1.5781,0.5469 z m -1.9844,-4.0156 3.4063,0 q 0,-0.5625 -0.1563,-1.1406 -0.1562,-0.5782 -0.5234,-0.961 -0.3672,-0.3828 -0.9609,-0.3828 -0.8438,0 -1.3047,0.7969 -0.461,0.7969 -0.461,1.6875 z"
       style="stroke:none" />
    <path
       inkscape:connector-curvature="0"
       id="path29"
       d="m -39.5316,12.3199 -1.9375,-5.4531 q -0.125,-0.3281 -0.375,-0.4062 -0.25,-0.0782 -0.7343,-0.0782 l 0,-0.5312 3.0937,0 0,0.5312 q -0.8906,0 -0.8906,0.375 0.0156,0.0157 0.0156,0.0391 0,0.0234 0,0.0703 l 1.4531,4.0469 1.2344,-3.5313 -0.1875,-0.5156 q -0.125,-0.3281 -0.3828,-0.4062 -0.2578,-0.0782 -0.7266,-0.0782 l 0,-0.5312 2.9688,0 0,0.5312 q -0.8906,0 -0.8906,0.375 0,0.0469 0.0156,0.1094 l 1.5,4.2188 1.3594,-3.8125 q 0.0312,-0.125 0.0312,-0.2188 0,-0.3125 -0.2656,-0.4922 -0.2656,-0.1797 -0.5938,-0.1797 l 0,-0.5312 2.5469,0 0,0.5312 q -0.4531,0 -0.7812,0.2344 -0.3282,0.2344 -0.4844,0.6563 l -1.7813,5.0468 q -0.0468,0.1719 -0.2343,0.1719 l -0.1094,0 q -0.1719,0 -0.2344,-0.1719 l -1.5156,-4.2812 -1.5156,4.2812 q -0.0625,0.1719 -0.2344,0.1719 l -0.1094,0 q -0.1719,0 -0.2344,-0.1719 z"
       style="stroke:none" />
    <path
       inkscape:connector-curvature="0"
       id="path31"
       d="m -31.7514,12.3199 0,-0.5312 q 1.5468,0 1.5468,-0.4688 l 0,-8.25 q 0,-0.4687 -1.5468,-0.4687 l 0,-0.5313 4.7031,0 q 0.8437,0 1.7734,0.3047 0.9297,0.3047 1.5469,0.9297 0.6172,0.625 0.6172,1.4844 0,0.625 -0.375,1.125 -0.375,0.5 -0.961,0.8281 -0.5859,0.3281 -1.2109,0.4844 0.6719,0.2344 1.1797,0.7422 0.5078,0.5078 0.6172,1.1797 l 0.2031,1.3281 q 0.1563,0.9062 0.3125,1.3437 0.1563,0.4375 0.7031,0.4375 0.4688,0 0.7032,-0.4375 0.2343,-0.4375 0.2343,-0.9375 0,-0.0625 0.0469,-0.1015 0.0469,-0.0391 0.0938,-0.0391 l 0.1406,0 q 0.1562,0 0.1562,0.2031 0,0.4063 -0.164,0.7969 -0.1641,0.3906 -0.4688,0.6485 -0.3047,0.2578 -0.7265,0.2578 -1.0782,0 -1.8594,-0.5391 -0.7813,-0.5391 -0.7813,-1.5703 l 0,-1.3438 q 0,-0.75 -0.5156,-1.2812 -0.5156,-0.5313 -1.2812,-0.5313 l -1.7969,0 0,3.9375 q 0,0.4688 1.5469,0.4688 l 0,0.5312 -4.4375,0 z m 2.8906,-5.3281 1.6094,0 q 1.2343,0 1.8906,-0.5 0.6562,-0.5 0.6562,-1.7031 0,-1.1875 -0.6484,-1.6875 -0.6484,-0.5 -1.8984,-0.5 l -0.8438,0 q -0.2812,0 -0.4297,0.0234 -0.1484,0.0235 -0.2422,0.125 -0.0937,0.1016 -0.0937,0.3203 l 0,3.9219 z"
       style="stroke:none" />
    <path
       inkscape:connector-curvature="0"
       id="path33"
       d="m -20.8614,10.8512 q 0,-0.8906 0.7031,-1.4531 0.7032,-0.5625 1.6953,-0.7969 0.9922,-0.2344 1.8672,-0.2344 l 0,-0.6094 q 0,-0.4375 -0.1875,-0.8437 -0.1875,-0.4063 -0.5468,-0.6641 -0.3594,-0.2578 -0.7969,-0.2578 -0.9844,0 -1.5156,0.4531 0.2968,0 0.4765,0.211 0.1797,0.2109 0.1797,0.5078 0,0.2969 -0.2109,0.5078 -0.211,0.2109 -0.4922,0.2109 -0.3125,0 -0.5235,-0.2109 -0.2109,-0.2109 -0.2109,-0.5078 0,-0.7969 0.7188,-1.1797 0.7187,-0.3828 1.5781,-0.3828 0.6094,0 1.2265,0.2578 0.6172,0.2578 1.0079,0.7422 0.3906,0.4844 0.3906,1.125 l 0,3.375 q 0,0.2969 0.125,0.5391 0.125,0.2421 0.3906,0.2421 0.25,0 0.3672,-0.25 0.1172,-0.25 0.1172,-0.5312 l 0,-0.9531 0.4375,0 0,0.9531 q 0,0.3437 -0.1719,0.6484 -0.1719,0.3047 -0.4687,0.4844 -0.2969,0.1797 -0.6407,0.1797 -0.4375,0 -0.7578,-0.3438 -0.3203,-0.3437 -0.3515,-0.8125 -0.2813,0.5625 -0.8204,0.8985 -0.539,0.3359 -1.164,0.3359 -0.5625,0 -1.1172,-0.1719 -0.5547,-0.1718 -0.9297,-0.5312 -0.375,-0.3594 -0.375,-0.9375 z m 1.2188,0 q 0,0.5312 0.3906,0.8828 0.3906,0.3516 0.9219,0.3516 0.4843,0 0.875,-0.2344 0.3906,-0.2344 0.625,-0.6563 0.2343,-0.4218 0.2343,-0.875 l 0,-1.5625 q -0.6718,0 -1.3906,0.2188 -0.7187,0.2187 -1.1875,0.6953 -0.4687,0.4766 -0.4687,1.1797 z"
       style="stroke:none" />
    <path
       inkscape:connector-curvature="0"
       id="path35"
       d="m -12.5905,10.5231 0,-4.1407 -1.25,0 0,-0.3906 q 0.9843,0 1.4453,-0.914 0.4609,-0.9141 0.4609,-1.9922 l 0.4375,0 0,2.7656 2.1094,0 0,0.5312 -2.1094,0 0,4.1094 q 0,0.625 0.2109,1.0938 0.211,0.4687 0.7422,0.4687 0.5157,0 0.7422,-0.5 0.2266,-0.5 0.2266,-1.0625 l 0,-0.8906 0.4375,0 0,0.9219 q 0,0.4687 -0.1719,0.9218 -0.1719,0.4532 -0.5078,0.75 -0.3359,0.2969 -0.8203,0.2969 -0.9063,0 -1.4297,-0.539 -0.5234,-0.5391 -0.5234,-1.4297 z"
       style="stroke:none" />
    <path
       inkscape:connector-curvature="0"
       id="path37"
       d="m -4.6837,12.4918 q -0.9219,0 -1.6797,-0.4844 -0.7578,-0.4843 -1.1953,-1.2812 -0.4375,-0.7969 -0.4375,-1.6875 0,-0.8906 0.3984,-1.6797 0.3985,-0.7891 1.1094,-1.2734 0.711,-0.4844 1.586,-0.4844 0.7031,0 1.2109,0.2266 0.5078,0.2265 0.8359,0.6406 0.3282,0.414 0.4922,0.9687 0.1641,0.5547 0.1641,1.2266 0,0.1875 -0.1406,0.1875 l -4.3438,0 0,0.1719 q 0,1.2343 0.5,2.1328 0.5,0.8984 1.6406,0.8984 0.4532,0 0.8438,-0.2109 0.3906,-0.211 0.6797,-0.5703 0.289,-0.3594 0.3984,-0.7813 0.0156,-0.0469 0.0547,-0.0937 0.0391,-0.0469 0.0859,-0.0469 l 0.1407,0 q 0.1406,0 0.1406,0.2031 -0.2031,0.8438 -0.9063,1.3906 -0.7031,0.5469 -1.5781,0.5469 z m -1.9844,-4.0156 3.4063,0 q 0,-0.5625 -0.1563,-1.1406 -0.1562,-0.5782 -0.5234,-0.961 -0.3672,-0.3828 -0.9609,-0.3828 -0.8438,0 -1.3047,0.7969 -0.461,0.7969 -0.461,1.6875 z"
       style="stroke:none" />
    <path
       inkscape:connector-curvature="0"
       id="path39"
       d="m 4.755,16.0699 0,-15 2.0625,0 0,0.5938 -1.4532,0 0,13.8125 1.4532,0 0,0.5937 -2.0625,0 z"
       style="stroke:none" />
    <path
       inkscape:connector-curvature="0"
       id="path41"
       d="m 8.2197,12.0699 q 0,-0.0937 0.0156,-0.1406 l 1.125,-4.4687 q 0.1094,-0.4219 0.1094,-0.7344 0,-0.6406 -0.4375,-0.6406 -0.4688,0 -0.6953,0.5547 -0.2266,0.5546 -0.4454,1.414 0,0.0469 -0.0468,0.0703 -0.0469,0.0235 -0.0782,0.0235 l -0.1718,0 Q 7.5322,8.1481 7.5009,8.0934 7.4697,8.0387 7.4697,7.9918 7.6259,7.3512 7.7744,6.8981 7.9228,6.4449 8.2431,6.0699 q 0.3203,-0.375 0.8047,-0.375 0.5625,0 0.9922,0.3516 0.4297,0.3516 0.4297,0.8984 0.4531,-0.5781 1.0468,-0.914 0.5938,-0.336 1.2813,-0.336 0.7031,0 1.2187,0.3594 0.5157,0.3594 0.5157,1.0313 0.4687,-0.6563 1.0859,-1.0235 0.6172,-0.3672 1.3516,-0.3672 0.7656,0 1.2422,0.4219 0.4765,0.4219 0.4765,1.1875 0,0.625 -0.2734,1.4922 -0.2735,0.8672 -0.6797,1.9453 -0.2188,0.5156 -0.2188,0.9063 0,0.4375 0.3438,0.4375 0.5937,0 0.9844,-0.625 0.3906,-0.625 0.5468,-1.3438 0.0469,-0.0937 0.125,-0.0937 l 0.1719,0 q 0.0625,0 0.1016,0.039 0.039,0.0391 0.039,0.1016 0,0.0156 -0.0156,0.0469 -0.2031,0.8437 -0.7109,1.5625 -0.5078,0.7187 -1.2735,0.7187 -0.5312,0 -0.8984,-0.3672 -0.3672,-0.3672 -0.3672,-0.8828 0,-0.2656 0.1094,-0.5781 0.4375,-1.1406 0.7187,-2.0234 0.2813,-0.8829 0.2813,-1.5547 0,-0.4219 -0.1719,-0.711 -0.1719,-0.289 -0.5625,-0.289 -0.8281,0 -1.4219,0.5 -0.5937,0.5 -1.0468,1.3281 -0.0157,0.1406 -0.0313,0.2187 l -0.9687,3.8594 q -0.0625,0.2031 -0.2422,0.3516 -0.1797,0.1484 -0.3985,0.1484 -0.1718,0 -0.3046,-0.1172 -0.1329,-0.1172 -0.1329,-0.3047 0,-0.0937 0.0157,-0.1406 l 0.9531,-3.8281 q 0.1562,-0.6094 0.1562,-1.0156 0,-0.4219 -0.1718,-0.711 -0.1719,-0.289 -0.5782,-0.289 -0.5468,0 -1.0156,0.2422 -0.4687,0.2421 -0.8125,0.6406 -0.3437,0.3984 -0.625,0.9453 l -1.0156,4.0781 q -0.0469,0.2031 -0.2266,0.3516 -0.1797,0.1484 -0.3984,0.1484 -0.1875,0 -0.3203,-0.1172 -0.1328,-0.1172 -0.1328,-0.3047 z"
       style="stroke:none" />
    <path
       inkscape:connector-curvature="0"
       id="path43"
       d="M 23.2378,12.4918 22.0503,2.9293 q -0.1094,-0.3281 -1.1406,-0.3281 -0.1406,0 -0.1406,-0.2031 0.0312,-0.1563 0.0703,-0.2422 0.039,-0.086 0.1797,-0.086 l 3.6562,0 q 0.0781,0 0.1172,0.0625 0.0391,0.0625 0.0391,0.1407 -0.0625,0.3281 -0.2032,0.3281 -1.1718,0 -1.2343,0.4062 l 0.9843,7.8438 4.625,-7.375 q 0.125,-0.25 0.125,-0.4063 0,-0.25 -0.2343,-0.3593 -0.2344,-0.1094 -0.5469,-0.1094 -0.1563,0 -0.1563,-0.2031 0.0313,-0.1094 0.0547,-0.1797 0.0235,-0.0703 0.0625,-0.1094 0.0391,-0.0391 0.1328,-0.0391 l 2.8907,0 q 0.1406,0 0.1406,0.2032 -0.0469,0.3281 -0.1875,0.3281 -1.1406,0 -1.7656,0.9844 -0.0313,0.0312 -0.0625,0.0312 l -5.5313,8.875 q -0.1094,0.1563 -0.2812,0.1563 l -0.2032,0 q -0.1718,0 -0.2031,-0.1563 z"
       style="stroke:none" />
    <path
       inkscape:connector-curvature="0"
       id="path45"
       d="m 30.9699,15.7731 q 0,-0.0469 0.0156,-0.0625 L 36.2042,1.2574 q 0.0157,-0.0937 0.0938,-0.1406 0.0781,-0.0469 0.1719,-0.0469 0.125,0 0.2109,0.0782 0.0859,0.0781 0.0859,0.2187 l 0,0.0625 -5.2187,14.4531 q -0.0781,0.1875 -0.2813,0.1875 -0.125,0 -0.2109,-0.0859 -0.0859,-0.0859 -0.0859,-0.2109 z"
       style="stroke:none" />
    <path
       inkscape:connector-curvature="0"
       id="path47"
       d="m 38.7563,11.3981 q 0.4063,0.6875 1.625,0.6875 0.5313,0 1.0079,-0.1797 0.4765,-0.1797 0.789,-0.5313 0.3125,-0.3515 0.3125,-0.8672 0,-0.3906 -0.2812,-0.6406 -0.2813,-0.25 -0.6875,-0.3437 L 40.7095,9.3668 Q 40.1626,9.2262 39.8032,8.8434 39.4438,8.4606 39.4438,7.9293 q 0,-0.6719 0.3594,-1.1875 0.3594,-0.5156 0.9531,-0.7812 0.5938,-0.2657 1.2344,-0.2657 0.6719,0 1.211,0.3204 0.539,0.3203 0.539,0.9609 0,0.3437 -0.1953,0.6094 -0.1953,0.2656 -0.5391,0.2656 -0.1875,0 -0.3359,-0.125 -0.1484,-0.125 -0.1484,-0.3281 0,-0.1719 0.1015,-0.336 0.1016,-0.164 0.2657,-0.2656 0.164,-0.1016 0.3359,-0.1016 -0.125,-0.3281 -0.4844,-0.4687 -0.3594,-0.1406 -0.7812,-0.1406 -0.3907,0 -0.7657,0.1484 -0.375,0.1484 -0.6093,0.4453 -0.2344,0.2969 -0.2344,0.7031 0,0.2657 0.1953,0.4766 0.1953,0.2109 0.4609,0.2891 l 0.875,0.1875 q 0.4219,0.0781 0.7657,0.3047 0.3437,0.2265 0.5468,0.5625 0.2032,0.3359 0.2032,0.7734 0,0.5625 -0.3125,1.1016 -0.3125,0.539 -0.7657,0.8671 -0.7968,0.5469 -1.9531,0.5469 -0.7969,0 -1.4609,-0.3672 -0.6641,-0.3672 -0.6641,-1.1015 0,-0.4063 0.2344,-0.711 0.2344,-0.3047 0.6406,-0.3047 0.25,0 0.4141,0.1485 0.164,0.1484 0.164,0.3984 0,0.3438 -0.2578,0.5938 -0.2578,0.25 -0.6015,0.25 l -0.0782,0 z"
       style="stroke:none" />
    <path
       inkscape:connector-curvature="0"
       id="path49"
       d="m 47.3501,12.4918 q -0.7188,0 -1.2578,-0.375 -0.5391,-0.375 -0.8203,-1.0078 -0.2813,-0.6328 -0.2813,-1.3359 0,-1.0782 0.5391,-2.0157 0.539,-0.9375 1.4609,-1.5 0.9219,-0.5625 1.9844,-0.5625 0.6406,0 1.1172,0.3282 0.4765,0.3281 0.4765,0.9531 0,0.875 -0.6875,1.2891 -0.6875,0.414 -1.5468,0.5156 -0.8594,0.1015 -1.9063,0.1015 l -0.0469,0 q -0.25,0.8907 -0.25,1.5313 0,0.6719 0.3125,1.1719 0.3125,0.5 0.9375,0.5 0.8907,0 1.7188,-0.4063 0.8281,-0.4062 1.3437,-1.125 0.0469,-0.0469 0.1094,-0.0469 0.0781,0 0.1563,0.086 0.0781,0.0859 0.0781,0.1484 0,0.0625 -0.0313,0.0938 -0.5468,0.7656 -1.4765,1.2109 -0.9297,0.4453 -1.9297,0.4453 z m -0.8906,-4 q 0.875,0 1.6172,-0.0781 0.7421,-0.0781 1.3437,-0.4063 0.6016,-0.3281 0.6016,-1.0156 0,-0.2812 -0.1563,-0.4844 -0.1562,-0.2031 -0.3984,-0.3125 -0.2422,-0.1093 -0.5078,-0.1093 -0.6407,0 -1.1485,0.3437 -0.5078,0.3438 -0.8359,0.8906 -0.3281,0.5469 -0.5156,1.1719 z"
       style="stroke:none" />
    <path
       inkscape:connector-curvature="0"
       id="path51"
       d="m 52.9293,10.5387 q 0,0.6406 0.3281,1.0937 0.3281,0.4532 0.9531,0.4532 0.8907,0 1.7188,-0.4063 0.8281,-0.4062 1.3437,-1.125 0.0469,-0.0469 0.1094,-0.0469 0.0781,0 0.1563,0.086 0.0781,0.0859 0.0781,0.1484 0,0.0625 -0.0313,0.0938 -0.5468,0.7656 -1.4765,1.2109 -0.9297,0.4453 -1.9297,0.4453 -0.7188,0 -1.2656,-0.3437 -0.5469,-0.3438 -0.8516,-0.9141 -0.3047,-0.5703 -0.3047,-1.2891 0,-1.0156 0.5703,-2.0078 0.5703,-0.9922 1.5078,-1.6172 0.9375,-0.625 1.9688,-0.625 0.6719,0 1.2109,0.3204 0.5391,0.3203 0.5391,0.9609 0,0.4219 -0.2422,0.7109 -0.2422,0.2891 -0.6328,0.2891 -0.25,0 -0.4141,-0.1563 -0.164,-0.1562 -0.164,-0.3906 0,-0.3594 0.2578,-0.6094 0.2578,-0.25 0.6015,-0.25 l 0.0313,0 Q 56.8043,6.3199 56.4762,6.2028 56.148,6.0856 55.7887,6.0856 q -0.875,0 -1.5391,0.75 -0.6641,0.75 -0.9922,1.789 -0.3281,1.0391 -0.3281,1.9141 z"
       style="stroke:none" />
    <path
       inkscape:connector-curvature="0"
       id="path53"
       d="m 57.8389,16.0699 0,-0.5937 1.4531,0 0,-13.8125 -1.4531,0 0,-0.5938 2.0625,0 0,15 -2.0625,0 z"
       style="stroke:none" />
  </g>
  <line
     y2="217.1562"
     style="color-interpolation:linearRGB;fill:none;stroke:#262626;stroke-width:0.8016032;color-rendering:optimizeQuality;image-rendering:optimizeQuality;text-rendering:geometricPrecision"
     x1="45.72998"
     x2="401.06995"
     y1="217.1562"
     id="line57" />
  <line
     y2="211.62621"
     style="color-interpolation:linearRGB;fill:none;stroke:#262626;color-rendering:optimizeQuality;image-rendering:optimizeQuality;text-rendering:geometricPrecision"
     x1="45.9114"
     x2="45.9114"
     y1="217.1562"
     id="line61" />
  <line
     y2="211.62621"
     style="color-interpolation:linearRGB;fill:none;stroke:#262626;stroke-width:0.80890715;color-rendering:optimizeQuality;image-rendering:optimizeQuality;text-rendering:geometricPrecision"
     x1="91.122902"
     x2="91.122902"
     y1="217.1562"
     id="line63" />
  <line
     y2="211.62621"
     style="color-interpolation:linearRGB;fill:none;stroke:#262626;stroke-width:0.80890715;color-rendering:optimizeQuality;image-rendering:optimizeQuality;text-rendering:geometricPrecision"
     x1="136.35352"
     x2="136.35352"
     y1="217.1562"
     id="line65" />
  <line
     y2="211.62621"
     style="color-interpolation:linearRGB;fill:none;stroke:#262626;stroke-width:0.80890715;color-rendering:optimizeQuality;image-rendering:optimizeQuality;text-rendering:geometricPrecision"
     x1="181.58412"
     x2="181.58412"
     y1="217.1562"
     id="line67" />
  <line
     y2="211.62621"
     style="color-interpolation:linearRGB;fill:none;stroke:#262626;stroke-width:0.80890715;color-rendering:optimizeQuality;image-rendering:optimizeQuality;text-rendering:geometricPrecision"
     x1="226.81473"
     x2="226.81473"
     y1="217.1562"
     id="line69" />
  <line
     y2="211.62621"
     style="color-interpolation:linearRGB;fill:none;stroke:#262626;stroke-width:0.80890715;color-rendering:optimizeQuality;image-rendering:optimizeQuality;text-rendering:geometricPrecision"
     x1="272.04535"
     x2="272.04535"
     y1="217.1562"
     id="line71" />
  <line
     y2="211.62621"
     style="color-interpolation:linearRGB;fill:none;stroke:#262626;stroke-width:0.80890715;color-rendering:optimizeQuality;image-rendering:optimizeQuality;text-rendering:geometricPrecision"
     x1="317.27597"
     x2="317.27597"
     y1="217.1562"
     id="line73" />
  <line
     y2="211.62621"
     style="color-interpolation:linearRGB;fill:none;stroke:#262626;stroke-width:0.80890715;color-rendering:optimizeQuality;image-rendering:optimizeQuality;text-rendering:geometricPrecision"
     x1="362.50659"
     x2="362.50659"
     y1="217.1562"
     id="line75" />
  <line
     y2="10.686201"
     style="color-interpolation:linearRGB;fill:none;stroke:#262626;color-rendering:optimizeQuality;image-rendering:optimizeQuality;text-rendering:geometricPrecision"
     x1="45.9114"
     x2="45.9114"
     y1="5.1561999"
     id="line79" />
  <g
     id="g97"
     style="font-size:13px;font-family:SansSerif;color-interpolation:linearRGB;fill:#262626;stroke:#262626;color-rendering:optimizeQuality;image-rendering:optimizeQuality;text-rendering:geometricPrecision"
     transform="translate(45.9114,222.4895)">
    <path
       inkscape:connector-curvature="0"
       id="path99"
       d="m -0.375,4.3594 q -0.9844,0 -1.4844,0.9765 -0.5,0.9766 -0.5,2.9297 0,1.9532 0.5,2.9297 0.5,0.9766 1.4844,0.9766 1,0 1.5,-0.9766 0.5,-0.9765 0.5,-2.9297 0,-1.9531 -0.5,-2.9297 -0.5,-0.9765 -1.5,-0.9765 z m 0,-1.0156 q 1.5938,0 2.4375,1.2656 0.8437,1.2656 0.8437,3.6562 0,2.3906 -0.8437,3.6563 -0.8437,1.2656 -2.4375,1.2656 -1.5781,0 -2.4219,-1.2656 -0.8437,-1.2657 -0.8437,-3.6563 0,-2.3906 0.8437,-3.6562 0.8438,-1.2656 2.4219,-1.2656 z"
       style="stroke:none" />
  </g>
  <g
     id="g101"
     style="font-size:13px;font-family:SansSerif;color-interpolation:linearRGB;fill:#262626;stroke:#262626;color-rendering:optimizeQuality;image-rendering:optimizeQuality;text-rendering:geometricPrecision"
     transform="translate(88.8564,222.4895)">
    <path
       inkscape:connector-curvature="0"
       id="path103"
       d="m -3.2188,7.8906 q 0.9219,0.2032 1.4376,0.8203 0.5156,0.6172 0.5156,1.5391 0,1.3906 -0.9688,2.1641 -0.9687,0.7734 -2.75,0.7734 -0.5937,0 -1.2265,-0.1172 -0.6329,-0.1172 -1.3047,-0.3515 l 0,-1.25 q 0.5468,0.3124 1.1797,0.4765 0.6328,0.1641 1.3203,0.1641 1.2031,0 1.8359,-0.4766 0.6328,-0.4766 0.6328,-1.3828 0,-0.8438 -0.5859,-1.3125 -0.586,-0.4687 -1.6328,-0.4687 l -1.1094,0 0,-1.0626 1.1562,0 q 0.9532,0 1.4532,-0.375 0.5,-0.375 0.5,-1.0937 0,-0.7187 -0.5156,-1.1094 -0.5157,-0.3906 -1.4844,-0.3906 -0.5313,0 -1.1328,0.1094 Q -6.5,4.6562 -7.2188,4.9062 l 0,-1.1562 Q -6.5,3.5469 -5.8594,3.4453 q 0.6406,-0.1015 1.2032,-0.1015 1.4687,0 2.3203,0.664 0.8515,0.6641 0.8515,1.8047 0,0.7813 -0.4531,1.3281 -0.4531,0.5469 -1.2813,0.75 z M 3.896,4.3594 q -0.9844,0 -1.4844,0.9765 -0.5,0.9766 -0.5,2.9297 0,1.9532 0.5,2.9297 0.5,0.9766 1.4844,0.9766 1,0 1.5,-0.9766 0.5,-0.9765 0.5,-2.9297 0,-1.9531 -0.5,-2.9297 -0.5,-0.9765 -1.5,-0.9765 z m 0,-1.0156 q 1.5937,0 2.4375,1.2656 0.8437,1.2656 0.8437,3.6562 0,2.3906 -0.8437,3.6563 -0.8438,1.2656 -2.4375,1.2656 -1.5781,0 -2.4219,-1.2656 Q 0.6304,10.6562 0.6304,8.2656 0.6304,5.875 1.4741,4.6094 2.3179,3.3438 3.896,3.3438 Z"
       style="stroke:none" />
  </g>
  <g
     id="g105"
     style="font-size:13px;font-family:SansSerif;color-interpolation:linearRGB;fill:#262626;stroke:#262626;color-rendering:optimizeQuality;image-rendering:optimizeQuality;text-rendering:geometricPrecision"
     transform="translate(136.5614,222.4895)">
    <path
       inkscape:connector-curvature="0"
       id="path107"
       d="m -4.2031,7.75 q -0.875,0 -1.375,0.5938 -0.5,0.5937 -0.5,1.6093 0,1.0313 0.5,1.625 0.5,0.5938 1.375,0.5938 0.8593,0 1.3593,-0.5938 0.5,-0.5937 0.5,-1.625 0,-1.0156 -0.5,-1.6093 Q -3.3438,7.75 -4.2031,7.75 Z m 2.5469,-4.0156 0,1.1718 Q -2.1406,4.6719 -2.6328,4.5547 -3.125,4.4375 -3.6094,4.4375 q -1.2656,0 -1.9375,0.8516 -0.6719,0.8515 -0.7656,2.5859 0.375,-0.5469 0.9375,-0.8438 0.5625,-0.2968 1.25,-0.2968 1.4219,0 2.25,0.8672 0.8281,0.8672 0.8281,2.3515 0,1.4688 -0.8672,2.3516 -0.8671,0.8828 -2.289,0.8828 -1.6563,0 -2.5235,-1.2656 -0.8672,-1.2657 -0.8672,-3.6563 0,-2.2344 1.0704,-3.5781 1.0703,-1.3437 2.8672,-1.3437 0.4687,0 0.9609,0.1015 0.4922,0.1016 1.0391,0.2891 z m 5.5522,0.625 q -0.9844,0 -1.4844,0.9765 -0.5,0.9766 -0.5,2.9297 0,1.9532 0.5,2.9297 0.5,0.9766 1.4844,0.9766 1,0 1.5,-0.9766 0.5,-0.9765 0.5,-2.9297 0,-1.9531 -0.5,-2.9297 -0.5,-0.9765 -1.5,-0.9765 z m 0,-1.0156 q 1.5937,0 2.4375,1.2656 0.8437,1.2656 0.8437,3.6562 0,2.3906 -0.8437,3.6563 -0.8438,1.2656 -2.4375,1.2656 -1.5781,0 -2.4219,-1.2656 Q 0.6304,10.6562 0.6304,8.2656 0.6304,5.875 1.4741,4.6094 2.3179,3.3438 3.896,3.3438 Z"
       style="stroke:none" />
  </g>
  <g
     id="g109"
     style="font-size:13px;font-family:SansSerif;color-interpolation:linearRGB;fill:#262626;stroke:#262626;color-rendering:optimizeQuality;image-rendering:optimizeQuality;text-rendering:geometricPrecision"
     transform="translate(181.09307,222.4895)">
    <path
       inkscape:connector-curvature="0"
       id="path111"
       d="m -7.0781,12.7969 0,-1.1563 q 0.4843,0.2188 0.9843,0.3438 0.5,0.125 0.9688,0.125 1.2656,0 1.9375,-0.8594 0.6719,-0.8594 0.7656,-2.5938 -0.3593,0.5469 -0.9297,0.836 -0.5703,0.289 -1.2578,0.289 -1.4218,0 -2.25,-0.8593 -0.8281,-0.8594 -0.8281,-2.3438 0,-1.4687 0.8672,-2.3515 0.8672,-0.8828 2.3047,-0.8828 1.6406,0 2.5078,1.2656 0.8672,1.2656 0.8672,3.6562 0,2.25 -1.0625,3.586 -1.0625,1.3359 -2.8594,1.3359 -0.4844,0 -0.9766,-0.0937 Q -6.5312,13 -7.0781,12.7969 Z m 2.5625,-4.0157 q 0.8594,0 1.3672,-0.5859 0.5078,-0.5859 0.5078,-1.6172 0,-1.0312 -0.5078,-1.625 -0.5078,-0.5937 -1.3672,-0.5937 -0.875,0 -1.375,0.5937 -0.5,0.5938 -0.5,1.625 0,1.0313 0.5,1.6172 0.5,0.5859 1.375,0.5859 z M 3.896,4.3594 q -0.9844,0 -1.4844,0.9765 -0.5,0.9766 -0.5,2.9297 0,1.9532 0.5,2.9297 0.5,0.9766 1.4844,0.9766 1,0 1.5,-0.9766 0.5,-0.9765 0.5,-2.9297 0,-1.9531 -0.5,-2.9297 -0.5,-0.9765 -1.5,-0.9765 z m 0,-1.0156 q 1.5937,0 2.4375,1.2656 0.8437,1.2656 0.8437,3.6562 0,2.3906 -0.8437,3.6563 -0.8438,1.2656 -2.4375,1.2656 -1.5781,0 -2.4219,-1.2656 Q 0.6304,10.6562 0.6304,8.2656 0.6304,5.875 1.4741,4.6094 2.3179,3.3438 3.896,3.3438 Z"
       style="stroke:none" />
  </g>
  <g
     id="g113"
     style="font-size:13px;font-family:SansSerif;color-interpolation:linearRGB;fill:#262626;stroke:#262626;color-rendering:optimizeQuality;image-rendering:optimizeQuality;text-rendering:geometricPrecision"
     transform="translate(228.00473,222.4895)">
    <path
       inkscape:connector-curvature="0"
       id="path115"
       d="m -10.8906,11.9219 2.0937,0 0,-7.2344 -2.2812,0.4531 0,-1.1562 2.2656,-0.4688 1.2969,0 0,8.4063 2.0937,0 0,1.0781 -5.4687,0 0,-1.0781 z m 9.1616,0 4.4687,0 0,1.0781 -6.0156,0 0,-1.0781 q 0.7344,-0.75 1.9922,-2.0235 Q -0.0259,8.625 0.3022,8.25 0.9116,7.5625 1.1538,7.0781 1.396,6.5938 1.396,6.1406 1.396,5.375 0.8726,4.9062 0.3491,4.4375 -0.5103,4.4375 q -0.6093,0 -1.2734,0.2031 -0.6641,0.2032 -1.4297,0.6406 l 0,-1.2968 q 0.7813,-0.3125 1.4531,-0.4766 0.6719,-0.164 1.2188,-0.164 1.4844,0 2.3594,0.7421 0.875,0.7422 0.875,1.9766 0,0.5781 -0.2188,1.1016 Q 2.2554,7.6875 1.6772,8.3906 1.521,8.5781 0.6694,9.4609 -0.1821,10.3438 -1.729,11.9219 Z M 8.167,4.3594 q -0.9844,0 -1.4844,0.9765 -0.5,0.9766 -0.5,2.9297 0,1.9532 0.5,2.9297 0.5,0.9766 1.4844,0.9766 1,0 1.5,-0.9766 0.5,-0.9765 0.5,-2.9297 0,-1.9531 -0.5,-2.9297 -0.5,-0.9765 -1.5,-0.9765 z m 0,-1.0156 q 1.5937,0 2.4375,1.2656 0.8437,1.2656 0.8437,3.6562 0,2.3906 -0.8437,3.6563 -0.8438,1.2656 -2.4375,1.2656 -1.5781,0 -2.4219,-1.2656 Q 4.9014,10.6562 4.9014,8.2656 4.9014,5.875 5.7451,4.6094 6.5889,3.3438 8.167,3.3438 Z"
       style="stroke:none" />
  </g>
  <g
     id="g117"
     style="font-size:13px;font-family:SansSerif;color-interpolation:linearRGB;fill:#262626;stroke:#262626;color-rendering:optimizeQuality;image-rendering:optimizeQuality;text-rendering:geometricPrecision"
     transform="translate(270.94973,222.4895)">
    <path
       inkscape:connector-curvature="0"
       id="path119"
       d="m -10.8906,11.9219 2.0937,0 0,-7.2344 -2.2812,0.4531 0,-1.1562 2.2656,-0.4688 1.2969,0 0,8.4063 2.0937,0 0,1.0781 -5.4687,0 0,-1.0781 z m 8.0678,-8.4063 5.0313,0 0,1.0938 -3.8594,0 0,2.3125 q 0.2813,-0.0938 0.5625,-0.1407 0.2813,-0.0468 0.5469,-0.0468 1.5937,0 2.5234,0.8672 0.9297,0.8672 0.9297,2.3515 0,1.5313 -0.9531,2.3828 -0.9531,0.8516 -2.6875,0.8516 -0.5938,0 -1.2188,-0.1016 -0.625,-0.1015 -1.2812,-0.3047 l 0,-1.2968 q 0.5781,0.3125 1.1875,0.4687 0.6094,0.1563 1.2812,0.1563 1.1094,0 1.75,-0.5782 0.6407,-0.5781 0.6407,-1.5781 0,-0.9843 -0.6407,-1.5625 -0.6406,-0.5781 -1.75,-0.5781 -0.5156,0 -1.0234,0.1172 -0.5078,0.1172 -1.0391,0.3515 l 0,-4.7656 z M 8.167,4.3594 q -0.9844,0 -1.4844,0.9765 -0.5,0.9766 -0.5,2.9297 0,1.9532 0.5,2.9297 0.5,0.9766 1.4844,0.9766 1,0 1.5,-0.9766 0.5,-0.9765 0.5,-2.9297 0,-1.9531 -0.5,-2.9297 -0.5,-0.9765 -1.5,-0.9765 z m 0,-1.0156 q 1.5937,0 2.4375,1.2656 0.8437,1.2656 0.8437,3.6562 0,2.3906 -0.8437,3.6563 -0.8438,1.2656 -2.4375,1.2656 -1.5781,0 -2.4219,-1.2656 Q 4.9014,10.6562 4.9014,8.2656 4.9014,5.875 5.7451,4.6094 6.5889,3.3438 8.167,3.3438 Z"
       style="stroke:none" />
  </g>
  <g
     id="g121"
     style="font-size:13px;font-family:SansSerif;color-interpolation:linearRGB;fill:#262626;stroke:#262626;color-rendering:optimizeQuality;image-rendering:optimizeQuality;text-rendering:geometricPrecision"
     transform="translate(315.4814,222.4895)">
    <path
       inkscape:connector-curvature="0"
       id="path123"
       d="m -10.8906,11.9219 2.0937,0 0,-7.2344 -2.2812,0.4531 0,-1.1562 2.2656,-0.4688 1.2969,0 0,8.4063 2.0937,0 0,1.0781 -5.4687,0 0,-1.0781 z M -0.104,8.5 q -0.9063,0 -1.4297,0.4922 -0.5234,0.4922 -0.5234,1.3359 0,0.8594 0.5234,1.3516 0.5234,0.4922 1.4297,0.4922 0.9219,0 1.4453,-0.4922 0.5234,-0.4922 0.5234,-1.3516 0,-0.8437 -0.5234,-1.3359 Q 0.8179,8.5 -0.104,8.5 Z M -1.3853,7.9531 Q -2.1978,7.75 -2.6587,7.1875 -3.1196,6.625 -3.1196,5.8125 q 0,-1.1406 0.8047,-1.8047 0.8046,-0.664 2.2109,-0.664 1.4219,0 2.2266,0.664 0.8046,0.6641 0.8046,1.8047 0,0.8125 -0.4609,1.375 -0.4609,0.5625 -1.2734,0.7656 0.9218,0.2188 1.4375,0.8438 0.5156,0.625 0.5156,1.5312 0,1.3907 -0.8359,2.125 -0.836,0.7344 -2.4141,0.7344 -1.5625,0 -2.4063,-0.7344 -0.8437,-0.7343 -0.8437,-2.125 0,-0.9062 0.5234,-1.5312 0.5235,-0.625 1.4453,-0.8438 z M -1.854,5.9219 q 0,0.75 0.4609,1.1562 0.461,0.4063 1.2891,0.4063 0.8281,0 1.2969,-0.4063 0.4687,-0.4062 0.4687,-1.1562 0,-0.7344 -0.4687,-1.1485 -0.4688,-0.414 -1.2969,-0.414 -0.8281,0 -1.2891,0.414 Q -1.854,5.1875 -1.854,5.9219 Z M 8.167,4.3594 q -0.9844,0 -1.4844,0.9765 -0.5,0.9766 -0.5,2.9297 0,1.9532 0.5,2.9297 0.5,0.9766 1.4844,0.9766 1,0 1.5,-0.9766 0.5,-0.9765 0.5,-2.9297 0,-1.9531 -0.5,-2.9297 -0.5,-0.9765 -1.5,-0.9765 z m 0,-1.0156 q 1.5937,0 2.4375,1.2656 0.8437,1.2656 0.8437,3.6562 0,2.3906 -0.8437,3.6563 -0.8438,1.2656 -2.4375,1.2656 -1.5781,0 -2.4219,-1.2656 Q 4.9014,10.6562 4.9014,8.2656 4.9014,5.875 5.7451,4.6094 6.5889,3.3438 8.167,3.3438 Z"
       style="stroke:none" />
  </g>
  <g
     id="g125"
     style="font-size:13px;font-family:SansSerif;color-interpolation:linearRGB;fill:#262626;stroke:#262626;color-rendering:optimizeQuality;image-rendering:optimizeQuality;text-rendering:geometricPrecision"
     transform="translate(362.39307,222.4895)">
    <path
       inkscape:connector-curvature="0"
       id="path127"
       d="m -10,11.9219 4.4688,0 0,1.0781 -6.0157,0 0,-1.0781 q 0.7344,-0.75 1.9922,-2.0235 Q -8.2969,8.625 -7.9688,8.25 -7.3594,7.5625 -7.1172,7.0781 -6.875,6.5938 -6.875,6.1406 q 0,-0.7656 -0.5234,-1.2344 -0.5235,-0.4687 -1.3828,-0.4687 -0.6094,0 -1.2735,0.2031 -0.6641,0.2032 -1.4297,0.6406 l 0,-1.2968 q 0.7813,-0.3125 1.4532,-0.4766 0.6718,-0.164 1.2187,-0.164 1.4844,0 2.3594,0.7421 0.875,0.7422 0.875,1.9766 0,0.5781 -0.2188,1.1016 Q -6.0156,7.6875 -6.5938,8.3906 -6.75,8.5781 -7.6016,9.4609 -8.4531,10.3438 -10,11.9219 Z m 7.3804,0 2.0937,0 0,-7.2344 -2.2812,0.4531 0,-1.1562 2.2656,-0.4688 1.2969,0 0,8.4063 2.0937,0 0,1.0781 -5.4687,0 0,-1.0781 z M 8.167,4.3594 q -0.9844,0 -1.4844,0.9765 -0.5,0.9766 -0.5,2.9297 0,1.9532 0.5,2.9297 0.5,0.9766 1.4844,0.9766 1,0 1.5,-0.9766 0.5,-0.9765 0.5,-2.9297 0,-1.9531 -0.5,-2.9297 -0.5,-0.9765 -1.5,-0.9765 z m 0,-1.0156 q 1.5937,0 2.4375,1.2656 0.8437,1.2656 0.8437,3.6562 0,2.3906 -0.8437,3.6563 -0.8438,1.2656 -2.4375,1.2656 -1.5781,0 -2.4219,-1.2656 Q 4.9014,10.6562 4.9014,8.2656 4.9014,5.875 5.7451,4.6094 6.5889,3.3438 8.167,3.3438 Z"
       style="stroke:none" />
  </g>
  <g
     id="g129"
     style="font-size:13px;font-family:SansSerif;color-interpolation:linearRGB;fill:#262626;stroke:#262626;color-rendering:optimizeQuality;image-rendering:optimizeQuality;text-rendering:geometricPrecision"
     transform="translate(405.09579,222.4895)">
    <path
       inkscape:connector-curvature="0"
       id="path131"
       d="m -10,11.9219 4.4688,0 0,1.0781 -6.0157,0 0,-1.0781 q 0.7344,-0.75 1.9922,-2.0235 Q -8.2969,8.625 -7.9688,8.25 -7.3594,7.5625 -7.1172,7.0781 -6.875,6.5938 -6.875,6.1406 q 0,-0.7656 -0.5234,-1.2344 -0.5235,-0.4687 -1.3828,-0.4687 -0.6094,0 -1.2735,0.2031 -0.6641,0.2032 -1.4297,0.6406 l 0,-1.2968 q 0.7813,-0.3125 1.4532,-0.4766 0.6718,-0.164 1.2187,-0.164 1.4844,0 2.3594,0.7421 0.875,0.7422 0.875,1.9766 0,0.5781 -0.2188,1.1016 Q -6.0156,7.6875 -6.5938,8.3906 -6.75,8.5781 -7.6016,9.4609 -8.4531,10.3438 -10,11.9219 Z m 10.6772,-7.2813 -3.2343,5.0625 3.2343,0 0,-5.0625 z m -0.3281,-1.125 1.6094,0 0,6.1875 1.3594,0 0,1.0625 -1.3594,0 0,2.2344 -1.2813,0 0,-2.2344 -4.2656,0 0,-1.2344 3.9375,-6.0156 z M 8.167,4.3594 q -0.9844,0 -1.4844,0.9765 -0.5,0.9766 -0.5,2.9297 0,1.9532 0.5,2.9297 0.5,0.9766 1.4844,0.9766 1,0 1.5,-0.9766 0.5,-0.9765 0.5,-2.9297 0,-1.9531 -0.5,-2.9297 -0.5,-0.9765 -1.5,-0.9765 z m 0,-1.0156 q 1.5937,0 2.4375,1.2656 0.8437,1.2656 0.8437,3.6562 0,2.3906 -0.8437,3.6563 -0.8438,1.2656 -2.4375,1.2656 -1.5781,0 -2.4219,-1.2656 Q 4.9014,10.6562 4.9014,8.2656 4.9014,5.875 5.7451,4.6094 6.5889,3.3438 8.167,3.3438 Z"
       style="stroke:none" />
  </g>
  <line
     y2="5.1561999"
     style="color-interpolation:linearRGB;fill:none;stroke:#262626;color-rendering:optimizeQuality;image-rendering:optimizeQuality;text-rendering:geometricPrecision"
     x1="45.9114"
     x2="45.9114"
     y1="217.1562"
     id="line135" />
  <line
     y2="217.1562"
     style="color-interpolation:linearRGB;fill:none;stroke:#262626;color-rendering:optimizeQuality;image-rendering:optimizeQuality;text-rendering:geometricPrecision"
     x1="45.9114"
     x2="51.441399"
     y1="217.1562"
     id="line139" />
  <line
     y2="181.82291"
     style="color-interpolation:linearRGB;fill:none;stroke:#262626;color-rendering:optimizeQuality;image-rendering:optimizeQuality;text-rendering:geometricPrecision"
     x1="45.9114"
     x2="51.441399"
     y1="181.82291"
     id="line141" />
  <line
     y2="146.4895"
     style="color-interpolation:linearRGB;fill:none;stroke:#262626;color-rendering:optimizeQuality;image-rendering:optimizeQuality;text-rendering:geometricPrecision"
     x1="45.9114"
     x2="51.441399"
     y1="146.4895"
     id="line143" />
  <line
     y2="111.1562"
     style="color-interpolation:linearRGB;fill:none;stroke:#262626;color-rendering:optimizeQuality;image-rendering:optimizeQuality;text-rendering:geometricPrecision"
     x1="45.9114"
     x2="51.441399"
     y1="111.1562"
     id="line145" />
  <line
     y2="75.822899"
     style="color-interpolation:linearRGB;fill:none;stroke:#262626;color-rendering:optimizeQuality;image-rendering:optimizeQuality;text-rendering:geometricPrecision"
     x1="45.9114"
     x2="51.441399"
     y1="75.822899"
     id="line147" />
  <line
     y2="40.489502"
     style="color-interpolation:linearRGB;fill:none;stroke:#262626;color-rendering:optimizeQuality;image-rendering:optimizeQuality;text-rendering:geometricPrecision"
     x1="45.9114"
     x2="51.441399"
     y1="40.489502"
     id="line149" />
  <line
     y2="5.1561999"
     style="color-interpolation:linearRGB;fill:none;stroke:#262626;color-rendering:optimizeQuality;image-rendering:optimizeQuality;text-rendering:geometricPrecision"
     x1="45.9114"
     x2="51.441399"
     y1="5.1561999"
     id="line151" />
  <g
     id="g167"
     style="font-size:13px;font-family:SansSerif;color-interpolation:linearRGB;fill:#262626;stroke:#262626;color-rendering:optimizeQuality;image-rendering:optimizeQuality;text-rendering:geometricPrecision"
     transform="translate(40.5781,217.1562)">
    <path
       inkscape:connector-curvature="0"
       id="path169"
       d="m -4.875,-4.1406 q -0.9844,0 -1.4844,0.9765 -0.5,0.9766 -0.5,2.9297 0,1.9532 0.5,2.9297 0.5,0.9766 1.4844,0.9766 1,0 1.5,-0.9766 0.5,-0.9765 0.5,-2.9297 0,-1.9531 -0.5,-2.9297 -0.5,-0.9765 -1.5,-0.9765 z m 0,-1.0156 q 1.5938,0 2.4375,1.2656 0.8437,1.2656 0.8437,3.6562 0,2.3906 -0.8437,3.6563 -0.8437,1.2656 -2.4375,1.2656 -1.5781,0 -2.4219,-1.2656 -0.8437,-1.2657 -0.8437,-3.6563 0,-2.3906 0.8437,-3.6562 0.8438,-1.2656 2.4219,-1.2656 z"
       style="stroke:none" />
  </g>
  <g
     id="g171"
     style="font-size:13px;font-family:SansSerif;color-interpolation:linearRGB;fill:#262626;stroke:#262626;color-rendering:optimizeQuality;image-rendering:optimizeQuality;text-rendering:geometricPrecision"
     transform="translate(40.5781,181.8229)">
    <path
       inkscape:connector-curvature="0"
       id="path173"
       d="m -31.5,3.4219 4.4688,0 0,1.0781 -6.0157,0 0,-1.0781 q 0.7344,-0.75 1.9922,-2.0235 1.2578,-1.2734 1.5859,-1.6484 0.6094,-0.6875 0.8516,-1.1719 0.2422,-0.4843 0.2422,-0.9375 0,-0.7656 -0.5234,-1.2344 -0.5235,-0.4687 -1.3828,-0.4687 -0.6094,0 -1.2735,0.2031 -0.6641,0.2032 -1.4297,0.6406 l 0,-1.2968 q 0.7813,-0.3125 1.4532,-0.4766 0.6718,-0.164 1.2187,-0.164 1.4844,0 2.3594,0.7421 0.875,0.7422 0.875,1.9766 0,0.5781 -0.2188,1.1016 -0.2187,0.5234 -0.7969,1.2265 -0.1562,0.1875 -1.0078,1.0703 -0.8515,0.8829 -2.3984,2.461 z m 9.896,-7.5625 q -0.9844,0 -1.4844,0.9765 -0.5,0.9766 -0.5,2.9297 0,1.9532 0.5,2.9297 0.5,0.9766 1.4844,0.9766 1,0 1.5,-0.9766 0.5,-0.9765 0.5,-2.9297 0,-1.9531 -0.5,-2.9297 -0.5,-0.9765 -1.5,-0.9765 z m 0,-1.0156 q 1.5937,0 2.4375,1.2656 0.8437,1.2656 0.8437,3.6562 0,2.3906 -0.8437,3.6563 -0.8438,1.2656 -2.4375,1.2656 -1.5781,0 -2.4219,-1.2656 -0.8437,-1.2657 -0.8437,-3.6563 0,-2.3906 0.8437,-3.6562 0.8438,-1.2656 2.4219,-1.2656 z m 8.271,1.0156 q -0.9844,0 -1.4844,0.9765 -0.5,0.9766 -0.5,2.9297 0,1.9532 0.5,2.9297 0.5,0.9766 1.4844,0.9766 1,0 1.5,-0.9766 0.5,-0.9765 0.5,-2.9297 0,-1.9531 -0.5,-2.9297 -0.5,-0.9765 -1.5,-0.9765 z m 0,-1.0156 q 1.5937,0 2.4375,1.2656 0.8437,1.2656 0.8437,3.6562 0,2.3906 -0.8437,3.6563 -0.8438,1.2656 -2.4375,1.2656 -1.5781,0 -2.4219,-1.2656 -0.8437,-1.2657 -0.8437,-3.6563 0,-2.3906 0.8437,-3.6562 0.8438,-1.2656 2.4219,-1.2656 z m 8.271,1.0156 q -0.9844,0 -1.4844,0.9765 -0.5,0.9766 -0.5,2.9297 0,1.9532 0.5,2.9297 0.5,0.9766 1.4844,0.9766 1,0 1.5,-0.9766 0.5,-0.9765 0.5,-2.9297 0,-1.9531 -0.5,-2.9297 -0.5,-0.9765 -1.5,-0.9765 z m 0,-1.0156 q 1.5937,0 2.4375,1.2656 0.8437,1.2656 0.8437,3.6562 0,2.3906 -0.8437,3.6563 -0.8438,1.2656 -2.4375,1.2656 -1.5781,0 -2.4219,-1.2656 -0.8437,-1.2657 -0.8437,-3.6563 0,-2.3906 0.8437,-3.6562 0.8438,-1.2656 2.4219,-1.2656 z"
       style="stroke:none" />
  </g>
  <g
     id="g175"
     style="font-size:13px;font-family:SansSerif;color-interpolation:linearRGB;fill:#262626;stroke:#262626;color-rendering:optimizeQuality;image-rendering:optimizeQuality;text-rendering:geometricPrecision"
     transform="translate(40.5781,146.4895)">
    <path
       inkscape:connector-curvature="0"
       id="path177"
       d="m -29.0938,-3.8594 -3.2343,5.0625 3.2343,0 0,-5.0625 z m -0.3281,-1.125 1.6094,0 0,6.1875 1.3594,0 0,1.0625 -1.3594,0 0,2.2344 -1.2813,0 0,-2.2344 -4.2656,0 0,-1.2344 3.9375,-6.0156 z m 7.8179,0.8438 q -0.9844,0 -1.4844,0.9765 -0.5,0.9766 -0.5,2.9297 0,1.9532 0.5,2.9297 0.5,0.9766 1.4844,0.9766 1,0 1.5,-0.9766 0.5,-0.9765 0.5,-2.9297 0,-1.9531 -0.5,-2.9297 -0.5,-0.9765 -1.5,-0.9765 z m 0,-1.0156 q 1.5937,0 2.4375,1.2656 0.8437,1.2656 0.8437,3.6562 0,2.3906 -0.8437,3.6563 -0.8438,1.2656 -2.4375,1.2656 -1.5781,0 -2.4219,-1.2656 -0.8437,-1.2657 -0.8437,-3.6563 0,-2.3906 0.8437,-3.6562 0.8438,-1.2656 2.4219,-1.2656 z m 8.271,1.0156 q -0.9844,0 -1.4844,0.9765 -0.5,0.9766 -0.5,2.9297 0,1.9532 0.5,2.9297 0.5,0.9766 1.4844,0.9766 1,0 1.5,-0.9766 0.5,-0.9765 0.5,-2.9297 0,-1.9531 -0.5,-2.9297 -0.5,-0.9765 -1.5,-0.9765 z m 0,-1.0156 q 1.5937,0 2.4375,1.2656 0.8437,1.2656 0.8437,3.6562 0,2.3906 -0.8437,3.6563 -0.8438,1.2656 -2.4375,1.2656 -1.5781,0 -2.4219,-1.2656 -0.8437,-1.2657 -0.8437,-3.6563 0,-2.3906 0.8437,-3.6562 0.8438,-1.2656 2.4219,-1.2656 z m 8.271,1.0156 q -0.9844,0 -1.4844,0.9765 -0.5,0.9766 -0.5,2.9297 0,1.9532 0.5,2.9297 0.5,0.9766 1.4844,0.9766 1,0 1.5,-0.9766 0.5,-0.9765 0.5,-2.9297 0,-1.9531 -0.5,-2.9297 -0.5,-0.9765 -1.5,-0.9765 z m 0,-1.0156 q 1.5937,0 2.4375,1.2656 0.8437,1.2656 0.8437,3.6562 0,2.3906 -0.8437,3.6563 -0.8438,1.2656 -2.4375,1.2656 -1.5781,0 -2.4219,-1.2656 -0.8437,-1.2657 -0.8437,-3.6563 0,-2.3906 0.8437,-3.6562 0.8438,-1.2656 2.4219,-1.2656 z"
       style="stroke:none" />
  </g>
  <g
     id="g179"
     style="font-size:13px;font-family:SansSerif;color-interpolation:linearRGB;fill:#262626;stroke:#262626;color-rendering:optimizeQuality;image-rendering:optimizeQuality;text-rendering:geometricPrecision"
     transform="translate(40.5781,111.1562)">
    <path
       inkscape:connector-curvature="0"
       id="path181"
       d="m -29.7031,-0.75 q -0.875,0 -1.375,0.5938 -0.5,0.5937 -0.5,1.6093 0,1.0313 0.5,1.625 0.5,0.5938 1.375,0.5938 0.8593,0 1.3593,-0.5938 0.5,-0.5937 0.5,-1.625 0,-1.0156 -0.5,-1.6093 -0.5,-0.5938 -1.3593,-0.5938 z m 2.5469,-4.0156 0,1.1718 q -0.4844,-0.2343 -0.9766,-0.3515 -0.4922,-0.1172 -0.9766,-0.1172 -1.2656,0 -1.9375,0.8516 -0.6719,0.8515 -0.7656,2.5859 0.375,-0.5469 0.9375,-0.8438 0.5625,-0.2968 1.25,-0.2968 1.4219,0 2.25,0.8672 0.8281,0.8672 0.8281,2.3515 0,1.4688 -0.8672,2.3516 -0.8671,0.8828 -2.289,0.8828 -1.6563,0 -2.5235,-1.2656 -0.8672,-1.2657 -0.8672,-3.6563 0,-2.2344 1.0704,-3.5781 1.0703,-1.3437 2.8672,-1.3437 0.4687,0 0.9609,0.1015 0.4922,0.1016 1.0391,0.2891 z m 5.5522,0.625 q -0.9844,0 -1.4844,0.9765 -0.5,0.9766 -0.5,2.9297 0,1.9532 0.5,2.9297 0.5,0.9766 1.4844,0.9766 1,0 1.5,-0.9766 0.5,-0.9765 0.5,-2.9297 0,-1.9531 -0.5,-2.9297 -0.5,-0.9765 -1.5,-0.9765 z m 0,-1.0156 q 1.5937,0 2.4375,1.2656 0.8437,1.2656 0.8437,3.6562 0,2.3906 -0.8437,3.6563 -0.8438,1.2656 -2.4375,1.2656 -1.5781,0 -2.4219,-1.2656 -0.8437,-1.2657 -0.8437,-3.6563 0,-2.3906 0.8437,-3.6562 0.8438,-1.2656 2.4219,-1.2656 z m 8.271,1.0156 q -0.9844,0 -1.4844,0.9765 -0.5,0.9766 -0.5,2.9297 0,1.9532 0.5,2.9297 0.5,0.9766 1.4844,0.9766 1,0 1.5,-0.9766 0.5,-0.9765 0.5,-2.9297 0,-1.9531 -0.5,-2.9297 -0.5,-0.9765 -1.5,-0.9765 z m 0,-1.0156 q 1.5937,0 2.4375,1.2656 0.8437,1.2656 0.8437,3.6562 0,2.3906 -0.8437,3.6563 -0.8438,1.2656 -2.4375,1.2656 -1.5781,0 -2.4219,-1.2656 -0.8437,-1.2657 -0.8437,-3.6563 0,-2.3906 0.8437,-3.6562 0.8438,-1.2656 2.4219,-1.2656 z m 8.271,1.0156 q -0.9844,0 -1.4844,0.9765 -0.5,0.9766 -0.5,2.9297 0,1.9532 0.5,2.9297 0.5,0.9766 1.4844,0.9766 1,0 1.5,-0.9766 0.5,-0.9765 0.5,-2.9297 0,-1.9531 -0.5,-2.9297 -0.5,-0.9765 -1.5,-0.9765 z m 0,-1.0156 q 1.5937,0 2.4375,1.2656 0.8437,1.2656 0.8437,3.6562 0,2.3906 -0.8437,3.6563 -0.8438,1.2656 -2.4375,1.2656 -1.5781,0 -2.4219,-1.2656 -0.8437,-1.2657 -0.8437,-3.6563 0,-2.3906 0.8437,-3.6562 0.8438,-1.2656 2.4219,-1.2656 z"
       style="stroke:none" />
  </g>
  <g
     id="g183"
     style="font-size:13px;font-family:SansSerif;color-interpolation:linearRGB;fill:#262626;stroke:#262626;color-rendering:optimizeQuality;image-rendering:optimizeQuality;text-rendering:geometricPrecision"
     transform="translate(40.5781,75.8229)">
    <path
       inkscape:connector-curvature="0"
       id="path185"
       d="m -29.875,0 q -0.9062,0 -1.4297,0.4922 -0.5234,0.4922 -0.5234,1.3359 0,0.8594 0.5234,1.3516 0.5235,0.4922 1.4297,0.4922 0.9219,0 1.4453,-0.4922 0.5235,-0.4922 0.5235,-1.3516 0,-0.8437 -0.5235,-1.3359 Q -28.9531,0 -29.875,0 Z m -1.2812,-0.5469 q -0.8126,-0.2031 -1.2735,-0.7656 -0.4609,-0.5625 -0.4609,-1.375 0,-1.1406 0.8047,-1.8047 0.8047,-0.664 2.2109,-0.664 1.4219,0 2.2266,0.664 0.8046,0.6641 0.8046,1.8047 0,0.8125 -0.4609,1.375 -0.4609,0.5625 -1.2734,0.7656 0.9219,0.2188 1.4375,0.8438 0.5156,0.625 0.5156,1.5312 0,1.3907 -0.8359,2.125 -0.836,0.7344 -2.4141,0.7344 -1.5625,0 -2.4062,-0.7344 -0.8438,-0.7343 -0.8438,-2.125 0,-0.9062 0.5234,-1.5312 0.5235,-0.625 1.4454,-0.8438 z m -0.4688,-2.0312 q 0,0.75 0.4609,1.1562 0.461,0.4063 1.2891,0.4063 0.8281,0 1.2969,-0.4063 0.4687,-0.4062 0.4687,-1.1562 0,-0.7344 -0.4687,-1.1485 -0.4688,-0.414 -1.2969,-0.414 -0.8281,0 -1.2891,0.414 -0.4609,0.4141 -0.4609,1.1485 z m 10.021,-1.5625 q -0.9844,0 -1.4844,0.9765 -0.5,0.9766 -0.5,2.9297 0,1.9532 0.5,2.9297 0.5,0.9766 1.4844,0.9766 1,0 1.5,-0.9766 0.5,-0.9765 0.5,-2.9297 0,-1.9531 -0.5,-2.9297 -0.5,-0.9765 -1.5,-0.9765 z m 0,-1.0156 q 1.5937,0 2.4375,1.2656 0.8437,1.2656 0.8437,3.6562 0,2.3906 -0.8437,3.6563 -0.8438,1.2656 -2.4375,1.2656 -1.5781,0 -2.4219,-1.2656 -0.8437,-1.2657 -0.8437,-3.6563 0,-2.3906 0.8437,-3.6562 0.8438,-1.2656 2.4219,-1.2656 z m 8.271,1.0156 q -0.9844,0 -1.4844,0.9765 -0.5,0.9766 -0.5,2.9297 0,1.9532 0.5,2.9297 0.5,0.9766 1.4844,0.9766 1,0 1.5,-0.9766 0.5,-0.9765 0.5,-2.9297 0,-1.9531 -0.5,-2.9297 -0.5,-0.9765 -1.5,-0.9765 z m 0,-1.0156 q 1.5937,0 2.4375,1.2656 0.8437,1.2656 0.8437,3.6562 0,2.3906 -0.8437,3.6563 -0.8438,1.2656 -2.4375,1.2656 -1.5781,0 -2.4219,-1.2656 -0.8437,-1.2657 -0.8437,-3.6563 0,-2.3906 0.8437,-3.6562 0.8438,-1.2656 2.4219,-1.2656 z m 8.271,1.0156 q -0.9844,0 -1.4844,0.9765 -0.5,0.9766 -0.5,2.9297 0,1.9532 0.5,2.9297 0.5,0.9766 1.4844,0.9766 1,0 1.5,-0.9766 0.5,-0.9765 0.5,-2.9297 0,-1.9531 -0.5,-2.9297 -0.5,-0.9765 -1.5,-0.9765 z m 0,-1.0156 q 1.5937,0 2.4375,1.2656 0.8437,1.2656 0.8437,3.6562 0,2.3906 -0.8437,3.6563 -0.8438,1.2656 -2.4375,1.2656 -1.5781,0 -2.4219,-1.2656 -0.8437,-1.2657 -0.8437,-3.6563 0,-2.3906 0.8437,-3.6562 0.8438,-1.2656 2.4219,-1.2656 z"
       style="stroke:none" />
  </g>
  <g
     id="g187"
     style="font-size:13px;font-family:SansSerif;color-interpolation:linearRGB;fill:#262626;stroke:#262626;color-rendering:optimizeQuality;image-rendering:optimizeQuality;text-rendering:geometricPrecision"
     transform="translate(40.5781,40.4895)">
    <path
       inkscape:connector-curvature="0"
       id="path189"
       d="m -40.3906,3.4219 2.0937,0 0,-7.2344 -2.2812,0.4531 0,-1.1562 2.2656,-0.4688 1.2969,0 0,8.4063 2.0937,0 0,1.0781 -5.4687,0 0,-1.0781 z m 10.7866,-7.5625 q -0.9844,0 -1.4844,0.9765 -0.5,0.9766 -0.5,2.9297 0,1.9532 0.5,2.9297 0.5,0.9766 1.4844,0.9766 1,0 1.5,-0.9766 0.5,-0.9765 0.5,-2.9297 0,-1.9531 -0.5,-2.9297 -0.5,-0.9765 -1.5,-0.9765 z m 0,-1.0156 q 1.5937,0 2.4375,1.2656 0.8437,1.2656 0.8437,3.6562 0,2.3906 -0.8437,3.6563 -0.8438,1.2656 -2.4375,1.2656 -1.5781,0 -2.4219,-1.2656 -0.8437,-1.2657 -0.8437,-3.6563 0,-2.3906 0.8437,-3.6562 0.8438,-1.2656 2.4219,-1.2656 z m 8.271,1.0156 q -0.9844,0 -1.4844,0.9765 -0.5,0.9766 -0.5,2.9297 0,1.9532 0.5,2.9297 0.5,0.9766 1.4844,0.9766 1,0 1.5,-0.9766 0.5,-0.9765 0.5,-2.9297 0,-1.9531 -0.5,-2.9297 -0.5,-0.9765 -1.5,-0.9765 z m 0,-1.0156 q 1.5937,0 2.4375,1.2656 0.8437,1.2656 0.8437,3.6562 0,2.3906 -0.8437,3.6563 -0.8438,1.2656 -2.4375,1.2656 -1.5781,0 -2.4219,-1.2656 -0.8437,-1.2657 -0.8437,-3.6563 0,-2.3906 0.8437,-3.6562 0.8438,-1.2656 2.4219,-1.2656 z m 8.271,1.0156 q -0.9844,0 -1.4844,0.9765 -0.5,0.9766 -0.5,2.9297 0,1.9532 0.5,2.9297 0.5,0.9766 1.4844,0.9766 1,0 1.5,-0.9766 0.5,-0.9765 0.5,-2.9297 0,-1.9531 -0.5,-2.9297 -0.5,-0.9765 -1.5,-0.9765 z m 0,-1.0156 q 1.5937,0 2.4375,1.2656 0.8437,1.2656 0.8437,3.6562 0,2.3906 -0.8437,3.6563 -0.8438,1.2656 -2.4375,1.2656 -1.5781,0 -2.4219,-1.2656 -0.8437,-1.2657 -0.8437,-3.6563 0,-2.3906 0.8437,-3.6562 0.8438,-1.2656 2.4219,-1.2656 z m 8.271,1.0156 q -0.9844,0 -1.4844,0.9765 -0.5,0.9766 -0.5,2.9297 0,1.9532 0.5,2.9297 0.5,0.9766 1.4844,0.9766 1,0 1.5,-0.9766 0.5,-0.9765 0.5,-2.9297 0,-1.9531 -0.5,-2.9297 -0.5,-0.9765 -1.5,-0.9765 z m 0,-1.0156 q 1.5937,0 2.4375,1.2656 0.8437,1.2656 0.8437,3.6562 0,2.3906 -0.8437,3.6563 -0.8438,1.2656 -2.4375,1.2656 -1.5781,0 -2.4219,-1.2656 -0.8437,-1.2657 -0.8437,-3.6563 0,-2.3906 0.8437,-3.6562 0.8438,-1.2656 2.4219,-1.2656 z"
       style="stroke:none" />
  </g>
  <g
     id="g191"
     style="font-size:13px;font-family:SansSerif;color-interpolation:linearRGB;fill:#262626;stroke:#262626;color-rendering:optimizeQuality;image-rendering:optimizeQuality;text-rendering:geometricPrecision"
     transform="translate(40.5781,5.1562)">
    <path
       inkscape:connector-curvature="0"
       id="path193"
       d="m -40.3906,3.4219 2.0937,0 0,-7.2344 -2.2812,0.4531 0,-1.1562 2.2656,-0.4688 1.2969,0 0,8.4063 2.0937,0 0,1.0781 -5.4687,0 0,-1.0781 z m 9.1616,0 4.4687,0 0,1.0781 -6.0156,0 0,-1.0781 q 0.7344,-0.75 1.9922,-2.0235 1.2578,-1.2734 1.5859,-1.6484 0.6094,-0.6875 0.8516,-1.1719 0.2422,-0.4843 0.2422,-0.9375 0,-0.7656 -0.5234,-1.2344 -0.5235,-0.4687 -1.3829,-0.4687 -0.6093,0 -1.2734,0.2031 -0.6641,0.2032 -1.4297,0.6406 l 0,-1.2968 q 0.7813,-0.3125 1.4531,-0.4766 0.6719,-0.164 1.2188,-0.164 1.4844,0 2.3594,0.7421 0.875,0.7422 0.875,1.9766 0,0.5781 -0.2188,1.1016 -0.2187,0.5234 -0.7969,1.2265 -0.1562,0.1875 -1.0078,1.0703 -0.8515,0.8829 -2.3984,2.461 z m 9.896,-7.5625 q -0.9844,0 -1.4844,0.9765 -0.5,0.9766 -0.5,2.9297 0,1.9532 0.5,2.9297 0.5,0.9766 1.4844,0.9766 1,0 1.5,-0.9766 0.5,-0.9765 0.5,-2.9297 0,-1.9531 -0.5,-2.9297 -0.5,-0.9765 -1.5,-0.9765 z m 0,-1.0156 q 1.5937,0 2.4375,1.2656 0.8437,1.2656 0.8437,3.6562 0,2.3906 -0.8437,3.6563 -0.8438,1.2656 -2.4375,1.2656 -1.5781,0 -2.4219,-1.2656 -0.8437,-1.2657 -0.8437,-3.6563 0,-2.3906 0.8437,-3.6562 0.8438,-1.2656 2.4219,-1.2656 z m 8.271,1.0156 q -0.9844,0 -1.4844,0.9765 -0.5,0.9766 -0.5,2.9297 0,1.9532 0.5,2.9297 0.5,0.9766 1.4844,0.9766 1,0 1.5,-0.9766 0.5,-0.9765 0.5,-2.9297 0,-1.9531 -0.5,-2.9297 -0.5,-0.9765 -1.5,-0.9765 z m 0,-1.0156 q 1.5937,0 2.4375,1.2656 0.8437,1.2656 0.8437,3.6562 0,2.3906 -0.8437,3.6563 -0.8438,1.2656 -2.4375,1.2656 -1.5781,0 -2.4219,-1.2656 -0.8437,-1.2657 -0.8437,-3.6563 0,-2.3906 0.8437,-3.6562 0.8438,-1.2656 2.4219,-1.2656 z m 8.271,1.0156 q -0.9844,0 -1.4844,0.9765 -0.5,0.9766 -0.5,2.9297 0,1.9532 0.5,2.9297 0.5,0.9766 1.4844,0.9766 1,0 1.5,-0.9766 0.5,-0.9765 0.5,-2.9297 0,-1.9531 -0.5,-2.9297 -0.5,-0.9765 -1.5,-0.9765 z m 0,-1.0156 q 1.5937,0 2.4375,1.2656 0.8437,1.2656 0.8437,3.6562 0,2.3906 -0.8437,3.6563 -0.8438,1.2656 -2.4375,1.2656 -1.5781,0 -2.4219,-1.2656 -0.8437,-1.2657 -0.8437,-3.6563 0,-2.3906 0.8437,-3.6562 0.8438,-1.2656 2.4219,-1.2656 z"
       style="stroke:none" />
  </g>
  <g
     id="g299"
     style="color-interpolation:linearRGB;fill:#262626;stroke:#262626;color-rendering:optimizeQuality;image-rendering:optimizeQuality;text-rendering:geometricPrecision"
     transform="matrix(0.65631769,0,0,1,-15.297986,-15.8438)">
    <line
       id="line301"
       y1="233"
       x2="646"
       x1="93"
       style="fill:none"
       y2="233" />
  </g>
  <g
     id="g195"
     style="color-interpolation:sRGB;fill:#352a86;stroke:#352a86;color-rendering:optimizeSpeed;image-rendering:optimizeSpeed;shape-rendering:crispEdges;text-rendering:optimizeSpeed"
     transform="matrix(0.65433074,0,0,1,-14.960474,-15.873993)">
    <path
       inkscape:connector-curvature="0"
       id="path197"
       d="m 92.9447,233 0,0 5.2397,0 z"
       style="stroke:none" />
    <path
       inkscape:connector-curvature="0"
       id="path199"
       d="m 92.9447,233 0,0 5.2397,0 0,0 z"
       style="stroke:none" />
    <path
       inkscape:connector-curvature="0"
       id="path201"
       d="m 99.3365,233 10.3687,0 0,0 -10.3687,0 z"
       style="stroke:none" />
    <path
       inkscape:connector-curvature="0"
       id="path203"
       d="m 110.8573,233 10.3687,0 0,-0.1767 -10.3687,0 z"
       style="stroke:none" />
    <path
       inkscape:connector-curvature="0"
       id="path205"
       d="m 122.3781,233 10.3688,0 0,-5.3883 -10.3688,0 z"
       style="stroke:none" />
    <path
       inkscape:connector-curvature="0"
       id="path207"
       d="m 133.899,233 10.3687,0 0,-43.354 -10.3687,0 z"
       style="stroke:none" />
    <path
       inkscape:connector-curvature="0"
       id="path209"
       d="m 145.4198,233 10.3687,0 0,-104.9047 -10.3687,0 z"
       style="stroke:none" />
    <path
       inkscape:connector-curvature="0"
       id="path211"
       d="m 156.9406,233 10.3688,0 0,-147.4813 -10.3688,0 z"
       style="stroke:none" />
    <path
       inkscape:connector-curvature="0"
       id="path213"
       d="m 168.4615,233 10.3687,0 0,-110.0633 -10.3687,0 z"
       style="stroke:none" />
    <path
       inkscape:connector-curvature="0"
       id="path215"
       d="m 179.9823,233 10.3687,0 0,-177.762 -10.3687,0 z"
       style="stroke:none" />
    <path
       inkscape:connector-curvature="0"
       id="path217"
       d="m 191.5031,233 10.3688,0 0,-169.759 -10.3688,0 z"
       style="stroke:none" />
    <path
       inkscape:connector-curvature="0"
       id="path219"
       d="m 203.024,233 10.3687,0 0,-152.958 -10.3687,0 z"
       style="stroke:none" />
    <path
       inkscape:connector-curvature="0"
       id="path221"
       d="m 214.5448,233 10.3687,0 0,-100.647 -10.3687,0 z"
       style="stroke:none" />
    <path
       inkscape:connector-curvature="0"
       id="path223"
       d="m 226.0656,233 10.3688,0 0,-163.5933 -10.3688,0 z"
       style="stroke:none" />
    <path
       inkscape:connector-curvature="0"
       id="path225"
       d="m 237.5865,233 10.3687,0 0,-166.9147 -10.3687,0 z"
       style="stroke:none" />
    <path
       inkscape:connector-curvature="0"
       id="path227"
       d="m 249.1073,233 10.3687,0 0,-151.5623 -10.3687,0 z"
       style="stroke:none" />
    <path
       inkscape:connector-curvature="0"
       id="path229"
       d="m 260.6281,233 10.3688,0 0,-138.2063 -10.3688,0 z"
       style="stroke:none" />
    <path
       inkscape:connector-curvature="0"
       id="path231"
       d="m 272.149,233 10.3687,0 0,-118.2077 -10.3687,0 z"
       style="stroke:none" />
    <path
       inkscape:connector-curvature="0"
       id="path233"
       d="m 283.6698,233 10.3687,0 0,-101.5303 -10.3687,0 z"
       style="stroke:none" />
    <path
       inkscape:connector-curvature="0"
       id="path235"
       d="m 295.1906,233 10.3688,0 0,-85.648 -10.3688,0 z"
       style="stroke:none" />
    <path
       inkscape:connector-curvature="0"
       id="path237"
       d="m 306.7115,233 10.3687,0 0,-84.111 -10.3687,0 z"
       style="stroke:none" />
    <path
       inkscape:connector-curvature="0"
       id="path239"
       d="m 318.2323,233 10.3687,0 0,-59.5543 -10.3687,0 z"
       style="stroke:none" />
    <path
       inkscape:connector-curvature="0"
       id="path241"
       d="m 329.7531,233 10.3688,0 0,-92.7853 -10.3688,0 z"
       style="stroke:none" />
    <path
       inkscape:connector-curvature="0"
       id="path243"
       d="m 341.274,233 10.3687,0 0,-101.8837 -10.3687,0 z"
       style="stroke:none" />
    <path
       inkscape:connector-curvature="0"
       id="path245"
       d="m 352.7948,233 10.3687,0 0,-116.1053 -10.3687,0 z"
       style="stroke:none" />
    <path
       inkscape:connector-curvature="0"
       id="path247"
       d="m 364.3156,233 10.3688,0 0,-124.285 -10.3688,0 z"
       style="stroke:none" />
    <path
       inkscape:connector-curvature="0"
       id="path249"
       d="m 375.8365,233 10.3687,0 0,-82.8743 -10.3687,0 z"
       style="stroke:none" />
    <path
       inkscape:connector-curvature="0"
       id="path251"
       d="m 387.3573,233 10.3687,0 0,-117.289 -10.3687,0 z"
       style="stroke:none" />
    <path
       inkscape:connector-curvature="0"
       id="path253"
       d="m 398.8781,233 10.3688,0 0,-106.424 -10.3688,0 z"
       style="stroke:none" />
    <path
       inkscape:connector-curvature="0"
       id="path255"
       d="m 410.399,233 10.3687,0 0,-92.803 -10.3687,0 z"
       style="stroke:none" />
    <path
       inkscape:connector-curvature="0"
       id="path257"
       d="m 421.9198,233 10.3687,0 0,-53.9717 -10.3687,0 z"
       style="stroke:none" />
    <path
       inkscape:connector-curvature="0"
       id="path259"
       d="m 433.4406,233 10.3688,0 0,-73.8467 -10.3688,0 z"
       style="stroke:none" />
    <path
       inkscape:connector-curvature="0"
       id="path261"
       d="m 444.9615,233 10.3687,0 0,-71.7973 -10.3687,0 z"
       style="stroke:none" />
    <path
       inkscape:connector-curvature="0"
       id="path263"
       d="m 456.4823,233 10.3687,0 0,-74.4473 -10.3687,0 z"
       style="stroke:none" />
    <path
       inkscape:connector-curvature="0"
       id="path265"
       d="m 468.0031,233 10.3688,0 0,-75.0303 -10.3688,0 z"
       style="stroke:none" />
    <path
       inkscape:connector-curvature="0"
       id="path267"
       d="m 479.524,233 10.3687,0 0,-48.0533 -10.3687,0 z"
       style="stroke:none" />
    <path
       inkscape:connector-curvature="0"
       id="path269"
       d="m 491.0448,233 10.3687,0 0,-66.409 -10.3687,0 z"
       style="stroke:none" />
    <path
       inkscape:connector-curvature="0"
       id="path271"
       d="m 502.5656,233 10.3688,0 0,-56.816 -10.3688,0 z"
       style="stroke:none" />
    <path
       inkscape:connector-curvature="0"
       id="path273"
       d="m 514.0865,233 10.3687,0 0,-51.304 -10.3687,0 z"
       style="stroke:none" />
    <path
       inkscape:connector-curvature="0"
       id="path275"
       d="m 525.6073,233 10.3687,0 0,-30.2277 -10.3687,0 z"
       style="stroke:none" />
    <path
       inkscape:connector-curvature="0"
       id="path277"
       d="m 537.1281,233 10.3688,0 0,-39.644 -10.3688,0 z"
       style="stroke:none" />
    <path
       inkscape:connector-curvature="0"
       id="path279"
       d="m 548.649,233 10.3687,0 0,-33.655 -10.3687,0 z"
       style="stroke:none" />
    <path
       inkscape:connector-curvature="0"
       id="path281"
       d="m 560.1698,233 10.3687,0 0,-28.62 -10.3687,0 z"
       style="stroke:none" />
    <path
       inkscape:connector-curvature="0"
       id="path283"
       d="m 571.6906,233 10.3688,0 0,-22.7017 -10.3688,0 z"
       style="stroke:none" />
    <path
       inkscape:connector-curvature="0"
       id="path285"
       d="m 583.2115,233 10.3687,0 0,-13.3913 -10.3687,0 z"
       style="stroke:none" />
    <path
       inkscape:connector-curvature="0"
       id="path287"
       d="m 594.7323,233 10.3687,0 0,-17.596 -10.3687,0 z"
       style="stroke:none" />
    <path
       inkscape:connector-curvature="0"
       id="path289"
       d="m 606.2531,233 10.3688,0 0,-15.2287 -10.3688,0 z"
       style="stroke:none" />
    <path
       inkscape:connector-curvature="0"
       id="path291"
       d="m 617.774,233 10.3687,0 0,-190.6233 -10.3687,0 z"
       style="stroke:none" />
    <path
       inkscape:connector-curvature="0"
       id="path293"
       d="m 629.2948,233 10.3687,0 0,0 -10.3687,0 z"
       style="stroke:none" />
    <path
       inkscape:connector-curvature="0"
       id="path295"
       d="m 646.0553,233 -5.2397,0 0,0 5.2397,0 z"
       style="stroke:none" />
    <path
       inkscape:connector-curvature="0"
       id="path297"
       d="m 646.0553,233 -5.2397,0 5.2397,0 z"
       style="stroke:none" />
  </g>
</svg>
