<?xml version="1.0" encoding="UTF-8" standalone="no"?>
<svg
   xmlns:dc="http://purl.org/dc/elements/1.1/"
   xmlns:cc="http://creativecommons.org/ns#"
   xmlns:rdf="http://www.w3.org/1999/02/22-rdf-syntax-ns#"
   xmlns:svg="http://www.w3.org/2000/svg"
   xmlns="http://www.w3.org/2000/svg"
   xmlns:xlink="http://www.w3.org/1999/xlink"
   xmlns:sodipodi="http://sodipodi.sourceforge.net/DTD/sodipodi-0.dtd"
   xmlns:inkscape="http://www.inkscape.org/namespaces/inkscape"
   width="542"
   height="362"
   id="svg2"
   version="1.1"
   inkscape:version="0.91 r13725"
   sodipodi:docname="Architecture.svg">
  <metadata
     id="metadata194">
    <rdf:RDF>
      <cc:Work
         rdf:about="">
        <dc:format>image/svg+xml</dc:format>
        <dc:type
           rdf:resource="http://purl.org/dc/dcmitype/StillImage" />
        <dc:title></dc:title>
      </cc:Work>
    </rdf:RDF>
  </metadata>
  <defs
     id="defs192">
    <defs
       id="defs72">
      <path
         id="i"
         d="m 63,-220 0,92 138,0 0,28 -138,0 0,100 -33,0 0,-248 175,0 0,28 -142,0"
         inkscape:connector-curvature="0" />
      <path
         id="j"
         d="M 114,-163 C 36,-179 61,-72 57,0 l -32,0 -1,-190 30,0 c 1,12 -1,29 2,39 6,-27 23,-49 58,-41 l 0,29"
         inkscape:connector-curvature="0" />
      <path
         id="k"
         d="m 100,-194 c 62,-1 85,37 85,99 1,63 -27,99 -86,99 -59,0 -83,-39 -84,-99 0,-66 28,-99 85,-99 z m -1,174 c 44,1 53,-31 53,-75 0,-43 -8,-75 -51,-75 -43,0 -53,32 -53,75 0,43 10,74 51,75"
         inkscape:connector-curvature="0" />
      <path
         id="l"
         d="m 117,-194 c 89,-4 53,116 60,194 l -32,0 0,-121 c 0,-31 -8,-49 -39,-48 -72,2 -44,102 -49,169 l -32,0 -1,-190 30,0 c 1,10 -1,24 2,32 11,-22 29,-35 61,-36"
         inkscape:connector-curvature="0" />
      <path
         id="m"
         d="m 59,-47 c -2,24 18,29 38,22 l 0,24 C 64,9 27,4 27,-40 l 0,-127 -22,0 0,-23 24,0 9,-43 21,0 0,43 35,0 0,23 -35,0 0,120"
         inkscape:connector-curvature="0" />
      <path
         id="n"
         d="m 100,-194 c 63,0 86,42 84,106 l -135,0 c 0,40 14,67 53,68 26,1 43,-12 49,-29 l 28,8 C 168,-13 142,4 102,4 44,4 14,-33 15,-96 c 1,-61 26,-98 85,-98 z m 52,81 c 6,-60 -76,-77 -97,-28 -3,7 -6,17 -6,28 l 103,0"
         inkscape:connector-curvature="0" />
      <path
         id="o"
         d="m 85,-194 c 31,0 48,13 60,33 l -1,-100 32,0 1,261 -30,0 c -2,-10 0,-23 -3,-31 C 134,-8 116,4 85,4 32,4 16,-35 15,-94 c 0,-66 23,-100 70,-100 z m 9,24 c -40,0 -46,34 -46,75 0,40 6,74 45,74 42,0 51,-32 51,-76 0,-42 -9,-74 -50,-73"
         inkscape:connector-curvature="0" />
      <g
         id="b">
        <use
           id="use82"
           xlink:href="#i"
           transform="scale(0.05,0.05)"
           x="0"
           y="0"
           width="100%"
           height="100%" />
        <use
           id="use84"
           xlink:href="#j"
           transform="matrix(0.05,0,0,0.05,10.95,0)"
           x="0"
           y="0"
           width="100%"
           height="100%" />
        <use
           id="use86"
           xlink:href="#k"
           transform="matrix(0.05,0,0,0.05,16.9,0)"
           x="0"
           y="0"
           width="100%"
           height="100%" />
        <use
           id="use88"
           xlink:href="#l"
           transform="matrix(0.05,0,0,0.05,26.9,0)"
           x="0"
           y="0"
           width="100%"
           height="100%" />
        <use
           id="use90"
           xlink:href="#m"
           transform="matrix(0.05,0,0,0.05,36.9,0)"
           x="0"
           y="0"
           width="100%"
           height="100%" />
        <use
           id="use92"
           xlink:href="#n"
           transform="matrix(0.05,0,0,0.05,41.9,0)"
           x="0"
           y="0"
           width="100%"
           height="100%" />
        <use
           id="use94"
           xlink:href="#l"
           transform="matrix(0.05,0,0,0.05,51.9,0)"
           x="0"
           y="0"
           width="100%"
           height="100%" />
        <use
           id="use96"
           xlink:href="#o"
           transform="matrix(0.05,0,0,0.05,61.9,0)"
           x="0"
           y="0"
           width="100%"
           height="100%" />
      </g>
      <path
         id="p"
         d="m 160,-131 c 35,5 61,23 61,61 0,87 -106,68 -191,70 l 0,-248 c 76,3 177,-17 177,60 0,33 -19,50 -47,57 z m -97,-11 c 50,-1 110,9 110,-42 0,-47 -63,-36 -110,-37 l 0,79 z m 0,115 c 55,-2 124,14 124,-45 0,-56 -70,-42 -124,-44 l 0,89"
         inkscape:connector-curvature="0" />
      <path
         id="q"
         d="M 141,-36 C 126,-15 110,5 73,4 37,3 15,-17 15,-53 c -1,-64 63,-63 125,-63 3,-35 -9,-54 -41,-54 -24,1 -41,7 -42,31 l -33,-3 c 5,-37 33,-52 76,-52 45,0 72,20 72,64 l 0,82 c -1,20 7,32 28,27 l 0,20 C 169,8 139,-3 141,-36 Z M 48,-53 c 0,20 12,33 32,33 41,-3 63,-29 60,-74 -43,2 -92,-5 -92,41"
         inkscape:connector-curvature="0" />
      <path
         id="r"
         d="m 96,-169 c -40,0 -48,33 -48,73 0,40 9,75 48,75 24,0 41,-14 43,-38 l 32,2 C 165,-20 140,4 97,4 38,4 21,-37 15,-95 c -10,-93 101,-131 147,-64 4,7 5,14 7,22 l -32,3 c -4,-21 -16,-35 -41,-35"
         inkscape:connector-curvature="0" />
      <path
         id="s"
         d="m 143,0 -64,-87 -23,19 0,68 -32,0 0,-261 32,0 0,163 83,-92 37,0 -77,82 82,108 -38,0"
         inkscape:connector-curvature="0" />
      <g
         id="c">
        <use
           id="use103"
           xlink:href="#p"
           transform="scale(0.05,0.05)"
           x="0"
           y="0"
           width="100%"
           height="100%" />
        <use
           id="use105"
           xlink:href="#q"
           transform="matrix(0.05,0,0,0.05,12,0)"
           x="0"
           y="0"
           width="100%"
           height="100%" />
        <use
           id="use107"
           xlink:href="#r"
           transform="matrix(0.05,0,0,0.05,22,0)"
           x="0"
           y="0"
           width="100%"
           height="100%" />
        <use
           id="use109"
           xlink:href="#s"
           transform="matrix(0.05,0,0,0.05,31,0)"
           x="0"
           y="0"
           width="100%"
           height="100%" />
        <use
           id="use111"
           xlink:href="#n"
           transform="matrix(0.05,0,0,0.05,40,0)"
           x="0"
           y="0"
           width="100%"
           height="100%" />
        <use
           id="use113"
           xlink:href="#l"
           transform="matrix(0.05,0,0,0.05,50,0)"
           x="0"
           y="0"
           width="100%"
           height="100%" />
        <use
           id="use115"
           xlink:href="#o"
           transform="matrix(0.05,0,0,0.05,60,0)"
           x="0"
           y="0"
           width="100%"
           height="100%" />
      </g>
      <path
         id="t"
         d="m 18,-100 0,-36 175,-74 0,27 -151,65 151,64 0,27"
         inkscape:connector-curvature="0" />
      <path
         id="u"
         d="m 30,0 0,-248 187,0 0,28 -154,0 0,79 144,0 0,27 -144,0 0,87 162,0 0,27 -195,0"
         inkscape:connector-curvature="0" />
      <path
         id="v"
         d="m 212,-179 c -10,-28 -35,-45 -73,-45 -59,0 -87,40 -87,99 0,60 29,101 89,101 43,0 62,-24 78,-52 l 27,14 C 228,-24 195,4 139,4 59,4 22,-46 18,-125 c -6,-104 99,-153 187,-111 19,9 31,26 39,46"
         inkscape:connector-curvature="0" />
      <path
         id="w"
         d="M 143,4 C 61,4 22,-44 18,-125 c -5,-107 100,-154 193,-111 17,8 29,25 37,43 l -32,9 c -13,-25 -37,-40 -76,-40 -61,0 -88,39 -88,99 0,61 29,100 91,101 35,0 62,-11 79,-27 l 0,-45 -74,0 0,-28 105,0 0,86 C 228,-13 192,4 143,4"
         inkscape:connector-curvature="0" />
      <g
         id="d">
        <use
           id="use122"
           xlink:href="#t"
           transform="scale(0.05,0.05)"
           x="0"
           y="0"
           width="100%"
           height="100%" />
        <use
           id="use124"
           xlink:href="#t"
           transform="matrix(0.05,0,0,0.05,10.5,0)"
           x="0"
           y="0"
           width="100%"
           height="100%" />
        <use
           id="use126"
           xlink:href="#u"
           transform="matrix(0.05,0,0,0.05,21,0)"
           x="0"
           y="0"
           width="100%"
           height="100%" />
        <use
           id="use128"
           xlink:href="#v"
           transform="matrix(0.05,0,0,0.05,33,0)"
           x="0"
           y="0"
           width="100%"
           height="100%" />
        <use
           id="use130"
           xlink:href="#w"
           transform="matrix(0.05,0,0,0.05,45.95,0)"
           x="0"
           y="0"
           width="100%"
           height="100%" />
      </g>
      <path
         id="x"
         d="m 240,0 2,-218 C 219,-142 188,-73 162,0 L 139,0 58,-218 59,0 30,0 l 0,-248 44,0 77,211 c 21,-75 51,-140 76,-211 l 43,0 0,248 -30,0"
         inkscape:connector-curvature="0" />
      <path
         id="y"
         d="m 24,0 0,-261 32,0 0,261 -32,0"
         inkscape:connector-curvature="0" />
      <path
         id="z"
         d="m 115,-194 c 53,0 69,39 70,98 C 185,-30 162,4 115,4 84,3 66,-7 56,-30 l -2,30 -31,0 1,-261 32,0 0,101 c 10,-23 28,-34 59,-34 z m -8,174 c 40,0 45,-34 45,-75 0,-40 -5,-75 -45,-74 -42,0 -51,32 -51,76 0,43 10,73 51,73"
         inkscape:connector-curvature="0" />
      <g
         id="e">
        <use
           id="use136"
           xlink:href="#x"
           transform="scale(0.05,0.05)"
           x="0"
           y="0"
           width="100%"
           height="100%" />
        <use
           id="use138"
           xlink:href="#q"
           transform="matrix(0.05,0,0,0.05,14.95,0)"
           x="0"
           y="0"
           width="100%"
           height="100%" />
        <use
           id="use140"
           xlink:href="#m"
           transform="matrix(0.05,0,0,0.05,24.95,0)"
           x="0"
           y="0"
           width="100%"
           height="100%" />
        <use
           id="use142"
           xlink:href="#y"
           transform="matrix(0.05,0,0,0.05,29.95,0)"
           x="0"
           y="0"
           width="100%"
           height="100%" />
        <use
           id="use144"
           xlink:href="#q"
           transform="matrix(0.05,0,0,0.05,33.9,0)"
           x="0"
           y="0"
           width="100%"
           height="100%" />
        <use
           id="use146"
           xlink:href="#z"
           transform="matrix(0.05,0,0,0.05,43.9,0)"
           x="0"
           y="0"
           width="100%"
           height="100%" />
      </g>
      <path
         id="A"
         d="m 24,-231 0,-30 32,0 0,30 -32,0 z m 0,231 0,-190 32,0 0,190 -32,0"
         inkscape:connector-curvature="0" />
      <path
         id="B"
         d="m 101,-234 c -31,-9 -42,10 -38,44 l 38,0 0,23 -38,0 0,167 -31,0 0,-167 -27,0 0,-23 27,0 c -7,-52 17,-82 69,-68 l 0,24"
         inkscape:connector-curvature="0" />
      <path
         id="C"
         d="m 18,-27 0,-27 151,-64 -151,-65 0,-27 175,74 0,36"
         inkscape:connector-curvature="0" />
      <g
         id="f">
        <use
           id="use152"
           xlink:href="#A"
           transform="scale(0.05,0.05)"
           x="0"
           y="0"
           width="100%"
           height="100%" />
        <use
           id="use154"
           xlink:href="#l"
           transform="matrix(0.05,0,0,0.05,3.95,0)"
           x="0"
           y="0"
           width="100%"
           height="100%" />
        <use
           id="use156"
           xlink:href="#m"
           transform="matrix(0.05,0,0,0.05,13.95,0)"
           x="0"
           y="0"
           width="100%"
           height="100%" />
        <use
           id="use158"
           xlink:href="#n"
           transform="matrix(0.05,0,0,0.05,18.95,0)"
           x="0"
           y="0"
           width="100%"
           height="100%" />
        <use
           id="use160"
           xlink:href="#j"
           transform="matrix(0.05,0,0,0.05,28.95,0)"
           x="0"
           y="0"
           width="100%"
           height="100%" />
        <use
           id="use162"
           xlink:href="#B"
           transform="matrix(0.05,0,0,0.05,34.9,0)"
           x="0"
           y="0"
           width="100%"
           height="100%" />
        <use
           id="use164"
           xlink:href="#q"
           transform="matrix(0.05,0,0,0.05,39.9,0)"
           x="0"
           y="0"
           width="100%"
           height="100%" />
        <use
           id="use166"
           xlink:href="#r"
           transform="matrix(0.05,0,0,0.05,49.9,0)"
           x="0"
           y="0"
           width="100%"
           height="100%" />
        <use
           id="use168"
           xlink:href="#n"
           transform="matrix(0.05,0,0,0.05,58.9,0)"
           x="0"
           y="0"
           width="100%"
           height="100%" />
        <use
           id="use170"
           xlink:href="#C"
           transform="matrix(0.05,0,0,0.05,68.9,0)"
           x="0"
           y="0"
           width="100%"
           height="100%" />
        <use
           id="use172"
           xlink:href="#C"
           transform="matrix(0.05,0,0,0.05,79.4,0)"
           x="0"
           y="0"
           width="100%"
           height="100%" />
      </g>
      <path
         id="D"
         d="M 177,-190 C 167,-65 218,103 67,71 44,65 29,51 23,28 l 32,-5 c 15,47 100,32 89,-28 l 0,-30 C 133,-14 115,1 83,1 29,1 15,-40 15,-95 c 0,-56 16,-97 71,-98 29,-1 48,16 59,35 1,-10 0,-23 2,-32 l 30,0 z M 94,-22 c 36,0 50,-32 50,-73 0,-42 -14,-75 -50,-75 -39,0 -46,34 -46,75 0,41 6,73 46,73"
         inkscape:connector-curvature="0" />
      <g
         id="g">
        <use
           id="use176"
           xlink:href="#u"
           transform="scale(0.05,0.05)"
           x="0"
           y="0"
           width="100%"
           height="100%" />
        <use
           id="use178"
           xlink:href="#r"
           transform="matrix(0.05,0,0,0.05,12,0)"
           x="0"
           y="0"
           width="100%"
           height="100%" />
        <use
           id="use180"
           xlink:href="#D"
           transform="matrix(0.05,0,0,0.05,21,0)"
           x="0"
           y="0"
           width="100%"
           height="100%" />
      </g>
      <path
         id="E"
         d="m 194,0 -99,-120 -32,25 0,95 -33,0 0,-248 33,0 0,124 119,-124 40,0 -105,108 119,140 -42,0"
         inkscape:connector-curvature="0" />
      <g
         id="h">
        <use
           id="use184"
           xlink:href="#E"
           transform="scale(0.05,0.05)"
           x="0"
           y="0"
           width="100%"
           height="100%" />
        <use
           id="use186"
           xlink:href="#A"
           transform="matrix(0.05,0,0,0.05,12,0)"
           x="0"
           y="0"
           width="100%"
           height="100%" />
        <use
           id="use188"
           xlink:href="#m"
           transform="matrix(0.05,0,0,0.05,15.95,0)"
           x="0"
           y="0"
           width="100%"
           height="100%" />
      </g>
    </defs>
  </defs>
  <sodipodi:namedview
     pagecolor="#ffffff"
     bordercolor="#666666"
     borderopacity="1"
     objecttolerance="10"
     gridtolerance="10"
     guidetolerance="10"
     inkscape:pageopacity="0"
     inkscape:pageshadow="2"
     inkscape:window-width="1920"
     inkscape:window-height="1004"
     id="namedview190"
     showgrid="false"
     fit-margin-top="0"
     fit-margin-left="0"
     fit-margin-right="0"
     fit-margin-bottom="0"
     inkscape:zoom="1.18"
     inkscape:cx="88.262543"
     inkscape:cy="155.95588"
     inkscape:window-x="0"
     inkscape:window-y="24"
     inkscape:window-maximized="1"
     inkscape:current-layer="svg2" />
  <path
     style="fill:#ffffff;stroke:#000000;stroke-width:2"
     inkscape:connector-curvature="0"
     id="path8"
     d="M 6,1 C 3.24,1 1,3.24 1,6 l 0,150 c 0,2.76 2.24,5 5,5 l 530,0 c 2.76,0 5,-2.24 5,-5 L 541,6 c 0,-2.76 -2.24,-5 -5,-5 z" />
  <path
     style="fill:#ffffff;stroke:#000000"
     inkscape:connector-curvature="0"
     id="path10"
     d="m 531,11 -15,0 0,20 15,0 z" />
  <path
     style="fill:#ffffff;stroke:#000000"
     inkscape:connector-curvature="0"
     id="path12"
     d="m 521,14.33 -10,0 0,3.34 10,0 z m 0,10 -10,0 0,3.34 10,0 z" />
  <use
     height="100%"
     width="100%"
     y="0"
     x="0"
     id="use14"
     transform="translate(271,86.4)"
     xlink:href="#a" />
  <path
     style="fill:#ffffff;stroke:#000000;stroke-width:2"
     inkscape:connector-curvature="0"
     id="path16"
     d="m 271,231.4 c 0,2.17 0,2.17 0,0 l 0,-3.93 M 271,196 c 9.32,0 16.88,7.04 16.88,15.73 0,8.7 -7.56,15.74 -16.88,15.74 -9.32,0 -16.88,-7.05 -16.88,-15.74 0,-8.7 7.56,-15.73 16.88,-15.73 z" />
  <g
     style="fill:none"
     id="g18"
     transform="translate(-119,-219)">
    <path
       style="stroke:#000000;stroke-width:2"
       inkscape:connector-curvature="0"
       id="path20"
       d="m 390,395 0,-10 m -21,30 c 0,-11.05 9.4,-20 21,-20 11.6,0 21,8.95 21,20" />
    <path
       inkscape:connector-curvature="0"
       id="path22"
       d="m 369,415 c 0,-11.05 9.4,-20 21,-20 11.6,0 21,8.95 21,20 z" />
  </g>
  <path
     style="fill:#ffffff;stroke:#000000;stroke-width:2"
     inkscape:connector-curvature="0"
     id="path24"
     d="m 33.56,46 c 0,-2.76 2.24,-5 5,-5 l 484.88,0 c 2.76,0 5,2.24 5,5 l 0,30 c 0,2.76 -2.24,5 -5,5 L 38.56,81 c -2.76,0 -5,-2.24 -5,-5 z" />
  <path
     style="fill:#ffffff;stroke:#000000;stroke-width:2"
     inkscape:connector-curvature="0"
     id="path26"
     d="m 13.56,46 c 0,-2.76 2.24,-5 5,-5 l 30,0 c 2.76,0 5,2.24 5,5 l 0,10 c 0,2.76 -2.24,5 -5,5 l -30,0 c -2.76,0 -5,-2.24 -5,-5 z m 0,20 c 0,-2.76 2.24,-5 5,-5 l 30,0 c 2.76,0 5,2.24 5,5 l 0,10 c 0,2.76 -2.24,5 -5,5 l -30,0 c -2.76,0 -5,-2.24 -5,-5 z" />
  <use
     height="100%"
     width="100%"
     y="0"
     x="0"
     id="use28"
     transform="translate(234.9,64.6)"
     xlink:href="#b"
     style="" />
  <path
     style="fill:#ffffff;stroke:#000000;stroke-width:2"
     inkscape:connector-curvature="0"
     id="path30"
     d="m 33.56,106 c 0,-2.76 2.24,-5 5,-5 l 484.88,0 c 2.76,0 5,2.24 5,5 l 0,30 c 0,2.76 -2.24,5 -5,5 l -484.88,0 c -2.76,0 -5,-2.24 -5,-5 z" />
  <path
     style="fill:#ffffff;stroke:#000000;stroke-width:2"
     inkscape:connector-curvature="0"
     id="path32"
     d="m 13.56,106 c 0,-2.76 2.24,-5 5,-5 l 30,0 c 2.76,0 5,2.24 5,5 l 0,10 c 0,2.76 -2.24,5 -5,5 l -30,0 c -2.76,0 -5,-2.24 -5,-5 z m 0,20 c 0,-2.76 2.24,-5 5,-5 l 30,0 c 2.76,0 5,2.24 5,5 l 0,10 c 0,2.76 -2.24,5 -5,5 l -30,0 c -2.76,0 -5,-2.24 -5,-5 z" />
  <use
     height="100%"
     width="100%"
     y="0"
     x="0"
     id="use34"
     transform="translate(235.85,124.6)"
     xlink:href="#c"
     style="" />
  <path
     style="fill:none"
     inkscape:connector-curvature="0"
     id="path36"
     d="m 271,81 0,20" />
  <path
     style="fill:none;stroke:#000000;stroke-width:2"
     inkscape:connector-curvature="0"
     id="path38"
     d="m 271,81 0,20" />
  <path
     inkscape:connector-curvature="0"
     id="path40"
     d="m 272,81 -2,0 2,0 z" />
  <path
     style="fill:#ffffff;stroke:#000000;stroke-width:2"
     inkscape:connector-curvature="0"
     id="path42"
     d="m 1,266 c 0,-2.76 2.24,-5 5,-5 l 530,0 c 2.76,0 5,2.24 5,5 l 0,30 c 0,2.76 -2.24,5 -5,5 L 6,301 c -2.76,0 -5,-2.24 -5,-5 z" />
  <g
     id="g3633"
     style="">
    <use
       xlink:href="#d"
       transform="translate(164.125,284.6)"
       id="use44"
       x="0"
       y="0"
       width="100%"
       height="100%"
       style="" />
    <use
       xlink:href="#e"
       transform="translate(229.075,284.6)"
       id="use46"
       x="0"
       y="0"
       width="100%"
       height="100%"
       style="" />
    <use
       xlink:href="#f"
       transform="translate(287.975,284.6)"
       id="use48"
       x="0"
       y="0"
       width="100%"
       height="100%"
       style="" />
  </g>
  <path
     style="fill:none;stroke:#000000;stroke-width:2"
     inkscape:connector-curvature="0"
     id="path50"
     d="m 271,161 0,5" />
  <path
     inkscape:connector-curvature="0"
     id="path52"
     d="m 272,169 -2,0 0,-3 2,0 z" />
  <path
     style="fill:none;stroke:#000000;stroke-width:2"
     inkscape:connector-curvature="0"
     id="path54"
     d="m 271,261 0,-33.53" />
  <path
     inkscape:connector-curvature="0"
     id="path56"
     d="m 271,227.47 -1,0 0,-0.13 z m 1,0 -1,0 1,-0.13 z" />
  <path
     style="fill:#ffffff;stroke:#000000;stroke-width:2"
     inkscape:connector-curvature="0"
     id="path58"
     d="m 6,321 c -2.76,0 -5,2.24 -5,5 l 0,30 c 0,2.76 2.24,5 5,5 l 530,0 c 2.76,0 5,-2.24 5,-5 l 0,-30 c 0,-2.76 -2.24,-5 -5,-5 z" />
  <path
     style="fill:#ffffff;stroke:#000000"
     inkscape:connector-curvature="0"
     id="path60"
     d="m 531,331 -15,0 0,20 15,0 z" />
  <path
     style="fill:#ffffff;stroke:#000000"
     inkscape:connector-curvature="0"
     id="path62"
     d="m 521,334.33 -10,0 0,3.34 10,0 z m 0,10 -10,0 0,3.34 10,0 z" />
  <g
     id="g3629"
     transform="translate(-0.65,0)"
     style="">
    <use
       xlink:href="#g"
       transform="translate(242.525,344.6)"
       id="use64"
       x="0"
       y="0"
       width="100%"
       height="100%"
       style="" />
    <use
       xlink:href="#h"
       transform="translate(278.525,344.6)"
       id="use66"
       x="0"
       y="0"
       width="100%"
       height="100%"
       style="" />
  </g>
  <path
     style="fill:none;stroke:#000000;stroke-width:2"
     inkscape:connector-curvature="0"
     id="path68"
     d="m 271,301 0,20" />
  <path
     inkscape:connector-curvature="0"
     id="path70"
     d="m 272,301 -2,0 2,0 z" />
</svg>
